<?xml version="1.0" encoding="utf-8" ?>
<svg baseProfile="full" height="200mm" version="1.1" viewBox="0,0,200,200" width="200mm" xmlns="http://www.w3.org/2000/svg" xmlns:ev="http://www.w3.org/2001/xml-events" xmlns:xlink="http://www.w3.org/1999/xlink"><defs /><rect fill="#1a1a1a" height="200" width="200" x="0" y="0" /><text alignment-baseline="middle" fill="#e1ed5e" style="dominant-baseline: central; font-size:9.0px; font-family:Arial;" text-anchor="middle" x="100.0" y="100.0">2023</text><line stroke="#e1ed5e" stroke-width="0.3" x1="100.0" x2="100.0" y1="15.0" y2="10.0" /><path d="M 100.0 14.0 a86.0,86.0 0 0,1 42.46469731375804,11.215312516191453" fill="none" id="id73" stroke="none" /><text fill="#e1ed5e" style="font-size:6.75px; font-family:Arial;" text-anchor="middle"><textPath startOffset="22.20632615414155" xlink:href="#id73">January</textPath></text><path d="M 100.0 79.0 l 0.0 -5.739390796806667 a26.739390796806667,26.739390796806667 0 0,0 0.4602746571754813,0.003961729288204693 l -0.09879417790295297 5.738540444127021" fill="#ff4706" stroke="none" /><path d="M 100.36148047927253 79.00311137660856 l 0.07138384779103353 -4.1463890514747535 a25.147003474789376,25.147003474789376 0 0,0 0.43273606002147563,0.011176295734619694 l -0.14274654300737694 4.144545963597774" fill="#ff3104" stroke="none" /><path d="M 100.72285384407766 79.0124445844662 l 0.7153574608158704 -20.769903174473022 a41.78221870190306,41.78221870190306 0 0,0 0.718572920347915,0.030943261508471445 l -1.0727712135531169 20.754512186440355" fill="#f4ff19" stroke="none" /><path d="M 101.44485096284872 79.0497635885617 l 0.7150787762326679 -10.368591501880024 a31.39322026077948,31.39322026077948 0 0,0 0.5387821223568499,0.04181986218357568 l -0.8934510879518589 10.354746377507984" fill="#ff870c" stroke="none" /><path d="M 101.80526077348638 79.07773832637324 l 0.7911232755426135 -9.168807315872366 a30.202874748289247,30.202874748289247 0 0,0 0.5175836053118984,0.04915079993328852 l -0.9488320079447561 9.153830971423899" fill="#ff770a" stroke="none" /><path d="M 102.16513564639614 79.11191278185805 l 5.4093128984179994 -52.186198957302075 a73.46579864677662,73.46579864677662 0 0,0 1.2567314774843967,0.1412084245189506 l -6.306811079412121 52.08535457931252" fill="#40ffc6" stroke="none" /><path d="M 102.52436894288641 79.15227682838746 l 6.148413875820177 -50.77721732744688 a72.14810644302631,72.14810644302631 0 0,0 1.2316206440891955,0.15989970735194273 l -7.021549248417219 50.663859296930795" fill="#3effb8" stroke="none" /><path d="M 102.88285421437855 79.19881850522331 l 0.9511441731546648 -6.862963265644843 a27.928559736605912,27.928559736605912 0 0,0 0.47562472827436025,0.0700947213123337 l -1.0691378818576809 6.84557406017154" fill="#ff5808" stroke="none" /><path d="M 103.2404852339499 79.25152402106235 l 1.6124802274748717 -10.324536250237239 a31.449695749946994,31.449695749946994 0 0,0 0.5341518071344971,0.08813962496648495 l -1.789961240748244 10.29525036233113" fill="#ff870c" stroke="none" /><path d="M 103.95276090670814 79.375362276772 l 1.3091294209205169 -6.830749614398227 a27.95506722723233,27.95506722723233 0 0,0 0.4718197548064689,0.09464260416437638 l -1.4265155851941111 6.807203054156642" fill="#ff5808" stroke="none" /><path d="M 104.307194497241 79.44645832069477 l 1.4280060932588863 -6.814315623522228 a27.96233429385315,27.96233429385315 0 0,0 0.4702429431202649,0.10277689377220955 l -1.5450917605326793 6.788725231654149" fill="#ff5808" stroke="none" /><path d="M 105.01212808612495 79.60689891045804 l 3.4900290459930967 -14.20005912007744 a35.622653034096444,35.622653034096444 0 0,0 0.5942047009191147,0.15147600878384768 l -3.7339426355972365 14.137880115124725" fill="#ffbe11" stroke="none" /><path d="M 105.36241919743992 79.69619591428918 l 1.7729065518826186 -6.712781296337858 a27.942955449530963,27.942955449530963 0 0,0 0.4639889307894885,0.1268257020681698 l -1.8881933718958182 6.681269053443395" fill="#ff5808" stroke="none" /><path d="M 105.71112130821622 79.79150937346287 l 2.8276691912627845 -10.005552896306721 a31.397442080435386,31.397442080435386 0 0,0 0.5188199781130091,0.15145777859172968 l -2.9994793870992207 9.955396788796287" fill="#ff870c" stroke="none" /><path d="M 106.40334571778207 80.00007090966166 l 6.3381002782015194 -19.796144346769797 a41.78602526060921,41.78602526060921 0 0,0 0.683136202960924,0.22521926558370642 l -6.677919303404861 19.684111356926856" fill="#f4ff19" stroke="none" /><path d="M 106.74666289553966 80.11325718540242 l 2.2680271325929393 -6.685330656171348 a28.059574566255545,28.059574566255545 0 0,0 0.4560589408472133,0.15911000950954937 l -2.3827680775034263 6.645299793489591" fill="#ff5a08" stroke="none" /><path d="M 107.08798089147638 80.2323363322302 l 2.3638698267367704 -6.5925944785650445 a28.003583548196083,28.003583548196083 0 0,0 0.45234811815487697,0.16660362943924692 l -2.477000270664224 6.550927581319473" fill="#ff5908" stroke="none" /><path d="M 107.4271985657038 80.35727306442388 l 3.033751934872794 -8.02336982373853 a29.57776859858218,29.57776859858218 0 0,0 0.47467647426030474,0.18416709747150933 l -3.1714115741327658 7.9699600223764735" fill="#ff6e0a" stroke="none" /><path d="M 107.76421540070413 80.48803036053334 l 8.583241263558616 -21.570233990106047 a44.21523260655343,44.21523260655343 0 0,0 0.7047405506340438,0.287481365585034 l -8.953265683781048 21.41929173833743" fill="#d7ff1c" stroke="none" /><path d="M 108.09893153111575 80.62456947434976 l 18.656304742883428 -44.63229933755206 a69.37457855957182,69.37457855957182 0 0,0 1.0978237738951175,0.47003084689706326 l -19.42181227456886 44.30454896269221" fill="#3bff9b" stroke="none" /><path d="M 108.43124777332544 80.76684994638697 l 22.096871316781694 -50.406826270201705 a76.0374404984889,76.0374404984889 0 0,0 1.1942146448771362,0.5358093006350148 l -22.961268080125613 50.018996639050165" fill="#43ffe0" stroke="none" /><path d="M 108.76106565485865 80.91482961587045 l 21.060230471599457 -45.87776221681534 a71.4807128866019,71.4807128866019 0 0,0 1.113811748968274,0.5229495507256214 l -21.84682043186733 45.50844768344972" fill="#3effb1" stroke="none" /><path d="M 109.08828744355905 81.06846463323043 l 20.485840224235407 -42.67343117519466 a68.33594171406097,68.33594171406097 0 0,0 1.0560465039101516,0.5181974331090997 l -21.21735799515599 42.31447858195073" fill="#3aff8f" stroke="none" /><path d="M 109.41281617654863 81.2277094730956 l 9.358786151948841 -18.664536662392532 a41.87945897430545,41.87945897430545 0 0,0 0.6416322243066548,0.3286689464206675 l -9.678678863844251 18.500675190659365" fill="#f3ff19" stroke="none" /><path d="M 109.73455568895987 81.39251694778311 l 10.163668317589368 -19.427726545586737 a42.925708937228585,42.925708937228585 0 0,0 0.6517654726628228,0.34815054342875273 l -10.496578836780502 19.249897275656227" fill="#e6ff1a" stroke="none" /><path d="M 110.05341064243156 81.56283822128135 l 3.323231325699411 -6.094544006928824 a27.94170966668168,27.94170966668168 0 0,0 0.4202910949451333,0.23389153929745318 l -3.4276465097165794 6.03643707007119" fill="#ff5808" stroke="none" /><path d="M 110.36928655335952 81.73862282372117 l 5.138308643305974 -9.049088546322732 a31.40616256038037,31.40616256038037 0 0,0 0.46780715569581194,0.270984099441581 l -5.293312531467114 8.959300289491102" fill="#ff870c" stroke="none" /><line stroke="#e1ed5e" stroke-width="0.3" x1="143.23703022742887" x2="145.7803849466894" y1="26.81831364943548" y2="22.513508569990506" /><path d="M 143.74570117128098 25.957352633546492 a86.0,86.0 0 0,1 28.547481713284135,27.462654790039103" fill="none" id="id74" stroke="none" /><text fill="#e1ed5e" style="font-size:6.75px; font-family:Arial;" text-anchor="middle"><textPath startOffset="19.985693538727396" xlink:href="#id74">February</textPath></text><path d="M 110.99172775467656 82.1063720568725 l 7.652601823149082 -12.457805804193905 a35.62050751918934,35.62050751918934 0 0,0 0.5196876803171143,0.32542837773833755 l -7.86590865583846 12.324233085132622" fill="#ffbe11" stroke="none" /><path d="M 111.2981086023043 82.29822771554956 l 3.799316394467532 -5.952733861818844 a28.06185850147923,28.06185850147923 0 0,0 0.40493659255828257,0.263382023844031 l -3.9012200128100947 5.886452913815285" fill="#ff5a08" stroke="none" /><path d="M 111.60114157652 82.49532879139004 l 29.610120342634154 -44.67796704543478 a74.59925340914958,74.59925340914958 0 0,0 1.0642660058170472,0.7185971579087516 l -30.374791042857744 44.16165797522736" fill="#41ffd2" stroke="none" /><path d="M 111.90073688211348 82.69761687909136 l 24.035887705016325 -34.945578735413015 a63.4136460460676,63.4136460460676 0 0,0 0.8940383771288073,0.6263310174074879 l -24.633857221728782 34.52666287524159" fill="#34ff58" stroke="none" /><path d="M 112.19680574252982 82.90503203632743 l 4.021617158372225 -5.636673891164994 a27.924268706791715,27.924268706791715 0 0,0 0.3888849128903128,0.2825414277144707 l -4.1180473876163255 5.566613228633849" fill="#ff5808" stroke="none" /><path d="M 112.48926042617603 83.11751280151076 l 6.184336020542245 -8.359740299684645 a31.398618653126377,31.398618653126377 0 0,0 0.43173675727447725,0.32517517473748775 l -6.327318931575106 8.252048535441311" fill="#ff870c" stroke="none" /><path d="M 113.06298171725822 83.55741782278167 l 6.102786676764021 -7.681674338574132 a30.810816778739515,30.810816778739515 0 0,0 0.4124198039978967,0.33348146629140674 l -6.234109879326408 7.575486775018597" fill="#ff7f0b" stroke="none" /><path d="M 113.34407831869373 83.78471172551755 l 4.407864081331938 -5.356292510169477 a27.93679574544284,27.93679574544284 0 0,0 0.36868916106486094,0.30876656945916925 l -4.499410779355916 5.279624783316488" fill="#ff5808" stroke="none" /><path d="M 113.6212207817346 84.01681056812373 l 14.099557390842145 -16.544471328563468 a42.73745730667021,42.73745730667021 0 0,0 0.5558030771676569,0.4819869515453218 l -14.382254266656567 16.299319383598476" fill="#e9ff1a" stroke="none" /><path d="M 113.89432698308785 84.25364557470407 l 41.49779876180636 -47.02919745363521 a83.720114119861,83.720114119861 0 0,0 1.0723709912120198,0.9627852640901889 l -42.30118074061437 46.30791318077573" fill="#4dd5ff" stroke="none" /><path d="M 114.16331599549186 84.49514656593476 l 4.720021356822787 -5.167097829808293 a27.99839278632407,27.99839278632407 0 0,0 0.3530358893444689,0.3281083839045344 l -4.808265129962103 5.085084859829118" fill="#ff5908" stroke="none" /><path d="M 114.42810811169701 84.74124197986012 l 7.142687883826199 -7.553904170175358 a31.39612708742781,31.39612708742781 0 0,0 0.3894865329499518,0.374685736108078 l -7.271657660388569 7.429835347304979" fill="#ff870c" stroke="none" /><path d="M 114.68862486808459 84.99185889309783 l 4.616244690331156 -4.716660158365953 a27.599742274553403,27.599742274553403 0 0,0 0.33666980454043305,0.33522403740642487 l -4.696750295038911 4.636500270309409" fill="#ff5307" stroke="none" /><path d="M 114.94478906791727 85.2469230424477 l 4.997543663731654 -4.9334350544992995 a28.022408711251924,28.022408711251924 0 0,0 0.33591627093997206,0.3461912450774822 l -5.081724198374735 4.846679613871703" fill="#ff5908" stroke="none" /><path d="M 115.19652480421416 85.50635884689758 l 5.036098113077151 -4.803163868262507 a27.959358257046528,27.959358257046528 0 0,0 0.32916509608937444,0.3511303741355359 l -5.118030531136989 4.715764077248916" fill="#ff5808" stroke="none" /><path d="M 115.4437574822437 85.77008943001954 l 22.037347524765988 -20.305258279116774 a50.965783816028406,50.965783816028406 0 0,0 0.588912931140363,0.6502923675298827 l -22.383604096522387 19.92291312431734" fill="#8cff24" stroke="none" /><path d="M 115.68641384162765 86.03803664274999 l 5.458074005687366 -4.858052964683135 a28.30693167199658,28.30693167199658 0 0,0 0.32082285976576624,0.3667559885512548 l -5.54088872903098 4.763381419928932" fill="#ff5d08" stroke="none" /><path d="M 115.9244219780498 86.31012108654704 l 5.255331636749994 -4.517894204029171 a27.930359200721544,27.930359200721544 0 0,0 0.3102788744295609,0.367272320329695 l -5.332321124666672 4.42676293407037" fill="#ff5808" stroke="none" /><path d="M 116.15771136456269 86.58626213691792 l 8.928063388829974 -7.411860456017417 a32.60370592933313,32.60370592933313 0 0,0 0.35476171279761665,0.43489591239278264 l -9.054323593704 7.2570803740165335" fill="#ff970d" stroke="none" /><path d="M 116.38621287248628 86.86637796730983 l 1.407678673936315 -1.1282606780972992 a22.804031986078872,22.804031986078872 0 0,0 0.24285850950910767,0.3084056444087905 l -1.4268912640393865 1.1038626397354703" fill="#ff1001" stroke="none" /><path d="M 116.60985879189232 87.15038557335679 l 8.105570070832192 -6.2705801068683735 a31.247948138521387,31.247948138521387 0 0,0 0.3254608607868454,0.42826834270220826 l -8.21230687184315 6.130126988285132" fill="#ff850c" stroke="none" /><path d="M 116.82858285166822 87.43820079747576 l 5.667140650806596 -4.230272004207297 a28.071893974431788,28.071893974431788 0 0,0 0.2857149180899773,0.3897148271818459 l -5.739118181410199 4.1320947333539575" fill="#ff5a08" stroke="none" /><path d="M 117.04232023915458 87.72973835380427 l 7.720737172977369 -5.5588361141277005 a30.51369756918544,30.51369756918544 0 0,0 0.30322969551475887,0.42889689996732006 l -7.81527948829601 5.425112713828587" fill="#ff7b0b" stroke="none" /><path d="M 117.2510076193507 88.02491185347247 l 35.677349826463605 -24.766055318830183 a64.43075853234916,64.43075853234916 0 0,0 0.6245964807424665,0.916518264331927 l -36.0983707728748 24.14825903122785" fill="#35ff63" stroke="none" /><path d="M 117.45458315368197 88.32363383020206 l 5.758125030680215 -3.851938239815167 a27.92772921470639,27.92772921470639 0 0,0 0.2638550210957393,0.40186929918129766 l -5.82357668713388 3.7522508766561953" fill="#ff5808" stroke="none" /><path d="M 117.65298651832404 88.62581576622439 l 9.818518761309274 -6.326274660550558 a32.68011394408917,32.68011394408917 0 0,0 0.3006141031207508,0.47549931850401034 l -9.92596046067598 6.156327694332342" fill="#ff980e" stroke="none" /><line stroke="#e1ed5e" stroke-width="0.3" x1="172.23445277983987" x2="176.4835382374775" y1="55.19839476539836" y2="52.563006222186495" /><path d="M 173.08426987136738 54.67131705675599 a86.0,86.0 0 0,1 12.851231095245387,41.99856678651699" fill="none" id="id75" stroke="none" /><text fill="#e1ed5e" style="font-size:6.75px; font-family:Arial;" text-anchor="middle"><textPath startOffset="22.20632615414155" xlink:href="#id75">March</textPath></text><path d="M 117.84615892207809 88.93136811851018 l 4.323915249355937 -2.681799842243482 a26.088053997106357,26.088053997106357 0 0,0 0.2334063428339149,0.3836586575533455 l -4.369437390476076 2.606973411483055" fill="#ff3e05" stroke="none" /><path d="M 118.03404312379186 89.2402003453031 l 12.556515872212003 -7.491697464545896 a35.62161488172204,35.62161488172204 0 0,0 0.30963719887629404,0.5292703432522923 l -12.683612745558625 7.274447708939709" fill="#ffbe11" stroke="none" /><path d="M 118.21658344932153 89.55222093294921 l 3.0020196915525976 -1.7217519728402013 a24.46071554515084,24.46071554515084 0 0,0 0.20633470701632717,0.3670464203367313 l -3.031212039861358 1.669822042568676" fill="#ff2703" stroke="none" /><path d="M 118.3937258080291 89.86733742301442 l 12.805253813814241 -7.05410733324074 a35.619676997289815,35.619676997289815 0 0,0 0.29121952613757207,0.5395855533520607 l -12.924781439170278 6.832640796556221" fill="#ffbe11" stroke="none" /><path d="M 118.56541770881063 90.18545643968196 l 6.1232342144566525 -3.2370264903490114 a27.92620659122393,27.92620659122393 0 0,0 0.2210034334801524,0.42690828950361115 l -6.1780470810969215 3.131145478585055" fill="#ff5808" stroke="none" /><path d="M 118.73160827565052 90.50648371742162 l 4.326207178107521 -2.1925996787237927 a25.850109472893237,25.850109472893237 0 0,0 0.1977410119465977,0.39863381376423523 l -4.363308203007526 2.1178062764606076" fill="#ff3b05" stroke="none" /><path d="M 118.89224826269711 90.83032412892265 l 9.46811355761208 -4.595510879733757 a31.52444272090399,31.52444272090399 0 0,0 0.2327431684562408,0.49021646967697896 l -9.545814919910077 4.431851994416237" fill="#ff880c" stroke="none" /><path d="M 119.196687751892 91.48605970444005 l 12.388046994621272 -5.494233893573707 a34.55176425482082,34.55176425482082 0 0,0 0.23644807213063507,0.5457547504460051 l -12.480785776594587 5.280179998541099" fill="#ffb010" stroke="none" /><path d="M 119.34039704204932 91.81776055985345 l 7.0460099349168015 -2.980918140397793 a28.6506293180822,28.6506293180822 0 0,0 0.18824597633132564,0.4558525632232096 l -7.096277598134324 2.8591910067212805" fill="#ff6209" stroke="none" /><path d="M 119.47837535516314 92.15188598940014 l 46.07804307965528 -18.565497834428477 a70.67759820976389,70.67759820976389 0 0,0 0.44495401724763656,1.1323594404405233 l -46.390790646784616 17.769589389092168" fill="#3dffa9" stroke="none" /><path d="M 119.61058180528143 92.48833698450437 l 47.19027639420929 -18.075825460004072 a71.53372786785474,71.53372786785474 0 0,0 0.43054928427953604,1.1536580262324954 l -47.494430266990456 17.260844296742242" fill="#3effb2" stroke="none" /><path d="M 119.7369772167798 92.82701384747503 l 5.209921396597589 -1.8934355359019501 a26.543318418361125,26.543318418361125 0 0,0 0.1523673933532225,0.43076313902341096 l -5.241741870760621 1.8034747704519247" fill="#ff4506" stroke="none" /><path d="M 119.85752413597 93.16781622104841 l 7.1985436528634335 -2.476732388207469 a28.61270215133735,28.61270215133735 0 0,0 0.15622904100831606,0.4671049474071911 l -7.240109987643519 2.3524543378779637" fill="#ff6109" stroke="none" /><path d="M 119.97218684219823 93.5106431181261 l 6.595178467206666 -2.142903384166595 a27.934581020377447,27.934581020377447 0 0,0 0.14465392853327594,0.4585924837010874 l -6.631087879508148 2.0290607340390885" fill="#ff5808" stroke="none" /><path d="M 120.08093135843002 93.85539295169968 l 6.697864673695776 -2.049493907824922 a28.004414070095606,28.004414070095606 0 0,0 0.1370804105356143,0.4621669980036734 l -6.732150981343093 1.9338975230747188" fill="#ff5908" stroke="none" /><path d="M 120.18372546131832 94.20196356495316 l 5.470999353900938 -1.5716153913621207 a26.69225867900878,26.69225867900878 0 0,0 0.12305541731394586,0.4426958087674351 l -5.497241541781246 1.4772082791757337" fill="#ff4706" stroke="none" /><path d="M 120.28053869075195 94.5502522615342 l 38.31740308137551 -10.296579591440132 a60.67673033635038,60.67673033635038 0 0,0 0.2623652230789094,1.0110002300332144 l -38.48896463632472 9.635482935858068" fill="#30ff37" stroke="none" /><path d="M 120.37134235888165 94.90015583598534 l 22.571888924471978 -5.650737883361299 a44.26845521828115,44.26845521828115 0 0,0 0.17869109455395277,0.740789949301344 l -22.66581281928675 5.261362702400549" fill="#d7ff1c" stroke="none" /><path d="M 120.45610955862082 95.25157060432595 l 6.752955998978812 -1.5675480560638115 a27.932504715628642,27.932504715628642 0 0,0 0.10468785267676324,0.4692951163248744 l -6.778938238657613 1.4510747701889732" fill="#ff5808" stroke="none" /><path d="M 120.53481517161879 95.60439243477599 l 9.717610604520187 -2.080116248047184 a30.93774820904983,30.93774820904983 0 0,0 0.10698671703551153,0.5217052278243501 l -9.751976617470694 1.912535364059422" fill="#ff810b" stroke="none" /><path d="M 120.67395015179393 96.31383870115 l 10.347956261608026 -1.8450385927056165 a31.511154370511637,31.511154370511637 0 0,0 0.09061428351352792,0.5348106306773259 l -10.378182406641777 1.6666421737124528" fill="#ff880c" stroke="none" /><path d="M 120.73433829027371 96.67025291283417 l 7.241760421825226 -1.1629611870390208 a28.334546525155694,28.334546525155694 0 0,0 0.0731896267171267,0.4822281941932614 l -7.2607059419816515 1.0381338804536773" fill="#ff5d08" stroke="none" /><path d="M 120.78858239683441 97.02765380044208 l 62.36574719050324 -8.917038598673738 a84.0,84.0 0 0,0 0.19233600376865523,1.4331266317413425 l -62.50999919332973 7.84219362486773" fill="#4dd2ff" stroke="none" /><path d="M 120.83666639777658 97.38593545837742 l 50.43247383205987 -6.327007356837262 a71.8278018304439,71.8278018304439 0 0,0 0.14334656282105115,1.2281058099801185 l -50.53391074788451 5.457957808532291" fill="#3effb5" stroke="none" /><path d="M 120.87857604477298 97.74499172005257 l 6.900127045520768 -0.7452540626799105 a27.940256253357514,27.940256253357514 0 0,0 0.04752886964500071,0.4786092310819583 l -6.911933040847997 0.6263693008935172" fill="#ff5808" stroke="none" /><path d="M 120.91429891909075 98.10471618934814 l 10.498172935762943 -0.9513595116694487 a31.541191579211027,31.541191579211027 0 0,0 0.04434618868211482,0.5411358266987262 l -10.512993608264553 0.7705097677629537" fill="#ff890c" stroke="none" /><path d="M 120.94382443527127 98.46500227214037 l 3.984124111623432 -0.2920011804794112 a24.994810336701928,24.994810336701928 0 0,0 0.027755438333743578,0.4293643461752267 l -3.988560140961591 0.22337777005114928" fill="#ff2f04" stroke="none" /><path d="M 120.96714384426684 98.82574320788733 l 12.419334222701343 -0.6955400159813372 a33.43879569930273,33.43879569930273 0 0,0 0.027238911401540274,0.5749703683295627 l -12.42946674233638 0.4816585410287747" fill="#ffa20e" stroke="none" /><path d="M 120.98425023603335 99.18683210126433 l 3.8164289481657594 -0.14789175088680995 a24.819293375269563,24.819293375269563 0 0,0 0.012868573793567588,0.4270453150619928 l -3.818409216414972 0.08217628839981808" fill="#ff2c04" stroke="none" /><line stroke="#e1ed5e" stroke-width="0.3" x1="184.98032266829074" x2="189.97916517819016" y1="98.17113171792111" y2="98.06355123074" /><path d="M 185.9800911702706 98.14961562048488 a86.0,86.0 0 0,1 -9.607161424134198,41.387399972396054" fill="none" id="id76" stroke="none" /><text fill="#e1ed5e" style="font-size:6.75px; font-family:Arial;" text-anchor="middle"><textPath startOffset="21.466115282336823" xlink:href="#id76">April</textPath></text><path d="M 120.99513854157772 99.54816195383933 l 20.768204839295006 -0.44695418790727387 a41.773013750850026,41.773013750850026 0 0,0 0.009283540849847022,0.7190204696416188 l -20.772821387262567 0.0893974602051923" fill="#f4ff19" stroke="none" /><path d="M 120.99980553446 99.90962569577887 l 4.9563703783098125 -0.021330127256032557 a25.95641627603208,25.95641627603208 0 0,0 -0.0019228793883529147,0.44680945064691463 l -4.956003201631956 -0.0639888015945668" fill="#ff3c05" stroke="none" /><path d="M 120.99824983174949 100.27111621757518 l 52.23132147903629 0.674378028255416 a73.23567487045067,73.23567487045067 0 0,0 -0.02712488039826381,1.2603866069364207 l -52.21197453595302 -1.5733544509819515" fill="#40ffc4" stroke="none" /><path d="M 120.9904718944345 100.63252640178507 l 59.60199517856263 1.7960451646398297 a80.62905003015585,80.62905003015585 0 0,0 -0.053744510983610126,1.3869070201208726 l -59.56224853472782 -2.8217294317747084" fill="#49f1ff" stroke="none" /><path d="M 120.9764740272857 100.99374915477107 l 43.058217390594095 2.0398598488093187 a64.10650894074402,64.10650894074402 0 0,0 -0.061706022740650734,1.1018024877957417 l -43.016725016965914 -2.780734052940484" fill="#34ff60" stroke="none" /><path d="M 120.95626037817324 101.35467743843564 l 10.366738234559019 0.6701379990082665 a31.388375549698935,31.388375549698935 0 0,0 -0.03949470952186702,0.5388739327330677 l -10.353666966372815 -0.8484850682381044" fill="#ff870c" stroke="none" /><path d="M 120.92983693683757 101.71520430193887 l 7.099379461862213 0.581795559651523 a28.123178701727287,28.123178701727287 0 0,0 -0.04369190757694329,0.48213655932363203 l -7.088312958008195 -0.7039135075237255" fill="#ff5a08" stroke="none" /><path d="M 120.89721153311464 102.0752229133903 l 14.548324840768096 1.444739027174282 a35.6198846277647,35.6198846277647 0 0,0 -0.06584199724037557,0.6096151213932386 l -14.521300542026669 -1.6949504704523117" fill="#ffbe11" stroke="none" /><path d="M 120.81339534386255 102.79330883721812 l 10.30813785773339 1.3834269756356687 a31.400556537558593,31.400556537558593 0 0,0 -0.07650663208814515,0.5350872066333573 l -10.282797174628644 -1.5606596542494353" fill="#ff870c" stroke="none" /><path d="M 120.76222939487914 103.15116336523771 l 10.30127233840938 1.563463700874938 a31.419243280297845,31.419243280297845 0 0,0 -0.08575694781535952,0.5340085959076429 l -10.272833636232733 -1.7405515264757858" fill="#ff870c" stroke="none" /><path d="M 120.70491114924044 103.5080841355445 l 6.807385722213139 1.153392143752528 a27.904405391361472,27.904405391361472 0 0,0 -0.08431589507101946,0.4728883167011637 l -6.786523384802932 -1.2703992111869102" fill="#ff5708" stroke="none" /><path d="M 120.64145759157962 103.86396538481128 l 6.826660201132461 1.2779125986628557 a27.94523938475465,27.94523938475465 0 0,0 -0.09257867509564247,0.47205666978771144 l -6.803651593061155 -1.3952329955185119" fill="#ff5808" stroke="none" /><path d="M 120.5718875245553 104.21870165774334 l 2.5102660710821056 0.5147832751277819 a23.562506110817548,23.562506110817548 0 0,0 -0.08489903213981875,0.39662001381409867 l -2.5010330002178436 -0.5579171083580495" fill="#ff1b02" stroke="none" /><path d="M 120.49622156327973 104.57218783832717 l 3.3853280172563784 0.7551809264678462 a24.468536293038007,24.468536293038007 0 0,0 -0.09524020519526931,0.41029231131346866 l -3.371827246130556 -0.8133418951298798" fill="#ff2703" stroke="none" /><path d="M 120.41448212921028 104.9243191809786 l 22.58228079256613 5.447228969769601 a44.22997437026994,44.22997437026994 0 0,0 -0.1848995866061496,0.7385819369438268 l -22.48516989166492 -5.8351387461108235" fill="#d7ff1c" stroke="none" /><path d="M 120.32669344350535 105.2749913415812 l 6.704672981693402 1.7399333553616614 a27.926760272490277,27.926760272490277 0 0,0 -0.12475538584306411,0.46426120086472633 l -6.67372951950856 -1.855085489401936" fill="#ff5808" stroke="none" /><path d="M 120.23288151984713 105.62410040840565 l 6.849836547285727 1.904037666869743 a28.10954430054346,28.10954430054346 0 0,0 -0.13359711880812458,0.4650690968665052 l -6.816046791591503 -2.02166423924083" fill="#ff5a08" stroke="none" /><path d="M 120.13307415673323 105.97154293290107 l 3.3246176598720094 0.9860936753549492 a24.467774981296778,24.467774981296778 0 0,0 -0.1232397871126409,0.40275475489047097 l -3.3071511002532357 -1.0431754027974773" fill="#ff2703" stroke="none" /><path d="M 120.02730092923936 106.31721596034902 l 10.30599500937313 3.25082228456643 a31.80654332610838,31.80654332610838 0 0,0 -0.1691922551387514,0.5207202182580941 l -10.248510503218132 -3.427741402802319" fill="#ff8c0c" stroke="none" /><path d="M 119.79798401119884 107.00284435728193 l 20.231583026489073 7.156214842672288 a42.4599245719132,42.4599245719132 0 0,0 -0.2496557411513959,0.686945376774334 l -20.10540302433245 -7.503408016452752" fill="#ecff1a" stroke="none" /><path d="M 119.54520255179757 107.68017299344265 l 6.479882312074348 2.5462318439520644 a27.96219587353656,27.96219587353656 0 0,0 -0.17988664581607228,0.4464639025190419 l -6.435093052000883 -2.65739511431392" fill="#ff5808" stroke="none" /><path d="M 119.41010516605496 108.01547362559984 l 11.201008878435294 4.625497413698736 a33.118491086720326,33.118491086720326 0 0,0 -0.22212890352170572,0.5250471121079667 l -11.11972899372128 -4.817619051472866" fill="#ff9d0e" stroke="none" /><path d="M 119.26925614724726 108.34839909993367 l 9.313805800323038 4.035203402051494 a31.15036181532752,31.15036181532752 0 0,0 -0.21739824942298946,0.4901756609871257 l -9.242966466168776 -4.194927399531308" fill="#ff830c" stroke="none" /><path d="M 119.12269723197855 108.67885076344098 l 9.650599816115454 4.379932107155532 a31.598013119170005,31.598013119170005 0 0,0 -0.22904855496027093,0.4933502102683852 l -9.573776644315352 -4.545402384702747" fill="#ff890c" stroke="none" /><path d="M 118.81262510543309 109.33194174019688 l 19.415979246483403 9.631233607303823 a42.673507120406995,42.673507120406995 0 0,0 -0.33208387135723955,0.6552329829928725 l -19.247316705339895 -9.96402080199939" fill="#e9ff1a" stroke="none" /><line stroke="#e1ed5e" stroke-width="0.3" x1="174.80103733775053" x2="179.2010983576182" y1="140.37084112569926" y2="142.7455964860345" /><path d="M 175.68104954172406 140.8457921977663 a86.0,86.0 0 0,1 -30.038265399797805,32.042727171017184" fill="none" id="id77" stroke="none" /><text fill="#e1ed5e" style="font-size:6.75px; font-family:Arial;" text-anchor="middle"><textPath startOffset="22.206326154141568" xlink:href="#id77">May</textPath></text><path d="M 118.48025628344425 109.97397251340804 l 19.538027335010227 10.544861749573528 a43.20199588913631,43.20199588913631 0 0,0 -0.35883082104020375,0.6513821696455899 l -19.353620104518512 -10.879614437616922" fill="#e3ff1b" stroke="none" /><path d="M 118.30583269289576 110.29060199501025 l 9.063998607388148 5.09531599664171 a31.397995761701733,31.397995761701733 0 0,0 -0.2688984220265764,0.46884706431878087 l -8.974948189209194 -5.250582906818806" fill="#ff870c" stroke="none" /><path d="M 118.12598468904814 110.60418214915192 l 5.216220436809385 3.0516274062328073 a27.043292601873507,27.043292601873507 0 0,0 -0.2385207130455058,0.3997744347500487 l -5.162918848065652 -3.14096393486896" fill="#ff4c07" stroke="none" /><path d="M 117.94076556474637 110.91462005526583 l 7.4014963187791984 4.502846875089061 a29.66358919486614,29.66358919486614 0 0,0 -0.2691410788564449,0.4339411155017291 l -7.322890600254791 -4.629584321956064" fill="#ff6f0a" stroke="none" /><path d="M 117.75023020441432 111.22182372390056 l 6.560988930810332 4.14790458422934 a28.762196093251347,28.762196093251347 0 0,0 -0.268166576840677,0.41620048245536456 l -6.488617490592605 -4.260226666606158" fill="#ff6309" stroke="none" /><path d="M 117.55443506779139 111.5257021239791 l 14.652991580281231 9.62070357304547 a38.52906442147448,38.52906442147448 0 0,0 -0.3687724904831735,0.5512648375637847 l -14.485215984387336 -9.871505324815061" fill="#ffe215" stroke="none" /><path d="M 117.14729908036423 112.12312394758627 l 5.656867539376889 3.999399906278806 a27.927867635022977,27.927867635022977 0 0,0 -0.2809014285893446,0.3901475159773683 l -5.587186318411941 -4.096181027707305" fill="#ff5808" stroke="none" /><path d="M 116.93607887273984 112.41649034213515 l 10.431174544638592 7.647494969989951 a33.93420201236774,33.93420201236774 0 0,0 -0.349423278993679,0.4681095841481914 l -10.297989998949822 -7.825917433647457" fill="#ffa80f" stroke="none" /><path d="M 116.71984013943494 112.70617746262583 l 2.7613687431568072 2.098491432794537 a24.468259452404833,24.468259452404833 0 0,0 -0.2577243897815003,0.33314351538995024 l -2.7248375361572386 -2.1457129422977403" fill="#ff2703" stroke="none" /><path d="M 116.498646956653 112.99209946851258 l 11.483772116185026 9.043063349327776 a35.616908590958076,35.616908590958076 0 0,0 -0.38344500287596245,0.4784065984522368 l -11.32640920125421 -9.239397781358262" fill="#ffbe11" stroke="none" /><path d="M 116.27256486870786 113.27417163493432 l 8.378161983363016 6.834396485725823 a31.812149348930156,31.812149348930156 0 0,0 -0.34978821603104676,0.42134243944859134 l -8.259277767438427 -6.977600182288184" fill="#ff8c0c" stroke="none" /><path d="M 115.56566222782051 114.09645910891815 l 5.1333437761727865 4.648820562449738 a27.925514489640996,27.925514489640996 0 0,0 -0.32573595632405117,0.35352204695705725 l -5.052561411853014 -4.73649386420813" fill="#ff5808" stroke="none" /><path d="M 115.32070863581623 114.36230785411682 l 7.841581370331134 7.35104415735159 a31.74840679314182,31.74840679314182 0 0,0 -0.37719140471640306,0.39548367985378513 l -7.713883414235767 -7.484934953787882" fill="#ff8b0c" stroke="none" /><path d="M 114.81725581225074 114.88116024355365 l 4.891315203678257 4.912410656194904 a27.93229708515376,27.93229708515376 0 0,0 -0.34363382296204464,0.3363180211008224 l -4.806031428340418 -4.995878780218298" fill="#ff5808" stroke="none" /><path d="M 114.0293411484842 115.62618273729858 l 21.433996061182288 23.87364707278217 a53.083753080126684,53.083753080126684 0 0,0 -0.6851789147041341,0.6045907278400137 l -21.019874793571567 -24.23906094239447" fill="#75ff27" stroke="none" /><path d="M 113.48314897796784 116.09983520530334 l 7.04681764466335 8.414399558018026 a31.975416112344565,31.975416112344565 0 0,0 -0.42501398996041667,0.3497575789323034 l -6.9009335261582425 -8.534452255807507" fill="#ff8e0d" stroke="none" /><path d="M 113.20401910651253 116.32954008644616 l 2.178884870537727 2.6946483150458245 a24.465352625756505,24.465352625756505 0 0,0 -0.3297492737499171,0.26197276606848946 l -2.1321781040704586 -2.73175499511944" fill="#ff2703" stroke="none" /><path d="M 112.92097659922987 116.55440617244103 l 2.660644856047977 3.408828681746806 a25.324250690179078,25.324250690179078 0 0,0 -0.345942856925771,0.2652542309304968 l -2.6015732706287125 -3.454122254504674" fill="#ff3404" stroke="none" /><path d="M 112.63410532772338 116.77436683061366 l 5.001616217476328 6.640671658308283 a29.313524214217523,29.313524214217523 0 0,0 -0.4056643193643313,0.3001007654015546 l -4.8865669276934325 -6.725782372449606" fill="#ff6b09" stroke="none" /><path d="M 112.34349029814194 116.9893568818739 l 8.629965213735906 11.878128094481244 a35.682173770228864,35.682173770228864 0 0,0 -0.5000137439774137,0.3567465301395828 l -8.424224141909608 -12.024918886465047" fill="#ffbf11" stroke="none" /><path d="M 112.04921762599082 117.19931262002967 l 4.95571795751658 7.073898493140844 a29.637081704239726,29.637081704239726 0 0,0 -0.4203428926417575,0.2891156744501315 l -4.833218180251938 -7.1581549569560705" fill="#ff6f0a" stroke="none" /><path d="M 111.7513745106137 117.40417183066458 l 3.2182854371120264 4.766386493514792 a26.751156523716563,26.751156523716563 0 0,0 -0.3838476332649175,0.25439328075628975 l -3.1357631051071446 -4.821077795362401" fill="#ff4806" stroke="none" /><path d="M 111.45004920935366 117.60387380957326 l 6.81858756904479 10.48323486915084 a33.50565271221427,33.50565271221427 0 0,0 -0.48618010074796714,0.310303143112671 l -6.637125666249893 -10.59905244108732" fill="#ffa30f" stroke="none" /><path d="M 111.1453310114006 117.79835938074945 l 2.5839797181026234 4.126445379532846 a25.86872700547419,25.86872700547419 0 0,0 -0.3794336185218501,0.23307911894780525 l -2.5125668996484647 -4.17031296530903" fill="#ff3b05" stroke="none" /><line stroke="#e1ed5e" stroke-width="0.3" x1="143.8653032363475" x2="146.44561519142675" y1="172.8068346515853" y2="177.08958963109032" /><path d="M 144.38136562736335 173.6633856474863 a86.0,86.0 0 0,1 -40.68145358897372,12.25698825130547" fill="none" id="id78" stroke="none" /><text fill="#e1ed5e" style="font-size:6.75px; font-family:Arial;" text-anchor="middle"><textPath startOffset="21.466115282336833" xlink:href="#id78">June</textPath></text><path d="M 110.8373102113329 117.98757091392108 l 3.5941061022904415 5.965432116126019 a27.964479808760245,27.964479808760245 0 0,0 -0.41444974221258446,0.24486421296654517 l -3.490888489049475 -6.026414901386314" fill="#ff5808" stroke="none" /><path d="M 110.21172684928248 118.3499491758327 l 9.438716119206878 16.960888557720153 a40.41033494420893,40.41033494420893 0 0,0 -0.6107294512399579,0.33301839179115084 l -9.145363856098273 -17.120847601271073" fill="#fff917" stroke="none" /><path d="M 109.89434966115114 118.52300852407294 l 4.085617239465897 7.648600013588109 a29.67140994275331,29.67140994275331 0 0,0 -0.4525725018823656,0.23676454308746095 l -3.953353835057036 -7.717793975620287" fill="#ff700a" stroke="none" /><path d="M 109.57404056367764 118.69057910512821 l 3.2641650308706556 6.372349721719382 a28.159721665306265,28.159721665306265 0 0,0 -0.4333192388992775,0.217275261943937 l -3.1539918842886174 -6.427592824572621" fill="#ff5b08" stroke="none" /><path d="M 109.2508944713604 118.85261126421891 l 5.186560366824641 10.569811027124436 a32.773755288260304,32.773755288260304 0 0,0 -0.5085976985954482,0.24415780275705967 l -5.00385000022896 -10.657523106381054" fill="#ff990e" stroke="none" /><path d="M 108.92500713936063 119.00905698771935 l 0.3077328334924133 0.6554292761348645 a21.724076676066797,21.724076676066797 0 0,0 -0.339859735737642,0.15601293560975416 l -0.29640510198735187 -0.660629282078693" fill="#ff0000" stroke="none" /><path d="M 108.59647513512805 119.15986991738527 l 4.0454111740173975 9.016434135868135 a30.882380082415015,30.882380082415015 0 0,0 -0.4868817886975612,0.21343466802817823 l -3.889608710662082 -9.084733357190768" fill="#ff800b" stroke="none" /><path d="M 108.2653958097858 119.30500536409082 l 2.7327069966397657 6.382625157062664 a27.943024659689257,27.943024659689257 0 0,0 -0.44379982057012435,0.18550836099154316 l -2.62243571657218 -6.428718561074181" fill="#ff5808" stroke="none" /><path d="M 107.93186726928326 119.44442032107085 l 9.429114820190481 23.114818439969852 a45.964034886314074,45.964034886314074 0 0,0 -0.735159551351871,0.2925351574469244 l -9.029834192796745 -23.273700441822847" fill="#c3ff1e" stroke="none" /><path d="M 107.59598834532513 119.57807347666477 l 5.657743790728735 14.58239778832756 a36.64149577433533,36.64149577433533 0 0,0 -0.5899800417709204,0.22307996921234582 l -5.40589352819754 -14.677626007646538" fill="#ffcb12" stroke="none" /><path d="M 106.91757812671514 119.82793768551818 l 3.1518350277953964 9.034142785437034 a30.56816596376244,30.56816596376244 0 0,0 -0.49830516276161735,0.1690521662397061 l -2.995860132096552 -9.087057938574862" fill="#ff7c0b" stroke="none" /><path d="M 106.57524785965236 119.94407469862006 l 3.8036380549889715 11.537213974961047 a33.148043824311664,33.148043824311664 0 0,0 -0.543436378128599,0.17399116712157944 l -3.604480331769432 -11.600977988742331" fill="#ff9e0e" stroke="none" /><path d="M 106.2309692047433 120.05430185196036 l 3.1422663706731355 10.11334773549712 a31.590261581441133,31.590261581441133 0 0,0 -0.5206752427293159,0.1568751794701984 l -2.9677161535035737 -10.165938284073045" fill="#ff890c" stroke="none" /><path d="M 105.53697534728816 120.25689768951611 l 3.726382079021405 13.632883621877273 a35.132991164169795,35.132991164169795 0 0,0 -0.5847293421188837,0.1544323337758867 l -3.491162294091024 -13.695007304956745" fill="#ffb811" stroke="none" /><path d="M 105.18746579009965 120.34920634021253 l 1.7646436823431138 6.922281488098765 a28.14366490858217,28.14366490858217 0 0,0 -0.47046386292597747,0.11562857117828862 l -1.6452265346739252 -6.951631317591083" fill="#ff5b08" stroke="none" /><path d="M 104.83641907484287 120.43548508189849 l 1.5968979952556956 6.747427105543296 a27.933819708636218,27.933819708636218 0 0,0 -0.46886231418032476,0.10671153622280254 l -1.4805155316825087 -6.773915375343783" fill="#ff5808" stroke="none" /><path d="M 104.48393922423573 120.51570834832081 l 2.2194359051434946 10.154753989886283 a31.394466043628768,31.394466043628768 0 0,0 -0.5289347690524434,0.1108434235913695 l -2.0443096746616733 -10.191453394204192" fill="#ff870c" stroke="none" /><path d="M 103.7750983002368 120.6578951692458 l 0.3739718327020791 2.0464290733106645 a23.0803189379866,23.0803189379866 0 0,0 -0.39143234897700246,0.06805553127755577 l -0.3386905122530267 -2.0525631831092266" fill="#ff1402" stroke="none" /><path d="M 103.41894727170886 120.7198165907248 l 3.066344659988302 18.582942031495666 a39.83422958657367,39.83422958657367 0 0,0 -0.6774932480527924,0.10581051199347993 l -2.7460155483269926 -18.63297085083625" fill="#fff216" stroke="none" /><path d="M 103.06178313531738 120.77559828337769 l 2.8784268356303375 19.53144196770523 a40.742405283701224,40.742405283701224 0 0,0 -0.6946995456367628,0.09627902690857895 l -2.5417986988067445 -19.578095560106412" fill="#fffd18" stroke="none" /><path d="M 102.70371172650421 120.8252237178851 l 1.1590747488884778 8.927723586332 a30.002649760346095,30.002649760346095 0 0,0 -0.51272039213249,0.06208329915115792 l -1.0052269337046076 -8.94635241420851" fill="#ff740a" stroke="none" /><path d="M 101.98527174616119 120.90594882070398 l 1.1788610806875526 12.414023151857588 a33.469871060376526,33.469871060376526 0 0,0 -0.5740173450882161,0.04952863187323454 l -0.964999417857795 -12.432476036009485" fill="#ffa20f" stroke="none" /><path d="M 101.62511606390274 120.93702456842531 l 0.7698400231176972 9.918158976943726 a30.94799131247727,30.94799131247727 0 0,0 -0.5314761022080691,0.03665370370652069 l -0.5990011601306977 -9.929941025166531" fill="#ff810b" stroke="none" /><path d="M 101.26447882468166 120.96189622390904 l 0.776722840676516 12.876121974679888 a33.89952772306269,33.89952772306269 0 0,0 -0.5827682849130315,0.030122463713449708 l -0.554966487350005 -12.88758424515554" fill="#ffa80f" stroke="none" /><path d="M 100.90346689309514 120.98055641714683 l 0.19511159348318918 4.530935030380117 a25.53513404249943,25.53513404249943 0 0,0 -0.43930115461022895,0.015130420005120718 l -0.11709008719830793 -4.533622248811331" fill="#ff3705" stroke="none" /><line stroke="#e1ed5e" stroke-width="0.3" x1="102.19456741930631" x2="102.32365962044197" y1="184.97166512339345" y2="189.96999836594603" /><path d="M 102.22038585953345 185.97133177190398 a86.0,86.0 0 0,1 -42.740103519485714,-10.115201625700543" fill="none" id="id79" stroke="none" /><text fill="#e1ed5e" style="font-size:6.75px; font-family:Arial;" text-anchor="middle"><textPath startOffset="22.20632615414155" xlink:href="#id79">July</textPath></text><path d="M 100.54218724476979 120.99299961872073 l 0.3773965021511293 14.612451145229468 a35.61732385190784,35.61732385190784 0 0,0 -0.6130255513441355,0.010553790805905959 l -0.12581126091432587 -14.616782413314533" fill="#ffbe11" stroke="none" /><path d="M 100.18074693466247 120.99922214144158 l 0.06046865605161511 7.025262936788277 a28.02552316837513,28.02552316837513 0 0,0 -0.4824311814281363,0.0 l 0.060468656051610274 -7.025262936788277" fill="#ff5908" stroke="none" /><path d="M 99.81925306533755 120.99922214144158 l -0.07155626412065395 8.313423896717747 a29.313731844692406,29.313731844692406 0 0,0 -0.5045316346832761,-0.008685969639819976 l 0.21464758869659797 -8.310960449798767" fill="#ff6b09" stroke="none" /><path d="M 99.45781275523022 120.99299961872073 l -0.28244965912027803 10.936195278325899 a31.9398420909817,31.9398420909817 0 0,0 -0.549486424676062,-0.01892542349413426 l 0.47065643547098307 -10.92971305640567" fill="#ff8e0d" stroke="none" /><path d="M 99.09653310690486 120.98055641714683 l -0.5275608819290414 12.251163746435642 a33.262517426129136,33.262517426129136 0 0,0 -0.5718174126398506,-0.029556428702247457 l 0.738366362982381 -12.240267510971192" fill="#ff9f0e" stroke="none" /><path d="M 98.73552117531835 120.96189622390904 l -0.6356656854189263 10.537747149863304 a31.556902285143654,31.556902285143654 0 0,0 -0.5419330532611086,-0.03737487627473078 l 0.816961499458965 -10.525243929072287" fill="#ff890c" stroke="none" /><path d="M 98.37488393609728 120.93702456842531 l -0.5492024670960032 7.07559650786711 a28.09687884157575,28.09687884157575 0 0,0 -0.4818690746914741,-0.041577691363703234 l 0.670915859529019 -7.065094564224744" fill="#ff5a08" stroke="none" /><path d="M 98.01472825383883 120.90594882070398 l -1.3826986938156296 14.560539726241073 a35.62604433185282,35.62604433185282 0 0,0 -0.6099982977913494,-0.06322881769862952 l 1.6331295882125723 -14.534581540086684" fill="#ffbe11" stroke="none" /><path d="M 97.65516085044442 120.86867818915974 l -2.837142259716202 25.250093937618043 a46.40898699398311,46.40898699398311 0 0,0 -0.7930910836240608,-0.09603228534360524 l 3.271360766391652 -25.19751612354909" fill="#beff1f" stroke="none" /><path d="M 97.2962882734958 120.8252237178851 l -1.5596544465773892 12.013171542723642 a33.11399242643125,33.11399242643125 0 0,0 -0.5646273295028974,-0.07825220297315434 l 1.7662103672671174 -11.984544774257882" fill="#ff9d0e" stroke="none" /><path d="M 96.93821686468263 120.77559828337769 l -2.064907708790232 14.011342787551486 a35.16268232207771,35.16268232207771 0 0,0 -0.5980404316558545,-0.093401616101976 l 2.3057840040546034 -13.973722864102406" fill="#ffb811" stroke="none" /><path d="M 96.58105272829116 120.7198165907248 l -1.1359281798768952 6.88405572734128 a27.977145267727963,27.977145267727963 0 0,0 -0.47448043154177066,-0.08249450494771526 l 1.2542575828907159 -6.863482643872558" fill="#ff5808" stroke="none" /><path d="M 96.22490169976321 120.6578951692458 l -2.628129418213322 14.381512134202254 a35.619676997289815,35.619676997289815 0 0,0 -0.602197090120644,-0.11541250556277254 l 2.875294122905661 -14.334142430291012" fill="#ffbe11" stroke="none" /><path d="M 95.51606077576429 120.51570834832081 l -3.121695482793588 14.282930895027919 a35.62009225823958,35.62009225823958 0 0,0 -0.597874514180797,-0.13607429291524437 l 3.367090146367248 -14.227079868534988" fill="#ffbe11" stroke="none" /><path d="M 95.16358092515715 120.4354850818985 l -3.8468210338574953 16.25410301167554 a37.70311039239962,37.70311039239962 0 0,0 -0.6302644313436195,-0.15490366296683142 l 4.126038749944325 -16.185478090394678" fill="#ffd814" stroke="none" /><path d="M 94.81253420990036 120.34920634021253 l -1.7229112620189413 6.758575033615014 a27.974722912187687,27.974722912187687 0 0,0 -0.46559204845285734,-0.12296709169667736 l 1.8389937532832878 -6.727916592614755" fill="#ff5808" stroke="none" /><path d="M 94.46302465271185 120.25689768951611 l -3.4945370401682587 12.784683849022915 a34.25367610305063,34.25367610305063 0 0,0 -0.5674183949567202,-0.16035810620392202 l 3.714086603229593 -12.722636949480473" fill="#ffac0f" stroke="none" /><path d="M 94.11515582081647 120.15858648285463 l -1.3298245005824592 4.555325746234071 a25.745463713553438,25.745463713553438 0 0,0 -0.42434044218578126,-0.12785029431285028 l 1.4080399172084863 -4.531760082815495" fill="#ff3905" stroke="none" /><path d="M 93.76903079525671 120.05430185196036 l -3.0135085274141185 9.69894211581312 a31.156313888940765,31.156313888940765 0 0,0 -0.5107835160766181,-0.16353675183593275 l 3.180013388581677 -9.64563251731748" fill="#ff840c" stroke="none" /><path d="M 93.42475214034765 119.94407469862007 l -2.2205008102516404 6.735234165050409 a28.09182650002032,28.09182650002032 0 0,0 -0.45793726038252736,-0.1553571820137388 l 2.336107803571393 -6.696013996138547" fill="#ff5a08" stroke="none" /><path d="M 93.08242187328487 119.8279376855182 l -9.84782017769714 28.226925846703733 a50.89546629520219,50.89546629520219 0 0,0 -0.8247015063279209,-0.29570861869502707 l 10.332241244654787 -28.05322968696875" fill="#8cff24" stroke="none" /><path d="M 92.7421414339146 119.70592522655815 l -5.7629216998872534 15.646998776629422 a37.674526597024396,37.674526597024396 0 0,0 -0.6066133029148908,-0.22936924532541705 l 6.031405223562428 -15.545481281197372" fill="#ffd814" stroke="none" /><path d="M 92.40401165467489 119.57807347666478 l -3.1633797384250593 8.153367032427646 a29.74553402228567,29.74553402228567 0 0,0 -0.47575704571264815,-0.1893135469954851 l 3.3032578601795652 -8.097706641026095" fill="#ff710a" stroke="none" /><path d="M 92.06813273071674 119.44442032107085 l -6.726425533472595 16.489363839675416 a38.80853504066371,38.80853504066371 0 0,0 -0.6163692405311505,-0.25764239253104737 l 7.009266233501208 -16.371136404124396" fill="#ffe615" stroke="none" /><path d="M 91.7346041902142 119.30500536409082 l -2.7257062021847664 6.3662738076999865 a27.925237649007823,27.925237649007823 0 0,0 -0.4402604209931284,-0.19299723050225387 l 2.834887297835638 -6.318412023903281" fill="#ff5808" stroke="none" /><path d="M 91.40352486487194 119.15986991738527 l -4.0054352995283775 8.927335692261462 a30.78472454906286,30.78472454906286 0 0,0 -0.48160796456435934,-0.22108259515251008 l 4.158511259860156 -8.857066026774877" fill="#ff7f0b" stroke="none" /><path d="M 91.07499286063937 119.00905698771935 l -7.357467894009213 15.67041060009233 a38.31167531427454,38.31167531427454 0 0,0 -0.5945376025052341,-0.28541417919312073 l 7.62611816451469 -15.541442144399648" fill="#ffe015" stroke="none" /><path d="M 90.7491055286396 118.85261126421891 l -3.7858329635643675 7.715236336800317 a29.594032985781155,29.594032985781155 0 0,0 -0.4553902912029842,-0.2283421457565454 l 3.9180771624501123 -7.64892635013447" fill="#ff6f0a" stroke="none" /><path d="M 90.42595943632237 118.69057910512821 l -11.999874507247368 23.426326871876654 a47.32090003965851,47.32090003965851 0 0,0 -0.721776894444616,-0.37759955789069294 l 12.40134230421848 -23.216297895041244" fill="#b4ff20" stroke="none" /><path d="M 90.10565033884886 118.52300852407294 l -6.186160136381358 11.580983173394417 a34.12965149938864,34.12965149938864 0 0,0 -0.5158082297513906,-0.2812597735309776 l 6.384591178001389 -11.472782748103674" fill="#ffab0f" stroke="none" /><line stroke="#e1ed5e" stroke-width="0.3" x1="58.666819895761336" x2="56.23545636021788" y1="174.27360380694188" y2="178.64263932499728" /><path d="M 58.180547188652646 175.14741091055294 a86.0,86.0 0 0,1 -31.652253787137756,-30.449443065178592" fill="none" id="id80" stroke="none" /><text fill="#e1ed5e" style="font-size:6.75px; font-family:Arial;" text-anchor="middle"><textPath startOffset="22.20632615414155" xlink:href="#id80">August</textPath></text><path d="M 89.7882731507175 118.34994917583269 l -6.071801505462448 10.91071575605343 a33.486412288208676,33.486412288208676 0 0,0 -0.5012616663896778,-0.28462945630194975 l 6.258711938773333 -10.804583133956847" fill="#ffa20f" stroke="none" /><path d="M 89.4739219176387 118.17145234162733 l -3.345498402218709 5.775424075257307 a27.67442003535211,27.67442003535211 0 0,0 -0.4101508888408302,-0.24232437462109568 l 3.4444171620879214 -5.7169811283424625" fill="#ff5407" stroke="none" /><path d="M 89.1626897886671 117.98757091392108 l -5.016704643990845 8.326635371535048 a30.721120413591116,30.721120413591116 0 0,0 -0.4506068613700104,-0.2767995378193136 l 5.159290705293165 -8.239047366887355" fill="#ff7e0b" stroke="none" /><path d="M 88.8546689885994 117.79835938074946 l -6.2381803847409065 9.961963108676471 a32.75396118298836,32.75396118298836 0 0,0 -0.4752727632145349,-0.3033415642360208 l 6.408734950002365 -9.853107115616647" fill="#ff990e" stroke="none" /><path d="M 88.54995079064634 117.60387380957326 l -9.43661032489661 14.508312961125968 a38.30724586414375,38.30724586414375 0 0,0 -0.5496639238312128,-0.3642872764576626 l 9.684948947467783 -14.343727663576987" fill="#ffe015" stroke="none" /><path d="M 88.24862548938628 117.40417183066458 l -9.995557624142496 14.803749321133683 a38.86231133365778,38.86231133365778 0 0,0 -0.5511843751605615,-0.37910963920289603 l 10.248898883925948 -14.629498892565687" fill="#ffe615" stroke="none" /><path d="M 87.95078237400918 117.19931262002967 l -2.8554100703972876 4.075873802229997 a25.976556432095496,25.976556432095496 0 0,0 -0.364009079740806,-0.2597108133545668 l 2.9251464779869805 -4.026118727031211" fill="#ff3d05" stroke="none" /><path d="M 87.65650970185807 116.9893568818739 l -5.407930911587195 7.443378333865811 a30.200521602907266,30.200521602907266 0 0,0 -0.4179393085239849,-0.3091815089283246 l 5.535255190529744 -7.349186876197719" fill="#ff770a" stroke="none" /><path d="M 87.36589467227662 116.77436683061367 l -9.354129910691594 12.41952654604241 a36.54813127079738,36.54813127079738 0 0,0 -0.4992670899447906,-0.3828167147287804 l 9.566525729129872 -12.256670489486263" fill="#ffca12" stroke="none" /><path d="M 87.07902340077011 116.55440617244103 l -6.392275917755474 8.189809113588558 a31.389136861440164,31.389136861440164 0 0,0 -0.4230695237476201,-0.3361120166090156 l 6.532302934220452 -8.078563182974412" fill="#ff870c" stroke="none" /><path d="M 86.79598089348748 116.32954008644616 l -2.4818486506192845 3.069326596838296 a24.947193747795986,24.947193747795986 0 0,0 -0.3315955706663351,-0.27288057974687435 l 2.5343143498303085 -3.0261508982342407" fill="#ff2e04" stroke="none" /><path d="M 86.51685102203217 116.09983520530335 l -11.11122117263412 13.267585346820713 a38.305723240661294,38.305723240661294 0 0,0 -0.5018679480090721,-0.42770275308594835 l 11.33795459722025 -13.074358203511814" fill="#ffe015" stroke="none" /><path d="M 86.24171649860922 115.8653595955263 l -14.515806712397396 16.73889720967437 a43.156247974504296,43.156247974504296 0 0,0 -0.5570395730166179,-0.4915226573065696 l 14.801788638320602 -16.486551410595514" fill="#e4ff1a" stroke="none" /><path d="M 85.97065885151581 115.62618273729859 l -4.7352037548111365 5.274172064667189 a28.087950731155885,28.087950731155885 0 0,0 -0.35698508117610933,-0.32609740761979417 l 4.825288385454101 -5.191881890460819" fill="#ff5a08" stroke="none" /><path d="M 85.70375840098266 115.38237550388516 l -10.083953744011028 10.850065870798396 a35.81249649829556,35.81249649829556 0 0,0 -0.447936167195552,-0.4235516048492504 l 10.269225745597398 -10.674879629203215" fill="#ffc011" stroke="none" /><path d="M 85.44109423537348 115.13401014063109 l -5.857607207655216 6.088993796214872 a29.449106914314527,29.449106914314527 0 0,0 -0.3622941987525469,-0.35458112630031763 l 5.961551358783558 -5.987262566991984" fill="#ff6d0a" stroke="none" /><path d="M 85.18274418774928 114.88116024355367 l -9.372379725706587 9.412801285806212 a34.28315963048367,34.28315963048367 0 0,0 -0.41459665670852414,-0.4199842243485832 l 9.533017007470644 -9.250076567476965" fill="#ffad10" stroke="none" /><path d="M 84.9287848128048 114.62390073753433 l -7.308869889791758 7.091942251788633 a31.18406716241647,31.18406716241647 0 0,0 -0.37048668849435673,-0.3884538117000713 l 7.429863129665073 -6.965081323506062" fill="#ff840c" stroke="none" /><path d="M 84.67929136418377 114.36230785411682 l -16.94240252530427 15.882555216012198 a44.22284572396572,44.22284572396572 0 0,0 -0.5158354718445771,-0.5598375259442872 l 17.213284405144577 -15.588566435266568" fill="#d7ff1c" stroke="none" /><path d="M 84.43433777217949 114.09645910891817 l -7.7410300883740035 7.010374021006135 a31.443605256017165,31.443605256017165 0 0,0 -0.359866298020701,-0.40431360074269346 l 7.8605552360430435 -6.876086250522577" fill="#ff870c" stroke="none" /><path d="M 84.19399662182784 113.82643327865904 l -8.157689089376042 7.1360065668508055 a31.838379998923397,31.838379998923397 0 0,0 -0.3572834633275333,-0.41560138491916165 l 8.279315062274353 -6.994528082770113" fill="#ff8d0d" stroke="none" /><path d="M 83.95833913139862 113.55231037782056 l -11.696440430152212 9.881382752291787 a36.311709370066716,36.311709370066716 0 0,0 -0.39926280686913146,-0.48093777124956266 l 11.86479923691488 -9.678583723928462" fill="#ffc712" stroke="none" /><path d="M 83.72743513129214 113.27417163493432 l -6.439550268146167 5.252994607846797 a29.310340546936022,29.310340546936022 0 0,0 -0.31554966615401736,-0.3936967265063439 l 6.529017846355045 -5.1413700477621935" fill="#ff6b09" stroke="none" /><path d="M 83.50135304334701 112.99209946851258 l -10.831598955890684 8.529500110384635 a34.78680195238561,34.78680195238561 0 0,0 -0.3664096877453754,-0.47363391393386245 l 10.976815460854127 -8.34178820233752" fill="#ffb310" stroke="none" /><path d="M 83.28015986056508 112.70617746262583 l -10.00704118501567 7.604812014483289 a33.56877237657796,33.56877237657796 0 0,0 -0.3456604198720113,-0.46306861943706445 l 10.136462871582767 -7.431430515536917" fill="#ffa30f" stroke="none" /><path d="M 83.06392112726016 112.41649034213515 l -23.580729373588706 17.287939004520034 a50.23907715394647,50.23907715394647 0 0,0 -0.5053099193959261,-0.7018312823864462 l 23.87481908536024 -16.87947411668245" fill="#93ff23" stroke="none" /><path d="M 82.85270091963577 112.12312394758628 l -7.145638840362356 5.051959783310637 a29.751140045107444,29.751140045107444 0 0,0 -0.2920415723709886,-0.4207076664901206 l 7.231541319895478 -4.9282108546335035" fill="#ff710a" stroke="none" /><path d="M 82.6465618267979 111.8261652097733 l -8.184247403322944 5.577468910963114 a30.90404286196089,30.90404286196089 0 0,0 -0.2957912688337058,-0.4421678134200164 l 8.27904177756738 -5.435764183337278" fill="#ff800b" stroke="none" /><path d="M 82.44556493220864 111.52570212397912 l -11.810598287908103 7.754475563965462 a35.128769344513884,35.128769344513884 0 0,0 -0.3275258187240641,-0.508327344054255 l 11.942328970009212 -7.550026619989759" fill="#ffb811" stroke="none" /><path d="M 82.24976979558568 111.22182372390057 l -8.603978181578821 5.4394971426315575 a31.17922245133592,31.17922245133592 0 0,0 -0.2828925897446785,-0.45611292962994837 l 8.696335410991455 -5.290587881636345" fill="#ff840c" stroke="none" /><path d="M 82.05923443525364 110.91462005526583 l -8.992802062818125 5.4709492409143055 a31.526242185019626,31.526242185019626 0 0,0 -0.2780601414302284,-0.46604479102651647 l 9.085643079946585 -5.315342356001678" fill="#ff880c" stroke="none" /><line stroke="#e1ed5e" stroke-width="0.3" x1="26.63291911575756" x2="22.317208475507996" y1="142.92168965132927" y2="145.44649492493687" /><path d="M 25.769776987707644 143.4266507060508 a86.0,86.0 0 0,1 -11.730757126820373,-40.83630448921669" fill="none" id="id81" stroke="none" /><text fill="#e1ed5e" style="font-size:6.75px; font-family:Arial;" text-anchor="middle"><textPath startOffset="21.46611528233685" xlink:href="#id81">September</textPath></text><path d="M 81.69416730710424 110.29060199501025 l -22.30742255008969 12.540090956177997 a46.59052523918701,46.59052523918701 0 0,0 -0.3869755570361304,-0.7024730406693784 l 22.51997451657734 -12.154247397110796" fill="#bcff1f" stroke="none" /><path d="M 81.51974371655577 109.97397251340807 l -9.10407477137032 4.913556940820517 a31.345396041398658,31.345396041398658 0 0,0 -0.2521774304710423,-0.4770246629052281 l 9.187304710066247 -4.7561172628291635" fill="#ff860c" stroke="none" /><path d="M 81.35079622478065 109.6543875284942 l -6.365372913057514 3.2952493632835758 a28.167750043668313,28.167750043668313 0 0,0 -0.2192005324411533,-0.4325034460663028 l 6.421152115284934 -3.185191705514588" fill="#ff5b08" stroke="none" /><path d="M 81.18737489456691 109.33194174019688 l -10.326420384347381 5.12238737929673 a32.52709028410221,32.52709028410221 0 0,0 -0.2444902511021214,-0.5037223328906819 l 10.413063892064221 -4.943876090440763" fill="#ff960d" stroke="none" /><path d="M 81.02952815118164 109.00673069616217 l -6.582940524636954 3.1254242365063063 a28.28720677688293,28.28720677688293 0 0,0 -0.20504909000676452,-0.4416574978511562 l 6.635764231483545 -3.0116466713763232" fill="#ff5d08" stroke="none" /><path d="M 80.87730276802145 108.67885076344099 l -9.876222480433494 4.482331125908583 a31.8457854858608,31.8457854858608 0 0,0 -0.22225160841371952,-0.5011187042618792 l 9.951915173578493 -4.311664085154009" fill="#ff8d0d" stroke="none" /><path d="M 80.58989483394504 108.01547362559985 l -7.342895681365605 3.032275516592654 a28.94435722987989,28.94435722987989 0 0,0 -0.18620509494081192,-0.46214577507439975 l 7.394003390563805 -2.9054303736754488" fill="#ff6609" stroke="none" /><path d="M 80.45479744820244 107.68017299344265 l -24.06977229741984 9.458076203971416 a46.861344588589546,46.861344588589546 0 0,0 -0.28854475815449454,-0.753299312362779 l 24.22901133516784 -9.042353324775478" fill="#b9ff1f" stroke="none" /><path d="M 80.32549172779594 107.34259656027581 l -7.202876100335555 2.6881390145407624 a28.688141223877285,28.688141223877285 0 0,0 -0.16868044942879684,-0.46413615145771114 l 7.248080810769577 -2.563755066076934" fill="#ff6209" stroke="none" /><path d="M 80.20201598880116 107.00284435728193 l -12.827166455190495 4.537161469563562 a34.60595580876465,34.60595580876465 0 0,0 -0.19380846224210319,-0.5632981110057745 l 12.903365748375826 -4.31569065546849" fill="#ffb110" stroke="none" /><path d="M 80.0844068197444 106.66101706037122 l -6.190352124618207 2.070440018460847 a27.527417659136674,27.527417659136674 0 0,0 -0.14642980295417646,-0.4506645939038871 l 6.225074178588633 -1.9635765245791565" fill="#ff5207" stroke="none" /><path d="M 79.97269907076064 106.31721596034903 l -14.792644965260038 4.666047272195586 a36.511103836110344,36.511103836110344 0 0,0 -0.18389987105281885,-0.600995418975943 l 14.870771608818988 -4.410724880667595" fill="#ffc912" stroke="none" /><path d="M 79.86692584326677 105.97154293290107 l -6.633708714965852 1.967582103328738 a27.919354785552873,27.919354785552873 0 0,0 -0.13269319909463637,-0.46192243376073 l 6.666594550946593 -1.853102194063412" fill="#ff5808" stroke="none" /><path d="M 79.76711848015287 105.62410040840567 l -14.080960479967077 3.9140611537928556 a35.61483228620927,35.61483228620927 0 0,0 -0.1590998060730645,-0.5920695649784861 l 14.146248362381916 -3.6711006556388304" fill="#ffbe11" stroke="none" /><line stroke="#e1ed5e" stroke-width="0.3" x1="15.007084014347285" x2="10.007500721073583" y1="101.09737516637583" y2="101.16192664675087" /><path d="M 14.007167355692545 101.11028546245083 a86.0,86.0 0 0,1 10.666146001902534,-42.60595125391555" fill="none" id="id82" stroke="none" /><text fill="#e1ed5e" style="font-size:6.75px; font-family:Arial;" text-anchor="middle"><textPath startOffset="22.20632615414155" xlink:href="#id82">October</textPath></text><line stroke="#e1ed5e" stroke-width="0.3" x1="26.266209847984243" x2="21.928928074336255" y1="57.711370442889674" y2="55.22380399835377" /><path d="M 25.398753493254645 57.213857153982495 a86.0,86.0 0 0,1 29.58750427330803,-30.492523968695096" fill="none" id="id83" stroke="none" /><text fill="#e1ed5e" style="font-size:6.75px; font-family:Arial;" text-anchor="middle"><textPath startOffset="21.46611528233685" xlink:href="#id83">November</textPath></text><line stroke="#e1ed5e" stroke-width="0.3" x1="56.762969772571076" x2="54.21961505331055" y1="26.818313649435495" y2="22.513508569990535" /><path d="M 56.25429882871897 25.957352633546506 a86.0,86.0 0 0,1 42.265352541879196,-11.944610805530505" fill="none" id="id84" stroke="none" /><text fill="#e1ed5e" style="font-size:6.75px; font-family:Arial;" text-anchor="middle"><textPath startOffset="22.20632615414155" xlink:href="#id84">December</textPath></text></svg>