<?xml version="1.0" encoding="utf-8" ?>
<svg baseProfile="full" height="200mm" version="1.1" viewBox="0,0,200,200" width="200mm" xmlns="http://www.w3.org/2000/svg" xmlns:ev="http://www.w3.org/2001/xml-events" xmlns:xlink="http://www.w3.org/1999/xlink"><defs /><rect fill="#1a1a1a" height="200" width="200" x="0" y="0" /><text alignment-baseline="middle" fill="#e1ed5e" style="dominant-baseline: central; font-size:9.0px; font-family:Arial;" text-anchor="middle" x="100.0" y="100.0">2022</text><line stroke="#e1ed5e" stroke-width="0.3" x1="100.0" x2="100.0" y1="15.0" y2="10.0" /><path d="M 100.0 14.0 a86.0,86.0 0 0,1 42.46469731375804,11.215312516191453" fill="none" id="id61" stroke="none" /><text fill="#e1ed5e" style="font-size:6.75px; font-family:Arial;" text-anchor="middle"><textPath startOffset="22.20632615414155" xlink:href="#id61">January</textPath></text><path d="M 100.0 79.0 l 0.0 -35.2382514557533 a56.2382514557533,56.2382514557533 0 0,0 0.9680490518892699,0.008332303813603932 l -0.6065685726167416 35.233030528548255" fill="#54ff2b" stroke="none" /><path d="M 100.36148047927253 79.00311137660856 l 0.7559279308202188 -43.908690733964974 a64.91519724432051,64.91519724432051 0 0,0 1.117077297865188,0.0288508109048079 l -1.5116318638802746 43.889173130917804" fill="#35ff6a" stroke="none" /><path d="M 100.72285384407766 79.0124445844662 l 2.1685615322329816 -62.9626662466014 a84.0,84.0 0 0,0 1.4446366704426739,0.062209093903220936 l -3.2520390350649873 62.916009426173986" fill="#4dd2ff" stroke="none" /><path d="M 101.08401301168833 79.027996857942 l 0.2969707862469926 -5.745385152315895 a26.753055031575492,26.753055031575492 0 0,0 0.4596913126130863,0.02772983533934306 l -0.3958241476996908 5.739422047596247" fill="#ff4906" stroke="none" /><path d="M 101.44485096284872 79.0497635885617 l 0.25808951013569315 -3.742279578783944 a24.751168703354384,24.751168703354384 0 0,0 0.42478876311603336,0.03297178357168674 l -0.3224684626140677 3.737282533023792" fill="#ff2d04" stroke="none" /><path d="M 101.80526077348638 79.07773832637324 l 0.49416539886052346 -5.7271824308489805 a26.748462232428444,26.748462232428444 0 0,0 0.45838568792507567,0.043529244373788696 l -0.5926762138758433 5.717827641960014" fill="#ff4906" stroke="none" /><path d="M 102.52436894288641 79.15227682838746 l 6.7324096400471145 -55.600197763926346 a77.0063150988272,77.0063150988272 0 0,0 1.314553798800639,0.17066681103096554 l -7.6884781673555995 55.47607262973124" fill="#44ffea" stroke="none" /><path d="M 102.88285421437855 79.19881850522331 l 7.663810096355832 -55.29808061770618 a76.82662183219881,76.82662183219881 0 0,0 1.3083610998129216,0.19281841589696205 l -8.61454017659741 55.15796771764825" fill="#44ffe8" stroke="none" /><path d="M 103.2404852339499 79.25152402106235 l 7.530746296170301 -48.21855288601469 a69.80308373657016,69.80308373657016 0 0,0 1.1855581566798594,0.19562725410645057 l -8.359633658989036 48.08177936896862" fill="#3bffa0" stroke="none" /><path d="M 103.59715602781102 79.31037775812273 l 1.799610577351536 -10.35075007590022 a31.506028048880506,31.506028048880506 0 0,0 0.5335093947071791,0.0974954317765062 l -1.977515093161616 10.318239162772974" fill="#ff8a0c" stroke="none" /><path d="M 103.95276090670814 79.375362276772 l 1.0727208923396372 -5.597221867150126 a26.699089641597638,26.699089641597638 0 0,0 0.45062162883954915,0.09039045951702752 l -1.1689089306463119 5.57792745155589" fill="#ff4906" stroke="none" /><path d="M 104.307194497241 79.44645832069477 l 1.1783289683668423 -5.622879017600464 a26.745017633068155,26.745017633068155 0 0,0 0.44977131284572425,0.09830258830765672 l -1.2749430053660946 5.601762931196937" fill="#ff4906" stroke="none" /><path d="M 104.66035177308747 79.52364482259891 l 1.2871738965937498 -5.655502237821791 a26.800131222832775,26.800131222832775 0 0,0 0.4489357785946985,0.10624859426009377 l -1.384333362150972 5.632507731420828" fill="#ff4a06" stroke="none" /><path d="M 105.01212808612495 79.60689891045804 l 1.4126969181210052 -5.7479119777243115 a26.918969900762733,26.918969900762733 0 0,0 0.44902266104726374,0.11446587420754956 l -1.511428467853294 5.7227431073478945" fill="#ff4c07" stroke="none" /><path d="M 105.36241919743992 79.69619591428918 l 2.6482982804820323 -10.027289450459717 a31.371114573935863,31.371114573935863 0 0,0 0.5209130413969639,0.1423852118179286 l -2.820509211102707 9.980217697815496" fill="#ff880c" stroke="none" /><path d="M 105.71112130821622 79.79150937346287 l 1.563028935087141 -5.530692464590697 a26.74731403264168,26.74731403264168 0 0,0 0.4419799818547672,0.12902607659251494 l -1.6579991346653353 5.502968059079478" fill="#ff4906" stroke="none" /><path d="M 106.40334571778207 80.00007090966166 l 2.516244056628106 -7.8591262949923015 a29.25211186746494,29.25211186746494 0 0,0 0.47822630903748337,0.15766369523002643 l -2.651153187908007 7.814648875503039" fill="#ff6c09" stroke="none" /><path d="M 106.74666289553966 80.11325718540242 l 2.2322879527793655 -6.579984370405821 a27.94833100959567,27.94833100959567 0 0,0 0.4542508728557837,0.1584792100896852 l -2.345220829698423 6.540584307143928" fill="#ff5a08" stroke="none" /><path d="M 107.08798089147638 80.2323363322302 l 2.3291377652627485 -6.495730262899283 a27.90068071844501,27.90068071844501 0 0,0 0.45068590584156365,0.16599142261626687 l -2.4406059968768887 6.454675572476691" fill="#ff5908" stroke="none" /><path d="M 107.4271985657038 80.35727306442388 l 2.2355301186035392 -5.912310986103857 a27.320839826129745,27.320839826129745 0 0,0 0.43845633179777593,0.17011424490972327 l -2.336969615400982 5.872954037303587" fill="#ff5107" stroke="none" /><path d="M 108.09893153111575 80.62456947434976 l 2.4603003683468163 -5.885884906668457 a27.379398015254655,27.379398015254655 0 0,0 0.43326755535203465,0.18550255589071715 l -2.5612516814891664 5.842662822814948" fill="#ff5207" stroke="none" /><path d="M 108.43124777332544 80.76684994638697 l 2.5372802834622696 -5.787979873429351 a27.319691626342983,27.319691626342983 0 0,0 0.4290725150638708,0.19251233034554874 l -2.636534916992921 5.743447212567271" fill="#ff5107" stroke="none" /><path d="M 108.76106565485865 80.91482961587045 l 2.396784603410989 -5.221173351758784 a26.745017633068155,26.745017633068155 0 0,0 0.41674059565315974,0.19566529754046924 l -2.4863034103637465 5.179143071578312" fill="#ff4906" stroke="none" /><path d="M 109.08828744355905 81.06846463323043 l 2.6371164582393116 -5.493297148169499 a27.09349626835069,27.09349626835069 0 0,0 0.41869609601073543,0.2054523559352873 l -2.7312838212604786 5.447089632099379" fill="#ff4e07" stroke="none" /><path d="M 109.41281617654863 81.2277094730956 l 4.135782322903564 -8.248127432363034 a30.22693348642664,30.22693348642664 0 0,0 0.4631047067433344,0.23722021787833275 l -4.277147517235655 8.175714689172201" fill="#ff790b" stroke="none" /><path d="M 109.73455568895987 81.39251694778311 l 3.1360071144291273 -5.994438893554331 a27.765193143606986,27.765193143606986 0 0,0 0.4215747318065362,0.2251906216735194 l -3.2387268927639745 5.939569545379057" fill="#ff5708" stroke="none" /><path d="M 110.05341064243156 81.56283822128135 l 3.316506908942879 -6.082211957237703 a27.927663413433937,27.927663413433937 0 0,0 0.42007981527657345,0.2337739623906473 l -3.4207108132914876 6.024222597286876" fill="#ff5a08" stroke="none" /><path d="M 110.36928655335952 81.73862282372117 l 3.4059700357750247 -5.998262576149981 a27.8978102189781,27.8978102189781 0 0,0 0.4155488663599288,0.2407127252190583 l -3.5087156346002817 5.938745693540873" fill="#ff5908" stroke="none" /><line stroke="#e1ed5e" stroke-width="0.3" x1="143.23703022742887" x2="145.7803849466894" y1="26.81831364943548" y2="22.513508569990506" /><path d="M 143.74570117128098 25.957352633546492 a86.0,86.0 0 0,1 28.547481713284135,27.462654790039103" fill="none" id="id62" stroke="none" /><text fill="#e1ed5e" style="font-size:6.75px; font-family:Arial;" text-anchor="middle"><textPath startOffset="19.985693538727396" xlink:href="#id62">February</textPath></text><path d="M 111.2981086023043 82.29822771554956 l 1.5857319654509479 -2.484510208271646 a23.947428852620355,23.947428852620355 0 0,0 0.3455647900013757,0.22476495192688722 l -1.6282637812366036 2.4568463321852305" fill="#ff2203" stroke="none" /><path d="M 111.60114157652 82.49532879139004 l 1.0431163958876486 -1.5739321360649046 a22.888214549331583,22.888214549331583 0 0,0 0.3265334110664586,0.22047681676581152 l -1.070054501360649 1.555743407000423" fill="#ff1302" stroke="none" /><path d="M 111.90073688211348 82.69761687909136 l 0.6998136918293584 -1.0174533500936196 a22.234888870663497,22.234888870663497 0 0,0 0.31347896235340494,0.2196120462492899 l -0.7172237937664142 1.0052564610803942" fill="#ff0a01" stroke="none" /><path d="M 112.19680574252982 82.90503203632743 l 32.46146221215036 -45.49778591911697 a76.89092102025752,76.89092102025752 0 0,0 1.0708147610592968,0.7779924635254732 l -33.23982228956344 44.93227422077482" fill="#44ffe9" stroke="none" /><path d="M 112.48926042617603 83.11751280151076 l 3.4846603764332693 -4.710425772923843 a26.85926351185106,26.85926351185106 0 0,0 0.36931979267924364,0.27816401104373906 l -3.565226322870896 4.649745172374256" fill="#ff4b07" stroke="none" /><path d="M 112.77801427241765 83.33499621200491 l 3.605049544584329 -4.7016823612485155 a26.92471089969655,26.92471089969655 0 0,0 0.3653650508646458,0.28517321752426295 l -3.685447150608405 4.638930754501028" fill="#ff4c07" stroke="none" /><path d="M 113.06298171725822 83.55741782278167 l 3.5533138709838776 -4.472612500705932 a26.71229393914541,26.71229393914541 0 0,0 0.3575588115638151,0.28912102573600457 l -3.6297760811121837 4.410785377705797" fill="#ff4906" stroke="none" /><path d="M 113.34407831869373 83.78471172551755 l 4.598689173718612 -5.588176931794902 a28.237103255966538,28.237103255966538 0 0,0 0.37265239740468065,0.3120856659171928 l -4.69419910808241 5.50819010848389" fill="#ff5e08" stroke="none" /><path d="M 113.6212207817346 84.01681056812373 l 3.7651155943059837 -4.418000173479343 a26.804724021979823,26.804724021979823 0 0,0 0.34859696933165424,0.3022998566728327 l -3.840606362284402 4.35253532338684" fill="#ff4a06" stroke="none" /><path d="M 113.89432698308785 84.25364557470407 l 27.811444628003112 -31.51853736601105 a63.03444599360289,63.03444599360289 0 0,0 0.8074082559644354,0.7248991042444421 l -28.349863871563535 31.035139252997308" fill="#33ff54" stroke="none" /><path d="M 114.16331599549186 84.49514656593476 l 27.376835273278427 -29.969946200158084 a61.59173296153531,61.59173296153531 0 0,0 0.7766193005536962,0.721783000835678 l -27.88866245762697 29.494258613247766" fill="#31ff43" stroke="none" /><path d="M 114.42810811169701 84.74124197986012 l 2.5697565364746433 -2.717701645786142 a24.740260805380135,24.740260805380135 0 0,0 0.306916785580974,0.2952537045590465 l -2.6161565656680357 2.6730648544647932" fill="#ff2d04" stroke="none" /><path d="M 114.68862486808459 84.99185889309783 l 4.418353137689242 -4.514463943772239 a27.31682112687608,27.31682112687608 0 0,0 0.33321864885421854,0.33178770207950065 l -4.495407586710783 4.43774039104262" fill="#ff5107" stroke="none" /><path d="M 114.94478906791727 85.2469230424477 l 4.340154030139838 -4.284478430795759 a27.098663167391127,27.098663167391127 0 0,0 0.32484294881450687,0.33477921325469545 l -4.4132612426574545 4.209135021990949" fill="#ff4e07" stroke="none" /><path d="M 115.19652480421416 85.50635884689758 l 4.618075117516734 -4.404475657013217 a27.381694414828182,27.381694414828182 0 0,0 0.3223642685316376,0.34387572547093076 l -4.693206708018835 4.324330514664232" fill="#ff5207" stroke="none" /><path d="M 115.4437574822437 85.77008943001954 l 0.9486897690642593 -0.8741247450927053 a22.290002460428113,22.290002460428113 0 0,0 0.2575624213193854,0.2844068586203146 l -0.9635958309996803 0.8576650992028417" fill="#ff0a01" stroke="none" /><path d="M 115.68641384162765 86.03803664274999 l 0.7213031543130678 -0.6420083208096042 a21.965636020667596,21.965636020667596 0 0,0 0.24895238545744688,0.28459561234913516 l -0.7322474033483629 0.6294971522575213" fill="#ff0600" stroke="none" /><path d="M 115.9244219780498 86.31012108654704 l 13.039489104976724 -11.209764924998657 a38.19555482653982,38.19555482653982 0 0,0 0.42431512157155493,0.502255268061893 l -13.230514840035397 10.983650707307659" fill="#ffe015" stroke="none" /><path d="M 116.15771136456269 86.58626213691792 l 4.852790749397802 -4.028668513015827 a27.30711883867793,27.30711883867793 0 0,0 0.2971294205565052,0.36424553662412096 l -4.9214186620307165 3.944538806783605" fill="#ff5107" stroke="none" /><path d="M 116.60985879189232 87.15038557335679 l 3.054381343493909 -2.362911272610393 a24.861682932830313,24.861682932830313 0 0,0 0.25894515352045305,0.34074146882320183 l -3.0946024372384757 2.309985027906157" fill="#ff2f04" stroke="none" /><path d="M 116.82858285166822 87.43820079747576 l 6.044653609215621 -4.512068874548936 a28.542983679160173,28.542983679160173 0 0,0 0.29050965536428075,0.39625484343556167 l -6.121425877093529 4.40735158744188" fill="#ff6209" stroke="none" /><path d="M 117.04232023915458 87.72973835380427 l 3.265664322488483 -2.3512382776095517 a25.024038382678587,25.024038382678587 0 0,0 0.24867623866706065,0.35173490405937013 l -3.3056531809594265 2.2946768732183886" fill="#ff3104" stroke="none" /><path d="M 117.2510076193507 88.02491185347247 l 48.7729217851229 -33.85657524638684 a80.37226277372262,80.37226277372262 0 0,0 0.7791345875987407,1.1432838671427024 l -49.34848083839037 33.01201335597373" fill="#49f3ff" stroke="none" /><path d="M 117.45458315368197 88.32363383020206 l 37.883397882773316 -25.3423654716211 a66.57836463544658,66.57836463544658 0 0,0 0.6290176931447402,0.9580371010828386 l -38.31401221127598 24.686510306560585" fill="#38ff7c" stroke="none" /><path d="M 117.65298651832404 88.62581576622439 l 6.062407847212515 -3.9061347315314583 a28.211842860657754,28.211842860657754 0 0,0 0.2595118809392682,0.4104854737329121 l -6.128747324397739 3.8012016100843398" fill="#ff5e08" stroke="none" /><line stroke="#e1ed5e" stroke-width="0.3" x1="172.23445277983987" x2="176.4835382374775" y1="55.19839476539836" y2="52.563006222186495" /><path d="M 173.08426987136738 54.67131705675599 a86.0,86.0 0 0,1 12.851231095245387,41.99856678651699" fill="none" id="id63" stroke="none" /><text fill="#e1ed5e" style="font-size:6.75px; font-family:Arial;" text-anchor="middle"><textPath startOffset="22.20632615414155" xlink:href="#id63">March</textPath></text><path d="M 117.84615892207809 88.93136811851018 l 4.88123841590506 -3.027465539634916 a26.74386943328139,26.74386943328139 0 0,0 0.2392738361528348,0.39330327381616004 l -4.932628050344118 2.9429944926116747" fill="#ff4906" stroke="none" /><path d="M 118.03404312379186 89.2402003453031 l 4.757114248652715 -2.838276247797107 a26.539489871237596,26.539489871237596 0 0,0 0.2306917676422458,0.39432701073578086 l -4.805265690765288 2.7559698247074307" fill="#ff4606" stroke="none" /><path d="M 118.21658344932153 89.55222093294921 l 4.017419248357713 -2.3041153047895993 a25.631263839908144,25.631263839908144 0 0,0 0.21620869205987142,0.38461113796033763 l -4.056485581710017 2.2346206568944678" fill="#ff3a05" stroke="none" /><path d="M 118.3937258080291 89.86733742301442 l 6.040729055793039 -3.3276928165703783 a27.89666201919134,27.89666201919134 0 0,0 0.22807766321595335,0.42259327094532834 l -6.097114818227458 3.2232185622925913" fill="#ff5908" stroke="none" /><path d="M 118.56541770881063 90.18545643968196 l 2.560554753846459 -1.3536283731595866 a23.896333962109406,23.896333962109406 0 0,0 0.18911168031229167,0.36530357332445956 l -2.583475867318867 1.3093520775747824" fill="#ff2103" stroke="none" /><path d="M 118.73160827565052 90.50648371742162 l 1.0472166796168667 -0.5307482653400267 a22.174034281965064,22.174034281965064 0 0,0 0.16962078951550247,0.341945161262379 l -1.0561974820857771 0.5126435155786978" fill="#ff0901" stroke="none" /><path d="M 118.89224826269711 90.83032412892265 l 7.782806776308342 -3.7775184040368655 a29.651111293365048,29.651111293365048 0 0,0 0.21891246902487704,0.46108548940641825 l -7.846677439174975 3.6429904989899065" fill="#ff710a" stroke="none" /><path d="M 119.04729006885535 91.15688171328212 l 6.250681264838834 -2.902014596182549 a27.891495120150907,27.891495120150907 0 0,0 0.19842498797041236,0.43720315876393734 l -6.299708569772593 2.7939894285765488" fill="#ff5908" stroke="none" /><path d="M 119.34039704204932 91.81776055985345 l 7.762806784531238 -3.2841695907551207 a29.428934634626422,29.428934634626422 0 0,0 0.19335975036295783,0.4682359726617247 l -7.818188221780392 3.150059047640093" fill="#ff6e0a" stroke="none" /><path d="M 119.47837535516314 92.15188598940014 l 3.5118479309795467 -1.414973397301895 a24.786188796850652,24.786188796850652 0 0,0 0.15604257299017102,0.397111327882922 l -3.5356840538514183 1.3543130645231884" fill="#ff2e04" stroke="none" /><path d="M 119.61058180528143 92.48833698450437 l 28.97920634524406 -11.100233266070724 a52.03239563684081,52.03239563684081 0 0,0 0.3131740979887968,0.8391508822444692 l -29.16598503173448 10.599759246796923" fill="#7fff26" stroke="none" /><path d="M 119.7369772167798 92.82701384747503 l 32.23128937489657 -11.713779158016319 a55.29385713114082,55.29385713114082 0 0,0 0.3174049584429318,0.8973465597295455 l -32.42814741414931 11.15723497186016" fill="#5dff2a" stroke="none" /><path d="M 119.85752413597 93.16781622104841 l 7.137069625074428 -2.455581621746807 a28.5476912982859,28.5476912982859 0 0,0 0.15587407337283582,0.46604363935823867 l -7.178280992219034 2.332364879466254" fill="#ff6209" stroke="none" /><path d="M 119.97218684219823 93.5106431181261 l 5.475302486496726 -1.779033620695793 a26.757073730829163,26.757073730829163 0 0,0 0.1385564304113074,0.4392617483628279 l -5.50511440067624 1.684521705906546" fill="#ff4a06" stroke="none" /><path d="M 120.08093135843002 93.85539295169968 l 5.738428483273708 -1.755913980040001 a27.00106618551628,27.00106618551628 0 0,0 0.13216906550322366,0.44560838411485293 l -5.767803445888634 1.6568762091786182" fill="#ff4d07" stroke="none" /><path d="M 120.18372546131832 94.20196356495316 l 6.902272391143301 -1.9827671004128322 a28.181415566308537,28.181415566308537 0 0,0 0.1299206595707474,0.46739373787611715 l -6.935379821280411 1.863662059117763" fill="#ff5d08" stroke="none" /><path d="M 120.37134235888165 94.90015583598534 l 49.57978962907127 -12.412004881094838 a72.10981710817683,72.10981710817683 0 0,0 0.29107367952212404,1.2066883178167882 l -49.78609610885421 11.556731331618643" fill="#3effb8" stroke="none" /><path d="M 120.45610955862082 95.25157060432595 l 56.20718607719901 -13.04724409361677 a78.70163208398262,78.70163208398262 0 0,0 0.2949647712909504,1.3222692329179067 l -56.423445235492 12.0777966911489" fill="#46fffb" stroke="none" /><path d="M 120.53481517161879 95.60439243477599 l 6.176331679875063 -1.32208301026804 a27.316247026982694,27.316247026982694 0 0,0 0.09446309962187409,0.4606356216432571 l -6.198174075411933 1.215571732461371" fill="#ff5107" stroke="none" /><path d="M 120.6074358757038 95.95851677861258 l 8.89445303604832 -1.7443597993183175 a30.063889116706306,30.063889116706306 0 0,0 0.09522275338342762,0.5086837561857342 l -8.923161513341608 1.5909979656700204" fill="#ff770a" stroke="none" /><path d="M 120.67395015179393 96.31383870115 l 6.986268017887991 -1.2456502314192501 a28.096448782088082,28.096448782088082 0 0,0 0.08079486856393792,0.4768558877996362 l -7.006674747972151 1.1252085553037758" fill="#ff5c08" stroke="none" /><path d="M 120.73433829027371 96.67025291283417 l 2.391486187338767 -0.38405103914138256 a23.42212745017633,23.42212745017633 0 0,0 0.06050058939455543,0.398623292398038 l -2.3977426701726223 0.34282863435126243" fill="#ff1b02" stroke="none" /><path d="M 120.78858239683441 97.02765380044208 l 8.52650705868686 -1.21911780070443 a29.613220700401868,29.613220700401868 0 0,0 0.06780581581231562,0.5052320861592849 l -8.54622887355701 1.072167372480481" fill="#ff710a" stroke="none" /><path d="M 120.83666639777658 97.38593545837742 l 10.976290352900763 -1.3770308005283207 a32.06233084556713,32.06233084556713 0 0,0 0.06398671274380291,0.5481990787619571 l -10.998367418648154 1.187887983441511" fill="#ff910d" stroke="none" /><path d="M 120.87857604477298 97.74499172005257 l 8.500632412991173 -0.918117999760985 a29.55006971212991,29.55006971212991 0 0,0 0.05026730601941895,0.5061849116591849 l -8.51517684469282 0.7716575573973652" fill="#ff700a" stroke="none" /><path d="M 120.91429891909075 98.10471618934814 l 7.466002768951778 -0.6765798955546091 a28.496596407774952,28.496596407774952 0 0,0 0.04006555801557558,0.4889012901270669 l -7.476542810786849 0.5479646882197733" fill="#ff6109" stroke="none" /><path d="M 120.94382443527127 98.46500227214037 l 6.129299340593755 -0.4492236167401344 a27.145739358648406,27.145739358648406 0 0,0 0.03014393326627893,0.4663133056086684 l -6.136123864864449 0.34365124687843074" fill="#ff4f07" stroke="none" /><path d="M 120.96714384426684 98.82574320788733 l 7.4499020898312205 -0.4172288889004169 a28.461576314278684,28.461576314278684 0 0,0 0.023184517844013746,0.4893885283375205 l -7.455980215908731 0.28892925393989666" fill="#ff6108" stroke="none" /><path d="M 120.98425023603335 99.18683210126433 l 6.314378259329646 -0.24469064384984557 a27.319117526449602,27.319117526449602 0 0,0 0.014164709468101206,0.4700577480148171 l -6.317654663253393 0.1359627484100294" fill="#ff5107" stroke="none" /><line stroke="#e1ed5e" stroke-width="0.3" x1="184.98032266829074" x2="189.97916517819016" y1="98.17113171792111" y2="98.06355123074" /><path d="M 185.9800911702706 98.14961562048488 a86.0,86.0 0 0,1 -9.607161424134198,41.387399972396054" fill="none" id="id64" stroke="none" /><text fill="#e1ed5e" style="font-size:6.75px; font-family:Arial;" text-anchor="middle"><textPath startOffset="21.466115282336823" xlink:href="#id64">April</textPath></text><path d="M 120.99513854157772 99.54816195383933 l 5.74024387091825 -0.12353624483044463 a26.741573033707866,26.741573033707866 0 0,0 0.005942987190924017,0.4602909073387366 l -5.7415198652268895 0.024709079431245298" fill="#ff4906" stroke="none" /><path d="M 120.99980553446 99.90962569577887 l 5.743242148958084 -0.024716491413876406 a26.74329533338801,26.74329533338801 0 0,0 -0.001981172239893959,0.46035465641044737 l -5.742816679428686 -0.07414764320025569" fill="#ff4906" stroke="none" /><path d="M 120.99824983174949 100.27111621757518 l 9.18827706626705 0.11863326440056902 a30.189042893463462,30.189042893463462 0 0,0 -0.011181356344046664,0.5195536930117503 l -9.184873647237996 -0.27677677320243405" fill="#ff780b" stroke="none" /><path d="M 120.9904718944345 100.63252640178507 l 14.253597183790117 0.42951757275866936 a35.2600672517018,35.2600672517018 0 0,0 -0.02350313033556965,0.6065113601490957 l -14.244091920603344 -0.6748061799217712" fill="#ffbb11" stroke="none" /><path d="M 120.9764740272857 100.99374915477107 l 4.561848352526252 0.2161151077449852 a25.56696465184942,25.56696465184942 0 0,0 -0.024609602492544087,0.43942098430023396 l -4.557452399146179 -0.2946078083806425" fill="#ff3905" stroke="none" /><path d="M 120.95626037817324 101.35467743843564 l 6.963649768902805 0.45015184297507355 a27.978184204051505,27.978184204051505 0 0,0 -0.035203805190195676,0.480327952266776 l -6.954869405048271 -0.5699529317386198" fill="#ff5a08" stroke="none" /><path d="M 120.92983693683757 101.71520430193887 l 4.006416748181652 0.32832664977653764 a25.0198474534569,25.0198474534569 0 0,0 -0.03887060115500095,0.4289338447104827 l -4.0001715507495765 -0.3972418830355909" fill="#ff3104" stroke="none" /><path d="M 120.89721153311464 102.0752229133903 l 5.715183689474259 0.5675532416292561 a26.74329533338801,26.74329533338801 0 0,0 -0.049433960719989616,0.4576970813209973 l -5.704567427253218 -0.6658466448350449" fill="#ff4906" stroke="none" /><path d="M 120.8583938346157 102.4346265915055 l 12.205174051672117 1.4246083152788185 a33.28803411793652,33.28803411793652 0 0,0 -0.07132910930697955,0.5685631825132994 l -12.17884343311829 -1.6344892520795127" fill="#ffa10e" stroke="none" /><path d="M 120.81339534386255 102.79330883721812 l 8.870686279308268 1.1905105326069712 a29.95021733781678,29.95021733781678 0 0,0 -0.07297291868325882,0.5103724233099326 l -8.848879309608408 -1.343028427897313" fill="#ff750a" stroke="none" /><path d="M 120.76222939487914 103.15116336523771 l 5.6765645911092815 0.8615540286979492 a26.741573033707866,26.741573033707866 0 0,0 -0.07298952628150537,0.4545058498288776 l -5.660893310466488 -0.9591391082200318" fill="#ff4906" stroke="none" /><path d="M 120.70491114924044 103.5080841355445 l 2.179226001929404 0.369231633501362 a23.210284589518576,23.210284589518576 0 0,0 -0.07013214912023127,0.39333833693120956 l -2.172547410469984 -0.4066887211657899" fill="#ff1802" stroke="none" /><path d="M 120.64145759157962 103.86396538481128 l 6.529492490012517 1.2222844656128198 a27.64290986631674,27.64290986631674 0 0,0 -0.09157709962606339,0.4669496580463777 l -6.507485457410789 -1.3344978507271423" fill="#ff5607" stroke="none" /><path d="M 120.5718875245553 104.21870165774334 l 5.683012751459342 1.1654222436779689 a26.801279422619537,26.801279422619537 0 0,0 -0.09656878909177667,0.4511372332315144 l -5.662109923643122 -1.2630732963256521" fill="#ff4a06" stroke="none" /><path d="M 120.41448212921028 104.9243191809786 l 11.16353333963732 2.6928334994700514 a32.483720167309116,32.483720167309116 0 0,0 -0.13579538572833777,0.5424350635943177 l -11.115526639613922 -2.884596402461765" fill="#ff970d" stroke="none" /><path d="M 120.32669344350535 105.2749913415812 l 6.389357861434824 1.658105755911881 a27.601000574099892,27.601000574099892 0 0,0 -0.12330014089276295,0.4588456930402462 l -6.359869644200284 -1.7678423821276756" fill="#ff5507" stroke="none" /><path d="M 120.23288151984713 105.62410040840565 l 8.223912147327349 2.2859871749412326 a29.535717214795376,29.535717214795376 0 0,0 -0.14037533585174128,0.4886649596138706 l -8.183344174589509 -2.427209610059685" fill="#ff700a" stroke="none" /><path d="M 120.13307415673323 105.97154293290107 l 5.506199564339078 1.6331587933169949 a26.74329533338801,26.74329533338801 0 0,0 -0.13470117434448237,0.44021123151555597 l -5.477271617488463 -1.727696997384608" fill="#ff4906" stroke="none" /><path d="M 120.02730092923936 106.31721596034902 l 6.176987044032874 1.948408389093678 a27.476994997129502,27.476994997129502 0 0,0 -0.14616158380796096,0.4498391002532257 l -6.142533209208666 -2.054446389324699" fill="#ff5307" stroke="none" /><path d="M 119.9155931802556 106.66101706037122 l 6.536173655074457 2.1861043169511616 a27.892069220044288,27.892069220044288 0 0,0 -0.1562077659163475,0.4540128869873269 l -6.497575058214878 -2.298289907027789" fill="#ff5908" stroke="none" /><path d="M 119.79798401119884 107.00284435728193 l 5.468138343452306 1.934162676443295 a26.800131222832775,26.800131222832775 0 0,0 -0.1575793337093416,0.43359064873724784 l -5.434034748737737 -2.0280011221866743" fill="#ff4a06" stroke="none" /><path d="M 119.67450827220406 107.3425965602758 l 11.353760220835875 4.237263752176432 a33.11867464938899,33.11867464938899 0 0,0 -0.20392543259273851,0.5323849552073484 l -11.27914050864963 -4.432072274216924" fill="#ff9f0e" stroke="none" /><path d="M 119.54520255179757 107.68017299344265 l 5.352368680427465 2.1031819589194622 a26.75075863200197,26.75075863200197 0 0,0 -0.17209321703880753,0.427121251428313 l -5.315372849131265 -2.195002578190589" fill="#ff4906" stroke="none" /><path d="M 119.41010516605496 108.01547362559984 l 3.7606116982922324 1.552958298056974 a25.068645944394326,25.068645944394326 0 0,0 -0.1681378182907307,0.39742813533068994 l -3.7333228988091927 -1.6174609590538274" fill="#ff3204" stroke="none" /><path d="M 119.26925614724726 108.34839909993367 l 4.309098534254153 1.866915570066361 a25.696137127860247,25.696137127860247 0 0,0 -0.17933323733598394,0.40434910760063947 l -4.276324212186895 -1.9408130141596882" fill="#ff3b05" stroke="none" /><path d="M 119.12269723197855 108.67885076344098 l 5.754740455715569 2.6117933569523046 a27.319691626342983,27.319691626342983 0 0,0 -0.1980357393160815,0.42655136440040153 l -5.708930099559656 -2.7104647886315365" fill="#ff5107" stroke="none" /><path d="M 118.97047184881838 109.00673069616215 l 5.189276396819944 2.4637455191721624 a26.744443533174774,26.744443533174774 0 0,0 -0.20102491977920486,0.41417087635959554 l -5.146098220426024 -2.5527053514970333" fill="#ff4906" stroke="none" /><path d="M 118.81262510543309 109.33194174019688 l 2.0613193751216765 1.0225107984009698 a23.300992372672845,23.300992372672845 0 0,0 -0.18132757946867598,0.35777651684361916 l -2.0434131258667314 -1.0578415269472834" fill="#ff1902" stroke="none" /><path d="M 118.64920377521936 109.65438752849418 l 9.090843175481464 4.706180705338578 a31.236775198884608,31.236775198884608 0 0,0 -0.25130356290449624,0.47537163479492145 l -9.008487104352074 -4.861967355219633" fill="#ff860c" stroke="none" /><line stroke="#e1ed5e" stroke-width="0.3" x1="174.80103733775053" x2="179.2010983576182" y1="140.37084112569926" y2="142.7455964860345" /><path d="M 175.68104954172406 140.8457921977663 a86.0,86.0 0 0,1 -30.038265399797805,32.042727171017184" fill="none" id="id65" stroke="none" /><text fill="#e1ed5e" style="font-size:6.75px; font-family:Arial;" text-anchor="middle"><textPath startOffset="22.206326154141568" xlink:href="#id65">May</textPath></text><path d="M 118.48025628344425 109.97397251340804 l 5.060232563355412 2.7310563081083417 a26.750184532108587,26.750184532108587 0 0,0 -0.22218396352024145,0.40332843148402836 l -5.0124721903836615 -2.817755257990175" fill="#ff4906" stroke="none" /><path d="M 118.30583269289576 110.29060199501025 l 5.562462898973081 3.1269318782508773 a27.381120314934797,27.381120314934797 0 0,0 -0.2344971348453596,0.40886552042520347 l -5.507813767975342 -3.222217244534396" fill="#ff5207" stroke="none" /><path d="M 118.12598468904814 110.60418214915192 l 5.466684794269364 3.198155703257171 a27.333470023784137,27.333470023784137 0 0,0 -0.24108006580638355,0.4040640571909756 l -5.410823852764753 -3.2917818543342507" fill="#ff5107" stroke="none" /><path d="M 117.94076556474637 110.91462005526583 l 5.302921274120061 3.2261371835625385 a27.20716804724022,27.20716804724022 0 0,0 -0.2468536936902477,0.3980067541558906 l -5.246602940761851 -3.3169402690837027" fill="#ff5007" stroke="none" /><path d="M 117.75023020441432 111.22182372390056 l 3.981536915367274 2.5171563917713438 a25.710489625194782,25.710489625194782 0 0,0 -0.23971375375275916,0.3720410691685844 l -3.9376182982374646 -2.5853190608613814" fill="#ff3b05" stroke="none" /><path d="M 117.55443506779139 111.5257021239791 l 3.5911270841817124 2.3578235871329336 a25.295989502173377,25.295989502173377 0 0,0 -0.2421150159761833,0.3619290982876442 l -3.5500089627948084 -2.4192895996263846" fill="#ff3505" stroke="none" /><path d="M 117.35343817320211 111.8261652097733 l 6.6441100526448365 4.527883314548648 a29.040269006807186,29.040269006807186 0 0,0 -0.28506355756336976,0.4106553157148037 l -6.565185587919331 -4.641579892450471" fill="#ff6909" stroke="none" /><path d="M 117.14729908036423 112.12312394758627 l 4.94838265377197 3.498501773988373 a27.06019847453457,27.06019847453457 0 0,0 -0.2721743209594566,0.37802632677385745 l -4.887428540436911 -3.5831617062133616" fill="#ff4e07" stroke="none" /><path d="M 116.93607887273984 112.41649034213515 l 4.631852512176094 3.3957890970972398 a26.74329533338801,26.74329533338801 0 0,0 -0.27537791939480377,0.3689137246457689 l -4.572713326086198 -3.4750157012523233" fill="#ff4906" stroke="none" /><path d="M 116.71984013943494 112.70617746262583 l 5.054027513648049 3.840788545456511 a27.347822521118673,27.347822521118673 0 0,0 -0.28805485264769654,0.3723497272320483 l -4.987165843782284 -3.927216266801812" fill="#ff5207" stroke="none" /><path d="M 116.498646956653 112.99209946851258 l 9.953132737156887 7.837739111831022 a33.66866234724842,33.66866234724842 0 0,0 -0.36247054675171647,0.4522377394671788 l -9.816744278350317 -8.00790468487645" fill="#ffa60f" stroke="none" /><path d="M 116.27256486870786 113.27417163493432 l 4.461198017246589 3.639174810864481 a26.757245960797178,26.757245960797178 0 0,0 -0.2942073868657332,0.3543917502206557 l -4.397894630487312 -3.7154278181989073" fill="#ff4a06" stroke="none" /><path d="M 116.0416608686014 113.55231037782055 l 8.769958761913399 7.4090335231291755 a32.48067743787419,32.48067743787419 0 0,0 -0.3644911872595457,0.4239855962127992 l -8.641125065083076 -7.558896218503502" fill="#ff970d" stroke="none" /><path d="M 115.80600337817218 113.82643327865902 l 8.562179308851574 7.489837759824724 a32.3757893873534,32.3757893873534 0 0,0 -0.37053497451903034,0.416299971886426 l -8.431985484684205 -7.636111901452017" fill="#ff950d" stroke="none" /><path d="M 115.56566222782051 114.09645910891815 l 14.02692594154153 12.702960212342306 a39.92405478553268,39.92405478553268 0 0,0 -0.465692410813896,0.5054171365703156 l -13.806187122731911 -12.942528603713956" fill="#fff517" stroke="none" /><path d="M 115.32070863581623 114.36230785411682 l 4.190902173650929 3.9287364987641262 a26.744443533174774,26.744443533174774 0 0,0 -0.3177411165972536,0.3331502904399767 l -4.122654505674711 -4.00029390578661" fill="#ff4906" stroke="none" /><path d="M 115.07121518719521 114.62390073753431 l 6.771107749975831 6.570140920217582 a30.434757647830722,30.434757647830722 0 0,0 -0.368056763277588,0.3728395580142438 l -6.657010361642707 -6.68572097221249" fill="#ff7c0b" stroke="none" /><path d="M 114.81725581225074 114.88116024355365 l 4.051159828817617 4.0686318268892006 a26.741573033707866,26.741573033707866 0 0,0 -0.3289850793716478,0.32198114234578845 l -3.9805247970701756 -4.137763072157561" fill="#ff4906" stroke="none" /><path d="M 114.55890576462653 115.13401014063108 l 3.9801267843917367 4.1373493372238395 a26.740998933814485,26.740998933814485 0 0,0 -0.3344715320241278,0.3162637101892267 l -3.9083194179768013 -4.205247684158987" fill="#ff4906" stroke="none" /><path d="M 114.29624159901734 115.38237550388516 l 4.066997186346659 4.375980740135842 a26.974083490527352,26.974083490527352 0 0,0 -0.342828335063818,0.3131655556994286 l -3.991069301815977 -4.445339062421853" fill="#ff4d07" stroke="none" /><path d="M 114.0293411484842 115.62618273729858 l 14.531388978205237 16.185374437539796 a42.75149676043631,42.75149676043631 0 0,0 -0.5518152438859764,0.4869127942711109 l -14.250631381412672 -16.433110373583197" fill="#e7ff1a" stroke="none" /><path d="M 113.75828350139079 115.86535959552629 l 3.763132574193248 4.339454953750525 a26.74386943328139,26.74386943328139 0 0,0 -0.3503886557624547,0.2986088139603118 l -3.6878784418537465 -4.403588157933783" fill="#ff4906" stroke="none" /><path d="M 113.48314897796784 116.09983520530334 l 3.686772631226505 4.402267741694524 a26.742147133601247,26.742147133601247 0 0,0 -0.3554539091352892,0.29251436803941533 l -3.6104485935465243 -4.4650772285911176" fill="#ff4906" stroke="none" /><path d="M 112.92097659922987 116.55440617244103 l 4.2395243485047995 5.431695313749347 a27.890346920364145,27.890346920364145 0 0,0 -0.3809971087524968,0.2921323364412496 l -4.145398511258809 -5.503866992017968" fill="#ff5908" stroke="none" /><path d="M 112.63410532772338 116.77436683061366 l 3.460140167121374 4.5940459528441915 a26.75133273189535,26.75133273189535 0 0,0 -0.37020663586774266,0.27387001882427026 l -3.3805485608350674 -4.65292592040823" fill="#ff4906" stroke="none" /><path d="M 112.34349029814194 116.9893568818739 l 3.713271747197951 5.110880098639664 a27.317395226769456,27.317395226769456 0 0,0 -0.38279823283759873,0.2731163752061706 l -3.6247461865114676 -5.174040735690054" fill="#ff5107" stroke="none" /><path d="M 112.04921762599082 117.19931262002967 l 4.612953979998783 6.584629813031945 a29.0396949069138,29.0396949069138 0 0,0 -0.4118701524131522,0.2832880464623265 l -4.498926942962747 -6.663058648859366" fill="#ff6909" stroke="none" /><path d="M 111.7513745106137 117.40417183066458 l 5.9452400747264065 8.80509592657751 a31.624292626917082,31.624292626917082 0 0,0 -0.45377140490196766,0.30073494377059856 l -5.792793971084475 -8.906128891439426" fill="#ff8b0c" stroke="none" /><path d="M 111.45004920935366 117.60387380957326 l 3.2576249247312297 5.008434203675031 a26.974657590420733,26.974657590420733 0 0,0 -0.3914128119692426,0.24981817565500744 l -3.1709303107150566 -5.063766808153847" fill="#ff4d07" stroke="none" /><path d="M 111.1453310114006 117.79835938074945 l 3.0795226914958276 4.91779486211309 a26.8024276224063,26.8024276224063 0 0,0 -0.3931288190480941,0.24149182967413924 l -2.9944146725154246 -4.970075158615607" fill="#ff4a06" stroke="none" /><line stroke="#e1ed5e" stroke-width="0.3" x1="143.8653032363475" x2="146.44561519142675" y1="172.8068346515853" y2="177.08958963109032" /><path d="M 144.38136562736335 173.6633856474863 a86.0,86.0 0 0,1 -40.68145358897372,12.25698825130547" fill="none" id="id66" stroke="none" /><text fill="#e1ed5e" style="font-size:6.75px; font-family:Arial;" text-anchor="middle"><textPath startOffset="21.466115282336833" xlink:href="#id66">June</textPath></text><path d="M 110.5260780823613 118.17145234162733 l 3.4534422227621815 5.9617704024677955 a27.88977282047076,27.88977282047076 0 0,0 -0.417484975066791,0.23705886453147842 l -3.350308480774191 -6.020332432793903" fill="#ff5908" stroke="none" /><path d="M 110.21172684928248 118.3499491758327 l 6.078628186015937 10.922982950725311 a33.50045107848766,33.50045107848766 0 0,0 -0.5062989983058241,0.27607458235222704 l -5.889706375841464 -11.02599818483731" fill="#ffa40f" stroke="none" /><path d="M 109.89434966115114 118.52300852407294 l 3.745511352359545 7.011894776588692 a28.949561223652914,28.949561223652914 0 0,0 -0.44156227751439164,0.23100451407347689 l -3.6242581723186578 -7.075328709606886" fill="#ff6809" stroke="none" /><path d="M 109.57404056367764 118.69057910512821 l 5.8348802943236695 11.390936876093473 a33.79840892315263,33.79840892315263 0 0,0 -0.5200868461931852,0.2607823415070824 l -5.637939540447724 -11.489687058509858" fill="#ffa80f" stroke="none" /><path d="M 109.2508944713604 118.85261126421891 l 3.035580150899118 6.186278821302375 a27.890921020257526,27.890921020257526 0 0,0 -0.432823706586093,0.20778168181465798 l -2.9286437763127924 -6.237614779616593" fill="#ff5908" stroke="none" /><path d="M 108.92500713936063 119.00905698771935 l 2.929619746912246 6.2396934648718165 a27.89321741983105,27.89321741983105 0 0,0 -0.436372124925344,0.20031703985206437 l -2.8217796262194828 -6.289197575057956" fill="#ff5908" stroke="none" /><path d="M 108.59647513512805 119.15986991738527 l 1.352724538062742 3.0149597103384354 a24.304518986303616,24.304518986303616 0 0,0 -0.38317732136920074,0.1679736771447898 l -1.3006265420357874 -3.0377979407776796" fill="#ff2703" stroke="none" /><path d="M 108.2653958097858 119.30500536409082 l 2.7115216303734275 6.333143726430187 a27.88919872057738,27.88919872057738 0 0,0 -0.4429449402409261,0.18515102094460545 l -2.6021052306350403 -6.378879790394765" fill="#ff5908" stroke="none" /><path d="M 107.93186726928326 119.44442032107085 l 2.603406283250358 6.3820692302899635 a27.89264331993767,27.89264331993767 0 0,0 -0.44612147736422336,0.17752094274122152 l -2.493163729844268 -6.425937017437254" fill="#ff5908" stroke="none" /><path d="M 107.59598834532513 119.57807347666477 l 0.20828279368930588 0.536832819297816 a21.575822193061594,21.575822193061594 0 0,0 -0.34740133309788,0.13135745822719588 l -0.19901123983115104 -0.5403385276316428" fill="#ff0000" stroke="none" /><path d="M 107.2578585660854 119.70592522655815 l 5.952479755667516 16.16167081649975 a38.22299680144345,38.22299680144345 0 0,0 -0.6193589593163533,0.22208008707456448 l -5.673401235721428 -16.261738444614274" fill="#ffe015" stroke="none" /><path d="M 106.91757812671514 119.82793768551818 l 2.8620418100469367 8.203504987359748 a29.68842778643484,29.68842778643484 0 0,0 -0.4839641625144805,0.16418692032415766 l -2.7204079145952296 -8.251554894582029" fill="#ff720a" stroke="none" /><path d="M 106.57524785965236 119.94407469862006 l 2.1579553994129594 6.545521112029685 a27.892069220044288,27.892069220044288 0 0,0 -0.4572687654146301,0.1464030186140905 l -2.044965288907389 -6.581696977303483" fill="#ff5908" stroke="none" /><path d="M 106.2309692047433 120.05430185196036 l 1.4455289830627325 4.65241820486442 a25.87181169523497,25.87181169523497 0 0,0 -0.42642292782335006,0.1284777301525596 l -1.3652310807991366 -4.676611304122704" fill="#ff3d05" stroke="none" /><path d="M 105.88484417918355 120.15858648285463 l 2.4563219587133185 8.414152886088317 a29.765357172147954,29.765357172147954 0 0,0 -0.49306857287734784,0.139346103823992 l -2.3111222177313646 -8.455187783250828" fill="#ff730a" stroke="none" /><path d="M 105.53697534728816 120.25689768951611 l 1.2111140204393924 4.43083294824403 a25.593373246944967,25.593373246944967 0 0,0 -0.4259585024047526,0.11249951196167819 l -1.1346650752231424 -4.451023809509292" fill="#ff3905" stroke="none" /><path d="M 105.18746579009965 120.34920634021253 l 3.481142807336893 13.65570321860075 a35.09243008283441,35.09243008283441 0 0,0 -0.5866229671884544,0.14417765286903975 l -3.2455665554052273 -13.71360212978382" fill="#ffb911" stroke="none" /><path d="M 104.83641907484287 120.43548508189849 l 1.7189722078797154 7.263231404624578 a28.46387271385221,28.46387271385221 0 0,0 -0.4777591238990104,0.10873642114924977 l -1.593692934587843 -7.291744559351511" fill="#ff6108" stroke="none" /><path d="M 104.13013068566511 120.58985236759428 l 1.5807383908611905 7.880421365983756 a29.037398507340278,29.037398507340278 0 0,0 -0.49091508850919285,0.09408504510054486 l -1.4448556877802934 -7.90646360943277" fill="#ff6909" stroke="none" /><path d="M 103.7750983002368 120.6578951692458 l 0.6016791899827936 3.2924773459280745 a24.347002378413844,24.347002378413844 0 0,0 -0.41291475898307317,0.07179052362018232 l -0.5449154595276704 -3.302346448069263" fill="#ff2803" stroke="none" /><path d="M 103.41894727170886 120.7198165907248 l 0.4075182510361308 2.469679333375984 a23.503075535143115,23.503075535143115 0 0,0 -0.3997359845739609,0.06243053980471956 l -0.36494640285365276 -2.4763281805278092" fill="#ff1c02" stroke="none" /><path d="M 103.06178313531738 120.77559828337769 l 0.9663546378315189 6.5571579917875145 a27.627983269088823,27.627983269088823 0 0,0 -0.47108528056330057,0.06528812734722092 l -0.8533407660813879 -6.572820684627338" fill="#ff5607" stroke="none" /><path d="M 102.70371172650421 120.8252237178851 l 0.9245941656918214 7.1216469418798924 a28.181415566308537,28.181415566308537 0 0,0 -0.4815970107781471,0.05831469110500489 l -0.8018697318622939 -7.136507161710248" fill="#ff5d08" stroke="none" /><path d="M 102.34483914955558 120.86867818915974 l 0.7695616061241378 6.848970219548447 a27.892069220044288,27.892069220044288 0 0,0 -0.47757518594038656,0.04950262070984537 l -0.6515538235781485 -6.861202208714052" fill="#ff5908" stroke="none" /><path d="M 101.98527174616119 120.90594882070398 l 0.8141030698602438 8.572930706431551 a29.611498400721725,29.611498400721725 0 0,0 -0.5078452099622467,0.04381902161674239 l -0.6664135421564555 -8.585673980326957" fill="#ff710a" stroke="none" /><path d="M 101.62511606390274 120.93702456842531 l 0.6760098971635086 8.709307685643665 a29.73550397769212,29.73550397769212 0 0,0 -0.5106538124458105,0.03521767669370431 l -0.5259933239387676 -8.719653706853656" fill="#ff720a" stroke="none" /><path d="M 101.26447882468166 120.96189622390904 l 0.4241547111414746 7.03142422338948 a28.04420569179037,28.04420569179037 0 0,0 -0.4821091841239491,0.024919537971874562 l -0.3030574586040459 -7.0376835681235566" fill="#ff5b08" stroke="none" /><path d="M 100.90346689309514 120.98055641714683 l 0.3721901258112771 8.643101360069593 a29.651111293365048,29.651111293365048 0 0,0 -0.5101115743106034,0.017569274033984207 l -0.22335819982602145 -8.648227432529671" fill="#ff710a" stroke="none" /><line stroke="#e1ed5e" stroke-width="0.3" x1="102.19456741930631" x2="102.32365962044197" y1="184.97166512339345" y2="189.96999836594603" /><path d="M 102.22038585953345 185.97133177190398 a86.0,86.0 0 0,1 -42.740103519485714,-10.115201625700543" fill="none" id="id67" stroke="none" /><text fill="#e1ed5e" style="font-size:6.75px; font-family:Arial;" text-anchor="middle"><textPath startOffset="22.20632615414155" xlink:href="#id67">July</textPath></text><path d="M 100.54218724476979 120.99299961872073 l 0.148223637816724 5.7390851632687445 a26.740998933814485,26.740998933814485 0 0,0 -0.46025118796274966,0.007923641592553711 l -0.0494127599613064 -5.740786282140458" fill="#ff4906" stroke="none" /><path d="M 100.18074693466247 120.99922214144158 l 0.02821468593790595 3.2779889671022007 a24.27811039120807,24.27811039120807 0 0,0 -0.41792324120072055,0.0 l 0.028214685937903692 -3.2779889671022007" fill="#ff2703" stroke="none" /><path d="M 99.45781275523022 120.99299961872073 l -0.22239474618020677 8.610923378968424 a29.613794800295253,29.613794800295253 0 0,0 -0.5094695890966644,-0.017547162765160457 l 0.37058468695151425 -8.60581941777717" fill="#ff710a" stroke="none" /><path d="M 99.09653310690486 120.98055641714683 l -0.26452692596978916 6.142916953105402 a27.14860985811531,27.14860985811531 0 0,0 -0.4667129564174669,-0.024123728861429633 l 0.37022795080074494 -6.137453417481771" fill="#ff4f07" stroke="none" /><path d="M 98.73552117531835 120.96189622390904 l -0.3462374561363457 5.739751020494625 a26.750184532108587,26.750184532108587 0 0,0 -0.4593863189673243,-0.03168197018135249 l 0.44498653588260006 -5.732940705796987" fill="#ff4906" stroke="none" /><path d="M 98.37488393609728 120.93702456842531 l -0.17055743922257413 2.1973601606983473 a23.20396949069138,23.20396949069138 0 0,0 -0.3979543553821146,-0.03433717628696745 l 0.2083561123462304 -2.194098732132716" fill="#ff1702" stroke="none" /><path d="M 98.01472825383883 120.90594882070398 l -0.4960058636968477 5.223200915071863 a26.246698925613057,26.246698925613057 0 0,0 -0.4494027323979738,-0.04658243070995737 l 0.5858411927004149 -5.213889115906145" fill="#ff4206" stroke="none" /><path d="M 97.65516085044442 120.86867818915974 l -0.7482151659042832 6.658990454191546 a27.700893955548267,27.700893955548267 0 0,0 -0.4733852951241809,-0.057320366698739855 l 0.8627278840798535 -6.645124558767457" fill="#ff5708" stroke="none" /><path d="M 97.2962882734958 120.8252237178851 l -1.254917239197031 9.665946261031 a30.747067989830228,30.747067989830228 0 0,0 -0.5242688548568001,-0.072658886134464 l 1.421114685240662 -9.642912809403931" fill="#ff800b" stroke="none" /><path d="M 96.93821686468263 120.77559828337769 l -1.5994027214971476 10.85267864071683 a31.969900762732713,31.969900762732713 0 0,0 -0.5437381903068018,-0.08492072278525167 l 1.7859767754124665 -10.823539610584472" fill="#ff900d" stroke="none" /><path d="M 96.58105272829116 120.7198165907248 l -1.8591618191191845 11.267062298206813 a32.41942097925039,32.41942097925039 0 0,0 -0.5498195298114584,-0.09559317288386181 l 2.052830320402693 -11.233390546801944" fill="#ff960d" stroke="none" /><path d="M 95.86986931433489 120.58985236759428 l -1.2426861949870172 6.195136968144088 a27.31854342655622,27.31854342655622 0 0,0 -0.4602635202679852,-0.09645269573054314 l 1.3491411766843893 -6.172828291687004" fill="#ff5107" stroke="none" /><path d="M 95.51606077576429 120.51570834832081 l -1.2290104885914668 5.6231852128342625 a26.7559255310424,26.7559255310424 0 0,0 -0.44909164923988176,-0.1022117972501137 l 1.3256222872242112 -5.601196682006462" fill="#ff4906" stroke="none" /><path d="M 95.16358092515715 120.4354850818985 l -3.5963421317074147 15.195746035365623 a36.61551709997539,36.61551709997539 0 0,0 -0.612083666922627,-0.1504352734079522 l 3.857379083373252 -15.13158950364364" fill="#ffcc13" stroke="none" /><path d="M 94.81253420990036 120.34920634021253 l -1.702493966760879 6.67848279379566 a27.892069220044288,27.892069220044288 0 0,0 -0.4642164172461414,-0.1226037749920662 l 1.8172008268185096 -6.648187669500013" fill="#ff5908" stroke="none" /><path d="M 94.46302465271185 120.25689768951611 l -1.822498788412732 6.66757014083966 a27.912162716312636,27.912162716312636 0 0,0 -0.4623700685617916,-0.13067039986534432 l 1.9370000250791375 -6.6352109476357946" fill="#ff5908" stroke="none" /><path d="M 94.11515582081647 120.15858648285463 l -1.9310474502512374 6.614820349208678 a27.890921020257526,27.890921020257526 0 0,0 -0.45970217862008195,-0.1385044954237579 l 2.0446246033115654 -6.580600484679194" fill="#ff5908" stroke="none" /><path d="M 93.76903079525671 120.05430185196036 l -2.2839562343748616 7.3508865532432415 a28.69753137045846,28.69753137045846 0 0,0 -0.47047369044914195,-0.15063081861235264 l 2.4101512699149437 -7.310482887971182" fill="#ff6409" stroke="none" /><path d="M 93.42475214034765 119.94407469862007 l -1.0263994444521427 3.113279929170305 a24.27811039120807,24.27811039120807 0 0,0 -0.39576819114294154,-0.1342660583139308 l 1.07983736853231 -3.0951508839582513" fill="#ff2703" stroke="none" /><path d="M 93.08242187328487 119.8279376855182 l -2.837267957984281 8.132495396151599 a29.613220700401868,29.613220700401868 0 0,0 -0.47984760719531533,-0.17205627978011692 l 2.976835125809323 -8.082451575331525" fill="#ff710a" stroke="none" /><path d="M 92.7421414339146 119.70592522655815 l -3.152433278601516 8.55922086441827 a30.121299106044454,30.121299106044454 0 0,0 -0.4849956293876332,-0.18338384760806134 l 3.299299128749432 -8.503688766703576" fill="#ff770b" stroke="none" /><path d="M 92.40401165467489 119.57807347666478 l -3.13585008895596 8.082411486474951 a29.669425079963915,29.669425079963915 0 0,0 -0.47453974144357086,-0.18882915650452228 l 3.274510906441389 -8.027235485564363" fill="#ff710a" stroke="none" /><path d="M 92.06813273071674 119.44442032107085 l -2.6025389148401454 6.379942937026501 a27.890346920364145,27.890346920364145 0 0,0 -0.44296317630754767,-0.18515864362193288 l 2.7119735506451557 -6.334199250384595" fill="#ff5908" stroke="none" /><path d="M 91.7346041902142 119.30500536409082 l -2.9404192480041154 6.867766609336336 a28.470761912572787,28.470761912572787 0 0,0 -0.44886098314260076,-0.1967674642013594 l 3.0582009058044597 -6.816134591840524" fill="#ff6109" stroke="none" /><path d="M 91.40352486487194 119.15986991738527 l -2.586298391483754 5.764355735280488 a27.31796932666284,27.31796932666284 0 0,0 -0.4273727244977477,-0.19618585650847223 l 2.685139111748921 -5.718982808437942" fill="#ff5107" stroke="none" /><path d="M 91.07499286063937 119.00905698771935 l -3.904126390467468 8.31526069221404 a30.186172393996557,30.186172393996557 0 0,0 -0.4684424373697278,-0.22488083713751086 l 4.046681495837438 -8.246825578576965" fill="#ff780b" stroke="none" /><path d="M 90.7491055286396 118.85261126421891 l -3.163548455185957 6.447068380877398 a28.181415566308537,28.181415566308537 0 0,0 -0.43365306267718234,-0.21744264811624645 l 3.2740554255459 -6.39165789185185" fill="#ff5d08" stroke="none" /><path d="M 90.42595943632237 118.69057910512821 l -5.3670533962806 10.47763850564852 a32.77226277372263,32.77226277372263 0 0,0 -0.49986923386741056,-0.2615079578804347 l 5.546613532674506 -10.383701128823366" fill="#ff9b0e" stroke="none" /><path d="M 90.10565033884886 118.52300852407294 l -3.3432888217782883 6.258902248764082 a28.0958746821947,28.0958746821947 0 0,0 -0.4246185573679051,-0.2315358933685672 l 3.450530191014834 -6.20042570363575" fill="#ff5c08" stroke="none" /><line stroke="#e1ed5e" stroke-width="0.3" x1="58.666819895761336" x2="56.23545636021788" y1="174.27360380694188" y2="178.64263932499728" /><path d="M 58.180547188652646 175.14741091055294 a86.0,86.0 0 0,1 -31.652253787137756,-30.449443065178592" fill="none" id="id68" stroke="none" /><text fill="#e1ed5e" style="font-size:6.75px; font-family:Arial;" text-anchor="middle"><textPath startOffset="22.20632615414155" xlink:href="#id68">August</textPath></text><path d="M 89.7882731507175 118.34994917583269 l -3.3503084807741925 6.020332432793902 a27.88977282047076,27.88977282047076 0 0,0 -0.4174849750667802,-0.23705886453147224 l 3.4534422227621797 -5.961770402467796" fill="#ff5908" stroke="none" /><path d="M 89.4739219176387 118.17145234162733 l -4.460324510691926 7.699978438317713 a29.89854834741245,29.89854834741245 0 0,0 -0.44311375501552497,-0.26179941697459796 l 4.592206136735833 -7.622060449049365" fill="#ff740a" stroke="none" /><path d="M 89.1626897886671 117.98757091392108 l -4.235495414888741 7.029998463200629 a29.20733207578119,29.20733207578119 0 0,0 -0.42840313303927924,-0.2631601943767261 l 4.355877747860329 -6.956049801995524" fill="#ff6b09" stroke="none" /><path d="M 88.8546689885994 117.79835938074946 l -3.6590469973457393 5.84325700001149 a27.894365619617815,27.894365619617815 0 0,0 -0.40475813450734255,-0.2583357919109052 l 3.7590869339000053 -5.77940677927678" fill="#ff5908" stroke="none" /><path d="M 88.54995079064634 117.60387380957326 l -3.462341625103501 5.323175816935668 a27.3501189206922,27.3501189206922 0 0,0 -0.3924420392035928,-0.26008918437380985 l 3.5534583630470555 -5.2627886114705404" fill="#ff5207" stroke="none" /><path d="M 88.24862548938628 117.40417183066458 l -1.256448391454392 1.8608413578755336 a23.245304683014844,23.245304683014844 0 0,0 -0.3296882840323457,-0.2267626080157209 l 1.288293560109628 -1.8389379604947116" fill="#ff1802" stroke="none" /><path d="M 87.95078237400918 117.19931262002967 l -9.275977154867586 13.240729472649216 a37.16665299762158,37.16665299762158 0 0,0 -0.5208157282153943,-0.3715881935664476 l 9.502520210931868 -13.07909701723855" fill="#ffd313" stroke="none" /><path d="M 87.65650970185807 116.9893568818739 l -4.049369408067557 5.5734788425732456 a27.88919872057738,27.88919872057738 0 0,0 -0.3859533481515778,-0.2855190601211316 l 4.1447077266377 -5.502949833712347" fill="#ff5908" stroke="none" /><path d="M 87.36589467227662 116.77436683061367 l -4.145053118948252 5.503408412865157 a27.88977282047076,27.88977282047076 0 0,0 -0.38098926623982105,-0.29212632313695075 l 4.23917111368156 -5.431242747900839" fill="#ff5908" stroke="none" /><path d="M 87.07902340077011 116.55440617244103 l -3.156859615279736 4.044580988083477 a26.130730747150004,26.130730747150004 0 0,0 -0.35219559751433144,-0.27980548320463855 l 3.226012705511425 -3.9896415908737075" fill="#ff4106" stroke="none" /><path d="M 86.79598089348748 116.32954008644616 l -4.331671977860255 5.357021270055331 a27.88919872057738,27.88919872057738 0 0,0 -0.37070040256506637,-0.3050611941561283 l 4.42324250897001 -5.281664957042021" fill="#ff5908" stroke="none" /><path d="M 86.51685102203217 116.09983520530335 l -3.2389193271932903 3.8674991647940202 a26.044615763142787,26.044615763142787 0 0,0 -0.3412272831298081,-0.2908012934510397 l 3.305012086900155 -3.8111734811200293" fill="#ff4006" stroke="none" /><path d="M 86.24171649860922 115.8653595955263 l -3.763508699388069 4.33988868238159 a26.744443533174774,26.744443533174774 0 0,0 -0.34520409223452286,-0.304602475205389 l 3.8376551445291796 -4.2744630654039115" fill="#ff4906" stroke="none" /><path d="M 85.70375840098266 115.38237550388516 l -5.866778278324976 6.312497298691057 a29.617813499548923,29.617813499548923 0 0,0 -0.37045420333463885,-0.35028757183841636 l 5.974568316050432 -6.21057509010671" fill="#ff710a" stroke="none" /><path d="M 85.44109423537348 115.13401014063109 l -4.776152141270079 4.9648192046686095 a27.88919872057738,27.88919872057738 0 0,0 -0.34310361036486214,-0.33579909647952344 l 4.860905704010735 -4.881870005266516" fill="#ff5908" stroke="none" /><path d="M 85.18274418774928 114.88116024355367 l -2.4324782293820384 2.442969115135452 a24.447469859755596,24.447469859755596 0 0,0 -0.2956506745027248,-0.29949257235920546 l 2.4741695289402963 -2.400736048795582" fill="#ff2904" stroke="none" /><path d="M 84.9287848128048 114.62390073753433 l -5.365301516379777 5.206059088662129 a28.475928811613223,28.475928811613223 0 0,0 -0.3383122705665089,-0.35471906313435064 l 5.454120338325243 -5.112932908945279" fill="#ff6109" stroke="none" /><path d="M 84.67929136418377 114.36230785411682 l -5.45705221072336 5.115681375414532 a28.479947510866893,28.479947510866893 0 0,0 -0.33220311632761634,-0.36054087186131173 l 5.544301735046705 -5.020989248751876" fill="#ff6109" stroke="none" /><path d="M 84.43433777217949 114.09645910891817 l -4.256631380433815 3.854858811517768 a26.742721233494628,26.742721233494628 0 0,0 -0.306065542132948,-0.34386788116490513 l 4.322355772215101 -3.781016760611999" fill="#ff4906" stroke="none" /><path d="M 84.19399662182784 113.82643327865904 l -4.7544617176529815 4.159005040189327 a27.31682112687608,27.31682112687608 0 0,0 -0.3065435006315975,-0.3565793451897555 l 4.825347727855358 -4.076548595838041" fill="#ff5107" stroke="none" /><path d="M 83.95833913139862 113.55231037782056 l -5.287577711056261 4.4670495701189905 a27.921922414500123,27.921922414500123 0 0,0 -0.3070135036271622,-0.3698175428255314 l 5.363687214576959 -4.375370770179698" fill="#ff5a08" stroke="none" /><path d="M 83.72743513129214 113.27417163493432 l -4.739547448295839 3.8662353973206023 a27.11646026408595,27.11646026408595 0 0,0 -0.2919307597231404,-0.36422850916094107 l 4.80539612007384 -3.7840790545814014" fill="#ff4e07" stroke="none" /><path d="M 83.28015986056508 112.70617746262583 l -5.485976143511249 4.169046226152583 a27.890346920364145,27.890346920364145 0 0,0 -0.28718920426162753,-0.3847368708974633 l 5.556926614467962 -4.073996475745812" fill="#ff5908" stroke="none" /><path d="M 83.06392112726016 112.41649034213515 l -6.5796937275624225 4.823826355342753 a29.158533584843763,29.158533584843763 0 0,0 -0.29327959608635823,-0.4073397080055959 l 6.6617531160243875 -4.709853041886019" fill="#ff6a09" stroke="none" /><path d="M 82.85270091963577 112.12312394758628 l -6.6528464022671265 4.703556003831285 a29.147625686869517,29.147625686869517 0 0,0 -0.2861173865461413,-0.4121734349627706 l 6.732824695975402 -4.588341306681502" fill="#ff6a09" stroke="none" /><path d="M 82.6465618267979 111.8261652097733 l -11.948961077898282 8.143077261230761 a35.45985401459854,35.45985401459854 0 0,0 -0.33939621616776916,-0.5073512932874947 l 12.08736039947678 -7.936189053737446" fill="#ffbd11" stroke="none" /><path d="M 82.44556493220864 111.52570212397912 l -5.76125626695195 3.7826636594321688 a27.892069220044288,27.892069220044288 0 0,0 -0.2600538811254986,-0.40360939854606076 l 5.825515011454494 -3.6829326609646595" fill="#ff5908" stroke="none" /><path d="M 82.24976979558568 111.22182372390057 l -5.823088724485957 3.6813987448209837 a27.88919872057738,27.88919872057738 0 0,0 -0.2530418346474854,-0.407984007725931 l 5.885595198801398 -3.5806184057297883" fill="#ff5908" stroke="none" /><line stroke="#e1ed5e" stroke-width="0.3" x1="26.63291911575756" x2="22.317208475507996" y1="142.92168965132927" y2="145.44649492493687" /><path d="M 25.769776987707644 143.4266507060508 a86.0,86.0 0 0,1 -11.730757126820373,-40.83630448921669" fill="none" id="id69" stroke="none" /><text fill="#e1ed5e" style="font-size:6.75px; font-family:Arial;" text-anchor="middle"><textPath startOffset="21.46611528233685" xlink:href="#id69">September</textPath></text><path d="M 81.87401531095188 110.60418214915194 l -7.433938114904731 4.34905111133649 a29.61264660050849,29.61264660050849 0 0,0 -0.2536083514165021,-0.442187537406235 l 7.50769846247361 -4.220443728071948" fill="#ff710a" stroke="none" /><path d="M 81.69416730710424 110.29060199501025 l -5.006466832328087 2.814379353128366 a26.74329533338801,26.74329533338801 0 0,0 -0.22212674262609705,-0.40322455894021797 l 5.054169984405701 -2.7277842757903255" fill="#ff4906" stroke="none" /><path d="M 81.51974371655577 109.97397251340807 l -1.4014661672072597 0.7563848041825639 a22.59255310424014,22.59255310424014 0 0,0 -0.18175977046463979,-0.3438209877611656 l 1.4142784458967856 -0.732148801335272" fill="#ff0f01" stroke="none" /><path d="M 81.35079622478065 109.6543875284942 l -12.749409191254829 6.600160445202285 a35.35651603378988,35.35651603378988 0 0,0 -0.2751432800935777,-0.5428837944743826 l 12.861131141134674 -6.379722439025217" fill="#ffbc11" stroke="none" /><path d="M 81.18737489456691 109.33194174019688 l -6.173672100539074 3.0624300459094935 a27.891495120150907,27.891495120150907 0 0,0 -0.20964674632677519,-0.4319343927482591 l 6.225472103480568 -2.95570669719595" fill="#ff5908" stroke="none" /><path d="M 81.02952815118164 109.00673069616217 l -5.188239163880339 2.4632530655405094 a26.74329533338801,26.74329533338801 0 0,0 -0.1938575418614602,-0.41755189879303417 l 5.229871322581626 -2.373581099468648" fill="#ff4906" stroke="none" /><path d="M 80.87730276802145 108.67885076344099 l -3.8852862524416865 1.7633401370702708 a25.266710407610923,25.266710407610923 0 0,0 -0.17633626998801608,-0.3975917374072545 l 3.915063607160983 -1.6962000631703205" fill="#ff3505" stroke="none" /><path d="M 80.73074385275274 108.34839909993369 l -6.592183258882207 2.856061301199327 a28.184286065775446,28.184286065775446 0 0,0 -0.18903471610284842,-0.4468222289147124 l 6.640368956177362 -2.742164546618456" fill="#ff5d08" stroke="none" /><path d="M 80.58989483394504 108.01547362559985 l -5.365252558407326 2.2156005858126258 a26.804724021979823,26.804724021979823 0 0,0 -0.17244038766293676,-0.4279829004461417 l 5.402595560327651 -2.1229183175236788" fill="#ff4a06" stroke="none" /><path d="M 80.45479744820244 107.68017299344265 l -8.129273944696362 3.194350636218501 a29.734355777905357,29.734355777905357 0 0,0 -0.18308677593737893,-0.47798179838186544 l 8.18305500022725 -3.0539452710034776" fill="#ff720a" stroke="none" /><path d="M 80.32549172779594 107.34259656027581 l -16.135904430578247 6.021977003424761 a38.22299680144345,38.22299680144345 0 0,0 -0.22474346555491304,-0.6183974937294549 l 16.237172157138385 -5.743331712689189" fill="#ffe015" stroke="none" /><path d="M 80.20201598880116 107.00284435728193 l -6.500822492646305 2.2994385733703284 a27.895513819404577,27.895513819404577 0 0,0 -0.15622705717675522,-0.4540689564201062 l 6.5394403807662895 -2.1871969138609253" fill="#ff5908" stroke="none" /><path d="M 80.0844068197444 106.66101706037122 l -4.05400658356388 1.3559127650161056 a25.274747806118263,25.274747806118263 0 0,0 -0.13444691350254584,-0.41378505231081236 l 4.076745748082676 -1.28592881272749" fill="#ff3505" stroke="none" /><path d="M 79.97269907076064 106.31721596034903 l -3.1848549579098746 1.004599503577197 a24.339539079799884,24.339539079799884 0 0,0 -0.12259388591350494,-0.4006439124001034 l 3.20167561632951 -0.9496286186250458" fill="#ff2803" stroke="none" /><path d="M 79.86692584326677 105.97154293290107 l -6.6058983577766535 1.9593334503589144 a27.890346920364145,27.890346920364145 0 0,0 -0.13255533249777682,-0.4614425020506636 l 6.638646327160535 -1.8453334728036548" fill="#ff5908" stroke="none" /><path d="M 79.76711848015287 105.62410040840567 l -8.38487249403654 2.330729054676771 a29.70278028376938,29.70278028376938 0 0,0 -0.13268928363895272,-0.4937861860456538 l 8.423749854017267 -2.1860519354555783" fill="#ff720a" stroke="none" /><path d="M 79.58551787078972 104.9243191809786 l -8.597980034517446 2.073978547859601 a29.844582957434593,29.844582957434593 0 0,0 -0.11616568195139533,-0.5004387175082525 l 8.632406282399396 -1.9256711730027745" fill="#ff740a" stroke="none" /><path d="M 79.50377843672027 104.57218783832718 l -6.723930636686535 1.499938600287764 a27.88919872057738,27.88919872057738 0 0,0 -0.10048871573321831,-0.46944982548954806 l 6.748753391144193 -1.3839749553820522" fill="#ff5908" stroke="none" /><path d="M 79.4281124754447 104.21870165774334 l -6.882603666735221 1.4114237919971298 a28.025834495202165,28.025834495202165 0 0,0 -0.09284567544019494,-0.4734180987923029 l 6.905879275151083 -1.292741966136872" fill="#ff5b08" stroke="none" /><path d="M 79.35854240842038 103.8639653848113 l -2.3841591712300474 0.44630125894168027 a23.42557204953662,23.42557204953662 0 0,0 -0.07078266127536957,-0.39698675456086685 l 2.3914882748446056 -0.40519575364759974" fill="#ff1b02" stroke="none" /><path d="M 79.29508885075956 103.50808413554451 l -8.49218901479139 1.4388525188106362 a29.613220700401868,29.613220700401868 0 0,0 -0.0808275170599497,-0.503313025888205 l 8.51569828621263 -1.2924602632292175" fill="#ff710a" stroke="none" /><path d="M 79.23777060512086 103.15116336523772 l -3.407300993943506 0.5171391695104308 a24.446321659968834,24.446321659968834 0 0,0 -0.05956282128027505,-0.4165822333068313 l 3.41569786624038 -0.458411464223199" fill="#ff2904" stroke="none" /><path d="M 79.18660465613746 102.79330883721812 l -16.51802582991142 2.2168390482091405 a37.66611990486345,37.66611990486345 0 0,0 -0.08071040705933846,-0.6433413559407696 l 16.553737746217607 -1.9321799379809623" fill="#ffd914" stroke="none" /><path d="M 79.10278846688536 102.07522291339032 l -5.716326269180273 0.5676667068914812 a26.744443533174774,26.744443533174774 0 0,0 -0.041549917505466126,-0.458499877374041 l 5.7252507829628145 -0.46918544096887405" fill="#ff4906" stroke="none" /><path d="M 79.07016306316243 101.71520430193888 l -2.860908846173701 0.23445204925488392 a23.87049946690724,23.87049946690724 0 0,0 -0.030035273443658948,-0.4098074430028483 l 2.8645206782816954 -0.18517146975527496" fill="#ff2103" stroke="none" /><path d="M 79.04373962182676 101.35467743843564 l -2.2446384035015368 0.1451003637002335 a23.249323382268514,23.249323382268514 0 0,0 -0.022378745950070573,-0.3995875421297406 l 2.246803500339139 -0.10644110523505525" fill="#ff1802" stroke="none" /><path d="M 79.0235259727143 100.99374915477108 l -14.511322760613051 0.6874660969813869 a35.52759780201755,35.52759780201755 0 0,0 -0.02368145686421952,-0.6111131754773456 l 14.521006350328472 -0.43757567449004453" fill="#ffbe11" stroke="none" /><path d="M 79.0095281055655 100.63252640178507 l -2.8703447446885217 0.08649490313373655 a23.871647666694006,23.871647666694006 0 0,0 -0.008841532340815906,-0.4108312657434772 l 2.871408339714345 -0.03707382160013048" fill="#ff2103" stroke="none" /><line stroke="#e1ed5e" stroke-width="0.3" x1="15.007084014347285" x2="10.007500721073583" y1="101.09737516637583" y2="101.16192664675087" /><path d="M 14.007167355692545 101.11028546245083 a86.0,86.0 0 0,1 10.666146001902534,-42.60595125391555" fill="none" id="id70" stroke="none" /><text fill="#e1ed5e" style="font-size:6.75px; font-family:Arial;" text-anchor="middle"><textPath startOffset="22.20632615414155" xlink:href="#id70">October</textPath></text><path d="M 79.00175016825051 100.2711162175752 l -12.119960870929413 0.15648532495872736 a33.12097104896252,33.12097104896252 0 0,0 -0.002453637354055391,-0.5701389098519248 l 12.120858805572972 0.05216306309687283" fill="#ff9f0e" stroke="none" /><path d="M 79.00019446554 99.90962569577889 l -1.00696188817198 -0.004333539178322126 a22.00697121299106,22.00697121299106 0 0,0 0.004890779905317525,-0.37879629349539157 l 1.006738101148947 0.021666090734185673" fill="#ff0601" stroke="none" /><path d="M 79.00486145842228 99.54816195383935 l -11.792725784610175 -0.25379218940967985 a32.79545640941524,32.79545640941524 0 0,0 0.017004140469156503,-0.5642846395020966 l 11.786609949685372 0.4567469763367709" fill="#ff9b0e" stroke="none" /><path d="M 79.01574976396665 99.18683210126434 l -10.036918508697328 -0.38894408147513604 a31.04445173460182,31.04445173460182 0 0,0 0.025288502549920776,-0.5338003201115609 l 10.028736397913908 0.561655508209706" fill="#ff840c" stroke="none" /><path d="M 79.03285615573316 98.82574320788736 l -7.855155669696626 -0.43992495910527024 a28.867464938899367,28.867464938899367 0 0,0 0.03205582007504557,-0.4958893483191396 l 7.846419258617168 0.5750733716774217" fill="#ff6609" stroke="none" /><path d="M 79.05617556472873 98.46500227214037 l -27.83978718707987 -2.04041101511028 a48.91445911588616,48.91445911588616 0 0,0 0.06877260257555454,-0.8391999460363286 l 27.80054010068482 2.5193248783543867" fill="#a1ff22" stroke="none" /><path d="M 79.08570108090925 98.10471618934814 l -12.168704007627566 -1.102745437056875 a33.21856803083737,33.21856803083737 0 0,0 0.05650774908485427,-0.5690253216977024 l 12.147919132860483 1.3120462894590075" fill="#ffa00e" stroke="none" /><path d="M 79.16333360222342 97.38593545837743 l -17.091888112449393 -2.144263281428825 a38.22586730091036,38.22586730091036 0 0,0 0.08752631615771864,-0.6521727196469755 l 17.05244579723384 2.43815434314046" fill="#ffe015" stroke="none" /><path d="M 79.21141760316559 97.0276538004421 l -5.685474679404343 -0.8129077170064042 a26.74329533338801,26.74329533338801 0 0,0 0.06907934104040528,-0.4551465471292046 l 5.670639444924635 0.9106533765277008" fill="#ff4906" stroke="none" /><path d="M 79.26566170972629 96.67025291283419 l -4.540366048965049 -0.729141697919521 a25.598540145985403,25.598540145985403 0 0,0 0.07361181843885223,-0.4344611193522389 l 4.527142369005974 0.8071886055875879" fill="#ff3905" stroke="none" /><path d="M 79.3925641242962 95.95851677861259 l -5.634242767514523 -1.104974813338131 a26.741573033707866,26.741573033707866 0 0,0 0.09247580295468856,-0.4509448573200118 l 5.61438766864484 1.2017953268215453" fill="#ff4906" stroke="none" /><path d="M 79.46518482838121 95.60439243477599 l -2.825438769751973 -0.6048031076785161 a23.88944476338883,23.88944476338883 0 0,0 0.08953492353730862,-0.4013675061835233 l 2.814609459212627 0.6533487834119985" fill="#ff2103" stroke="none" /><path d="M 79.54389044137918 95.25157060432595 l -20.13399252136543 -4.673657112891353 a41.66931846141229,41.66931846141229 0 0,0 0.1681995924292502,-0.69729589971562 l 20.05056012867536 5.01953824426637" fill="#f4ff19" stroke="none" /><path d="M 79.62865764111835 94.90015583598534 l -3.403298973594841 -0.8519956173294383 a24.50832444845403,24.50832444845403 0 0,0 0.10597360760153583,-0.40835953944391595 l 3.388129034122998 0.9104515823222181" fill="#ff2a04" stroke="none" /><path d="M 79.71946130924805 94.55025226153421 l -5.547638539590041 -1.4907508644601737 a26.744443533174774,26.744443533174774 0 0,0 0.12329599751677421,-0.4435613037597682 l 5.521155771506907 1.5860234716388844" fill="#ff4906" stroke="none" /><path d="M 79.81627453868168 94.20196356495316 l -5.5195004179875635 -1.5855479499104292 a26.742721233494628,26.742721233494628 0 0,0 0.130904477999466,-0.4413448237123133 l 5.49139004287639 1.6803221603692817" fill="#ff4906" stroke="none" /><path d="M 79.91906864156998 93.8553929516997 l -7.93652162849785 -2.428513193287885 a29.2997621586156,29.2997621586156 0 0,0 0.15172326007834955,-0.48100419656801746 l 7.893542884651297 2.564767556282317" fill="#ff6c0a" stroke="none" /><path d="M 80.02781315780177 93.51064311812611 l -5.097141885963459 -1.656161793243269 a26.359452144673174,26.359452144673174 0 0,0 0.1439260056000802,-0.43032043749646876 l 5.067878586591606 1.74365533366206" fill="#ff4406" stroke="none" /><path d="M 80.14247586403 93.16781622104843 l -5.0552840771748775 -1.7393220641994809 a26.346133027146724,26.346133027146724 0 0,0 0.15123548423797448,-0.4275630795300885 l 5.024595512127093 1.8260827701561804" fill="#ff4406" stroke="none" /><path d="M 80.2630227832202 92.82701384747504 l -22.33878984531838 -8.11855982122764 a44.76830968588535,44.76830968588535 0 0,0 0.26945280594447857,-0.7219995564245048 l 22.195732450872274 8.501882514681487" fill="#d0ff1d" stroke="none" /><path d="M 80.38941819471856 92.48833698450439 l -2.6842784669035122 -1.0281895500775031 a23.874460756171572,23.874460756171572 0 0,0 0.1503027478601105,-0.38250409899957 l 2.6661821691617105 1.0742426539728365" fill="#ff2103" stroke="none" /><path d="M 80.52162464483688 92.15188598940014 l -5.328051075512063 -2.146747433113507 a26.74427130320676,26.74427130320676 0 0,0 0.17572044951782312,-0.42552100652843516 l 5.29030893910804 2.2381430100952535" fill="#ff4906" stroke="none" /><path d="M 80.65960295795068 91.81776055985345 l -5.409431699532699 -2.288539646030215 a26.873616009185596,26.873616009185596 0 0,0 0.18390420384002062,-0.4244762580141963 l 5.369236785849997 2.381315048631011" fill="#ff4b07" stroke="none" /><path d="M 80.803312248108 91.48605970444005 l -2.1131628229795334 -0.9372107491758022 a23.31167063068974,23.31167063068974 0 0,0 0.1658433133304062,-0.36541375755932104 l 2.0967171926857757 0.9734465155771941" fill="#ff1902" stroke="none" /><path d="M 80.95270993114464 91.15688171328213 l -5.298707298795985 -2.460039997320422 a26.84192569507094,26.84192569507094 0 0,0 0.1981724114537761,-0.41740163878755693 l 5.255576693500457 2.5508840517485107" fill="#ff4b06" stroke="none" /><path d="M 81.26839172434947 90.50648371742162 l -7.17760775950212 -3.637740824602411 a29.046813745591734,29.046813745591734 0 0,0 0.22987173529868962,-0.4440390258932563 l 7.113926591043316 3.760752572756003" fill="#ff6909" stroke="none" /><path d="M 81.43458229118936 90.18545643968196 l -10.541009616691971 -5.57246810577592 a32.92330845567129,32.92330845567129 0 0,0 0.26917454327479823,-0.4987395481599922 l 10.4435269741987 5.753088637268386" fill="#ff9d0e" stroke="none" /><path d="M 81.6062741919709 89.86733742301443 l -5.0313595865769125 -2.7716553745740597 a26.74427130320676,26.74427130320676 0 0,0 0.2255973000269145,-0.4013124239246847 l 4.982904645257567 2.857851308433529" fill="#ff4906" stroke="none" /><line stroke="#e1ed5e" stroke-width="0.3" x1="26.266209847984243" x2="21.928928074336255" y1="57.711370442889674" y2="55.22380399835377" /><path d="M 25.398753493254645 57.213857153982495 a86.0,86.0 0 0,1 29.58750427330803,-30.492523968695096" fill="none" id="id71" stroke="none" /><text fill="#e1ed5e" style="font-size:6.75px; font-family:Arial;" text-anchor="middle"><textPath startOffset="21.46611528233685" xlink:href="#id71">November</textPath></text><path d="M 81.78341655067845 89.55222093294921 l -4.982954445917644 -2.857879870666141 a26.744328713196097,26.744328713196097 0 0,0 0.2324723080656881,-0.39737053149010143 l 4.933022463381631 2.943229814510134" fill="#ff4906" stroke="none" /><path d="M 82.15384107792192 88.93136811851018 l -3.90572255257651 -2.422426324592438 a25.595956696465187,25.595956696465187 0 0,0 0.23544916578287756,-0.37242403702904836 l 3.8634457905476696 2.4892980093357018" fill="#ff3905" stroke="none" /><path d="M 82.54541684631803 88.32363383020206 l -9.800267209837214 -6.555957681509252 a32.79092102025752,32.79092102025752 0 0,0 0.3178775841863361,-0.466446130759762 l 9.685965159982137 6.72368183553943" fill="#ff9b0e" stroke="none" /><path d="M 82.7489923806493 88.02491185347247 l -20.14254040908697 -13.982296119517198 a45.51992126630033,45.51992126630033 0 0,0 0.45235395789514027,-0.6398225935616867 l 19.898873831387952 14.32694521341067" fill="#c7ff1e" stroke="none" /><path d="M 83.17141714833178 87.43820079747576 l -4.60346553296598 -3.4362851685474736 a26.74455835315345,26.74455835315345 0 0,0 0.2785561133292831,-0.3665471931607535 l 4.543633479412588 3.515017137589254" fill="#ff4906" stroke="none" /><path d="M 83.39014120810768 87.1503855733568 l -2.4710678411000524 -1.9116519518945199 a24.124194209792503,24.124194209792503 0 0,0 0.25691798066564975,-0.3262597450159484 l 2.4377957798404313 1.9539040908635161" fill="#ff2503" stroke="none" /><path d="M 83.6137871275137 86.86637796730984 l -4.487248304284097 -3.5965493463258715 a26.75070122201263,26.75070122201263 0 0,0 0.2910750270116083,-0.35682356601762655 l 4.424674785196096 3.67325708195158" fill="#ff4906" stroke="none" /><path d="M 84.31358615837235 86.03803664274999 l -10.184526083479142 -9.064913206047244 a34.634413187894694,34.634413187894694 0 0,0 0.4002028863606746,-0.44191402277385305 l 10.026979556502424 9.238880016090654" fill="#ffb310" stroke="none" /><path d="M 84.5562425177563 85.77008943001954 l -2.2766865646204355 -2.097743780791236 a24.09577626507012,24.09577626507012 0 0,0 0.28367920453400053,-0.3026091964363325 l 2.2402400381159793 2.136622394105619" fill="#ff2403" stroke="none" /><path d="M 84.80347519578584 85.50635884689758 l -4.164659573862743 -3.9720319063777167 a26.75512179119167,26.75512179119167 0 0,0 0.3207247754199227,-0.3305350735739156 l 4.095670534739702 4.043131175501756" fill="#ff4906" stroke="none" /><path d="M 85.05521093208273 85.24692304244772 l -1.0434264687540362 -1.0300413691432995 a22.46619371770688,22.46619371770688 0 0,0 0.27404926366583415,-0.2728724090350839 l 1.0255414049208889 1.0478496288284926" fill="#ff0d01" stroke="none" /><path d="M 85.31137513191541 84.99185889309783 l -2.0158259339452864 -2.059675451943709 a23.88198146477487,23.88198146477487 0 0,0 0.2962693498719655,-0.2850108798429295 l 1.9800733404608934 2.094069418548952" fill="#ff2103" stroke="none" /><path d="M 85.57189188830299 84.74124197986013 l -1.9809805453778377 -2.0950288527447016 a23.883301894529648,23.883301894529648 0 0,0 0.3011480976485156,-0.2798843364589728 l 1.944624563934466 2.128817775278322" fill="#ff2103" stroke="none" /><path d="M 85.83668400450813 84.49514656593479 l -4.808302323606911 -5.26374069588859 a28.129287295989503,28.129287295989503 0 0,0 0.3603080575894002,-0.32348813164739043 l 4.716983278421539 5.345727836305259" fill="#ff5c08" stroke="none" /><path d="M 86.10567301691215 84.25364557470407 l -16.46431596405709 -18.65890696653845 a45.88430246862954,45.88430246862954 0 0,0 0.5967279785214232,-0.5174766227186307 l 16.140694186888894 18.93954858267676" fill="#c3ff1e" stroke="none" /><path d="M 86.37877921826538 84.01681056812374 l -7.512766652821946 -8.815507397879836 a32.58252275896005,32.58252275896005 0 0,0 0.43000002902400153,-0.36011265816878074 l 7.359909086838834 8.94352121344243" fill="#ff980e" stroke="none" /><path d="M 86.65592168130627 83.78471172551755 l -3.770334143831031 -4.5815869461510275 a26.933494628065283,26.933494628065283 0 0,0 0.36051970498716357,-0.2915151956346872 l 3.690911040279367 4.645808239049849" fill="#ff4c07" stroke="none" /><path d="M 86.93701828274178 83.55741782278169 l -1.789763128362805 -2.2528032230942614 a23.877216435659804,23.877216435659804 0 0,0 0.3240109217893019,-0.2528956638326294 l 1.7507196514140775 2.2832772761501126" fill="#ff2103" stroke="none" /><path d="M 87.22198572758235 83.33499621200491 l -3.505316827047622 -4.571611594374826 a26.760805380136144,26.760805380136144 0 0,0 0.36796597533511827,-0.2771443438877186 l 3.426104697954114 4.631272527768399" fill="#ff4a06" stroke="none" /><path d="M 87.51073957382395 83.11751280151077 l -4.056252570847044 -5.483081444729817 a27.820364143360944,27.820364143360944 0 0,0 0.38743789497472475,-0.28149010766001287 l 3.9612693595185373 5.552090787206497" fill="#ff5808" stroke="none" /><line stroke="#e1ed5e" stroke-width="0.3" x1="56.762969772571076" x2="54.21961505331055" y1="26.818313649435495" y2="22.513508569990535" /><path d="M 56.25429882871897 25.957352633546506 a86.0,86.0 0 0,1 42.265352541879196,-11.944610805530505" fill="none" id="id72" stroke="none" /><text fill="#e1ed5e" style="font-size:6.75px; font-family:Arial;" text-anchor="middle"><textPath startOffset="22.20632615414155" xlink:href="#id72">December</textPath></text><path d="M 89.3179101791058 81.91981866633112 l -1.9789565018254107 -3.349521770024893 a24.890445337488725,24.890445337488725 0 0,0 0.3707529824742767,-0.21476405789824957 l 1.9210067868858138 3.3830899853131897" fill="#ff2f04" stroke="none" /><path d="M 89.63071344664047 81.73862282372117 l -3.5049033310297486 -6.172494256472606 a28.09817108176823,28.09817108176823 0 0,0 0.42264454218395453,-0.23520123013783553 l 3.3981346997737485 6.2319108841706266" fill="#ff5c08" stroke="none" /><path d="M 89.94658935756843 81.56283822128135 l -3.3401432389477814 -6.125559121265418 a27.977036004264743,27.977036004264743 0 0,0 0.4247912625436077,-0.22690878099775133 l 3.234206929875868 6.182146628764919" fill="#ff5a08" stroke="none" /><path d="M 90.26544431104013 81.39251694778311 l -2.710421355994382 -5.180936969031919 a26.847092594111373,26.847092594111373 0 0,0 0.4113224038518431,-0.21069531110175424 l 2.6208384645537754 5.226824805446179" fill="#ff4b07" stroke="none" /><path d="M 90.58718382345135 81.22770947309562 l -2.57547146458315 -5.136347897387095 a26.745878782908225,26.745878782908225 0 0,0 0.41332410257666363,-0.20281634208749894 l 2.48667609499606 5.179919399609424" fill="#ff4906" stroke="none" /><path d="M 90.91171255644093 81.06846463323043 l -2.638433277273484 -5.496040173879439 a27.096538997785615,27.096538997785615 0 0,0 0.42221799802120585,-0.1982370113962145 l 2.54343706795267 5.540642167915661" fill="#ff4e07" stroke="none" /><path d="M 91.23893434514133 80.91482961587045 l -2.6161764987566993 -5.699098283327787 a27.27089313540556,27.27089313540556 0 0,0 0.4283061048304022,-0.19216846441411312 l 2.517688275459523 5.7432870782584295" fill="#ff5107" stroke="none" /><path d="M 91.56875222667455 80.76684994638697 l -1.9878051319592125 -4.534530998041613 a25.95109489051095,25.95109489051095 0 0,0 0.41066525405913007,-0.17582543004306792 l 1.9094561201097742 4.568075956047467" fill="#ff3e05" stroke="none" /><path d="M 91.90106846888425 80.62456947434976 l -2.2157980558229355 -5.300951258141279 a26.74541950299352,26.74541950299352 0 0,0 0.42629158677511675,-0.17389504178986726 l 2.124222599459438 5.338307186114724" fill="#ff4906" stroke="none" /><path d="M 92.57280143429618 80.3572730644239 l -4.960420013669065 -13.118832754006887 a35.02531780529812,35.02531780529812 0 0,0 0.5657717545233257,-0.20837851193518953 l 4.7338659333731705 13.2022745337484" fill="#ffb811" stroke="none" /><path d="M 93.25333710446033 80.11325718540243 l -2.7730317204368564 -8.173903082886671 a29.631477077011397,29.631477077011397 0 0,0 0.4844283372794426,-0.15970840643070489 l 2.6319205609150043 8.22042521357661" fill="#ff710a" stroke="none" /><path d="M 93.59665428221793 80.00007090966166 l -0.8948823999918524 -2.7950364282733147 a23.934798654965963,23.934798654965963 0 0,0 0.39345917128180125,-0.12224967977836027 l 0.8466378559993224 2.8100262429342" fill="#ff2203" stroke="none" /><path d="M 93.94186890950719 79.89281104454417 l -2.4864356017025493 -8.25258313532775 a29.619019109325023,29.619019109325023 0 0,0 0.48943282725584286,-0.1428788634077913 l 2.3440125567232855 8.29416032765424" fill="#ff710a" stroke="none" /><path d="M 94.63758080256005 79.69619591428918 l -4.408328144628809 -16.691315560857127 a38.263643073894855,38.263643073894855 0 0,0 0.6382578121578645,-0.16270612772204002 l 4.120361443785946 16.764724684748032" fill="#ffe015" stroke="none" /><path d="M 94.98787191387505 79.60689891045804 l -10.432143290180313 -42.445793292109094 a64.70898056261788,64.70898056261788 0 0,0 1.0839565048919415,-0.25653748347785055 l 9.699963098325838 42.61907668772782" fill="#35ff67" stroke="none" /><path d="M 95.33964822691252 79.52364482259891 l -1.2774656266818 -5.61284666318831 a26.756384810957105,26.756384810957105 0 0,0 0.44996247482560575,-0.0983443689123154 l 1.1806604277026733 5.634004530196493" fill="#ff4a06" stroke="none" /><path d="M 95.692805502759 79.44645832069477 l -1.7695069856130277 -8.443926923642724 a29.627343557779056,29.627343557779056 0 0,0 0.5000440835778255,-0.10030413899521094 l 1.6238964925680657 8.473135018715146" fill="#ff710a" stroke="none" /><path d="M 96.04723909329186 79.375362276772 l -0.552991023920507 -2.885385633419365 a23.93789879439022,23.93789879439022 0 0,0 0.40535398103953957,-0.07407584907753528 l 0.5032419217780741 2.894476963847636" fill="#ff2203" stroke="none" /><path d="M 96.40284397218896 79.31037775812273 l -2.079100917345572 -11.958283780310932 a33.13767735585992,33.13767735585992 0 0,0 0.5628210328203824,-0.09287029285205982 l 1.872950678386304 11.992300336102618" fill="#ff9f0e" stroke="none" /><path d="M 96.75951476605007 79.25152402106235 l -0.8875168065776505 -5.682673986368926 a26.751562371852703,26.751562371852703 0 0,0 0.45558040600820365,-0.06714070925278617 l 0.7895674201407982 5.697109179782681" fill="#ff4906" stroke="none" /><path d="M 97.11714578562143 79.19881850522333 l -7.596418187372143 -54.81181553948686 a76.33570901336832,76.33570901336832 0 0,0 1.3031060652477386,-0.1691805666636517 l 6.651797393616546 54.93445442931465" fill="#44ffe4" stroke="none" /><path d="M 97.47563105711357 79.15227682838746 l -6.671741695661275 -55.09916620373701 a76.50162388255555,76.50162388255555 0 0,0 1.308663358770958,-0.14704357647477362 l 5.722311633380599 55.20584573368239" fill="#44ffe5" stroke="none" /><path d="M 97.83486435360386 79.11191278185805 l -0.5954877708676674 -5.7449520615139 a26.77573197736406,26.77573197736406 0 0,0 0.45885300678189456,-0.04357362193018499 l 0.49650963699553646 5.754351227959266" fill="#ff4a06" stroke="none" /><path d="M 98.19473922651362 79.07773832637324 l -0.7508767479779623 -8.702365905562255 a29.734700237841384,29.734700237841384 0 0,0 0.5103179848613414,-0.0396104972884897 l 0.6009685737542868 8.714001665039207" fill="#ff720a" stroke="none" /><path d="M 98.55514903715128 79.0497635885617 l -0.2018975699583073 -2.927500434495906 a23.934454195029936,23.934454195029936 0 0,0 0.4112599720893568,-0.024808324618695796 l 0.1514755490293275 2.930542028494908" fill="#ff2203" stroke="none" /><path d="M 98.91598698831166 79.02799685794201 l -0.6258345931664795 -12.107792907258512 a33.1239563684081,33.1239563684081 0 0,0 0.569667643332696,-0.02453108704962859 l 0.41732611744445935 12.116771720832332" fill="#ff9f0e" stroke="none" /><path d="M 99.63851952072746 79.00311137660856 l -0.281865636515459 -16.37239551244005 a37.3748216189617,37.3748216189617 0 0,0 0.6433461157879907,-0.0055374831302046545 l 4.010674576454065e-15 16.374821618961697" fill="#ffd513" stroke="none" /></svg>