<?xml version="1.0" encoding="utf-8" ?>
<svg baseProfile="full" height="200mm" version="1.1" viewBox="0,0,200,200" width="200mm" xmlns="http://www.w3.org/2000/svg" xmlns:ev="http://www.w3.org/2001/xml-events" xmlns:xlink="http://www.w3.org/1999/xlink"><defs /><rect fill="#1a1a1a" height="200" width="200" x="0" y="0" /><text alignment-baseline="middle" fill="#e1ed5e" style="dominant-baseline: central; font-size:9.0px; font-family:Arial;" text-anchor="middle" x="100.0" y="100.0">2024</text><line stroke="#e1ed5e" stroke-width="0.3" x1="100.0" x2="100.0" y1="15.0" y2="10.0" /><path d="M 100.0 14.0 a86.0,86.0 0 0,1 42.35913384403234,11.155469271406648" fill="none" id="id85" stroke="none" /><text fill="#e1ed5e" style="font-size:6.75px; font-family:Arial;" text-anchor="middle"><textPath startOffset="22.145653131862478" xlink:href="#id85">January</textPath></text><path d="M 100.0 79.0 l 0.0 -8.585962009812071 a29.58596200981207,29.58596200981207 0 0,0 0.5078823799706789,0.0043595594011324925 l -0.14738945512182405 8.584696848605374" fill="#ff6008" stroke="none" /><path d="M 100.36049292484886 79.00309439819443 l 0.4315481897492895 -25.135518558637514 a46.13922288082284,46.13922288082284 0 0,0 0.7918076964462459,0.02039415752519352 l -0.8629692002662769 25.124406683762274" fill="#caff1d" stroke="none" /><path d="M 100.72087961077811 79.0123766808444 l 0.28792771345374885 -8.38270122051359 a29.38764461100819,29.38764461100819 0 0,0 0.5040320259763242,0.02164530391175085 l -0.4317855000309093 8.37652334817601" fill="#ff5d08" stroke="none" /><path d="M 101.08105385017728 79.02784411241856 l 0.6577407370264071 -12.759994581461843 a33.776935649680624,33.776935649680624 0 0,0 0.5788010029140929,0.03481923104563077 l -0.8766860920729622 12.746823372591521" fill="#ff990e" stroke="none" /><path d="M 101.44090949804482 79.04949213459386 l 0.5797126881968125 -8.428895256935364 a29.448807137888984,29.448807137888984 0 0,0 0.504038778678177,0.03901578923371784 l -0.7243204616502231 8.417701700706592" fill="#ff5e08" stroke="none" /><path d="M 101.80034050326958 79.07731436759882 l 0.7612116743737012 -8.84643351283302 a29.879123217422876,29.879123217422876 0 0,0 0.5106490651621937,0.048358997390691 l -0.9129603029209078 8.832062759937145" fill="#ff6409" stroke="none" /><path d="M 102.15924093988457 79.11130261209362 l 1.1203956763453866 -10.838811827617814 a31.896564977371597,31.896564977371597 0 0,0 0.5441616235071257,0.060974444926503384 l -1.3062932014533088 10.817981622184341" fill="#ff800b" stroke="none" /><path d="M 102.51750503828377 79.15144685158666 l 1.008564216966138 -8.352358530071092 a29.41303124887789,29.41303124887789 0 0,0 0.5007529046139538,0.06483248892468572 l -1.1517949434708834 8.33381444494601" fill="#ff5e08" stroke="none" /><path d="M 102.87502721639298 79.19773525538626 l 2.3221263376866808 -16.801749413559605 a37.961457899727506,37.961457899727506 0 0,0 0.6447570946363683,0.0947570894815894 l -2.6102085379307307 16.75941125077913" fill="#ffd013" stroke="none" /><path d="M 103.23170211078529 79.25015418208739 l 1.2935773801136936 -8.305694730129703 a29.40582580050563,29.40582580050563 0 0,0 0.49811017993058593,0.08196384055442432 l -1.4359650630973502 8.282264891079612" fill="#ff5d08" stroke="none" /><path d="M 103.58742460773223 79.30868818359171 l 4.296158654244258 -24.779101457945988 a46.14877428913025,46.14877428913025 0 0,0 0.7793984442641269,0.14203235967312938 l -4.720891832059439 24.70170092434149" fill="#c9ff1d" stroke="none" /><path d="M 104.29559338865022 79.4440306129975 l 1.8588658229804405 -8.8953458799642 a30.087494730234557,30.087494730234557 0 0,0 0.5046641158934456,0.10998919518331084 l -2.01129235549302 8.862125226647171" fill="#ff6709" stroke="none" /><path d="M 104.64783097203109 79.52079915486377 l 2.8380949725547584 -12.50517011274213 a33.82318457411651,33.82318457411651 0 0,0 0.5651175202466002,0.13336619604296562 l -3.052344646541244 12.454607773052937" fill="#ff9a0e" stroke="none" /><path d="M 104.9986988182912 79.60360301121754 l 2.0256759104465254 -8.265448978221237 a29.510053449053174,29.510053449053174 0 0,0 0.49098364151118434,0.12480612169554844 l -2.1672648451831042 8.22945762469042" fill="#ff5f08" stroke="none" /><path d="M 105.3480935250658 79.69241777938227 l 6.829345535720678 -25.932137373747565 a47.816332881607494,47.816332881607494 0 0,0 0.7919719007295764,0.21585546328645727 l -7.273498837384947 25.811081416316966" fill="#b6ff1f" stroke="none" /><path d="M 106.04205211174951 79.88797359093562 l 3.6546600466239894 -12.165174681449596 a33.7022838531727,33.7022838531727 0 0,0 0.5526522446885347,0.1712130781031152 l -3.862952924184154 12.100645015539834" fill="#ff980e" stroke="none" /><path d="M 106.38641147887787 79.99465700312896 l 2.548870651208966 -7.98430101172447 a29.38127700546992,29.38127700546992 0 0,0 0.4791628244403179,0.1575103377765607 l -2.685556213297026 7.939369752545887" fill="#ff5d08" stroke="none" /><path d="M 106.72888874123014 80.10723608172694 l 3.2334382454157633 -9.559085628247715 a31.09114666106332,31.09114666106332 0 0,0 0.5041121894568505,0.17535638779886548 l -3.397056206917632 9.502170807880258" fill="#ff750a" stroke="none" /><path d="M 107.06938296918511 80.22567764915836 l 15.447379914228224 -43.20907089506227 a66.88731146873849,66.88731146873849 0 0,0 1.0778758008433613,0.3958109242052053 l -16.18684486672571 42.93752912184834" fill="#37ff7c" stroke="none" /><path d="M 107.40779381753099 80.34994680014964 l 2.9577838200993813 -7.845872988670872 a29.38487972965605,29.38487972965605 0 0,0 0.4704767442096241,0.18199051165187421 l -3.092032826802531 7.79394258888096" fill="#ff5d08" stroke="none" /><path d="M 107.74402155503746 80.48000691201159 l 9.372217609919693 -23.62411076267601 a46.41529209462038,46.41529209462038 0 0,0 0.7381037965495776,0.300180388383039 l -9.77637586765971 23.45974311771368" fill="#c6ff1e" stroke="none" /><path d="M 108.07796709384702 80.6158196554323 l 3.3214449175164487 -7.970258672473106 a29.63464067846651,29.63464067846651 0 0,0 0.4678955909003365,0.19971680496370106 l -3.4577755835872153 7.912067217850003" fill="#ff6108" stroke="none" /><path d="M 108.4095320186766 80.7573450057729 l 6.328898931743677 -14.48175931388406 a36.804313161712976,36.804313161712976 0 0,0 0.5767526751725626,0.2579741356068235 l -6.576565009771871 14.370981427367385" fill="#ffc112" stroke="none" /><path d="M 108.73861861582097 80.90454125486305 l 3.5325969564128648 -7.719361882008499 a29.48927494677038,29.48927494677038 0 0,0 0.4585038614222286,0.2146029583627668 l -3.664589531706598 7.657582692075199" fill="#ff5f08" stroke="none" /><path d="M 109.06512990194946 81.05736502329252 l 5.242826391995781 -10.955490728099452 a33.145369721423904,33.145369721423904 0 0,0 0.5111327747001212,0.25002065329580353 l -5.430119415957969 10.863876324706428" fill="#ff910d" stroke="none" /><path d="M 109.3889696526874 81.21577127319529 l 28.166908958062173 -56.352686180414125 a84.0,84.0 0 0,0 1.2842911131456847,0.6557681933086643 l -29.130127292921436 55.86086003543262" fill="#4dd2ff" stroke="none" /><path d="M 109.71004243097381 81.37971332152246 l 5.247700630569231 -10.063157894380776 a32.349251460572845,32.349251460572845 0 0,0 0.4901854102708216,0.2609961211661774 l -5.419674856626611 9.971591305492026" fill="#ff860c" stroke="none" /><path d="M 110.02825361518725 81.54914285379988 l 8.637759340881448 -15.892504296111515 a39.08818894286843,39.08818894286843 0 0,0 0.5867989875567491,0.32548750673513044 l -8.909302516594297 15.74188387394324" fill="#ffde14" stroke="none" /><path d="M 110.34350942703115 81.72400993836675 l 0.9439593578423181 -1.667885736868673 a22.916481698453715,22.916481698453715 0 0,0 0.340699914114124,0.19670318712667187 l -0.9724517398168394 1.6514356524658296" fill="#ff0000" stroke="none" /><line stroke="#e1ed5e" stroke-width="0.3" x1="143.13028292997686" x2="145.6673583964461" y1="26.7553504044142" y2="22.446841604673864" /><path d="M 143.63769802327073 25.89364864446614 a86.0,86.0 0 0,1 29.32050498858742,28.57503671076993" fill="none" id="id86" stroke="none" /><text fill="#e1ed5e" style="font-size:6.75px; font-family:Arial;" text-anchor="middle"><textPath startOffset="20.669276256404974" xlink:href="#id86">February</textPath></text><path d="M 110.65571695917076 81.90426304109057 l 12.894487299703009 -21.897658439079123 a46.412108291851254,46.412108291851254 0 0,0 0.6830696367676341,0.41016369069420383 l -13.268489693028076 21.673080747849" fill="#c6ff1e" stroke="none" /><path d="M 110.96478420261332 82.08984904055464 l 2.046067745340043 -3.3420978940523227 a24.918674718823937,24.918674718823937 0 0,0 0.36290593295415635,0.2264801425701457 l -2.1031378070839115 3.3064819546406317" fill="#ff1d03" stroke="none" /><path d="M 111.27062007382361 82.28071324371311 l 5.4669172173321225 -8.594901896460286 a31.18624182272044,31.18624182272044 0 0,0 0.4492517251085881,0.2911995405100276 l -5.613654574697718 8.499788514246363" fill="#ff760a" stroke="none" /><line stroke="#e1ed5e" stroke-width="0.3" x1="172.87174338648825" x2="177.1583165268699" y1="56.24261187166439" y2="53.66864786411523" /><path d="M 173.72905801456457 55.72781907015455 a86.0,86.0 0 0,1 12.242430191666344,42.057860355516425" fill="none" id="id87" stroke="none" /><text fill="#e1ed5e" style="font-size:6.75px; font-family:Arial;" text-anchor="middle"><textPath startOffset="22.145653131862474" xlink:href="#id87">March</textPath></text><line stroke="#e1ed5e" stroke-width="0.3" x1="184.99686870605535" x2="189.99668451229388" y1="99.2704041080226" y2="99.22748670261217" /><path d="M 185.99683186730306 99.26182062694052 a86.0,86.0 0 0,1 -10.086455211305974,41.156179273409016" fill="none" id="id88" stroke="none" /><text fill="#e1ed5e" style="font-size:6.75px; font-family:Arial;" text-anchor="middle"><textPath startOffset="21.40746469413373" xlink:href="#id88">April</textPath></text><line stroke="#e1ed5e" stroke-width="0.3" x1="174.33088141563837" x2="178.70328620479359" y1="141.23008692659167" y2="143.65538615756765" /><path d="M 175.20536237346943 141.71514677278685 a86.0,86.0 0 0,1 -30.301960400862466,31.631185727798858" fill="none" id="id89" stroke="none" /><text fill="#e1ed5e" style="font-size:6.75px; font-family:Arial;" text-anchor="middle"><textPath startOffset="22.145653131862474" xlink:href="#id89">May</textPath></text><line stroke="#e1ed5e" stroke-width="0.3" x1="143.1302829299769" x2="145.66735839644613" y1="173.24464959558577" y2="177.55315839532614" /><path d="M 143.63769802327073 174.10635135553383 a86.0,86.0 0 0,1 -40.68552437913181,11.842963189579606" fill="none" id="id90" stroke="none" /><text fill="#e1ed5e" style="font-size:6.75px; font-family:Arial;" text-anchor="middle"><textPath startOffset="21.407464694133747" xlink:href="#id90">June</textPath></text><line stroke="#e1ed5e" stroke-width="0.3" x1="101.45913802915013" x2="101.54496967792366" y1="184.9874750549273" y2="189.98673829345242" /><path d="M 101.47630435890484 185.9873277026323 a86.0,86.0 0 0,1 -42.54439059252881,-10.42667462771756" fill="none" id="id91" stroke="none" /><text fill="#e1ed5e" style="font-size:6.75px; font-family:Arial;" text-anchor="middle"><textPath startOffset="22.145653131862474" xlink:href="#id91">July</textPath></text><line stroke="#e1ed5e" stroke-width="0.3" x1="58.13341422392154" x2="55.67067388415222" y1="173.97424548756322" y2="178.32567169271397" /><path d="M 57.64086615596768 174.84453072859336 a86.0,86.0 0 0,1 -31.369924170532247,-30.572349798747897" fill="none" id="id92" stroke="none" /><text fill="#e1ed5e" style="font-size:6.75px; font-family:Arial;" text-anchor="middle"><textPath startOffset="22.145653131862474" xlink:href="#id92">August</textPath></text><line stroke="#e1ed5e" stroke-width="0.3" x1="26.387840678322732" x2="22.057713659400548" y1="142.50000000000003" y2="145.00000000000006" /><path d="M 25.521815274538298 143.00000000000003 a86.0,86.0 0 0,1 -11.493303480769221,-40.785679425670985" fill="none" id="id93" stroke="none" /><text fill="#e1ed5e" style="font-size:6.75px; font-family:Arial;" text-anchor="middle"><textPath startOffset="21.40746469413373" xlink:href="#id93">September</textPath></text><line stroke="#e1ed5e" stroke-width="0.3" x1="15.003131293944662" x2="10.003315487706104" y1="100.72959589197737" y2="100.7725132973878" /><path d="M 14.003168132696942 100.73817937305945 a86.0,86.0 0 0,1 10.791469493833604,-42.45332614584628" fill="none" id="id94" stroke="none" /><text fill="#e1ed5e" style="font-size:6.75px; font-family:Arial;" text-anchor="middle"><textPath startOffset="22.145653131862435" xlink:href="#id94">October</textPath></text><line stroke="#e1ed5e" stroke-width="0.3" x1="26.387840678322718" x2="22.05771365940052" y1="57.49999999999999" y2="54.99999999999999" /><path d="M 25.521815274538284 56.99999999999999 a86.0,86.0 0 0,1 29.574782752854787,-30.34633250058573" fill="none" id="id95" stroke="none" /><text fill="#e1ed5e" style="font-size:6.75px; font-family:Arial;" text-anchor="middle"><textPath startOffset="21.40746469413373" xlink:href="#id95">November</textPath></text><line stroke="#e1ed5e" stroke-width="0.3" x1="56.869717070023135" x2="54.33264160355391" y1="26.7553504044142" y2="22.446841604673864" /><path d="M 56.362301976729285 25.89364864446614 a86.0,86.0 0 0,1 42.16139366436587,-11.88097634709845" fill="none" id="id96" stroke="none" /><text fill="#e1ed5e" style="font-size:6.75px; font-family:Arial;" text-anchor="middle"><textPath startOffset="22.145653131862474" xlink:href="#id96">December</textPath></text></svg>