<?xml version="1.0" encoding="utf-8" ?>
<svg baseProfile="full" height="200mm" version="1.1" viewBox="0,0,200,200" width="200mm" xmlns="http://www.w3.org/2000/svg" xmlns:ev="http://www.w3.org/2001/xml-events" xmlns:xlink="http://www.w3.org/1999/xlink"><defs /><rect fill="#1a1a1a" height="200" width="200" x="0" y="0" /><text alignment-baseline="middle" fill="#e1ed5e" style="dominant-baseline: central; font-size:9.0px; font-family:Arial;" text-anchor="middle" x="100.0" y="100.0">2026</text><line stroke="#e1ed5e" stroke-width="0.3" x1="100.0" x2="100.0" y1="15.0" y2="10.0" /><path d="M 100.0 14.0 a86.0,86.0 0 0,1 42.46469731375804,11.215312516191453" fill="none" id="id109" stroke="none" /><text fill="#e1ed5e" style="font-size:6.75px; font-family:Arial;" text-anchor="middle"><textPath startOffset="22.20632615414155" xlink:href="#id109">January</textPath></text><path d="M 100.0 79.0 l 0.0 -63.0 a84.0,84.0 0 0,0 1.4459219170901134,0.012445506434235476 l -1.084441437817585 62.990665870174325" fill="#4dd2ff" stroke="none" /><path d="M 100.36148047927253 79.00311137660856 l 0.8149311669860239 -47.33594185603469 a68.34295622587189,68.34295622587189 0 0,0 1.176063050098723,0.03037423886007993 l -1.6296208522796147 47.31490082503225" fill="#39ff88" stroke="none" /><path d="M 100.72285384407766 79.0124445844662 l 1.28792945304258 -37.394130208326374 a58.41630308185566,58.41630308185566 0 0,0 1.0046468283778818,0.04326220576069254 l -1.9314171138097933 37.36642027604148" fill="#4bff2c" stroke="none" /><path d="M 101.08401301168833 79.027996857942 l 1.7972074651677603 -34.769915305467876 a55.81633187201466,55.81633187201466 0 0,0 0.9590786111421923,0.05785424095417575 l -2.3954481251495645 34.733827795133394" fill="#66ff29" stroke="none" /><path d="M 101.44485096284872 79.0497635885617 l 1.1406485261427322 -16.539322670300226 a37.57860891186286,37.57860891186286 0 0,0 0.6449380629500538,0.05005960626817114 l -1.425176778455127 16.51723780184359" fill="#ffbc11" stroke="none" /><path d="M 101.80526077348638 79.07773832637324 l 1.4203999188281042 -16.46187587930996 a37.5230412877053,37.5230412877053 0 0,0 0.6430285578381173,0.061063309721038794 l -1.7035536037564658 16.43498702507374" fill="#ffbb11" stroke="none" /><path d="M 102.16513564639614 79.11191278185805 l 3.8796488061039947 -37.42880626096059 a58.62933978930838,58.62933978930838 0 0,0 1.0029338573124609,0.11269130472588562 l -4.523349366926181 37.356479002764104" fill="#48ff2c" stroke="none" /><path d="M 102.52436894288641 79.15227682838746 l 5.367188605338819 -44.325399648593276 a65.6491631224236,65.6491631224236 0 0,0 1.1206789554845107,0.1454962921232721 l -6.129382289331176 44.226445033305865" fill="#35ff68" stroke="none" /><path d="M 102.88285421437855 79.19881850522331 l 4.577903830590974 -33.03178078544756 a54.34749983641955,54.34749983641955 0 0,0 0.9255405608405803,0.1364006196876261 l -5.145813371860211 32.94808568159896" fill="#76ff27" stroke="none" /><path d="M 103.2404852339499 79.25152402106235 l 5.744685066827002 -36.78259628121623 a58.22849440554865,58.22849440554865 0 0,0 0.9889715869031002,0.16318878567455697 l -6.376985859868977 36.67826123260205" fill="#4cff2c" stroke="none" /><path d="M 103.59715602781102 79.31037775812273 l 5.622155042543192 -32.33673021580558 a53.82183340967088,53.82183340967088 0 0,0 0.9113955500793265,0.1665517112832477 l -6.1779457137254195 32.235163023171594" fill="#7cff26" stroke="none" /><path d="M 104.307194497241 79.44645832069477 l 10.975136285591685 -52.37235542218001 a74.50997317280638,74.50997317280638 0 0,0 1.2530351975762866,0.27386496124664067 l -11.875014207321499 52.1756769628375" fill="#41ffcc" stroke="none" /><path d="M 104.66035177308747 79.52364482259891 l 7.21661403086739 -31.70789658574625 a53.51876725773735,53.51876725773735 0 0,0 0.8965064106779839,0.21217410244705084 l -7.761344128507898 31.578976571158332" fill="#7fff26" stroke="none" /><path d="M 105.01212808612495 79.60689891045804 l 4.776223880477408 -19.43326562034551 a41.0115998167899,41.0115998167899 0 0,0 0.6840951846013503,0.17439109456955934 l -5.110027953763784 19.348171529607082" fill="#ffe915" stroke="none" /><path d="M 105.36241919743992 79.69619591428918 l 10.988134826585602 -41.60453119608419 a64.03110645815613,64.03110645815613 0 0,0 1.0632277132047774,0.2906202976784148 l -11.70266042901409 41.40922435757948" fill="#33ff54" stroke="none" /><path d="M 105.71112130821622 79.79150937346287 l 7.1850935939765845 -25.424061004583837 a47.419849505987045,47.419849505987045 0 0,0 0.7835786501266865,0.22874809511333716 l -7.621662461826698 25.296614580551797" fill="#c6ff1e" stroke="none" /><path d="M 106.0581310904928 79.89281104454417 l 0.9984916290299085 -3.3140352289260466 a24.46118693973696,24.46118693973696 0 0,0 0.40211235868832107,0.12493826722712552 l -1.0553893604289477 3.2963568268164005" fill="#ff0000" stroke="none" /><path d="M 106.74666289553966 80.11325718540242 l 8.480691667390442 -24.99803779892343 a47.39742458941308,47.39742458941308 0 0,0 0.7703616177819327,0.2687640419972354 l -8.909735289235648 24.848352903753987" fill="#c6ff1e" stroke="none" /><path d="M 107.08798089147638 80.2323363322302 l 8.417421379929882 -23.475339075538912 a45.938815677550224,45.938815677550224 0 0,0 0.7420599148048043,0.2733069291238431 l -8.820263620507264 23.326968878608746" fill="#d8ff1c" stroke="none" /><path d="M 107.4271985657038 80.35727306442388 l 17.22466632649224 -45.55410956292898 a69.70180723679906,69.70180723679906 0 0,0 1.118603927083301,0.43400094515362675 l -18.00625341857521 45.2508659138848" fill="#3bff97" stroke="none" /><path d="M 109.41281617654863 81.2277094730956 l 10.282320682562121 -20.506372112605014 a43.939865209710135,43.939865209710135 0 0,0 0.6731995622851401,0.3448389630153067 l -10.633780732436016 20.326340624277208" fill="#f0ff19" stroke="none" /><path d="M 109.73455568895987 81.39251694778311 l 21.855189005041293 -41.77592403888702 a68.14739776221946,68.14739776221946 0 0,0 1.0347207306042456,0.5527119796406061 l -22.57105478217385 41.39353333274466" fill="#38ff85" stroke="none" /><path d="M 110.05341064243156 81.56283822128135 l 24.37336693388226 -44.69883159406799 a71.9121455211673,71.9121455211673 0 0,0 1.0816816415849093,0.6019546624301373 l -25.139172664539206 44.27266153407767" fill="#3dffb0" stroke="none" /><path d="M 110.36928655335952 81.73862282372117 l 28.044011287721265 -49.38838029266128 a77.7950585618007,77.7950585618007 0 0,0 1.158788024580114,0.6712448184283771 l -28.889996044766708 48.89833131684286" fill="#45ffef" stroke="none" /><line stroke="#e1ed5e" stroke-width="0.3" x1="143.23703022742887" x2="145.7803849466894" y1="26.81831364943548" y2="22.513508569990506" /><path d="M 143.74570117128098 25.957352633546492 a86.0,86.0 0 0,1 28.547481713284135,27.462654790039103" fill="none" id="id110" stroke="none" /><text fill="#e1ed5e" style="font-size:6.75px; font-family:Arial;" text-anchor="middle"><textPath startOffset="19.985693538727396" xlink:href="#id110">February</textPath></text><path d="M 110.68208982089419 81.91981866633111 l 29.412952244726988 -49.7834711240699 a78.82314205326179,78.82314205326179 0 0,0 1.162220706647887,0.700224971579107 l -30.265535017592512 49.26979954303218" fill="#46fff9" stroke="none" /><path d="M 110.99172775467656 82.1063720568725 l 16.23182521023128 -26.424075234776634 a52.011351174507624,52.011351174507624 0 0,0 0.7588229456718822,0.47517485896518186 l -16.684267308275423 26.140756034488508" fill="#90ff24" stroke="none" /><path d="M 111.2981086023043 82.29822771554956 l 15.489327653445573 -24.268535611758306 a49.79029509912976,49.79029509912976 0 0,0 0.7184810100460796,0.4673200347834788 l -15.904775689275931 23.9983166528153" fill="#aaff21" stroke="none" /><path d="M 111.60114157652 82.49532879139004 l 31.421687785020573 -47.41139566899176 a77.87849244258327,77.87849244258327 0 0,0 1.1110490829758835,0.7501853004415543 l -32.233141562403 46.863498456251534" fill="#45fff0" stroke="none" /><path d="M 111.90073688211348 82.69761687909136 l 24.88432168075295 -36.1791098895262 a64.91078976640712,64.91078976640712 0 0,0 0.9151458835650176,0.6411181745579263 l -25.503398703901617 35.74540687220434" fill="#34ff5f" stroke="none" /><path d="M 112.48926042617603 83.11751280151076 l 6.719047228583155 -9.082541715989434 a32.29770594778512,32.29770594778512 0 0,0 0.44409937224779544,0.33448644003150413 l -6.874392754589333 8.965538686452081" fill="#ff730a" stroke="none" /><path d="M 112.77801427241765 83.33499621200491 l 21.405962277535476 -27.91751792067095 a56.1795825426945,56.1795825426945 0 0,0 0.7623500994953107,0.5950263448529977 l -21.883344932190216 27.544913186594727" fill="#62ff29" stroke="none" /><path d="M 113.06298171725822 83.55741782278167 l 17.765108102277495 -22.361223201663815 a49.559120591506904,49.559120591506904 0 0,0 0.6633762080192922,0.5364040921619638 l -18.147387708861277 22.052113012237722" fill="#acff20" stroke="none" /><path d="M 113.34407831869373 83.78471172551755 l 5.551234371374974 -6.745678754369921 a29.736153896486293,29.736153896486293 0 0,0 0.3924357586778548,0.32865366204446367 l -5.666527667011946 6.649123934931638" fill="#ff4e07" stroke="none" /><line stroke="#e1ed5e" stroke-width="0.3" x1="172.23445277983987" x2="176.4835382374775" y1="55.19839476539836" y2="52.563006222186495" /><path d="M 173.08426987136738 54.67131705675599 a86.0,86.0 0 0,1 12.851231095245387,41.99856678651699" fill="none" id="id111" stroke="none" /><text fill="#e1ed5e" style="font-size:6.75px; font-family:Arial;" text-anchor="middle"><textPath startOffset="22.20632615414155" xlink:href="#id111">March</textPath></text><line stroke="#e1ed5e" stroke-width="0.3" x1="184.98032266829074" x2="189.97916517819016" y1="98.17113171792111" y2="98.06355123074" /><path d="M 185.9800911702706 98.14961562048488 a86.0,86.0 0 0,1 -9.607161424134198,41.387399972396054" fill="none" id="id112" stroke="none" /><text fill="#e1ed5e" style="font-size:6.75px; font-family:Arial;" text-anchor="middle"><textPath startOffset="21.466115282336823" xlink:href="#id112">April</textPath></text><line stroke="#e1ed5e" stroke-width="0.3" x1="174.80103733775053" x2="179.2010983576182" y1="140.37084112569926" y2="142.7455964860345" /><path d="M 175.68104954172406 140.8457921977663 a86.0,86.0 0 0,1 -30.038265399797805,32.042727171017184" fill="none" id="id113" stroke="none" /><text fill="#e1ed5e" style="font-size:6.75px; font-family:Arial;" text-anchor="middle"><textPath startOffset="22.206326154141568" xlink:href="#id113">May</textPath></text><line stroke="#e1ed5e" stroke-width="0.3" x1="143.8653032363475" x2="146.44561519142675" y1="172.8068346515853" y2="177.08958963109032" /><path d="M 144.38136562736335 173.6633856474863 a86.0,86.0 0 0,1 -40.68145358897372,12.25698825130547" fill="none" id="id114" stroke="none" /><text fill="#e1ed5e" style="font-size:6.75px; font-family:Arial;" text-anchor="middle"><textPath startOffset="21.466115282336833" xlink:href="#id114">June</textPath></text><line stroke="#e1ed5e" stroke-width="0.3" x1="102.19456741930631" x2="102.32365962044197" y1="184.97166512339345" y2="189.96999836594603" /><path d="M 102.22038585953345 185.97133177190398 a86.0,86.0 0 0,1 -42.740103519485714,-10.115201625700543" fill="none" id="id115" stroke="none" /><text fill="#e1ed5e" style="font-size:6.75px; font-family:Arial;" text-anchor="middle"><textPath startOffset="22.20632615414155" xlink:href="#id115">July</textPath></text><line stroke="#e1ed5e" stroke-width="0.3" x1="58.666819895761336" x2="56.23545636021788" y1="174.27360380694188" y2="178.64263932499728" /><path d="M 58.180547188652646 175.14741091055294 a86.0,86.0 0 0,1 -31.652253787137756,-30.449443065178592" fill="none" id="id116" stroke="none" /><text fill="#e1ed5e" style="font-size:6.75px; font-family:Arial;" text-anchor="middle"><textPath startOffset="22.20632615414155" xlink:href="#id116">August</textPath></text><line stroke="#e1ed5e" stroke-width="0.3" x1="26.63291911575756" x2="22.317208475507996" y1="142.92168965132927" y2="145.44649492493687" /><path d="M 25.769776987707644 143.4266507060508 a86.0,86.0 0 0,1 -11.730757126820373,-40.83630448921669" fill="none" id="id117" stroke="none" /><text fill="#e1ed5e" style="font-size:6.75px; font-family:Arial;" text-anchor="middle"><textPath startOffset="21.46611528233685" xlink:href="#id117">September</textPath></text><line stroke="#e1ed5e" stroke-width="0.3" x1="15.007084014347285" x2="10.007500721073583" y1="101.09737516637583" y2="101.16192664675087" /><path d="M 14.007167355692545 101.11028546245083 a86.0,86.0 0 0,1 10.666146001902534,-42.60595125391555" fill="none" id="id118" stroke="none" /><text fill="#e1ed5e" style="font-size:6.75px; font-family:Arial;" text-anchor="middle"><textPath startOffset="22.20632615414155" xlink:href="#id118">October</textPath></text><line stroke="#e1ed5e" stroke-width="0.3" x1="26.266209847984243" x2="21.928928074336255" y1="57.711370442889674" y2="55.22380399835377" /><path d="M 25.398753493254645 57.213857153982495 a86.0,86.0 0 0,1 29.58750427330803,-30.492523968695096" fill="none" id="id119" stroke="none" /><text fill="#e1ed5e" style="font-size:6.75px; font-family:Arial;" text-anchor="middle"><textPath startOffset="21.46611528233685" xlink:href="#id119">November</textPath></text><line stroke="#e1ed5e" stroke-width="0.3" x1="56.762969772571076" x2="54.21961505331055" y1="26.818313649435495" y2="22.513508569990535" /><path d="M 56.25429882871897 25.957352633546506 a86.0,86.0 0 0,1 42.265352541879196,-11.944610805530505" fill="none" id="id120" stroke="none" /><text fill="#e1ed5e" style="font-size:6.75px; font-family:Arial;" text-anchor="middle"><textPath startOffset="22.20632615414155" xlink:href="#id120">December</textPath></text></svg>