<?xml version="1.0" encoding="utf-8" ?>
<svg baseProfile="full" height="200mm" version="1.1" viewBox="0,0,200,200" width="200mm" xmlns="http://www.w3.org/2000/svg" xmlns:ev="http://www.w3.org/2001/xml-events" xmlns:xlink="http://www.w3.org/1999/xlink"><defs /><rect fill="#1a1a1a" height="200" width="200" x="0" y="0" /><text alignment-baseline="middle" fill="#e1ed5e" style="dominant-baseline: central; font-size:9.0px; font-family:Arial;" text-anchor="middle" x="100.0" y="100.0">2017</text><line stroke="#e1ed5e" stroke-width="0.3" x1="100.0" x2="100.0" y1="15.0" y2="10.0" /><path d="M 100.0 14.0 a86.0,86.0 0 0,1 42.46469731375804,11.215312516191453" fill="none" id="id1" stroke="none" /><text fill="#e1ed5e" style="font-size:6.75px; font-family:Arial;" text-anchor="middle"><textPath startOffset="22.20632615414155" xlink:href="#id1">January</textPath></text><line stroke="#e1ed5e" stroke-width="0.3" x1="143.23703022742887" x2="145.7803849466894" y1="26.81831364943548" y2="22.513508569990506" /><path d="M 143.74570117128098 25.957352633546492 a86.0,86.0 0 0,1 28.547481713284135,27.462654790039103" fill="none" id="id2" stroke="none" /><text fill="#e1ed5e" style="font-size:6.75px; font-family:Arial;" text-anchor="middle"><textPath startOffset="19.985693538727396" xlink:href="#id2">February</textPath></text><line stroke="#e1ed5e" stroke-width="0.3" x1="172.23445277983987" x2="176.4835382374775" y1="55.19839476539836" y2="52.563006222186495" /><path d="M 173.08426987136738 54.67131705675599 a86.0,86.0 0 0,1 12.851231095245387,41.99856678651699" fill="none" id="id3" stroke="none" /><text fill="#e1ed5e" style="font-size:6.75px; font-family:Arial;" text-anchor="middle"><textPath startOffset="22.20632615414155" xlink:href="#id3">March</textPath></text><line stroke="#e1ed5e" stroke-width="0.3" x1="184.98032266829074" x2="189.97916517819016" y1="98.17113171792111" y2="98.06355123074" /><path d="M 185.9800911702706 98.14961562048488 a86.0,86.0 0 0,1 -9.607161424134198,41.387399972396054" fill="none" id="id4" stroke="none" /><text fill="#e1ed5e" style="font-size:6.75px; font-family:Arial;" text-anchor="middle"><textPath startOffset="21.466115282336823" xlink:href="#id4">April</textPath></text><line stroke="#e1ed5e" stroke-width="0.3" x1="174.80103733775053" x2="179.2010983576182" y1="140.37084112569926" y2="142.7455964860345" /><path d="M 175.68104954172406 140.8457921977663 a86.0,86.0 0 0,1 -30.038265399797805,32.042727171017184" fill="none" id="id5" stroke="none" /><text fill="#e1ed5e" style="font-size:6.75px; font-family:Arial;" text-anchor="middle"><textPath startOffset="22.206326154141568" xlink:href="#id5">May</textPath></text><path d="M 116.0416608686014 113.55231037782055 l 28.121721270290514 23.757782821571563 a57.81390296886315,57.81390296886315 0 0,0 -0.6487752040743234,0.7546721328866055 l -27.70860355664541 -24.238332053619697" fill="#daff1b" stroke="none" /><line stroke="#e1ed5e" stroke-width="0.3" x1="143.8653032363475" x2="146.44561519142675" y1="172.8068346515853" y2="177.08958963109032" /><path d="M 144.38136562736335 173.6633856474863 a86.0,86.0 0 0,1 -40.68145358897372,12.25698825130547" fill="none" id="id6" stroke="none" /><text fill="#e1ed5e" style="font-size:6.75px; font-family:Arial;" text-anchor="middle"><textPath startOffset="21.466115282336833" xlink:href="#id6">June</textPath></text><path d="M 101.62511606390274 120.93702456842531 l 2.8700801545108843 36.97639820508286 a58.087617668356266,58.087617668356266 0 0,0 -0.9975503842307157,0.06879691497700495 l -2.2331670095012384 -37.020323464576144" fill="#d6ff1c" stroke="none" /><line stroke="#e1ed5e" stroke-width="0.3" x1="102.19456741930631" x2="102.32365962044197" y1="184.97166512339345" y2="189.96999836594603" /><path d="M 102.22038585953345 185.97133177190398 a86.0,86.0 0 0,1 -42.740103519485714,-10.115201625700543" fill="none" id="id7" stroke="none" /><text fill="#e1ed5e" style="font-size:6.75px; font-family:Arial;" text-anchor="middle"><textPath startOffset="22.20632615414155" xlink:href="#id7">July</textPath></text><path d="M 90.42595943632237 118.69057910512821 l -18.54757839347265 36.2088481729395 a61.68283852280956,61.68283852280956 0 0,0 -0.940836873183097,-0.492201385352686 l 19.168106169182245 -35.8842173686421" fill="#98ff23" stroke="none" /><line stroke="#e1ed5e" stroke-width="0.3" x1="58.666819895761336" x2="56.23545636021788" y1="174.27360380694188" y2="178.64263932499728" /><path d="M 58.180547188652646 175.14741091055294 a86.0,86.0 0 0,1 -31.652253787137756,-30.449443065178592" fill="none" id="id8" stroke="none" /><text fill="#e1ed5e" style="font-size:6.75px; font-family:Arial;" text-anchor="middle"><textPath startOffset="22.20632615414155" xlink:href="#id8">August</textPath></text><path d="M 87.36589467227662 116.77436683061367 l -21.960367417165177 29.15689312659578 a57.50181028240405,57.50181028240405 0 0,0 -0.7855055918875975,-0.6022921921826421 l 22.45900173754626 -28.77456159258577" fill="#e0ff1b" stroke="none" /><path d="M 83.72743513129214 113.27417163493432 l -28.625821244331867 23.351209072081804 a57.942070963070236,57.942070963070236 0 0,0 -0.6237935420569682,-0.778278356357878 l 29.023532698443695 -22.855002882145666" fill="#d8ff1c" stroke="none" /><path d="M 82.24976979558568 111.22182372390057 l -30.607074301994654 19.35001341198909 a57.210716871832005,57.210716871832005 0 0,0 -0.5190792644775746,-0.836921052773808 l 30.935618206140184 -18.820296027850016" fill="#e5ff1a" stroke="none" /><line stroke="#e1ed5e" stroke-width="0.3" x1="26.63291911575756" x2="22.317208475507996" y1="142.92168965132927" y2="145.44649492493687" /><path d="M 25.769776987707644 143.4266507060508 a86.0,86.0 0 0,1 -11.730757126820373,-40.83630448921669" fill="none" id="id9" stroke="none" /><text fill="#e1ed5e" style="font-size:6.75px; font-family:Arial;" text-anchor="middle"><textPath startOffset="21.46611528233685" xlink:href="#id9">September</textPath></text><path d="M 81.02952815118164 109.00673069616217 l -33.118031075956864 15.723656715837189 a57.6611151339609,57.6611151339609 0 0,0 -0.41797549260524125,-0.9002820262262334 l 33.383781185401936 -15.151254622332127" fill="#ddff1b" stroke="none" /><path d="M 80.45479744820244 107.68017299344265 l -20.73876669507654 8.149177040592301 a43.282404055032586,43.282404055032586 0 0,0 -0.26650773510765774,-0.6957675990373318 l 20.875968709777705 -7.7909858747218115" fill="#ff0000" stroke="none" /><line stroke="#e1ed5e" stroke-width="0.3" x1="15.007084014347285" x2="10.007500721073583" y1="101.09737516637583" y2="101.16192664675087" /><path d="M 14.007167355692545 101.11028546245083 a86.0,86.0 0 0,1 10.666146001902534,-42.60595125391555" fill="none" id="id10" stroke="none" /><text fill="#e1ed5e" style="font-size:6.75px; font-family:Arial;" text-anchor="middle"><textPath startOffset="22.20632615414155" xlink:href="#id10">October</textPath></text><path d="M 79.00175016825051 100.2711162175752 l -57.90972799363212 0.7476940478488621 a78.91455467052862,78.91455467052862 0 0,0 -0.005846075552314476,-1.358422073579713 l 57.91401836647393 0.24923750393452634" fill="#43ffe2" stroke="none" /><path d="M 81.6062741919709 89.86733742301443 l -52.04547243478021 -28.670603027649356 a80.41998551774077,80.41998551774077 0 0,0 0.6783707581829127,-1.2067458841640917 l 51.544244035304864 29.56223242174823" fill="#46fff9" stroke="none" /><line stroke="#e1ed5e" stroke-width="0.3" x1="26.266209847984243" x2="21.928928074336255" y1="57.711370442889674" y2="55.22380399835377" /><path d="M 25.398753493254645 57.213857153982495 a86.0,86.0 0 0,1 29.58750427330803,-30.492523968695096" fill="none" id="id11" stroke="none" /><text fill="#e1ed5e" style="font-size:6.75px; font-family:Arial;" text-anchor="middle"><textPath startOffset="21.46611528233685" xlink:href="#id11">November</textPath></text><path d="M 83.17141714833178 87.43820079747576 l -42.47561932896319 -31.706187366834637 a74.00434467776972,74.00434467776972 0 0,0 0.7707871766179123,-1.014265573771907 l 41.92355621212117 32.43263771648757" fill="#3aff94" stroke="none" /><path d="M 85.83668400450813 84.49514656593479 l -27.78795616797669 -30.420008121957064 a62.20130340333092,62.20130340333092 0 0,0 0.7967365320335871,-0.7153179251308214 l 27.260208648347135 30.893825055857164" fill="#8fff24" stroke="none" /><path d="M 86.37877921826538 84.01681056812374 l -25.29608319929186 -29.68251496231136 a59.99927588703839,59.99927588703839 0 0,0 0.7918260523811275,-0.6631315471709976 l 24.78139960995162 30.11354766687617" fill="#b4ff20" stroke="none" /><path d="M 88.70189139769569 82.29822771554957 l -20.22408578571166 -31.6869109548869 a58.590876176683565,58.590876176683565 0 0,0 0.8548153479173957,-0.5352852924449648 l 19.67565128542202 32.030340588654795" fill="#cdff1d" stroke="none" /><line stroke="#e1ed5e" stroke-width="0.3" x1="56.762969772571076" x2="54.21961505331055" y1="26.818313649435495" y2="22.513508569990535" /><path d="M 56.25429882871897 25.957352633546506 a86.0,86.0 0 0,1 42.265352541879196,-11.944610805530505" fill="none" id="id12" stroke="none" /><text fill="#e1ed5e" style="font-size:6.75px; font-family:Arial;" text-anchor="middle"><textPath startOffset="22.20632615414155" xlink:href="#id12">December</textPath></text><path d="M 89.94658935756843 81.56283822128135 l -17.91144010495489 -32.84816771644473 a58.41419261404779,58.41419261404779 0 0,0 0.8869359365732772,-0.47377046078079627 l 17.34335912185331 33.15161690372727" fill="#d0ff1d" stroke="none" /><path d="M 90.91171255644093 81.06846463323043 l -25.345732910851822 -52.796925931138766 a79.56553222302679,79.56553222302679 0 0,0 1.2397893225198795,-0.5820977106829408 l 24.43316537703233 53.22538862446171" fill="#45ffec" stroke="none" /><path d="M 92.91201910852362 80.23233633223022 l -21.26394267442915 -59.30299100330936 a84.0,84.0 0 0,0 1.3652719837468588,-0.4763165873111608 l 20.239988686619004 59.66022844379273" fill="#4dd2ff" stroke="none" /><path d="M 94.63758080256005 79.69619591428918 l -9.43161540715896 -35.71105957739174 a57.935553946415645,57.935553946415645 0 0,0 0.9663956941209574,-0.24635578012914816 l 8.815510824353003 35.868118353689745" fill="#d8ff1c" stroke="none" /><path d="M 95.692805502759 79.44645832069477 l -12.317408904130295 -58.77755867636214 a81.05430847212165,81.05430847212165 0 0,0 1.368017599044399,-0.27441146072691797 l 11.303824895618758 58.980874093166264" fill="#47fcff" stroke="none" /></svg>