<?xml version="1.0" encoding="utf-8" ?>
<svg baseProfile="full" height="200mm" version="1.1" viewBox="0,0,200,200" width="200mm" xmlns="http://www.w3.org/2000/svg" xmlns:ev="http://www.w3.org/2001/xml-events" xmlns:xlink="http://www.w3.org/1999/xlink"><defs /><rect fill="#1a1a1a" height="200" width="200" x="0" y="0" /><text alignment-baseline="middle" fill="#e1ed5e" style="dominant-baseline: central; font-size:9.0px; font-family:Arial;" text-anchor="middle" x="100.0" y="100.0">2026</text><line stroke="#e1ed5e" stroke-width="0.3" x1="100.0" x2="100.0" y1="15.0" y2="10.0" /><path d="M 100.0 14.0 a86.0,86.0 0 0,1 42.46469731375804,11.215312516191453" fill="none" id="id109" stroke="none" /><text fill="#e1ed5e" style="font-size:6.75px; font-family:Arial;" text-anchor="middle"><textPath startOffset="22.20632615414155" xlink:href="#id109">January</textPath></text><path d="M 100.0 79.0 l 0.0 -60.106487909146296 a81.1064879091463,81.1064879091463 0 0,0 1.3961148629290348,0.012016801394422882 l -1.0346343836565064 60.09758248436043" fill="#49eeff" stroke="none" /><path d="M 100.36148047927253 79.00311137660856 l 0.7775023862735226 -45.161860584727 a66.16855279323192,66.16855279323192 0 0,0 1.1386453603417261,0.02940785032659443 l -1.5547743818101167 45.14178594225805" fill="#36ff6f" stroke="none" /><path d="M 100.72285384407766 79.0124445844662 l 1.2287764459863055 -35.676664051425576 a56.69781855229382,56.69781855229382 0 0,0 0.9750922358898644,0.041989522838421764 l -1.8427095142655012 35.65022680206296" fill="#5cff2a" stroke="none" /><path d="M 101.08401301168833 79.027996857942 l 1.7146639488148165 -33.17297609381183 a54.21726080485831,54.21726080485831 0 0,0 0.9316021574454042,0.05619678623224518 l -2.2854281550998325 33.13854603819928" fill="#77ff27" stroke="none" /><path d="M 101.44485096284872 79.0497635885617 l 1.0882599499235501 -15.779692033458248 a36.81717390652936,36.81717390652936 0 0,0 0.6318700321840953,0.04904527557127925 l -1.3597201714699867 15.758621495698504" fill="#ffb310" stroke="none" /><path d="M 101.80526077348638 79.07773832637324 l 1.3551627070983148 -15.70580227780335 a36.76415843463148,36.76415843463148 0 0,0 0.6300236592522444,0.05982833789815471 l -1.6253114934408033 15.680148395390017" fill="#ffb210" stroke="none" /><path d="M 102.16513564639614 79.11191278185805 l 3.7014613342194225 -35.70974747584456 a56.901070747225745,56.901070747225745 0 0,0 0.9733694865882021,0.10936940320065021 l -4.31559752431735 35.640742119173304" fill="#5aff2a" stroke="none" /><path d="M 102.52436894288641 79.15227682838746 l 5.120680270046119 -42.28958885787697 a63.59848227573738,63.59848227573738 0 0,0 1.085672342147936,0.14095142901565472 l -5.847867340701901 42.19517910569718" fill="#33ff50" stroke="none" /><path d="M 102.88285421437855 79.19881850522331 l 4.367646368930967 -31.51467194282658 a52.81589040822238,52.81589040822238 0 0,0 0.899457177917188,0.13255660706967107 l -4.909472527276811 31.434820851595944" fill="#86ff25" stroke="none" /><path d="M 103.2404852339499 79.25152402106235 l 5.480838785890325 -35.093217121332266 a56.51863569623541,56.51863569623541 0 0,0 0.9599307934154281,0.15839680591797056 l -6.0840987854446285 34.993674052474674" fill="#5eff2a" stroke="none" /><path d="M 103.59715602781102 79.31037775812273 l 5.363936414094733 -30.851544186311802 a52.314367190387244,52.314367190387244 0 0,0 0.885868771872192,0.16188685572895392 l -5.894200307069826 30.75464184923211" fill="#8cff24" stroke="none" /><path d="M 104.307194497241 79.44645832069477 l 10.471061848430942 -49.9669579040758 a72.05232627825444,72.05232627825444 0 0,0 1.2117049174680719,0.2648317628320687 l -11.329609490052542 49.77931264314786" fill="#3effb2" stroke="none" /><path d="M 104.66035177308747 79.52364482259891 l 6.885163872877878 -30.25159210723203 a52.025220492024324,52.025220492024324 0 0,0 0.8714876309355278,0.20625296560636544 l -7.404875190775929 30.1285932294848" fill="#8fff24" stroke="none" /><path d="M 105.01212808612495 79.60689891045804 l 4.556857824179224 -18.54071976261152 a40.092491784612,40.092491784612 0 0,0 0.6687639763151544,0.1704828282138158 l -4.875330689179404 18.459533938228837" fill="#ffde14" stroke="none" /><path d="M 105.36241919743992 79.69619591428918 l 10.483463382511694 -39.69368652862117 a62.05474095308489,62.05474095308489 0 0,0 1.0304104359055493,0.28165009611270386 l -11.165171707640953 39.507349891682175" fill="#31ff3c" stroke="none" /><path d="M 105.71112130821622 79.79150937346287 l 6.855091130673619 -24.256365323387556 a46.20641849036627,46.20641849036627 0 0,0 0.7635275819105813,0.2228946384645629 l -7.271608930307628 24.13477235600429" fill="#d3ff1c" stroke="none" /><path d="M 106.0581310904928 79.89281104454417 l 0.9526321432963495 -3.161825689173467 a24.30221890388246,24.30221890388246 0 0,0 0.39949911624792,0.12412632008028053 l -1.0069166322549878 3.144959234210666" fill="#ff0000" stroke="none" /><path d="M 106.74666289553966 80.11325718540242 l 8.091183986780973 -23.849908836720207 a46.1850235224787,46.1850235224787 0 0,0 0.750656174808714,0.2618891998703949 l -8.50052216565296 23.707098783677605" fill="#d3ff1c" stroke="none" /><path d="M 107.08798089147638 80.2323363322302 l 8.03081962538008 -22.39714578265062 a44.79340671414445,44.79340671414445 0 0,0 0.7235578688711971,0.2664924694613068 l -8.415159820023852 22.25559004538299" fill="#e4ff1a" stroke="none" /><path d="M 107.4271985657038 80.35727306442388 l 16.433558703053734 -43.46186564533518 a67.46499345765454,67.46499345765454 0 0,0 1.0827065984960431,0.4200733393602313 l -17.179248466549446 43.1725496020844" fill="#38ff7e" stroke="none" /><path d="M 109.41281617654863 81.2277094730956 l 9.810066409275953 -19.564539800742033 a42.886265569283935,42.886265569283935 0 0,0 0.6570574368285977,0.33657033939291153 l -10.145384333693306 19.392776936036622" fill="#fcff18" stroke="none" /><path d="M 109.73455568895987 81.39251694778311 l 20.851407201327323 -39.857207510107564 a65.98197608797706,65.98197608797706 0 0,0 1.0018419007381911,0.5351492473921458 l -21.534394148593826 39.49237953621366" fill="#36ff6c" stroke="none" /><path d="M 110.05341064243156 81.56283822128135 l 23.253928332009213 -42.64586953590182 a69.57381363804349,69.57381363804349 0 0,0 1.0465091314118788,0.5823811985993146 l -23.984561552493126 42.23927293974232" fill="#3aff96" stroke="none" /><path d="M 110.36928655335952 81.73862282372117 l 26.755984529990165 -47.12003306211372 a75.18653175784333,75.18653175784333 0 0,0 1.1199329908787026,0.6487374749896296 l -27.563114253334195 46.65249142973404" fill="#42ffd4" stroke="none" /><line stroke="#e1ed5e" stroke-width="0.3" x1="143.23703022742887" x2="145.7803849466894" y1="26.81831364943548" y2="22.513508569990506" /><path d="M 143.74570117128098 25.957352633546492 a86.0,86.0 0 0,1 28.547481713284135,27.462654790039103" fill="none" id="id110" stroke="none" /><text fill="#e1ed5e" style="font-size:6.75px; font-family:Arial;" text-anchor="middle"><textPath startOffset="19.985693538727396" xlink:href="#id110">February</textPath></text><path d="M 110.68208982089419 81.91981866633111 l 28.062051721745718 -47.49697786022606 a76.16739664592427,76.16739664592427 0 0,0 1.1230626342393162,0.6766326710956058 l -28.875476422202674 47.00689857967184" fill="#43ffde" stroke="none" /><path d="M 110.99172775467656 82.1063720568725 l 15.48631755146258 -25.210450136658316 a50.58703816534655,50.58703816534655 0 0,0 0.738042839622645,0.4621623584635201 l -15.917979543457488 24.940143436871853" fill="#9fff22" stroke="none" /><path d="M 111.2981086023043 82.29822771554956 l 14.777921989248119 -23.153911782870427 a48.46799244883486,48.46799244883486 0 0,0 0.699399995525499,0.454909212166344 l -15.1742890105579 22.896103646544553" fill="#b8ff1f" stroke="none" /><path d="M 111.60114157652 82.49532879139004 l 29.978528522782685 -45.23384889736515 a75.26613362366032,75.26613362366032 0 0,0 1.073780014467551,0.7250210590191911 l -30.752713231656777 44.71111592604729" fill="#42ffd5" stroke="none" /><path d="M 111.90073688211348 82.69761687909136 l 23.74141555922991 -34.517448113309236 a62.894021494851025,62.894021494851025 0 0,0 0.8867124414753288,0.6211987313125209 l -24.332059140288887 34.10366453923278" fill="#32ff47" stroke="none" /><path d="M 112.48926042617603 83.11751280151076 l 6.410449698505022 -8.665391806927552 a31.77881628494661,31.77881628494661 0 0,0 0.43696454434686044,0.32911263557701464 l -6.558660396610265 8.55376258184469" fill="#ff6e0a" stroke="none" /><path d="M 112.77801427241765 83.33499621200491 l 20.42281290187822 -26.635300846860055 a54.5638278214489,54.5638278214489 0 0,0 0.7404245045237658,0.5779130701996822 l -20.878269961561415 26.279809387437147" fill="#73ff27" stroke="none" /><path d="M 113.06298171725822 83.55741782278167 l 16.94917865641618 -21.334199873087748 a48.24743550046446,48.24743550046446 0 0,0 0.6458185784361657,0.5222070434237023 l -17.313900633416836 21.039286732399916" fill="#bbff1f" stroke="none" /><path d="M 113.34407831869373 83.78471172551755 l 12.44797101867317 -15.126367942356891 a40.58976747205769,40.58976747205769 0 0,0 0.535673720545846,0.44861133580564705 l -12.706502276178135 14.909855449157424" fill="#ffe515" stroke="none" /><path d="M 113.6212207817346 84.01681056812373 l 30.02367152966291 -35.229884104258865 a67.28785570882067,67.28785570882067 0 0,0 0.8750824128495551,0.7588628452178454 l -30.625647741159227 34.707856265621345" fill="#37ff7c" stroke="none" /><path d="M 113.89432698308785 84.25364557470407 l 20.21791321286044 -22.91283540232497 a51.5575202013644,51.5575202013644 0 0,0 0.6604003067126096,0.5929139159060226 l -20.609324507169042 22.56142247764965" fill="#94ff23" stroke="none" /><path d="M 114.16331599549186 84.49514656593476 l 29.634571082609707 -32.441532855971204 a64.93928603533865,64.93928603533865 0 0,0 0.8188290940070988,0.7610124036611421 l -30.188608060411653 31.92661586623542" fill="#34ff60" stroke="none" /><path d="M 114.42810811169701 84.74124197986012 l 7.355032079163899 -7.778473370000836 a31.705192424862908,31.705192424862908 0 0,0 0.39332066148425776,0.3783741647203043 l -7.487835984260575 7.65071611851823" fill="#ff6d0a" stroke="none" /><path d="M 116.38621287248628 86.86637796730983 l 12.30807260069905 -9.86497458237671 a36.77359739105247,36.77359739105247 0 0,0 0.3916316665899683,0.49733244575083835 l -12.476058347882983 9.651649742672834" fill="#ffb210" stroke="none" /><path d="M 116.60985879189232 87.15038557335679 l 12.739722042210765 -9.855623590546246 a37.10694986865367,37.10694986865367 0 0,0 0.38648489148439186,0.5085688139437051 l -12.90748287391927 9.634870000721508" fill="#ffb711" stroke="none" /><path d="M 117.04232023915458 87.72973835380427 l 51.126960717463746 -36.81078493858721 a84.0,84.0 0 0,0 0.8347495207844684,1.1806939986728273 l -51.75302285805209 35.92526443958259" fill="#4dd2ff" stroke="none" /><line stroke="#e1ed5e" stroke-width="0.3" x1="172.23445277983987" x2="176.4835382374775" y1="55.19839476539836" y2="52.563006222186495" /><path d="M 173.08426987136738 54.67131705675599 a86.0,86.0 0 0,1 12.851231095245387,41.99856678651699" fill="none" id="id111" stroke="none" /><text fill="#e1ed5e" style="font-size:6.75px; font-family:Arial;" text-anchor="middle"><textPath startOffset="22.20632615414155" xlink:href="#id111">March</textPath></text><line stroke="#e1ed5e" stroke-width="0.3" x1="184.98032266829074" x2="189.97916517819016" y1="98.17113171792111" y2="98.06355123074" /><path d="M 185.9800911702706 98.14961562048488 a86.0,86.0 0 0,1 -9.607161424134198,41.387399972396054" fill="none" id="id112" stroke="none" /><text fill="#e1ed5e" style="font-size:6.75px; font-family:Arial;" text-anchor="middle"><textPath startOffset="21.466115282336823" xlink:href="#id112">April</textPath></text><line stroke="#e1ed5e" stroke-width="0.3" x1="174.80103733775053" x2="179.2010983576182" y1="140.37084112569926" y2="142.7455964860345" /><path d="M 175.68104954172406 140.8457921977663 a86.0,86.0 0 0,1 -30.038265399797805,32.042727171017184" fill="none" id="id113" stroke="none" /><text fill="#e1ed5e" style="font-size:6.75px; font-family:Arial;" text-anchor="middle"><textPath startOffset="22.206326154141568" xlink:href="#id113">May</textPath></text><line stroke="#e1ed5e" stroke-width="0.3" x1="143.8653032363475" x2="146.44561519142675" y1="172.8068346515853" y2="177.08958963109032" /><path d="M 144.38136562736335 173.6633856474863 a86.0,86.0 0 0,1 -40.68145358897372,12.25698825130547" fill="none" id="id114" stroke="none" /><text fill="#e1ed5e" style="font-size:6.75px; font-family:Arial;" text-anchor="middle"><textPath startOffset="21.466115282336833" xlink:href="#id114">June</textPath></text><line stroke="#e1ed5e" stroke-width="0.3" x1="102.19456741930631" x2="102.32365962044197" y1="184.97166512339345" y2="189.96999836594603" /><path d="M 102.22038585953345 185.97133177190398 a86.0,86.0 0 0,1 -42.740103519485714,-10.115201625700543" fill="none" id="id115" stroke="none" /><text fill="#e1ed5e" style="font-size:6.75px; font-family:Arial;" text-anchor="middle"><textPath startOffset="22.20632615414155" xlink:href="#id115">July</textPath></text><line stroke="#e1ed5e" stroke-width="0.3" x1="58.666819895761336" x2="56.23545636021788" y1="174.27360380694188" y2="178.64263932499728" /><path d="M 58.180547188652646 175.14741091055294 a86.0,86.0 0 0,1 -31.652253787137756,-30.449443065178592" fill="none" id="id116" stroke="none" /><text fill="#e1ed5e" style="font-size:6.75px; font-family:Arial;" text-anchor="middle"><textPath startOffset="22.20632615414155" xlink:href="#id116">August</textPath></text><line stroke="#e1ed5e" stroke-width="0.3" x1="26.63291911575756" x2="22.317208475507996" y1="142.92168965132927" y2="145.44649492493687" /><path d="M 25.769776987707644 143.4266507060508 a86.0,86.0 0 0,1 -11.730757126820373,-40.83630448921669" fill="none" id="id117" stroke="none" /><text fill="#e1ed5e" style="font-size:6.75px; font-family:Arial;" text-anchor="middle"><textPath startOffset="21.46611528233685" xlink:href="#id117">September</textPath></text><line stroke="#e1ed5e" stroke-width="0.3" x1="15.007084014347285" x2="10.007500721073583" y1="101.09737516637583" y2="101.16192664675087" /><path d="M 14.007167355692545 101.11028546245083 a86.0,86.0 0 0,1 10.666146001902534,-42.60595125391555" fill="none" id="id118" stroke="none" /><text fill="#e1ed5e" style="font-size:6.75px; font-family:Arial;" text-anchor="middle"><textPath startOffset="22.20632615414155" xlink:href="#id118">October</textPath></text><line stroke="#e1ed5e" stroke-width="0.3" x1="26.266209847984243" x2="21.928928074336255" y1="57.711370442889674" y2="55.22380399835377" /><path d="M 25.398753493254645 57.213857153982495 a86.0,86.0 0 0,1 29.58750427330803,-30.492523968695096" fill="none" id="id119" stroke="none" /><text fill="#e1ed5e" style="font-size:6.75px; font-family:Arial;" text-anchor="middle"><textPath startOffset="21.46611528233685" xlink:href="#id119">November</textPath></text><line stroke="#e1ed5e" stroke-width="0.3" x1="56.762969772571076" x2="54.21961505331055" y1="26.818313649435495" y2="22.513508569990535" /><path d="M 56.25429882871897 25.957352633546506 a86.0,86.0 0 0,1 42.265352541879196,-11.944610805530505" fill="none" id="id120" stroke="none" /><text fill="#e1ed5e" style="font-size:6.75px; font-family:Arial;" text-anchor="middle"><textPath startOffset="22.20632615414155" xlink:href="#id120">December</textPath></text></svg>