<?xml version="1.0" encoding="utf-8" ?>
<svg baseProfile="full" height="200mm" version="1.1" viewBox="0,0,200,200" width="200mm" xmlns="http://www.w3.org/2000/svg" xmlns:ev="http://www.w3.org/2001/xml-events" xmlns:xlink="http://www.w3.org/1999/xlink"><defs /><rect fill="#1a1a1a" height="200" width="200" x="0" y="0" /><text alignment-baseline="middle" fill="#e1ed5e" style="dominant-baseline: central; font-size:9.0px; font-family:Arial;" text-anchor="middle" x="100.0" y="100.0">2017</text><line stroke="#e1ed5e" stroke-width="0.3" x1="100.0" x2="100.0" y1="15.0" y2="10.0" /><path d="M 100.0 14.0 a86.0,86.0 0 0,1 42.46469731375804,11.215312516191453" fill="none" id="id1" stroke="none" /><text fill="#e1ed5e" style="font-size:6.75px; font-family:Arial;" text-anchor="middle"><textPath startOffset="22.20632615414155" xlink:href="#id1">January</textPath></text><line stroke="#e1ed5e" stroke-width="0.3" x1="143.23703022742887" x2="145.7803849466894" y1="26.81831364943548" y2="22.513508569990506" /><path d="M 143.74570117128098 25.957352633546492 a86.0,86.0 0 0,1 28.547481713284135,27.462654790039103" fill="none" id="id2" stroke="none" /><text fill="#e1ed5e" style="font-size:6.75px; font-family:Arial;" text-anchor="middle"><textPath startOffset="19.985693538727396" xlink:href="#id2">February</textPath></text><line stroke="#e1ed5e" stroke-width="0.3" x1="172.23445277983987" x2="176.4835382374775" y1="55.19839476539836" y2="52.563006222186495" /><path d="M 173.08426987136738 54.67131705675599 a86.0,86.0 0 0,1 12.851231095245387,41.99856678651699" fill="none" id="id3" stroke="none" /><text fill="#e1ed5e" style="font-size:6.75px; font-family:Arial;" text-anchor="middle"><textPath startOffset="22.20632615414155" xlink:href="#id3">March</textPath></text><line stroke="#e1ed5e" stroke-width="0.3" x1="184.98032266829074" x2="189.97916517819016" y1="98.17113171792111" y2="98.06355123074" /><path d="M 185.9800911702706 98.14961562048488 a86.0,86.0 0 0,1 -9.607161424134198,41.387399972396054" fill="none" id="id4" stroke="none" /><text fill="#e1ed5e" style="font-size:6.75px; font-family:Arial;" text-anchor="middle"><textPath startOffset="21.466115282336823" xlink:href="#id4">April</textPath></text><line stroke="#e1ed5e" stroke-width="0.3" x1="174.80103733775053" x2="179.2010983576182" y1="140.37084112569926" y2="142.7455964860345" /><path d="M 175.68104954172406 140.8457921977663 a86.0,86.0 0 0,1 -30.038265399797805,32.042727171017184" fill="none" id="id5" stroke="none" /><text fill="#e1ed5e" style="font-size:6.75px; font-family:Arial;" text-anchor="middle"><textPath startOffset="22.206326154141568" xlink:href="#id5">May</textPath></text><path d="M 117.55443506779139 111.5257021239791 l 52.663305203374144 34.5771063719373 a84.0,84.0 0 0,0 -0.8039875783571158,1.2018523431767725 l -52.0603145196063 -35.47849562931987" fill="red" stroke="none" /><path d="M 116.0416608686014 113.55231037782055 l 18.223674683661944 15.395718533161455 a44.85645548123762,44.85645548123762 0 0,0 -0.5033695108694544,0.5855324618023159 l -17.95596266322171 -15.707128094125299" fill="red" stroke="none" /><line stroke="#e1ed5e" stroke-width="0.3" x1="143.8653032363475" x2="146.44561519142675" y1="172.8068346515853" y2="177.08958963109032" /><path d="M 144.38136562736335 173.6633856474863 a86.0,86.0 0 0,1 -40.68145358897372,12.25698825130547" fill="none" id="id6" stroke="none" /><text fill="#e1ed5e" style="font-size:6.75px; font-family:Arial;" text-anchor="middle"><textPath startOffset="21.466115282336833" xlink:href="#id6">June</textPath></text><path d="M 101.62511606390274 120.93702456842531 l 1.85989351608776 23.961757012891777 a45.03383038627121,45.03383038627121 0 0,0 -0.7733750600978461,0.05333647211806602 l -1.4471556952109836 -23.990221829526128" fill="red" stroke="none" /><line stroke="#e1ed5e" stroke-width="0.3" x1="102.19456741930631" x2="102.32365962044197" y1="184.97166512339345" y2="189.96999836594603" /><path d="M 102.22038585953345 185.97133177190398 a86.0,86.0 0 0,1 -42.740103519485714,-10.115201625700543" fill="none" id="id7" stroke="none" /><text fill="#e1ed5e" style="font-size:6.75px; font-family:Arial;" text-anchor="middle"><textPath startOffset="22.20632615414155" xlink:href="#id7">July</textPath></text><path d="M 90.42595943632237 118.69057910512821 l -12.019357974700213 23.46436277607484 a47.36363568651403,47.36363568651403 0 0,0 -0.7224287333243415,-0.3779405691847573 l 12.421477610551051 -23.253992787945364" fill="red" stroke="none" /><line stroke="#e1ed5e" stroke-width="0.3" x1="58.666819895761336" x2="56.23545636021788" y1="174.27360380694188" y2="178.64263932499728" /><path d="M 58.180547188652646 175.14741091055294 a86.0,86.0 0 0,1 -31.652253787137756,-30.449443065178592" fill="none" id="id8" stroke="none" /><text fill="#e1ed5e" style="font-size:6.75px; font-family:Arial;" text-anchor="middle"><textPath startOffset="22.20632615414155" xlink:href="#id8">August</textPath></text><path d="M 87.36589467227662 116.77436683061367 l -14.230942263370686 18.894495469120738 a44.654210549836876,44.654210549836876 0 0,0 -0.6100004837405363,-0.46772235917721244 l 14.554071475604708 -18.64673376811616" fill="red" stroke="none" /><path d="M 83.72743513129214 113.27417163493432 l -18.55034579481748 15.132247187492242 a44.93951198438827,44.93951198438827 0 0,0 -0.4838104143174333,-0.6036278811129602 l 18.808074121189776 -14.810691472801022" fill="red" stroke="none" /><path d="M 82.24976979558568 111.22182372390057 l -19.834254089115294 12.539358674218944 a44.465573746071,44.465573746071 0 0,0 -0.40344114838470085,-0.6504755896543526 l 20.04715987716795 -12.196086753199326" fill="red" stroke="none" /><line stroke="#e1ed5e" stroke-width="0.3" x1="26.63291911575756" x2="22.317208475507996" y1="142.92168965132927" y2="145.44649492493687" /><path d="M 25.769776987707644 143.4266507060508 a86.0,86.0 0 0,1 -11.730757126820373,-40.83630448921669" fill="none" id="id9" stroke="none" /><text fill="#e1ed5e" style="font-size:6.75px; font-family:Arial;" text-anchor="middle"><textPath startOffset="21.46611528233685" xlink:href="#id9">September</textPath></text><path d="M 81.02952815118164 109.00673069616217 l -21.46142544728415 10.18937646358491 a44.75744462154955,44.75744462154955 0 0,0 -0.32443900746598187,-0.6988127586326328 l 21.633639071589958 -9.81844363767345" fill="red" stroke="none" /><path d="M 80.45479744820244 107.68017299344265 l -13.43931027403763 5.280898345444235 a35.43963115791983,35.43963115791983 0 0,0 -0.218216525610245,-0.5696944894780505 l 13.528221079241385 -5.048780289133026" fill="red" stroke="none" /><line stroke="#e1ed5e" stroke-width="0.3" x1="15.007084014347285" x2="10.007500721073583" y1="101.09737516637583" y2="101.16192664675087" /><path d="M 14.007167355692545 101.11028546245083 a86.0,86.0 0 0,1 10.666146001902534,-42.60595125391555" fill="none" id="id10" stroke="none" /><text fill="#e1ed5e" style="font-size:6.75px; font-family:Arial;" text-anchor="middle"><textPath startOffset="22.20632615414155" xlink:href="#id10">October</textPath></text><path d="M 79.00175016825051 100.2711162175752 l -37.527149701544595 0.48452699462970206 a58.53027752536162,58.53027752536162 0 0,0 -0.004335986256778378,-1.0075305030250792 l 37.529929985090874 0.1615129865990525" fill="red" stroke="none" /><path d="M 81.6062741919709 89.86733742301443 l -33.72694542033385 -18.579365663234793 a59.505839503046374,59.505839503046374 0 0,0 0.50195260792589,-0.8929176801230484 l 33.40213517111553 19.157166853292626" fill="red" stroke="none" /><line stroke="#e1ed5e" stroke-width="0.3" x1="26.266209847984243" x2="21.928928074336255" y1="57.711370442889674" y2="55.22380399835377" /><path d="M 25.398753493254645 57.213857153982495 a86.0,86.0 0 0,1 29.58750427330803,-30.492523968695096" fill="none" id="id11" stroke="none" /><text fill="#e1ed5e" style="font-size:6.75px; font-family:Arial;" text-anchor="middle"><textPath startOffset="21.46611528233685" xlink:href="#id11">November</textPath></text><path d="M 83.17141714833178 87.43820079747576 l -27.525408604908346 -20.546510595098347 a55.348321887708735,55.348321887708735 0 0,0 0.5764766507172605,-0.7585756985104748 l 27.16765601396698 21.017271069489848" fill="red" stroke="none" /><path d="M 85.83668400450813 84.49514656593479 l -18.00738541079471 -19.713029887489988 a47.699615665360724,47.699615665360724 0 0,0 0.6109844052322435,-0.5485478316432882 l 17.665390017966498 20.020076727902556" fill="red" stroke="none" /><path d="M 86.37877921826538 84.01681056812374 l -16.392580900862445 -19.235113358354628 a46.27263924682329,46.27263924682329 0 0,0 0.6106720577270067,-0.511420286358159 l 16.059051306176325 19.5144348021066" fill="red" stroke="none" /><path d="M 88.70189139769569 82.29822771554957 l -13.105782416051717 -20.534018932264928 a45.35995620372715,45.35995620372715 0 0,0 0.6617819919074235,-0.4144078226204338 l 12.750381271772051 20.75657109620829" fill="red" stroke="none" /><line stroke="#e1ed5e" stroke-width="0.3" x1="56.762969772571076" x2="54.21961505331055" y1="26.818313649435495" y2="22.513508569990535" /><path d="M 56.25429882871897 25.957352633546506 a86.0,86.0 0 0,1 42.265352541879196,-11.944610805530505" fill="none" id="id12" stroke="none" /><text fill="#e1ed5e" style="font-size:6.75px; font-family:Arial;" text-anchor="middle"><textPath startOffset="22.20632615414155" xlink:href="#id12">December</textPath></text><path d="M 89.94658935756843 81.56283822128135 l -11.607122282853837 -21.28654632002444 a45.24546023328219,45.24546023328219 0 0,0 0.6869875770232668,-0.3669649717593845 l 11.238989659302264 21.483190018285573" fill="red" stroke="none" /><path d="M 90.91171255644093 81.06846463323043 l -16.42475532514145 -34.21390864445222 a58.95212948204204,58.95212948204204 0 0,0 0.9185914884195658,-0.43129102078009757 l 15.833385625422277 34.49156464787232" fill="red" stroke="none" /><path d="M 92.91201910852362 80.23233633223022 l -13.77963923567578 -38.43002373237292 a61.82579064189843,61.82579064189843 0 0,0 1.0048692837664601,-0.3505791619805162 l 13.116087947846035 38.66152374752565" fill="red" stroke="none" /><path d="M 94.63758080256005 79.69619591428918 l -6.111954857580562 -23.14178161757075 a44.93528877236366,44.93528877236366 0 0,0 0.7495443924443684,-0.1910755549361427 l 5.712701576451194 23.243560168675753" fill="red" stroke="none" /><path d="M 95.692805502759 79.44645832069477 l -7.982031066201255 -38.08952865020733 a59.916898806775016,59.916898806775016 0 0,0 1.011264837032358,-0.20285021282303814 l 7.325199819701761 38.22128281910758" fill="red" stroke="none" /></svg>