<?xml version="1.0" encoding="utf-8" ?>
<svg baseProfile="full" height="200mm" version="1.1" viewBox="0,0,200,200" width="200mm" xmlns="http://www.w3.org/2000/svg" xmlns:ev="http://www.w3.org/2001/xml-events" xmlns:xlink="http://www.w3.org/1999/xlink"><defs /><rect fill="#1a1a1a" height="200" width="200" x="0" y="0" /><text alignment-baseline="middle" fill="#e1ed5e" style="dominant-baseline: central; font-size:9.0px; font-family:Arial;" text-anchor="middle" x="100.0" y="100.0">2026</text><line stroke="#e1ed5e" stroke-width="0.3" x1="100.0" x2="100.0" y1="15.0" y2="10.0" /><path d="M 100.0 14.0 a86.0,86.0 0 0,1 42.46469731375804,11.215312516191453" fill="none" id="id109" stroke="none" /><text fill="#e1ed5e" style="font-size:6.75px; font-family:Arial;" text-anchor="middle"><textPath startOffset="22.20632615414155" xlink:href="#id109">January</textPath></text><path d="M 100.0 79.0 l 0.0 -56.753846153846155 a77.75384615384615,77.75384615384615 0 0,0 1.3384046463321306,0.01152007134040771 l -0.9769241670596024 56.74543745911431" fill="#45ffef" stroke="none" /><path d="M 100.36148047927253 79.00311137660856 l 0.7341345726523667 -42.64280574039364 a63.649124668435014,63.649124668435014 0 0,0 1.0952903975397004,0.028288119547017543 l -1.4680516053869348 42.62385082870426" fill="#33ff51" stroke="none" /><path d="M 100.72285384407766 79.0124445844662 l 1.160237302142632 -33.686677982543586 a54.7066525198939,54.7066525198939 0 0,0 0.9408480517548076,0.0405148962350114 l -1.739926186286771 33.66171535978438" fill="#70ff27" stroke="none" /><path d="M 101.08401301168833 79.027996857942 l 1.6190227934075379 -31.322641651250542 a52.36445623342175,52.36445623342175 0 0,0 0.899765861947415,0.05427633394665466 l -2.157950704194565 31.290132047923585" fill="#89ff24" stroke="none" /><path d="M 101.44485096284872 79.0497635885617 l 1.0275585867986663 -14.899526576492681 a35.93491777188329,35.93491777188329 0 0,0 0.6167284242592523,0.04786999537845341 l -1.2838772004202597 14.879631318925764" fill="#ffab0f" stroke="none" /><path d="M 101.80526077348638 79.07773832637324 l 1.2795739439699327 -14.829758270762984 a35.88485941644562,35.88485941644562 0 0,0 0.614955201041801,0.058397406224114705 l -1.534654272101978 14.805535320023692" fill="#ffaa0f" stroke="none" /><path d="M 102.16513564639614 79.11191278185805 l 3.4949998646441114 -33.71791606756621 a54.898567639257294,54.898567639257294 0 0,0 0.9391139726497484,0.10552039707563568 l -4.074880540803585 33.65275971701997" fill="#6eff28" stroke="none" /><path d="M 102.52436894288641 79.15227682838746 l 4.83505708549326 -39.930744640698556 a61.22240848806366,61.22240848806366 0 0,0 1.045111034678431,0.13568540718879396 l -5.5216828486795375 39.841600910345626" fill="#30ff34" stroke="none" /><path d="M 102.88285421437855 79.19881850522331 l 4.124026185848621 -29.756834998172415 a51.04125198938992,51.04125198938992 0 0,0 0.8692349994839723,0.12810264357956025 l -4.635630165761249 29.681437870431886" fill="#98ff23" stroke="none" /><path d="M 103.2404852339499 79.25152402106235 l 5.1751265473809065 -33.13577476957428 a54.53746419098144,54.53746419098144 0 0,0 0.9262819356271437,0.1528444560683646 l -5.744737689146925 33.04178405056629" fill="#71ff27" stroke="none" /><path d="M 103.59715602781102 79.31037775812273 l 5.064744799008996 -29.130695425178708 a50.56770291777189,50.56770291777189 0 0,0 0.8562915177227981,0.1564818015862029 l -5.565431437834695 29.039198142241766" fill="#9eff22" stroke="none" /><path d="M 104.307194497241 79.44645832069477 l 9.887003115396269 -47.179882576904035 a69.20471087533156,69.20471087533156 0 0,0 1.1638165318321338,0.25436521655969085 l -10.697662371381929 47.002703862248474" fill="#3aff93" stroke="none" /><path d="M 104.66035177308747 79.52364482259891 l 6.501120673960879 -28.564207693484228 a50.29468435013262,50.29468435013262 0 0,0 0.8424989821939677,0.19939228903491524 l -6.99184334311737 28.448069492308445" fill="#a1ff22" stroke="none" /><path d="M 105.01212808612495 79.60689891045804 l 4.302683735062554 -17.506548687046298 a39.02754376657825,39.02754376657825 0 0,0 0.6510000798994532,0.16595441548780074 l -4.603392703647033 17.42989127538963" fill="#ffd413" stroke="none" /><path d="M 105.36241919743992 79.69619591428918 l 9.89871291215489 -37.47963750484848 a59.76477453580902,59.76477453580902 0 0,0 0.9923858586050296,0.2712565427497428 l -10.54239665998363 37.303694421272446" fill="#3bff2e" stroke="none" /><path d="M 105.71112130821622 79.79150937346287 l 6.472725340214803 -22.90338487079603 a44.80044562334217,44.80044562334217 0 0,0 0.7402948991261623,0.21611238127768181 l -6.866010457064392 22.788574160599648" fill="#e2ff1b" stroke="none" /><path d="M 106.0581310904928 79.89281104454417 l 0.8994958777756614 -2.9854642147761146 a24.11802652519894,24.11802652519894 0 0,0 0.39647121608807445,0.12318553676155378 l -0.950752466574454 2.9695385431320402" fill="#ff0200" stroke="none" /><path d="M 106.74666289553966 80.11325718540242 l 7.639870955067968 -22.519599863303664 a44.780244031830236,44.780244031830236 0 0,0 0.727823959547707,0.2539234882881282 l -8.026376918678949 22.384755521843328" fill="#e2ff1b" stroke="none" /><path d="M 107.08798089147638 80.2323363322302 l 7.5828736191846975 -21.147869560357275 a43.46624933687003,43.46624933687003 0 0,0 0.7021200003543973,0.2585967215649546 l -7.945775945311671 21.014209570985994" fill="#f2ff19" stroke="none" /><path d="M 107.4271985657038 80.35727306442388 l 15.516921630874204 -41.037633743014645 a64.87325198938991,64.87325198938991 0 0,0 1.0411132410306305,0.40393576285523003 l -16.221018036904503 40.76445527626887" fill="#34ff60" stroke="none" /><path d="M 109.41281617654863 81.2277094730956 l 9.2628769225816 -18.473261715115967 a41.66548541114058,41.66548541114058 0 0,0 0.6383539505027709,0.3269896872494728 l -9.579491360673128 18.311079502553994" fill="#fff517" stroke="none" /><path d="M 109.73455568895987 81.39251694778311 l 19.68834975325942 -37.63403755298027 a63.4729549071618,63.4729549071618 0 0,0 0.9637460039825562,0.5147997386897397 l -20.333240803770288 37.289559087788774" fill="#33ff4f" stroke="none" /><path d="M 110.05341064243156 81.56283822128135 l 21.956862178044364 -40.26715256422878 a66.86444562334218,66.86444562334218 0 0,0 1.0057556033317423,0.5597019043456273 l -22.646741870448142 39.88323526232297" fill="#37ff78" stroke="none" /><path d="M 110.36928655335952 81.73862282372117 l 25.263579399365998 -44.491754554243585 a72.16409549071619,72.16409549071619 0 0,0 1.0749126127704807,0.6226587661250118 l -26.025688744601805 44.05029163072852" fill="#3effb4" stroke="none" /><line stroke="#e1ed5e" stroke-width="0.3" x1="143.23703022742887" x2="145.7803849466894" y1="26.81831364943548" y2="22.513508569990506" /><path d="M 143.74570117128098 25.957352633546492 a86.0,86.0 0 0,1 28.547481713284135,27.462654790039103" fill="none" id="id110" stroke="none" /><text fill="#e1ed5e" style="font-size:6.75px; font-family:Arial;" text-anchor="middle"><textPath startOffset="19.985693538727396" xlink:href="#id110">February</textPath></text><path d="M 110.68208982089419 81.91981866633111 l 26.496796295677136 -44.847673986982635 a73.09024933687003,73.09024933687003 0 0,0 1.077691132586006,0.6492968490146834 l -27.264849494480778 44.38493052850934" fill="#3fffbe" stroke="none" /><path d="M 110.99172775467656 82.1063720568725 l 14.62251604408869 -23.80425239098681 a48.93672148541114,48.93672148541114 0 0,0 0.7139654385153686,0.44708509209900865 l -15.030100634976321 23.54902295756486" fill="#b0ff20" stroke="none" /><path d="M 111.2981086023043 82.29822771554956 l 13.953633629685156 -21.862424388712185 a46.9358726790451,46.9358726790451 0 0,0 0.6772912902543515,0.4405290952643431 l -14.327891945723788 21.618996369288315" fill="#c8ff1d" stroke="none" /><path d="M 111.60114157652 82.49532879139004 l 28.306375149924513 -42.710778662493425 a72.2392572944297,72.2392572944297 0 0,0 1.03059725547472,0.6958638673835491 l -29.037377099805774 42.21720288281121" fill="#3effb5" stroke="none" /><path d="M 111.90073688211348 82.69761687909136 l 22.417158163686846 -32.59212121671848 a60.55724137931035,60.55724137931035 0 0,0 0.8537673069109616,0.5981185591653315 l -22.974856610181458 32.20141781478921" fill="#33ff2f" stroke="none" /><path d="M 112.48926042617603 83.11751280151076 l 6.052885281133885 -8.182050400558003 a31.17759151193634,31.17759151193634 0 0,0 0.42869759360102905,0.32288613966711716 l -6.192829028493297 8.076647671385038" fill="#ff6909" stroke="none" /><path d="M 112.77801427241765 83.33499621200491 l 19.28366174403623 -25.149627255031778 a52.69169230769231,52.69169230769231 0 0,0 0.7150198533927894,0.558084337030056 l -19.71371415258845 24.8139645287785" fill="#86ff25" stroke="none" /><path d="M 113.06298171725822 83.55741782278167 l 16.003781145128613 -20.144213038080053 a46.72761803713528,46.72761803713528 0 0,0 0.6254749820673957,0.5057572699624537 l -16.3481595257605 19.865749670853468" fill="#caff1d" stroke="none" /><path d="M 113.34407831869373 83.78471172551755 l 11.753643519967012 -14.282643836462789 a39.49708222811671,39.49708222811671 0 0,0 0.5212532691251685,0.43653462245081115 l -11.997754326051297 14.078208056618159" fill="#ffda14" stroke="none" /><path d="M 113.6212207817346 84.01681056812373 l 28.349000153589266 -33.26481869133944 a64.70599469496021,64.70599469496021 0 0,0 0.8415051626630101,0.7297449847317914 l -28.91739911489904 32.77190871318798" fill="#34ff5e" stroke="none" /><path d="M 113.89432698308785 84.25364557470407 l 19.090191025117115 -21.634794855050462 a49.853071618037134,49.853071618037134 0 0,0 0.6385680238020089,0.573312676745294 l -19.459770036515113 21.30298316953587" fill="#a6ff21" stroke="none" /><path d="M 114.16331599549186 84.49514656593476 l 27.98160309415984 -30.63199712293563 a62.48842440318302,62.48842440318302 0 0,0 0.7879258160021223,0.7322911747164219 l -28.50473679395681 30.145801362144567" fill="#31ff43" stroke="none" /><path d="M 114.42810811169701 84.74124197986012 l 6.944780398888554 -7.344602825906265 a31.108074270557026,31.108074270557026 0 0,0 0.3859130764966431,0.37124807383124087 l -7.070176718997615 7.223971665312722" fill="#ff6809" stroke="none" /><path d="M 116.38621287248628 86.86637796730983 l 11.621548407325076 -9.314722407439403 a35.893771883289126,35.893771883289126 0 0,0 0.38226169589470094,0.48543353450327076 l -11.78016418381374 9.113296478983093" fill="#ffaa0f" stroke="none" /><path d="M 116.60985879189232 87.15038557335679 l 12.029121147774974 -9.305892998665193 a36.20853050397878,36.20853050397878 0 0,0 0.3771274662071078,0.49625553914386117 l -12.187524554206195 9.097452683640297" fill="#ffae10" stroke="none" /><path d="M 117.04232023915458 87.72973835380427 l 48.27518232738291 -34.75753945838172 a80.4859628647215,80.4859628647215 0 0,0 0.7998287968000333,1.1313011110926277 l -48.866323743986825 33.9214118469573" fill="#48f4ff" stroke="none" /><path d="M 117.2510076193507 88.02491185347247 l 51.673463834407066 -35.870037154195956 a83.90315119363396,83.90315119363396 0 0,0 0.8133632779200517,1.1935102465906806 l -52.283251577995856 34.97524888433487" fill="#4dd3ff" stroke="none" /><path d="M 117.45458315368197 88.32363383020206 l 34.439883403263885 -23.03880224013415 a62.4353952254642,62.4353952254642 0 0,0 0.5898758326423736,0.898421362169041 l -34.83135587126418 22.442562813987433" fill="#31ff43" stroke="none" /><path d="M 117.65298651832404 88.62581576622439 l 24.854406086644484 -16.01420776915698 a50.566811671087535,50.566811671087535 0 0,0 0.46514821717533533,0.7357527739854061 l -25.126381900065773 15.584007347457367" fill="#9eff22" stroke="none" /><line stroke="#e1ed5e" stroke-width="0.3" x1="172.23445277983987" x2="176.4835382374775" y1="55.19839476539836" y2="52.563006222186495" /><path d="M 173.08426987136738 54.67131705675599 a86.0,86.0 0 0,1 12.851231095245387,41.99856678651699" fill="none" id="id111" stroke="none" /><text fill="#e1ed5e" style="font-size:6.75px; font-family:Arial;" text-anchor="middle"><textPath startOffset="22.20632615414155" xlink:href="#id111">March</textPath></text><path d="M 117.84615892207809 88.93136811851018 l 39.209541724233006 -24.318733542742333 a67.13880106100797,67.13880106100797 0 0,0 0.6006819067317859,0.9873631159941835 l -39.622339429251014 23.640202653541067" fill="#37ff7b" stroke="none" /><path d="M 118.03404312379186 89.2402003453031 l 12.7753097708064 -7.622238269976265 a35.8763925729443,35.8763925729443 0 0,0 0.3118518275759802,0.5330558615824964 l -12.904621272852708 7.401202996039873" fill="#ffaa0f" stroke="none" /><path d="M 118.21658344932153 89.55222093294921 l 12.246955901143869 -7.024011382542245 a35.11823872679045,35.11823872679045 0 0,0 0.29623464960567075,0.5269683868980095 l -12.366048192041973 6.812159485709441" fill="#ffa00e" stroke="none" /><path d="M 118.3937258080291 89.86733742301442 l 51.36738230747717 -28.29705943303154 a79.64581432360742,79.64581432360742 0 0,0 0.6511686309768275,1.2065165778243603 l -51.84685903767246 27.40866187187472" fill="#47fcff" stroke="none" /><path d="M 118.56541770881063 90.18545643968196 l 23.138124411116525 -12.23188906916922 a47.17235013262599,47.17235013262599 0 0,0 0.37331426703383686,0.721124340364704 l -23.345248111310475 11.831792006544172" fill="#c5ff1e" stroke="none" /><path d="M 118.73160827565052 90.50648371742162 l 55.570901620090105 -28.164333334563388 a83.3005198938992,83.3005198938992 0 0,0 0.6372092588919208,1.2845749828900825 l -56.04747089193543 27.203598763174355" fill="#4cd9ff" stroke="none" /><path d="M 118.89224826269711 90.83032412892265 l 39.30095440893153 -19.075390516937958 a64.68564456233422,64.68564456233422 0 0,0 0.4775704364502133,1.0058851348100228 l -39.6234830392235 18.396062966487396" fill="#34ff5e" stroke="none" /><path d="M 119.04729006885535 91.15688171328212 l 41.81174889456106 -19.412012937931227 a67.09824933687003,67.09824933687003 0 0,0 0.47734871365447723,1.05177461556787 l -42.13969992517889 18.689416313521296" fill="#37ff7b" stroke="none" /><path d="M 119.196687751892 91.48605970444005 l 36.02133703631946 -15.975855671416003 a60.405135278514585,60.405135278514585 0 0,0 0.41337043393962736,0.9541159544402508 l -36.29099818010177 15.353440572389148" fill="#34ff2f" stroke="none" /><path d="M 119.34039704204932 91.81776055985345 l 35.914108391590034 -15.193991803811935 a59.99590450928382,59.99590450928382 0 0,0 0.39419684275846495,0.9545789221527173 l -36.1703269212347 14.573538311205915" fill="#38ff2e" stroke="none" /><path d="M 119.47837535516314 92.15188598940014 l 20.6793868350638 -8.33201858941788 a43.294832891246685,43.294832891246685 0 0,0 0.2725645792865105,0.6936471242443177 l -20.819744964232008 7.974822460277777" fill="#f4ff19" stroke="none" /><path d="M 119.61058180528143 92.48833698450437 l 32.40007961627172 -12.410569057523665 a55.695639257294424,55.695639257294424 0 0,0 0.3352225353614649,0.8982297326098281 l -32.608906740134806 11.851016187884504" fill="#65ff29" stroke="none" /><path d="M 119.7369772167798 92.82701384747503 l 33.96491211383301 -12.343827607863108 a57.13841909814324,57.13841909814324 0 0,0 0.3279933518894813,0.9272813738513368 l -34.1723585465323 11.757348607585158" fill="#56ff2b" stroke="none" /><path d="M 119.85752413597 93.16781622104841 l 38.497962884578854 -13.245616912848414 a61.71289124668435,61.71289124668435 0 0,0 0.33696033902444145,1.0074685245615944 l -38.72026051737507 12.580975285364506" fill="#30ff3a" stroke="none" /><path d="M 119.97218684219823 93.5106431181261 l 56.86214035531144 -18.47562937140068 a80.7883925729443,80.7883925729443 0 0,0 0.41834736511852727,1.326275471152365 l -57.17174320419817 17.494103733821895" fill="#49f1ff" stroke="none" /><path d="M 120.08093135843002 93.85539295169968 l 49.55640064822386 -15.1638688104792 a72.82450928381962,72.82450928381962 0 0,0 0.3564728619100355,1.2018492782083996 l -49.810079407245595 14.30859014552427" fill="#3fffbb" stroke="none" /><path d="M 120.18372546131832 94.20196356495316 l 14.365244604193448 -4.126602483426444 a35.94620689655172,35.94620689655172 0 0,0 0.16571754169261158,0.5961741689063181 l -14.434148916452422 3.8787170111011737" fill="#ffab0f" stroke="none" /><path d="M 120.28053869075195 94.5502522615342 l 14.766240496074643 -3.967956028003374 a36.29007957559682,36.29007957559682 0 0,0 0.15691773058013336,0.6046680266960945 l -14.83235455852508 3.713191575758429" fill="#ffaf10" stroke="none" /><path d="M 120.37134235888165 94.90015583598534 l 2.8909654588593625 -0.7237359749787857 a23.980180371352784,23.980180371352784 0 0,0 0.09679679711047803,0.4012852157125998 l -2.90299505623066 0.6738655276067799" fill="#ff0000" stroke="none" /><path d="M 120.45610955862082 95.25157060432595 l 14.839234460788102 -3.4445971713722248 a36.2337824933687,36.2337824933687 0 0,0 0.13580009820835345,0.6087652125447056 l -14.896328945998492 3.1886537892775553" fill="#ffaf10" stroke="none" /><path d="M 120.53481517161879 95.60439243477599 l 14.974473812929212 -3.2053811941941985 a36.31369761273209,36.31369761273209 0 0,0 0.1255774423126905,0.612360206637573 l -15.027430551156899 2.9471453313932137" fill="#ffb010" stroke="none" /><path d="M 120.6074358757038 95.95851677861258 l 14.75368508997514 -2.8934589972480995 a36.0347374005305,36.0347374005305 0 0,0 0.11413449868069549,0.6097110557756281 l -14.801305312565693 2.6390698640099086" fill="#ffac0f" stroke="none" /><path d="M 120.67395015179393 96.31383870115 l 17.56836090777167 -3.132435339495953 a38.845432360742706,38.845432360742706 0 0,0 0.11170492136701621,0.6592887691611692 l -17.61967769065891 2.8295607820189463" fill="#ffd113" stroke="none" /><path d="M 120.73433829027371 96.67025291283417 l 17.719847827191234 -2.8456471994232566 a38.94688594164457,38.94688594164457 0 0,0 0.10060185862980957,0.6628405526241955 l -17.766205579260344 2.5402075344069788" fill="#ffd213" stroke="none" /><path d="M 120.78858239683441 97.02765380044208 l 15.307601882177613 -2.188677005978273 a36.463278514588865,36.463278514588865 0 0,0 0.08349049135475582,0.622101137141181 l -15.343008372590205 1.9248575267724277" fill="#ffb210" stroke="none" /><path d="M 120.83666639777658 97.38593545837742 l 22.204259165274145 -2.7856359289379853 a43.37831299734748,43.37831299734748 0 0,0 0.08656998976279351,0.7416788048858114 l -22.24891950804053 2.4030133857273213" fill="#f3ff19" stroke="none" /><path d="M 120.91429891909075 98.10471618934814 l 7.413166635788205 -0.6717918092702077 a28.44354376657825,28.44354376657825 0 0,0 0.03999096722433407,0.4879910935423745 l -7.423632086832034 0.5440867985200644" fill="#ff4206" stroke="none" /><path d="M 120.94382443527127 98.46500227214037 l 62.831473305813795 -4.6049931835789 a84.0,84.0 0 0,0 0.09327763598233796,1.442963742987859 l -62.90143153280055 3.5227703763380056" fill="#4dd2ff" stroke="none" /><line stroke="#e1ed5e" stroke-width="0.3" x1="184.98032266829074" x2="189.97916517819016" y1="98.17113171792111" y2="98.06355123074" /><path d="M 185.9800911702706 98.14961562048488 a86.0,86.0 0 0,1 -9.607161424134198,41.387399972396054" fill="none" id="id112" stroke="none" /><text fill="#e1ed5e" style="font-size:6.75px; font-family:Arial;" text-anchor="middle"><textPath startOffset="21.466115282336823" xlink:href="#id112">April</textPath></text><path d="M 120.99513854157772 99.54816195383933 l 19.7718886305823 -0.4255123875489933 a40.776466843501325,40.776466843501325 0 0,0 0.00906207050111088,0.7018673470631172 l -19.776283708201127 0.08510878242541335" fill="#ffea16" stroke="none" /><path d="M 120.99980553446 99.90962569577887 l 16.64729411609927 -0.07164293118991837 a37.64744827586207,37.64744827586207 0 0,0 -0.002788963682193035,0.648056939121008 l -16.646060855127576 -0.2149234861347744" fill="#ffc112" stroke="none" /><path d="M 120.99824983174949 100.27111621757518 l 17.834736316867573 0.23027091735850008 a38.83622281167109,38.83622281167109 0 0,0 -0.014384081265726727,0.6683717352562949 l -17.82813017291684 -0.5372324684049099" fill="#ffd113" stroke="none" /><path d="M 120.9904718944345 100.63252640178507 l 14.863852391326136 0.44790698927749023 a35.87059946949602,35.87059946949602 0 0,0 -0.023910089805795547,0.6170131757918705 l -14.853940168669137 -0.703697412083367" fill="#ffaa0f" stroke="none" /><path d="M 120.9764740272857 100.99374915477107 l 37.19368099250799 1.7620305968034078 a58.235395225464195,58.235395225464195 0 0,0 -0.056054754524456414,1.000895297488337 l -37.15783988709601 -2.401997610627168" fill="#4aff2c" stroke="none" /><path d="M 120.95626037817324 101.35467743843564 l 9.98414795948264 0.6454061811906814 a31.00498673740053,31.00498673740053 0 0,0 -0.039012307055651965,0.5322919343521071 l -9.971559093762648 -0.8171712520395586" fill="#ff6709" stroke="none" /><path d="M 120.92983693683757 101.71520430193887 l 18.093298116609045 1.4827493811597456 a39.15395225464191,39.15395225464191 0 0,0 -0.060829214269324215,0.6712453106453212 l -18.065094306062644 -1.7939760803536375" fill="#ffd513" stroke="none" /><path d="M 120.89721153311464 102.0752229133903 l 22.957739411251648 2.2798461311633207 a44.070663129973475,44.070663129973475 0 0,0 -0.08146293876323903,0.754245639328037 l -22.915094170987356 -2.674688092376149" fill="#ebff1a" stroke="none" /><path d="M 120.8583938346157 102.4346265915055 l 22.297788991117987 2.602635200005793 a43.449167108753315,43.449167108753315 0 0,0 -0.09310223544644698,0.7421164206147569 l -22.24968524642469 -2.986069374907945" fill="#f2ff19" stroke="none" /><path d="M 120.81339534386255 102.79330883721812 l 15.085460612519238 2.0245783903240717 a36.22071087533156,36.22071087533156 0 0,0 -0.08825081165664989,0.6172259711821825 l -15.048375749845986 -2.2839498334866635" fill="#ffae10" stroke="none" /><path d="M 120.76222939487914 103.15116336523771 l 37.286540815236435 5.659121628932247 a58.71354907161803,58.71354907161803 0 0,0 -0.16025512514321658,0.9979088172422724 l -37.18360393573193 -6.300109675867724" fill="#45ff2d" stroke="none" /><path d="M 120.70491114924044 103.5080841355445 l 23.52736948818411 3.9863002095336317 a44.862684350132625,44.862684350132625 0 0,0 -0.135556996582377,0.7602756262850711 l -23.455266049262544 -4.390694586551922" fill="#e1ff1b" stroke="none" /><path d="M 120.64145759157962 103.86396538481128 l 19.056281251549347 3.5672292420498573 a40.38728912466843,40.38728912466843 0 0,0 -0.1337974481587816,0.6822303056149618 l -18.9920538704149 -3.894723274732764" fill="#ffe515" stroke="none" /><path d="M 120.5718875245553 104.21870165774334 l 17.458202295551338 3.580174491890874 a38.82151724137931,38.82151724137931 0 0,0 -0.13987940096402723,0.6534699930535484 l -17.393988855862865 -3.880158304360591" fill="#ffd113" stroke="none" /><path d="M 120.49622156327973 104.57218783832717 l 28.30776472190803 6.314745241806609 a50.00354376657825,50.00354376657825 0 0,0 -0.19463149375937802,0.8384673811359522 l -28.194872662218096 -6.801081280291125" fill="#a4ff21" stroke="none" /><path d="M 120.32669344350535 105.2749913415812 l 8.670134521876284 2.2499913554732442 a29.95732625994695,29.95732625994695 0 0,0 -0.13382640019536265,0.4980178197697963 l -8.630120045339142 -2.3989001084185886" fill="#ff5808" stroke="none" /><path d="M 120.23288151984713 105.62410040840565 l 36.71600722217691 10.20588743183776 a59.10807427055703,59.10807427055703 0 0,0 -0.28092481103261385,0.9779361210773809 l -36.5348897742582 -10.836381028419723" fill="#41ff2d" stroke="none" /><path d="M 120.13307415673323 105.97154293290107 l 34.738400080272775 10.303535659022396 a57.23422811671088,57.23422811671088 0 0,0 -0.2882785252868932,0.9421109003214106 l -34.55589478247975 -10.899973531895863" fill="#55ff2b" stroke="none" /><path d="M 120.02730092923936 106.31721596034902 l 17.20045891302028 5.425544558129639 a39.035862068965514,39.035862068965514 0 0,0 -0.20764801339830502,0.6390748723631143 l -17.10451864860573 -5.720818330470549" fill="#ffd413" stroke="none" /><path d="M 119.79798401119884 107.00284435728193 l 21.37244013312922 7.559753139661557 a43.67004774535809,43.67004774535809 0 0,0 -0.25677101987119627,0.7065235679206118 l -21.2391448522528 -7.9265245045883" fill="#f0ff19" stroke="none" /><path d="M 119.67450827220406 107.3425965602758 l 20.940774236969997 7.815171528282506 a43.35157559681697,43.35157559681697 0 0,0 -0.2669336530144272,0.6968795362922284 l -20.803146304362063 -8.174474631407879" fill="#f4ff19" stroke="none" /><path d="M 119.54520255179757 107.68017299344265 l 24.852511345862702 9.76564893363908 a47.70234482758622,47.70234482758622 0 0,0 -0.3068791466666331,0.7616488750509406 l -24.680729584938675 -10.191997176532833" fill="#bfff1e" stroke="none" /><path d="M 119.41010516605496 108.01547362559984 l 26.05628992912048 10.76003983085562 a49.190578249336866,49.190578249336866 0 0,0 -0.3299259371905737,0.7798474569721989 l -25.8672130107376 -11.206961813493983" fill="#adff20" stroke="none" /><path d="M 119.26925614724726 108.34839909993367 l 34.48607357640467 14.941080413559808 a58.58357559681698,58.58357559681698 0 0,0 -0.40885453771585567,0.9218590481035503 l -34.22377795395754 -15.532487798156046" fill="#47ff2c" stroke="none" /><path d="M 119.12269723197855 108.67885076344098 l 14.914418849794158 6.768920401268208 a37.37858885941644,37.37858885941644 0 0,0 -0.2709509529100514,0.5836042476398912 l -14.795693280044276 -7.024644716186929" fill="#ffbe11" stroke="none" /><path d="M 118.97047184881838 109.00673069616215 l 28.868395208566486 13.706030263560978 a52.95683819628647,52.95683819628647 0 0,0 -0.3980506880602536,0.820102316123443 l -28.62819126389152 -14.200921535649695" fill="#83ff25" stroke="none" /><path d="M 118.81262510543309 109.33194174019688 l 14.289078666288313 7.088051183052738 a36.950493368700265,36.950493368700265 0 0,0 -0.287547560874602,0.5673586172497582 l -14.164952435627443 -7.332964012005191" fill="#ffb811" stroke="none" /><path d="M 118.64920377521936 109.65438752849418 l 24.124385751482865 12.488799615197482 a48.16534748010609,48.16534748010609 0 0,0 -0.38749593558287576,0.7329962784667049 l -23.905837307675096 -12.902210908750323" fill="#b9ff1f" stroke="none" /><line stroke="#e1ed5e" stroke-width="0.3" x1="174.80103733775053" x2="179.2010983576182" y1="140.37084112569926" y2="142.7455964860345" /><path d="M 175.68104954172406 140.8457921977663 a86.0,86.0 0 0,1 -30.038265399797805,32.042727171017184" fill="none" id="id113" stroke="none" /><text fill="#e1ed5e" style="font-size:6.75px; font-family:Arial;" text-anchor="middle"><textPath startOffset="22.206326154141568" xlink:href="#id113">May</textPath></text><path d="M 118.48025628344425 109.97397251340804 l 30.916504717002653 16.685935710441576 a56.13190450928382,56.13190450928382 0 0,0 -0.46622515851591834,0.8463340869580213 l -30.624703149035227 -17.215640315797405" fill="#60ff29" stroke="none" /><path d="M 118.30583269289576 110.29060199501025 l 15.611654366875726 8.776072865318444 a38.909305039787796,38.909305039787796 0 0,0 -0.33322670678590444,0.5810088510439283 l -15.458275663937442 -9.043501562220687" fill="#ffd213" stroke="none" /><path d="M 118.12598468904814 110.60418214915192 l 17.421074600132936 10.191791037172884 a41.18332095490716,41.18332095490716 0 0,0 -0.36323517348127393,0.6088030440027576 l -17.243058550953435 -10.490156175061745" fill="#ffef16" stroke="none" /><path d="M 117.94076556474637 110.91462005526583 l 19.044178166588768 11.585902965119308 a43.2915649867374,43.2915649867374 0 0,0 -0.3927892349564672,0.6333013135649715 l -18.84192429196434 -11.912000610049553" fill="#f4ff19" stroke="none" /><path d="M 117.75023020441432 111.22182372390056 l 31.415302211403162 19.86098093318004 a58.166917771883284,58.166917771883284 0 0,0 -0.5423237910515127,0.8416985671438236 l -31.068773556974598 -20.39880110024532" fill="#4bff2c" stroke="none" /><path d="M 117.55443506779139 111.5257021239791 l 15.107927310828034 9.919400380751796 a39.07329442970823,39.07329442970823 0 0,0 -0.37398146865447257,0.5590515531664376 l -14.93494273676284 -10.177988848124041" fill="#ffd413" stroke="none" /><path d="M 117.35343817320211 111.8261652097733 l 19.47463898714449 13.27173876231152 a44.56693899204244,44.56693899204244 0 0,0 -0.4374756368752404,0.6302162833935726 l -19.243302443107112 -13.604996307892112" fill="#e5ff1a" stroke="none" /><path d="M 117.14729908036423 112.12312394758627 l 19.46526217656117 13.761921625834344 a44.83876923076923,44.83876923076923 0 0,0 -0.4509930545974052,0.6263899078685489 l -19.225489329588157 -14.094945139154024" fill="#e1ff1b" stroke="none" /><path d="M 116.71984013943494 112.70617746262583 l 25.384472273656414 19.290830941825252 a52.88271618037136,52.88271618037136 0 0,0 -0.5570141098138044,0.720015823191968 l -25.04865134662454 -19.724924759130474" fill="#84ff25" stroke="none" /><path d="M 116.498646956653 112.99209946851258 l 18.829755518698224 14.827764804558823 a44.96710875331565,44.96710875331565 0 0,0 -0.48410751599076457,0.6039985611319129 l -18.571730090652608 -15.149691199268986" fill="#e0ff1b" stroke="none" /><path d="M 116.27256486870786 113.27417163493432 l 22.331541453597556 18.216717310357435 a49.81920424403183,49.81920424403183 0 0,0 -0.5477835020032148,0.6598405161917773 l -22.0146619517008 -18.598419083662986" fill="#a6ff21" stroke="none" /><path d="M 116.0416608686014 113.55231037782055 l 13.657566534311856 11.538180628229835 a38.879002652519894,38.879002652519894 0 0,0 -0.43629181883256546,0.5075059518483525 l -13.456932205908512 -11.771563679239716" fill="#ffd213" stroke="none" /><path d="M 115.80600337817218 113.82643327865902 l 11.213961102298327 9.809505999759914 a35.89897082228117,35.89897082228117 0 0,0 -0.41085714018418074,0.46160235246356585 l -11.04344511246581 -10.001082521964346" fill="#ffaa0f" stroke="none" /><line stroke="#e1ed5e" stroke-width="0.3" x1="143.8653032363475" x2="146.44561519142675" y1="172.8068346515853" y2="177.08958963109032" /><path d="M 144.38136562736335 173.6633856474863 a86.0,86.0 0 0,1 -40.68145358897372,12.25698825130547" fill="none" id="id114" stroke="none" /><text fill="#e1ed5e" style="font-size:6.75px; font-family:Arial;" text-anchor="middle"><textPath startOffset="21.466115282336833" xlink:href="#id114">June</textPath></text><line stroke="#e1ed5e" stroke-width="0.3" x1="102.19456741930631" x2="102.32365962044197" y1="184.97166512339345" y2="189.96999836594603" /><path d="M 102.22038585953345 185.97133177190398 a86.0,86.0 0 0,1 -42.740103519485714,-10.115201625700543" fill="none" id="id115" stroke="none" /><text fill="#e1ed5e" style="font-size:6.75px; font-family:Arial;" text-anchor="middle"><textPath startOffset="22.20632615414155" xlink:href="#id115">July</textPath></text><line stroke="#e1ed5e" stroke-width="0.3" x1="58.666819895761336" x2="56.23545636021788" y1="174.27360380694188" y2="178.64263932499728" /><path d="M 58.180547188652646 175.14741091055294 a86.0,86.0 0 0,1 -31.652253787137756,-30.449443065178592" fill="none" id="id116" stroke="none" /><text fill="#e1ed5e" style="font-size:6.75px; font-family:Arial;" text-anchor="middle"><textPath startOffset="22.20632615414155" xlink:href="#id116">August</textPath></text><line stroke="#e1ed5e" stroke-width="0.3" x1="26.63291911575756" x2="22.317208475507996" y1="142.92168965132927" y2="145.44649492493687" /><path d="M 25.769776987707644 143.4266507060508 a86.0,86.0 0 0,1 -11.730757126820373,-40.83630448921669" fill="none" id="id117" stroke="none" /><text fill="#e1ed5e" style="font-size:6.75px; font-family:Arial;" text-anchor="middle"><textPath startOffset="21.46611528233685" xlink:href="#id117">September</textPath></text><line stroke="#e1ed5e" stroke-width="0.3" x1="15.007084014347285" x2="10.007500721073583" y1="101.09737516637583" y2="101.16192664675087" /><path d="M 14.007167355692545 101.11028546245083 a86.0,86.0 0 0,1 10.666146001902534,-42.60595125391555" fill="none" id="id118" stroke="none" /><text fill="#e1ed5e" style="font-size:6.75px; font-family:Arial;" text-anchor="middle"><textPath startOffset="22.20632615414155" xlink:href="#id118">October</textPath></text><line stroke="#e1ed5e" stroke-width="0.3" x1="26.266209847984243" x2="21.928928074336255" y1="57.711370442889674" y2="55.22380399835377" /><path d="M 25.398753493254645 57.213857153982495 a86.0,86.0 0 0,1 29.58750427330803,-30.492523968695096" fill="none" id="id119" stroke="none" /><text fill="#e1ed5e" style="font-size:6.75px; font-family:Arial;" text-anchor="middle"><textPath startOffset="21.46611528233685" xlink:href="#id119">November</textPath></text><line stroke="#e1ed5e" stroke-width="0.3" x1="56.762969772571076" x2="54.21961505331055" y1="26.818313649435495" y2="22.513508569990535" /><path d="M 56.25429882871897 25.957352633546506 a86.0,86.0 0 0,1 42.265352541879196,-11.944610805530505" fill="none" id="id120" stroke="none" /><text fill="#e1ed5e" style="font-size:6.75px; font-family:Arial;" text-anchor="middle"><textPath startOffset="22.20632615414155" xlink:href="#id120">December</textPath></text></svg>