<?xml version="1.0" encoding="utf-8" ?>
<svg baseProfile="full" height="200mm" version="1.1" viewBox="0,0,200,200" width="200mm" xmlns="http://www.w3.org/2000/svg" xmlns:ev="http://www.w3.org/2001/xml-events" xmlns:xlink="http://www.w3.org/1999/xlink"><defs /><rect fill="#1a1a1a" height="200" width="200" x="0" y="0" /><text alignment-baseline="middle" fill="#e1ed5e" style="dominant-baseline: central; font-size:9.0px; font-family:Arial;" text-anchor="middle" x="100.0" y="100.0">2025</text><line stroke="#e1ed5e" stroke-width="0.3" x1="100.0" x2="100.0" y1="15.0" y2="10.0" /><path d="M 100.0 14.0 a86.0,86.0 0 0,1 42.46469731375804,11.215312516191453" fill="none" id="id97" stroke="none" /><text fill="#e1ed5e" style="font-size:6.75px; font-family:Arial;" text-anchor="middle"><textPath startOffset="22.20632615414155" xlink:href="#id97">January</textPath></text><path d="M 100.0 79.0 l 0.0 -29.661007777107784 a50.661007777107784,50.661007777107784 0 0,0 0.8720459700808671,0.007505974979224386 l -0.5105654908083387 29.656613178737118" fill="#94ff23" stroke="none" /><path d="M 100.36148047927253 79.00311137660856 l 0.22516449539175207 -13.078863459507566 a34.08080152140637,34.08080152140637 0 0,0 0.5864711390974519,0.015146819264489115 l -0.45026226968407174 13.073049848100718" fill="#ffa00e" stroke="none" /><path d="M 100.72285384407766 79.0124445844662 l 0.37177437451769035 -10.794208747995755 a31.800609181007157,31.800609181007157 0 0,0 0.546908644824987,0.02355103669905838 l -0.5575238517320088 10.786209984772501" fill="#ff820b" stroke="none" /><path d="M 101.08401301168833 79.027996857942 l 3.2520390350649873 -62.916009426173986 a84.0,84.0 0 0,0 1.4433518046415523,0.08706692247878367 l -4.334552888546152 62.8507092343149" fill="#4dd2ff" stroke="none" /><path d="M 101.44485096284872 79.0497635885617 l 2.566911239994808 -37.22003079060842 a58.30844040385299,58.30844040385299 0 0,0 1.0007111411680891,0.07767444440463472 l -3.207212570525239 37.17033108401532" fill="#44ff2d" stroke="none" /><path d="M 101.80526077348638 79.07773832637324 l 2.373780543852374 -27.511181998559184 a48.613401982157484,48.613401982157484 0 0,0 0.8330829457161807,0.07911126390499944 l -2.8469886166587988 27.466245190139006" fill="#abff21" stroke="none" /><path d="M 102.16513564639614 79.11191278185805 l 1.3540424977260963 -13.06308814260719 a34.13307667331509,34.13307667331509 0 0,0 0.58389226917668,0.06560709976348761 l -1.5787014704125015 13.037845089373102" fill="#ffa10e" stroke="none" /><path d="M 102.52436894288641 79.15227682838746 l 3.0615833178556917 -25.284355386063968 a46.46903845261839,46.46903845261839 0 0,0 0.7932602793174401,0.1029879509778605 l -3.496358325680978 25.22790911192197" fill="#c4ff1e" stroke="none" /><path d="M 102.88285421437855 79.19881850522331 l 1.561009298408342 -11.263433845969027 a32.37109018661966,32.37109018661966 0 0,0 0.551281237527463,0.08124452412178976 l -1.7546595163644607 11.23489483768627" fill="#ff890c" stroke="none" /><path d="M 103.59715602781102 79.31037775812273 l 7.829701908486638 -45.03379155662362 a66.7093711829553,66.7093711829553 0 0,0 1.1296275171817358,0.206432208367584 l -8.603724546771275 44.89234386690529" fill="#37ff7a" stroke="none" /><path d="M 103.95276090670814 79.375362276772 l 6.383361219550716 -33.306975988937 a54.91315305286268,54.91315305286268 0 0,0 0.9268126668574956,0.1859099019707289 l -6.955740295875337 33.19216213088906" fill="#67ff28" stroke="none" /><path d="M 104.307194497241 79.44645832069477 l 2.728216166001394 -13.01880022227526 a34.30159098288418,34.30159098288418 0 0,0 0.5768503061292993,0.12607713417690758 l -2.9519091962842214 12.969909590002482" fill="#ffa30f" stroke="none" /><path d="M 104.66035177308747 79.52364482259891 l 2.9048567710352744 -12.763173657123048 a34.08956816178858,34.08956816178858 0 0,0 0.5710429809997014,0.13514742394387586 l -3.1241234389974992 12.711280321038304" fill="#ffa00e" stroke="none" /><path d="M 105.01212808612495 79.60689891045804 l 7.830379738305883 -31.859865276553915 a53.80801521406373,53.80801521406373 0 0,0 0.8975461641422602,0.22880450193885074 l -8.377634791133168 31.720357778446196" fill="#72ff27" stroke="none" /><path d="M 105.36241919743992 79.69619591428918 l 3.3257992990848027 -12.592521194398604 a34.02430539449882,34.02430539449882 0 0,0 0.5649689099408962,0.15442734491106097 l -3.5420660982494097 12.533407308661248" fill="#ff9f0e" stroke="none" /><path d="M 105.71112130821622 79.79150937346287 l 11.32852454949797 -40.085364995079935 a62.655395271889546,62.655395271889546 0 0,0 1.0353350034167146,0.30224267825245593 l -12.016849770638112 39.884423987908775" fill="#32ff4b" stroke="none" /><path d="M 106.0581310904928 79.89281104454417 l 14.79099929067035 -49.09194157984617 a72.27175039040154,72.27175039040154 0 0,0 1.1880602559317366,0.3691361046989814 l -15.633844919312804 48.83006534026467" fill="#3effb8" stroke="none" /><path d="M 106.40334571778207 80.00007090966166 l 3.351450907451079 -10.467774731049266 a31.991202436724027,31.991202436724027 0 0,0 0.5230061587451234,0.17242690763245905 l -3.5311398884386196 10.40853409915757" fill="#ff840c" stroke="none" /><path d="M 106.74666289553966 80.11325718540242 l 3.4801655193694443 -10.258279938914102 a31.832537068818898,31.832537068818898 0 0,0 0.5173817979957533,0.18050435026281114 l -3.656229321428471 10.196854735479084" fill="#ff820c" stroke="none" /><path d="M 107.08798089147638 80.2323363322302 l 3.7383856213234914 -10.425980367923462 a32.075946627085365,32.075946627085365 0 0,0 0.5181299054039461,0.1908316168384184 l -3.917297852500014 10.36008548327872" fill="#ff850c" stroke="none" /><path d="M 107.4271985657038 80.35727306442388 l 13.555304383739164 -35.84974067718022 a59.32688590998346,59.32688590998346 0 0,0 0.9521028247527845,0.36940110419921207 l -14.170390373491616 35.61109686909047" fill="#3aff2e" stroke="none" /><path d="M 107.76421540070413 80.48803036053334 l 8.413424190335812 -21.14347282932141 a43.7559255995176,43.7559255995176 0 0,0 0.6974197190118547,0.2844950145512081 l -8.776127778936056 20.995516928586625" fill="#e4ff1a" stroke="none" /><path d="M 108.09893153111575 80.62456947434976 l 5.962365681930713 -14.264029964314894 a36.460024429086076,36.460024429086076 0 0,0 0.5769646813879615,0.24702616601231164 l -6.2070141211089895 14.159284270339791" fill="#ffbf11" stroke="none" /><path d="M 108.43124777332544 80.76684994638697 l 13.237725140090776 -30.197565156768185 a53.97165916786493,53.97165916786493 0 0,0 0.8476580137894376,0.3803194421492894 l -13.755565272346994 29.965225384102364" fill="#71ff27" stroke="none" /><path d="M 108.76106565485865 80.91482961587045 l 9.14725855468397 -19.92645586065373 a42.92569228628415,42.92569228628415 0 0,0 0.6688677052914739,0.31404235617110277 l -9.488904471275044 19.766048521842624" fill="#eeff19" stroke="none" /><path d="M 109.08828744355905 81.06846463323043 l 13.898267940832804 -28.95105955800155 a53.11426009245945,53.11426009245945 0 0,0 0.8208144538802025,0.4027700877609805 l -14.394553661723439 28.70753431010574" fill="#7aff26" stroke="none" /><path d="M 109.41281617654863 81.2277094730956 l 4.9707252795371755 -9.913281777389855 a32.08969185336363,32.08969185336363 0 0,0 0.49164389572991896,0.25183909894537543 l -5.14062966285585 9.82625015313198" fill="#ff850c" stroke="none" /><path d="M 109.73455568895987 81.39251694778311 l 13.233017467245551 -25.29474956219308 a49.54710329792662,49.54710329792662 0 0,0 0.7523018722246358,0.4018536062786667 l -13.666464385998497 25.063217229412658" fill="#a1ff22" stroke="none" /><path d="M 110.05341064243156 81.56283822128135 l 22.17117175883767 -40.660179423704584 a67.31210476676407,67.31210476676407 0 0,0 1.0124891623657242,0.5634491226577686 l -22.86778501027543 40.27251490348664" fill="#38ff81" stroke="none" /><path d="M 110.36928655335952 81.73862282372117 l 23.16732400729952 -40.800033800328094 a67.91873463518716,67.91873463518716 0 0,0 1.0116762914622297,0.5860282072011602 l -23.866197031227077 40.39520143573689" fill="#39ff88" stroke="none" /><line stroke="#e1ed5e" stroke-width="0.3" x1="143.23703022742887" x2="145.7803849466894" y1="26.81831364943548" y2="22.513508569990506" /><path d="M 143.74570117128098 25.957352633546492 a86.0,86.0 0 0,1 28.547481713284135,27.462654790039103" fill="none" id="id98" stroke="none" /><text fill="#e1ed5e" style="font-size:6.75px; font-family:Arial;" text-anchor="middle"><textPath startOffset="19.985693538727396" xlink:href="#id98">February</textPath></text><path d="M 110.68208982089419 81.91981866633111 l 22.54722476427497 -38.16274896993481 a65.32575722436104,65.32575722436104 0 0,0 0.9632063090342567,0.5803210238041884 l -23.200793139526862 37.768981336672006" fill="#36ff6a" stroke="none" /><path d="M 110.99172775467656 82.1063720568725 l 25.183689927137834 -40.996974074395844 a69.11413640088439,69.11413640088439 0 0,0 1.008345128264856,0.631425626813693 l -25.88565420777495 40.557404106259206" fill="#3aff95" stroke="none" /><path d="M 111.2981086023043 82.29822771554956 l 9.544503051299577 -14.954239291688927 a38.74054145986982,38.74054145986982 0 0,0 0.5590315000624646,0.3636096381134643 l -9.800501577146322 14.787730729415935" fill="#ffdc14" stroke="none" /><path d="M 111.60114157652 82.49532879139004 l 27.164456465514977 -40.98776623430156 a70.17219413392705,70.17219413392705 0 0,0 1.0011076164627308,0.675952331483742 l -27.86596877638425 40.51410199051915" fill="#3cffa1" stroke="none" /><path d="M 111.90073688211348 82.69761687909136 l 3.613136606977349 -5.253109489048691 a27.37572862068432,27.37572862068432 0 0,0 0.385957179799678,0.27038766934814606 l -3.7030249263606785 5.190136976936609" fill="#ff4406" stroke="none" /><path d="M 112.19680574252982 82.90503203632743 l 10.381343539840538 -14.550427298733322 a38.874205668166425,38.874205668166425 0 0,0 0.5413782628895889,0.39333433172695037 l -10.630267119083916 14.369573732189696" fill="#ffde14" stroke="none" /><path d="M 112.48926042617603 83.11751280151076 l 8.039674562367171 -10.867713399162518 a34.51826769949132,34.51826769949132 0 0,0 0.4746325030393282,0.357483361125501 l -8.225553219164883 10.72771344853117" fill="#ffa60f" stroke="none" /><path d="M 112.77801427241765 83.33499621200491 l 6.743211102400815 -8.794452421870576 a32.08211574439136,32.08211574439136 0 0,0 0.4353504070837437,0.33979789814259476 l -6.893594064643989 8.677076134504757" fill="#ff850c" stroke="none" /><path d="M 113.06298171725822 83.55741782278167 l 20.201299246411658 -25.427695616144476 a53.47553226030892,53.47553226030892 0 0,0 0.7157995418251311,0.5787934489677882 l -20.63600218680128 25.076196069912555" fill="#76ff27" stroke="none" /><path d="M 113.34407831869373 83.78471172551755 l 6.909683982237259 -8.396422366660618 a31.87398920791008,31.87398920791008 0 0,0 0.4206493274294624,0.35228171449513435 l -7.053190846625839 8.276239494771664" fill="#ff830c" stroke="none" /><path d="M 113.6212207817346 84.01681056812373 l 15.309490896200524 -17.96421165331095 a44.60282635249007,44.60282635249007 0 0,0 0.580062308321265,0.5030243177472974 l -15.616447003168554 17.698022342143982" fill="#daff1c" stroke="none" /><path d="M 113.89432698308785 84.25364557470407 l 7.164603611339968 -8.119600749157144 a31.828640784204588,31.828640784204588 0 0,0 0.4076930786050088,0.3660308713767321 l -7.303307677540967 7.995070869011114" fill="#ff820c" stroke="none" /><path d="M 114.16331599549186 84.49514656593476 l 8.766129868580833 -9.596450353828832 a33.99757255283949,33.99757255283949 0 0,0 0.42868043724307625,0.3984117471356417 l -8.930018189618757 9.44413402061855" fill="#ff9f0e" stroke="none" /><path d="M 114.42810811169701 84.74124197986012 l 11.276070165457876 -11.9252520663711 a37.41223309677319,37.41223309677319 0 0,0 0.46411969598035646,0.4464827798115497 l -11.47967310505065 11.729386199797249" fill="#ffcc13" stroke="none" /><path d="M 114.94478906791727 85.2469230424477 l 23.991411799249658 -23.683649396865334 a54.712061474712804,54.712061474712804 0 0,0 0.6558562418884566,0.6759175086573198 l -24.395532304841222 23.2671676926579" fill="#69ff28" stroke="none" /><path d="M 115.19652480421416 85.50635884689758 l 7.844461595648559 -7.4816323384076995 a31.84022140791935,31.84022140791935 0 0,0 0.3748544384634904,0.39986857898297207 l -7.972083356082512 7.345494342546672" fill="#ff820c" stroke="none" /><path d="M 115.4437574822437 85.77008943001954 l 16.82121606869488 -15.499103803660049 a43.873030598203385,43.873030598203385 0 0,0 0.5069557085762526,0.5597931553726851 l -17.08551541788717 15.207257861017814" fill="#e2ff1b" stroke="none" /><path d="M 115.68641384162765 86.03803664274999 l 8.16428238077654 -7.266760432913337 a31.92983595404858,31.92983595404858 0 0,0 0.361883845318482,0.413695793147068 l -8.28815808967287 7.125149083563321" fill="#ff830c" stroke="none" /><path d="M 115.9244219780498 86.31012108654704 l 16.821299710866363 -14.460905176092513 a43.182738840700715,43.182738840700715 0 0,0 0.47971784057586214,0.5678346124458605 l -17.067728164929346 14.169211614017545" fill="#ebff1a" stroke="none" /><path d="M 116.15771136456269 86.58626213691792 l 20.830041400705802 -17.292592293672072 a48.072576031665044,48.072576031665044 0 0,0 0.5230788625241404,0.6412328359136934 l -21.124618755306354 16.93147528815028" fill="#b1ff20" stroke="none" /><path d="M 116.38621287248628 86.86637796730983 l 17.763363808736855 -14.237414594121484 a43.76490870015616,43.76490870015616 0 0,0 0.4660877735222689,0.5918841404188188 l -18.00580566285309 13.929538059749627" fill="#e4ff1a" stroke="none" /><path d="M 116.60985879189232 87.15038557335679 l 27.778546613525975 -21.489864410561825 a56.120676592915565,56.120676592915565 0 0,0 0.5845210581796219,0.7691611957760965 l -28.14434361192971 21.008518438904694" fill="#5aff2a" stroke="none" /><path d="M 116.82858285166822 87.43820079747576 l 10.416876392945507 -7.775741470276265 a33.99897954450577,33.99897954450577 0 0,0 0.34604062214501524,0.4719990197175279 l -10.549179627604149 7.5952800068872435" fill="#ff9f0e" stroke="none" /><path d="M 117.04232023915458 87.72973835380427 l 18.666088473412255 -13.439354868687095 a44.00085037957852,44.00085037957852 0 0,0 0.4372581996245508,0.6184707140436828 l -18.89465929284069 13.11605765431162" fill="#e1ff1b" stroke="none" /><path d="M 117.2510076193507 88.02491185347247 l 9.106632225918714 -6.32152776403964 a32.08568733862115,32.08568733862115 0 0,0 0.31104099734979795,0.4564142831676477 l -9.214097688937246 6.163835457601587" fill="#ff850c" stroke="none" /><path d="M 117.45458315368197 88.32363383020206 l 13.557345568105621 -9.069281675185449 a37.31114615705738,37.31114615705738 0 0,0 0.3525074731529721,0.5368930657595985 l -13.71144967661652 8.834570545448175" fill="#ffca12" stroke="none" /><path d="M 117.65298651832404 88.62581576622439 l 4.758448396809704 -3.0659666949865323 a26.66065216382949,26.66065216382949 0 0,0 0.24524296495892406,0.3879154753395923 l -4.810518958014583 2.9836035719327336" fill="#ff3a05" stroke="none" /><line stroke="#e1ed5e" stroke-width="0.3" x1="172.23445277983987" x2="176.4835382374775" y1="55.19839476539836" y2="52.563006222186495" /><path d="M 173.08426987136738 54.67131705675599 a86.0,86.0 0 0,1 12.851231095245387,41.99856678651699" fill="none" id="id99" stroke="none" /><text fill="#e1ed5e" style="font-size:6.75px; font-family:Arial;" text-anchor="middle"><textPath startOffset="22.20632615414155" xlink:href="#id99">March</textPath></text><path d="M 117.84615892207809 88.93136811851018 l 27.598722250327835 -17.117414359144888 a53.476073410949795,53.476073410949795 0 0,0 0.4784433030287423,0.7864349919831052 l -27.8892813516428 16.6398115939547" fill="#76ff27" stroke="none" /><path d="M 118.03404312379186 89.2402003453031 l 27.86056161446033 -16.62267630065981 a53.4426303013436,53.4426303013436 0 0,0 0.46454453011281954,0.7940571862847023 l -28.14256581904348 16.14063970202121" fill="#76ff27" stroke="none" /><path d="M 118.21658344932153 89.55222093294921 l 11.270132661396659 -6.463772772221507 a33.992161046430724,33.992161046430724 0 0,0 0.2867357897777246,0.5100709751753558 l -11.379726092466816 6.268818287111357" fill="#ff9f0e" stroke="none" /><path d="M 118.3937258080291 89.86733742301442 l 14.231720057011433 -7.839913388557064 a37.24826445258748,37.24826445258748 0 0,0 0.30453453927038254,0.5642562504871267 l -14.36456269550028 7.593776154737479" fill="#ffc912" stroke="none" /><path d="M 118.56541770881063 90.18545643968196 l 14.481678369158526 -7.655688948661278 a37.38073812947415,37.38073812947415 0 0,0 0.2958250504109791,0.5714398381716198 l -14.611312852729622 7.405276388229313" fill="#ffcb12" stroke="none" /><path d="M 118.73160827565052 90.50648371742162 l 23.62730699840507 -11.974744528178913 a47.48856626003061,47.48856626003061 0 0,0 0.36326488899393033,0.7323198494877713 l -23.82993190035241 11.566265090192193" fill="#b8ff1f" stroke="none" /><path d="M 118.89224826269711 90.83032412892265 l 12.036236753352965 -5.841993403914673 a34.37908375465776,34.37908375465776 0 0,0 0.2538188209232228,0.5346071687339324 l -12.135013768117943 5.6339438195402005" fill="#ffa40f" stroke="none" /><path d="M 119.04729006885535 91.15688171328212 l 29.983596109698826 -13.92053599754807 a54.05748565950802,54.05748565950802 0 0,0 0.38457443372940925,0.8473587874498023 l -30.218772860391585 13.402355201256205" fill="#70ff27" stroke="none" /><path d="M 119.196687751892 91.48605970444005 l 6.019574567406061 -2.6697469445745976 a27.585045688575537,27.585045688575537 0 0,0 0.18877273023154337,0.43571348816753097 l -6.064638007480285 2.5657343118204636" fill="#ff4706" stroke="none" /><path d="M 119.34039704204932 91.81776055985345 l 10.69572369466766 -4.524983228893759 a32.613525673732546,32.613525673732546 0 0,0 0.21428377415025282,0.5189051559413388 l -10.77202915570411 4.340203502499117" fill="#ff8d0c" stroke="none" /><path d="M 119.47837535516314 92.15188598940014 l 20.347835436032 -8.198431822938113 a42.937381140127094,42.937381140127094 0 0,0 0.2703142256148871,0.6879202196078448 l -20.48594321152859 7.846962598434484" fill="#eeff19" stroke="none" /><path d="M 119.61058180528143 92.48833698450437 l 16.175841933453302 -6.196015743056677 a38.32190732408739,38.32190732408739 0 0,0 0.23065301169669555,0.6180353978845017 l -16.280099533651622 5.9166572081428415" fill="#ffd714" stroke="none" /><path d="M 119.7369772167798 92.82701384747503 l 15.410488913563846 -5.600615654896524 a37.39664795831594,37.39664795831594 0 0,0 0.21466908092452916,0.60689839942297 l -15.504611075298184 5.33451962904694" fill="#ffcb13" stroke="none" /><path d="M 119.85752413597 93.16781622104841 l 12.630028467719368 -4.3454901544619915 a34.35668011812545,34.35668011812545 0 0,0 0.18759190092199463,0.5608759066089322 l -12.702957662413134 4.127441144930746" fill="#ffa40f" stroke="none" /><path d="M 119.97218684219823 93.5106431181261 l 22.989255086611077 -7.469661779362469 a45.172333286948984,45.172333286948984 0 0,0 0.23391635858812496,0.7415787801336186 l -23.114426928967408 7.0728328328024315" fill="#d3ff1c" stroke="none" /><path d="M 120.08093135843002 93.85539295169968 l 36.9659859737194 -11.311300950497614 a59.6578536419438,59.6578536419438 0 0,0 0.2920226450173799,0.9845551867654394 l -37.15521451584848 10.673316376985646" fill="#36ff2e" stroke="none" /><path d="M 120.18372546131832 94.20196356495316 l 10.661753830224857 -3.0627268136209747 a32.0929387572089,32.0929387572089 0 0,0 0.1479533830048249,0.532267038533509 l -10.712893983796045 2.878748471668514" fill="#ff860c" stroke="none" /><path d="M 120.28053869075195 94.5502522615342 l 11.615442811533068 -3.121279674010675 a33.02750591400343,33.02750591400343 0 0,0 0.14281041362698965,0.5503067797388705 l -11.667449557030361 2.9208764687229545" fill="#ff920d" stroke="none" /><path d="M 120.37134235888165 94.90015583598534 l 19.741191522994562 -4.942089657402736 a41.35040277069128,41.35040277069128 0 0,0 0.1669122786170835,0.6919591528787014 l -19.823336601872466 4.6015452728646284" fill="#fffd17" stroke="none" /><path d="M 120.45610955862082 95.25157060432595 l 18.476295604142724 -4.288859761845629 a39.96754642299426,39.96754642299426 0 0,0 0.14979382101172778,0.6714963279789347 l -18.54738381215649 3.97018526431673" fill="#ffec16" stroke="none" /><path d="M 120.53481517161879 95.60439243477599 l 5.396406891686597 -1.1551351575303568 a26.518654235663373,26.518654235663373 0 0,0 0.09170492104669636,0.44718576336350724 l -5.415491108648291 1.0620737380034377" fill="#ff3805" stroke="none" /><path d="M 120.6074358757038 95.95851677861258 l 1.624328711819318 -0.3185596342228788 a22.655271580314487,22.655271580314487 0 0,0 0.07175709470429316,0.38332926921548127 l -1.6295715304334704 0.2905522875448347" fill="#ff0000" stroke="none" /><path d="M 120.67395015179393 96.31383870115 l 45.261578339703455 -8.070130631818548 a66.97540083801042,66.97540083801042 0 0,0 0.19259618002592113,1.1367135567576312 l -45.3937863812496 7.289831286745079" fill="#38ff7d" stroke="none" /><path d="M 120.73433829027371 96.67025291283417 l 5.352665321313656 -0.8595896098877828 a26.421247120305516,26.421247120305516 0 0,0 0.06824747353621159,0.4496655796431112 l -5.366668688289167 0.7673249178525894" fill="#ff3705" stroke="none" /><path d="M 120.78858239683441 97.02765380044208 l 11.275682693011152 -1.6121942304779842 a32.39035514943488,32.39035514943488 0 0,0 0.07416466035821177,0.552612864002565 l -11.3017633524272 1.4178630244107548" fill="#ff8a0c" stroke="none" /><path d="M 120.83666639777658 97.38593545837742 l 28.604386971037414 -3.5885641344154084 a49.828609861310824,49.828609861310824 0 0,0 0.09944283093378214,0.8519654467272211 l -28.661920154974787 3.0956549493633347" fill="#9eff22" stroke="none" /><path d="M 120.87857604477298 97.74499172005257 l 32.28883175242632 -3.487382606716582 a53.47661456159067,53.47661456159067 0 0,0 0.0909684943296954,0.9160403234710328 l -32.34407737243824 2.9310667525411143" fill="#76ff27" stroke="none" /><path d="M 120.91429891909075 98.10471618934814 l 29.529182246030324 -2.6759769126950412 a50.650184764290245,50.650184764290245 0 0,0 0.071212992847792,0.8689788886394707 l -29.57086972269761 2.167284106847802" fill="#94ff23" stroke="none" /><path d="M 120.94382443527127 98.46500227214037 l 19.350621036512276 -1.4182299615583291 a40.402523308131165,40.402523308131165 0 0,0 0.044864903117902186,0.6940401935577996 l -19.372166530634594 1.0849307037474945" fill="#fff116" stroke="none" /><path d="M 120.96714384426684 98.82574320788733 l 59.08029381008035 -3.3087690341509517 a80.17287443758985,80.17287443758985 0 0,0 0.06530802853219562,1.3785492623582147 l -59.12849544684604 2.291308665169737" fill="#48f6ff" stroke="none" /><path d="M 120.98425023603335 99.18683210126433 l 12.126634376549026 -0.46992337985853677 a33.13573604217883,33.13573604217883 0 0,0 0.017180572307825593,0.5701395532897439 l -12.132926643312496 0.26111367914379385" fill="#ff940d" stroke="none" /><line stroke="#e1ed5e" stroke-width="0.3" x1="184.98032266829074" x2="189.97916517819016" y1="98.17113171792111" y2="98.06355123074" /><path d="M 185.9800911702706 98.14961562048488 a86.0,86.0 0 0,1 -9.607161424134198,41.387399972396054" fill="none" id="id100" stroke="none" /><text fill="#e1ed5e" style="font-size:6.75px; font-family:Arial;" text-anchor="middle"><textPath startOffset="21.466115282336823" xlink:href="#id100">April</textPath></text><path d="M 120.99513854157772 99.54816195383933 l 23.822428896999693 -0.5126843867357923 a44.827945019094884,44.827945019094884 0 0,0 0.009962461920550211,0.7716036547648514 l -23.82772436603796 0.10254447391047818" fill="#d7ff1c" stroke="none" /><path d="M 120.99980553446 99.90962569577887 l 31.75723950685435 -0.1366697619988007 a52.75753358999334,52.75753358999334 0 0,0 -0.0039083351430994505,0.9081594450539678 l -31.754886874421747 -0.40999916125885183" fill="#7eff26" stroke="none" /><path d="M 120.9904718944345 100.63252640178507 l 28.13539567846809 0.847831372291313 a49.148167045472114,49.148167045472114 0 0,0 -0.03276045299568533,0.8454017240181397 l -28.116633092621203 -1.332010343323459" fill="#a5ff21" stroke="none" /><path d="M 120.9764740272857 100.99374915477107 l 13.415447093474432 0.6355495777161942 a34.43049306554107,34.43049306554107 0 0,0 -0.033141233599819186,0.5917589889462308 l -13.402519508987083 -0.8663802829978484" fill="#ffa50f" stroke="none" /><path d="M 120.95626037817324 101.35467743843564 l 16.85737392388473 1.0897127499782757 a37.892558405615596,37.892558405615596 0 0,0 -0.04767865686137819,0.6505373920042635 l -16.836118708359017 -1.3797232784793094" fill="#ffd213" stroke="none" /><path d="M 120.92983693683757 101.71520430193887 l 5.954773815839641 0.48799489918741545 a26.974735995794486,26.974735995794486 0 0,0 -0.0419076977229573,0.46244795226070584 l -5.945491521839608 -0.5904242399966918" fill="#ff3f05" stroke="none" /><path d="M 120.89721153311464 102.0752229133903 l 34.07553716357288 3.383912508894887 a55.24314671366947,55.24314671366947 0 0,0 -0.10211484825068466,0.9454566723595669 l -34.01224001382115 -3.9699655031392456" fill="#63ff29" stroke="none" /><path d="M 120.8583938346157 102.4346265915055 l 13.982566116076622 1.632068487804121 a35.07749277177358,35.07749277177358 0 0,0 -0.0751635349587812,0.5991273276832104 l -13.952401071870995 -1.8725135697747264" fill="#ffad10" stroke="none" /><path d="M 120.81339534386255 102.79330883721812 l 17.43272438068052 2.3395982378099465 a38.58901928042426,38.58901928042426 0 0,0 -0.09402113294388452,0.6575835848254813 l -17.38986919672003 -2.6393272946158373" fill="#ffdb14" stroke="none" /><path d="M 120.76222939487914 103.15116336523771 l 15.575283454862497 2.3639206413094023 a36.75365276682592,36.75365276682592 0 0,0 -0.10031689987661141,0.624673431291618 l -15.532284800624597 -2.6316733022942254" fill="#ffc312" stroke="none" /><path d="M 120.70491114924044 103.5080841355445 l 6.57457306166026 1.113946120770226 a27.668274657142415,27.668274657142415 0 0,0 -0.08360240292057856,0.4688866738114418 l -6.554424216400492 -1.226951545314886" fill="#ff4806" stroke="none" /><path d="M 120.64145759157962 103.86396538481128 l 22.485168655892377 4.209097781614701 a43.87573635140777,43.87573635140777 0 0,0 -0.14535418660521565,0.7411578659737084 l -22.409384536311496 -4.595519374656354" fill="#e2ff1b" stroke="none" /><path d="M 120.5718875245553 104.21870165774334 l 10.612655841310982 2.1763500669229905 a31.83351113997248,31.83351113997248 0 0,0 -0.1147006295801032,0.5358431555924622 l -10.573621173006435 -2.3587070419316216" fill="#ff820c" stroke="none" /><path d="M 120.49622156327973 104.57218783832717 l 16.989814965511812 3.789997347604386 a38.40740912534595,38.40740912534595 0 0,0 -0.14949523266569043,0.64402154967005 l -16.92205916691557 -4.081887554623001" fill="#ffd814" stroke="none" /><path d="M 120.41448212921028 104.9243191809786 l 10.852351367470424 2.6177711322438166 a32.163613030907435,32.163613030907435 0 0,0 -0.13445720550026752,0.5370896987778276 l -10.805682847675095 -2.80418867041904" fill="#ff860c" stroke="none" /><path d="M 120.23288151984713 105.62410040840565 l 22.024561046695993 6.122130585115698 a43.85961006230963,43.85961006230963 0 0,0 -0.20845295369157263,0.7256520782587379 l -21.91591545611832 -6.500340138879018" fill="#e3ff1b" stroke="none" /><path d="M 120.13307415673323 105.97154293290107 l 10.524595099326659 3.1216331394682095 a31.97778190083028,31.97778190083028 0 0,0 -0.1610663428450378,0.5263741276538112 l -10.46930198397549 -3.302334239674078" fill="#ff840c" stroke="none" /><path d="M 120.02730092923936 106.31721596034902 l 28.903345046462942 9.116988518828094 a51.30714164231489,51.30714164231489 0 0,0 -0.2729240618882654,0.8399738921725204 l -28.74212873355843 -9.61316131097841" fill="#8dff24" stroke="none" /><path d="M 119.79798401119884 107.00284435728193 l 39.92421513014863 14.121794647622872 a63.348176322340244,63.348176322340244 0 0,0 -0.37247442311296,1.024889641007578 l -39.67521644603044 -14.806932085636582" fill="#33ff53" stroke="none" /><path d="M 119.67450827220406 107.3425965602758 l 10.162896344389281 3.7928291120839552 a31.84758105663528,31.84758105663528 0 0,0 -0.19609878151106724,0.5119520389567274 l -10.096103283284707 -3.9672047178738263" fill="#ff820c" stroke="none" /><path d="M 119.54520255179757 107.68017299344265 l 15.328142599375257 6.023103957064528 a37.46905391406528,37.46905391406528 0 0,0 -0.24104624904947788,0.5982570220817995 l -15.222193736068387 -6.2860603469891405" fill="#ffcc13" stroke="none" /><path d="M 119.41010516605496 108.01547362559984 l 13.348417484513865 5.512277619068806 a35.44179538321196,35.44179538321196 0 0,0 -0.23771152878611237,0.5618798351999342 l -13.251554974535443 -5.741231979934904" fill="#ffb210" stroke="none" /><path d="M 119.26925614724726 108.34839909993367 l 15.510266014590854 6.7198178199753675 a37.903381418433135,37.903381418433135 0 0,0 -0.26452754598582795,0.596439782965399 l -15.392297383873755 -6.985805939433455" fill="#ffd213" stroke="none" /><path d="M 119.12269723197855 108.67885076344098 l 10.529305132545273 4.778733187035806 a32.56298220387464,32.56298220387464 0 0,0 -0.2360434496582176,0.5084165911527168 l -10.445487066047223 -4.959269845467353" fill="#ff8c0c" stroke="none" /><path d="M 118.81262510543309 109.33194174019688 l 11.64305747940243 5.775500945063119 a33.99681494194227,33.99681494194227 0 0,0 -0.26456212956391667,0.5220061806453427 l -11.541916680052244 -5.975061337411157" fill="#ff9f0e" stroke="none" /><path d="M 118.64920377521936 109.65438752849418 l 1.930749238197023 0.9995172764784556 a23.17412681478733,23.17412681478733 0 0,0 -0.18643859997316986,0.3526715699283723 l -1.9132581299989602 -1.0326038614929622" fill="#ff0801" stroke="none" /><line stroke="#e1ed5e" stroke-width="0.3" x1="174.80103733775053" x2="179.2010983576182" y1="140.37084112569926" y2="142.7455964860345" /><path d="M 175.68104954172406 140.8457921977663 a86.0,86.0 0 0,1 -30.038265399797805,32.042727171017184" fill="none" id="id101" stroke="none" /><text fill="#e1ed5e" style="font-size:6.75px; font-family:Arial;" text-anchor="middle"><textPath startOffset="22.206326154141568" xlink:href="#id101">May</textPath></text><path d="M 118.48025628344425 109.97397251340804 l 14.293813576151123 7.7145090161996075 a37.242744716050524,37.242744716050524 0 0,0 -0.30933396453592155,0.5615309977564744 l -14.158903202163692 -7.959410532353886" fill="#ffc912" stroke="none" /><path d="M 118.30583269289576 110.29060199501025 l 1.4479109747301773 0.8139414259444218 a22.66100777710778,22.66100777710778 0 0,0 -0.1940731911375351,0.3383829672262561 l -1.4336857874402626 -0.838744239028993" fill="#ff0000" stroke="none" /><path d="M 117.94076556474637 110.91462005526583 l 17.58385684871686 10.6974875691511 a41.582231705242975,41.582231705242975 0 0,0 -0.3772802619699394,0.6082959109461847 l -17.397111947078958 -10.998579811462557" fill="#feff18" stroke="none" /><line stroke="#e1ed5e" stroke-width="0.3" x1="143.8653032363475" x2="146.44561519142675" y1="172.8068346515853" y2="177.08958963109032" /><path d="M 144.38136562736335 173.6633856474863 a86.0,86.0 0 0,1 -40.68145358897372,12.25698825130547" fill="none" id="id102" stroke="none" /><text fill="#e1ed5e" style="font-size:6.75px; font-family:Arial;" text-anchor="middle"><textPath startOffset="21.466115282336833" xlink:href="#id102">June</textPath></text><line stroke="#e1ed5e" stroke-width="0.3" x1="102.19456741930631" x2="102.32365962044197" y1="184.97166512339345" y2="189.96999836594603" /><path d="M 102.22038585953345 185.97133177190398 a86.0,86.0 0 0,1 -42.740103519485714,-10.115201625700543" fill="none" id="id103" stroke="none" /><text fill="#e1ed5e" style="font-size:6.75px; font-family:Arial;" text-anchor="middle"><textPath startOffset="22.20632615414155" xlink:href="#id103">July</textPath></text><line stroke="#e1ed5e" stroke-width="0.3" x1="58.666819895761336" x2="56.23545636021788" y1="174.27360380694188" y2="178.64263932499728" /><path d="M 58.180547188652646 175.14741091055294 a86.0,86.0 0 0,1 -31.652253787137756,-30.449443065178592" fill="none" id="id104" stroke="none" /><text fill="#e1ed5e" style="font-size:6.75px; font-family:Arial;" text-anchor="middle"><textPath startOffset="22.20632615414155" xlink:href="#id104">August</textPath></text><line stroke="#e1ed5e" stroke-width="0.3" x1="26.63291911575756" x2="22.317208475507996" y1="142.92168965132927" y2="145.44649492493687" /><path d="M 25.769776987707644 143.4266507060508 a86.0,86.0 0 0,1 -11.730757126820373,-40.83630448921669" fill="none" id="id105" stroke="none" /><text fill="#e1ed5e" style="font-size:6.75px; font-family:Arial;" text-anchor="middle"><textPath startOffset="21.46611528233685" xlink:href="#id105">September</textPath></text><line stroke="#e1ed5e" stroke-width="0.3" x1="15.007084014347285" x2="10.007500721073583" y1="101.09737516637583" y2="101.16192664675087" /><path d="M 14.007167355692545 101.11028546245083 a86.0,86.0 0 0,1 10.666146001902534,-42.60595125391555" fill="none" id="id106" stroke="none" /><text fill="#e1ed5e" style="font-size:6.75px; font-family:Arial;" text-anchor="middle"><textPath startOffset="22.20632615414155" xlink:href="#id106">October</textPath></text><line stroke="#e1ed5e" stroke-width="0.3" x1="26.266209847984243" x2="21.928928074336255" y1="57.711370442889674" y2="55.22380399835377" /><path d="M 25.398753493254645 57.213857153982495 a86.0,86.0 0 0,1 29.58750427330803,-30.492523968695096" fill="none" id="id107" stroke="none" /><text fill="#e1ed5e" style="font-size:6.75px; font-family:Arial;" text-anchor="middle"><textPath startOffset="21.46611528233685" xlink:href="#id107">November</textPath></text><line stroke="#e1ed5e" stroke-width="0.3" x1="56.762969772571076" x2="54.21961505331055" y1="26.818313649435495" y2="22.513508569990535" /><path d="M 56.25429882871897 25.957352633546506 a86.0,86.0 0 0,1 42.265352541879196,-11.944610805530505" fill="none" id="id108" stroke="none" /><text fill="#e1ed5e" style="font-size:6.75px; font-family:Arial;" text-anchor="middle"><textPath startOffset="22.20632615414155" xlink:href="#id108">December</textPath></text></svg>