<?xml version="1.0" encoding="utf-8" ?>
<svg baseProfile="full" height="200mm" version="1.1" viewBox="0,0,200,200" width="200mm" xmlns="http://www.w3.org/2000/svg" xmlns:ev="http://www.w3.org/2001/xml-events" xmlns:xlink="http://www.w3.org/1999/xlink"><defs /><rect fill="#1a1a1a" height="200" width="200" x="0" y="0" /><text alignment-baseline="middle" fill="#e1ed5e" style="dominant-baseline: central; font-size:9.0px; font-family:Arial;" text-anchor="middle" x="100.0" y="100.0">2025</text><line stroke="#e1ed5e" stroke-width="0.3" x1="100.0" x2="100.0" y1="15.0" y2="10.0" /><path d="M 100.0 14.0 a86.0,86.0 0 0,1 42.46469731375804,11.215312516191453" fill="none" id="id97" stroke="none" /><text fill="#e1ed5e" style="font-size:6.75px; font-family:Arial;" text-anchor="middle"><textPath startOffset="22.20632615414155" xlink:href="#id97">January</textPath></text><path d="M 100.0 79.0 l 0.0 -29.661007777107784 a50.661007777107784,50.661007777107784 0 0,0 0.8720459700808671,0.007505974979224386 l -0.5105654908083387 29.656613178737118" fill="#d7ff1c" stroke="none" /><path d="M 100.36148047927253 79.00311137660856 l 0.22516449539175207 -13.078863459507566 a34.08080152140637,34.08080152140637 0 0,0 0.5864711390974519,0.015146819264489115 l -0.45026226968407174 13.073049848100718" fill="#ff2703" stroke="none" /><path d="M 100.72285384407766 79.0124445844662 l 0.37177437451769035 -10.794208747995755 a31.800609181007157,31.800609181007157 0 0,0 0.546908644824987,0.02355103669905838 l -0.5575238517320088 10.786209984772501" fill="#ff0000" stroke="none" /><path d="M 101.08401301168833 79.027996857942 l 3.2520390350649873 -62.916009426173986 a84.0,84.0 0 0,0 1.4433518046415523,0.08706692247878367 l -4.334552888546152 62.8507092343149" fill="#4dd2ff" stroke="none" /><path d="M 101.44485096284872 79.0497635885617 l 2.566911239994808 -37.22003079060842 a58.30844040385299,58.30844040385299 0 0,0 1.0007111411680891,0.07767444440463472 l -3.207212570525239 37.17033108401532" fill="#72ff27" stroke="none" /><path d="M 101.80526077348638 79.07773832637324 l 2.373780543852374 -27.511181998559184 a48.613401982157484,48.613401982157484 0 0,0 0.8330829457161807,0.07911126390499944 l -2.8469886166587988 27.466245190139006" fill="#f4ff19" stroke="none" /><path d="M 102.16513564639614 79.11191278185805 l 1.3540424977260963 -13.06308814260719 a34.13307667331509,34.13307667331509 0 0,0 0.58389226917668,0.06560709976348761 l -1.5787014704125015 13.037845089373102" fill="#ff2803" stroke="none" /><path d="M 102.52436894288641 79.15227682838746 l 3.0615833178556917 -25.284355386063968 a46.46903845261839,46.46903845261839 0 0,0 0.7932602793174401,0.1029879509778605 l -3.496358325680978 25.22790911192197" fill="#ffeb16" stroke="none" /><path d="M 102.88285421437855 79.19881850522331 l 1.561009298408342 -11.263433845969027 a32.37109018661966,32.37109018661966 0 0,0 0.551281237527463,0.08124452412178976 l -1.7546595163644607 11.23489483768627" fill="#ff0a01" stroke="none" /><path d="M 103.59715602781102 79.31037775812273 l 7.829701908486638 -45.03379155662362 a66.7093711829553,66.7093711829553 0 0,0 1.1296275171817358,0.206432208367584 l -8.603724546771275 44.89234386690529" fill="#33ff57" stroke="none" /><path d="M 103.95276090670814 79.375362276772 l 6.383361219550716 -33.306975988937 a54.91315305286268,54.91315305286268 0 0,0 0.9268126668574956,0.1859099019707289 l -6.955740295875337 33.19216213088906" fill="#9eff22" stroke="none" /><path d="M 104.307194497241 79.44645832069477 l 2.728216166001394 -13.01880022227526 a34.30159098288418,34.30159098288418 0 0,0 0.5768503061292993,0.12607713417690758 l -2.9519091962842214 12.969909590002482" fill="#ff2b04" stroke="none" /><path d="M 104.66035177308747 79.52364482259891 l 2.9048567710352744 -12.763173657123048 a34.08956816178858,34.08956816178858 0 0,0 0.5710429809997014,0.13514742394387586 l -3.1241234389974992 12.711280321038304" fill="#ff2703" stroke="none" /><path d="M 105.01212808612495 79.60689891045804 l 7.830379738305883 -31.859865276553915 a53.80801521406373,53.80801521406373 0 0,0 0.8975461641422602,0.22880450193885074 l -8.377634791133168 31.720357778446196" fill="#acff20" stroke="none" /><path d="M 105.36241919743992 79.69619591428918 l 3.3257992990848027 -12.592521194398604 a34.02430539449882,34.02430539449882 0 0,0 0.5649689099408962,0.15442734491106097 l -3.5420660982494097 12.533407308661248" fill="#ff2603" stroke="none" /><path d="M 105.71112130821622 79.79150937346287 l 11.32852454949797 -40.085364995079935 a62.655395271889546,62.655395271889546 0 0,0 1.0353350034167146,0.30224267825245593 l -12.016849770638112 39.884423987908775" fill="#3eff2e" stroke="none" /><path d="M 106.0581310904928 79.89281104454417 l 14.79099929067035 -49.09194157984617 a72.27175039040154,72.27175039040154 0 0,0 1.1880602559317366,0.3691361046989814 l -15.633844919312804 48.83006534026467" fill="#3cffa2" stroke="none" /><path d="M 106.40334571778207 80.00007090966166 l 3.351450907451079 -10.467774731049266 a31.991202436724027,31.991202436724027 0 0,0 0.5230061587451234,0.17242690763245905 l -3.5311398884386196 10.40853409915757" fill="#ff0300" stroke="none" /><path d="M 106.74666289553966 80.11325718540242 l 3.4801655193694443 -10.258279938914102 a31.832537068818898,31.832537068818898 0 0,0 0.5173817979957533,0.18050435026281114 l -3.656229321428471 10.196854735479084" fill="#ff0100" stroke="none" /><path d="M 107.08798089147638 80.2323363322302 l 3.7383856213234914 -10.425980367923462 a32.075946627085365,32.075946627085365 0 0,0 0.5181299054039461,0.1908316168384184 l -3.917297852500014 10.36008548327872" fill="#ff0500" stroke="none" /><path d="M 107.4271985657038 80.35727306442388 l 13.555304383739164 -35.84974067718022 a59.32688590998346,59.32688590998346 0 0,0 0.9521028247527845,0.36940110419921207 l -14.170390373491616 35.61109686909047" fill="#66ff29" stroke="none" /><path d="M 107.76421540070413 80.48803036053334 l 8.413424190335812 -21.14347282932141 a43.7559255995176,43.7559255995176 0 0,0 0.6974197190118547,0.2844950145512081 l -8.776127778936056 20.995516928586625" fill="#ffc212" stroke="none" /><path d="M 108.09893153111575 80.62456947434976 l 5.962365681930713 -14.264029964314894 a36.460024429086076,36.460024429086076 0 0,0 0.5769646813879615,0.24702616601231164 l -6.2070141211089895 14.159284270339791" fill="#ff4f07" stroke="none" /><path d="M 108.43124777332544 80.76684994638697 l 13.237725140090776 -30.197565156768185 a53.97165916786493,53.97165916786493 0 0,0 0.8476580137894376,0.3803194421492894 l -13.755565272346994 29.965225384102364" fill="#aaff21" stroke="none" /><path d="M 108.76106565485865 80.91482961587045 l 9.14725855468397 -19.92645586065373 a42.92569228628415,42.92569228628415 0 0,0 0.6688677052914739,0.31404235617110277 l -9.488904471275044 19.766048521842624" fill="#ffb610" stroke="none" /><path d="M 109.08828744355905 81.06846463323043 l 13.898267940832804 -28.95105955800155 a53.11426009245945,53.11426009245945 0 0,0 0.8208144538802025,0.4027700877609805 l -14.394553661723439 28.70753431010574" fill="#b6ff1f" stroke="none" /><line stroke="#e1ed5e" stroke-width="0.3" x1="143.23703022742887" x2="145.7803849466894" y1="26.81831364943548" y2="22.513508569990506" /><path d="M 143.74570117128098 25.957352633546492 a86.0,86.0 0 0,1 28.547481713284135,27.462654790039103" fill="none" id="id98" stroke="none" /><text fill="#e1ed5e" style="font-size:6.75px; font-family:Arial;" text-anchor="middle"><textPath startOffset="19.985693538727396" xlink:href="#id98">February</textPath></text><line stroke="#e1ed5e" stroke-width="0.3" x1="172.23445277983987" x2="176.4835382374775" y1="55.19839476539836" y2="52.563006222186495" /><path d="M 173.08426987136738 54.67131705675599 a86.0,86.0 0 0,1 12.851231095245387,41.99856678651699" fill="none" id="id99" stroke="none" /><text fill="#e1ed5e" style="font-size:6.75px; font-family:Arial;" text-anchor="middle"><textPath startOffset="22.20632615414155" xlink:href="#id99">March</textPath></text><line stroke="#e1ed5e" stroke-width="0.3" x1="184.98032266829074" x2="189.97916517819016" y1="98.17113171792111" y2="98.06355123074" /><path d="M 185.9800911702706 98.14961562048488 a86.0,86.0 0 0,1 -9.607161424134198,41.387399972396054" fill="none" id="id100" stroke="none" /><text fill="#e1ed5e" style="font-size:6.75px; font-family:Arial;" text-anchor="middle"><textPath startOffset="21.466115282336823" xlink:href="#id100">April</textPath></text><line stroke="#e1ed5e" stroke-width="0.3" x1="174.80103733775053" x2="179.2010983576182" y1="140.37084112569926" y2="142.7455964860345" /><path d="M 175.68104954172406 140.8457921977663 a86.0,86.0 0 0,1 -30.038265399797805,32.042727171017184" fill="none" id="id101" stroke="none" /><text fill="#e1ed5e" style="font-size:6.75px; font-family:Arial;" text-anchor="middle"><textPath startOffset="22.206326154141568" xlink:href="#id101">May</textPath></text><line stroke="#e1ed5e" stroke-width="0.3" x1="143.8653032363475" x2="146.44561519142675" y1="172.8068346515853" y2="177.08958963109032" /><path d="M 144.38136562736335 173.6633856474863 a86.0,86.0 0 0,1 -40.68145358897372,12.25698825130547" fill="none" id="id102" stroke="none" /><text fill="#e1ed5e" style="font-size:6.75px; font-family:Arial;" text-anchor="middle"><textPath startOffset="21.466115282336833" xlink:href="#id102">June</textPath></text><line stroke="#e1ed5e" stroke-width="0.3" x1="102.19456741930631" x2="102.32365962044197" y1="184.97166512339345" y2="189.96999836594603" /><path d="M 102.22038585953345 185.97133177190398 a86.0,86.0 0 0,1 -42.740103519485714,-10.115201625700543" fill="none" id="id103" stroke="none" /><text fill="#e1ed5e" style="font-size:6.75px; font-family:Arial;" text-anchor="middle"><textPath startOffset="22.20632615414155" xlink:href="#id103">July</textPath></text><line stroke="#e1ed5e" stroke-width="0.3" x1="58.666819895761336" x2="56.23545636021788" y1="174.27360380694188" y2="178.64263932499728" /><path d="M 58.180547188652646 175.14741091055294 a86.0,86.0 0 0,1 -31.652253787137756,-30.449443065178592" fill="none" id="id104" stroke="none" /><text fill="#e1ed5e" style="font-size:6.75px; font-family:Arial;" text-anchor="middle"><textPath startOffset="22.20632615414155" xlink:href="#id104">August</textPath></text><line stroke="#e1ed5e" stroke-width="0.3" x1="26.63291911575756" x2="22.317208475507996" y1="142.92168965132927" y2="145.44649492493687" /><path d="M 25.769776987707644 143.4266507060508 a86.0,86.0 0 0,1 -11.730757126820373,-40.83630448921669" fill="none" id="id105" stroke="none" /><text fill="#e1ed5e" style="font-size:6.75px; font-family:Arial;" text-anchor="middle"><textPath startOffset="21.46611528233685" xlink:href="#id105">September</textPath></text><line stroke="#e1ed5e" stroke-width="0.3" x1="15.007084014347285" x2="10.007500721073583" y1="101.09737516637583" y2="101.16192664675087" /><path d="M 14.007167355692545 101.11028546245083 a86.0,86.0 0 0,1 10.666146001902534,-42.60595125391555" fill="none" id="id106" stroke="none" /><text fill="#e1ed5e" style="font-size:6.75px; font-family:Arial;" text-anchor="middle"><textPath startOffset="22.20632615414155" xlink:href="#id106">October</textPath></text><line stroke="#e1ed5e" stroke-width="0.3" x1="26.266209847984243" x2="21.928928074336255" y1="57.711370442889674" y2="55.22380399835377" /><path d="M 25.398753493254645 57.213857153982495 a86.0,86.0 0 0,1 29.58750427330803,-30.492523968695096" fill="none" id="id107" stroke="none" /><text fill="#e1ed5e" style="font-size:6.75px; font-family:Arial;" text-anchor="middle"><textPath startOffset="21.46611528233685" xlink:href="#id107">November</textPath></text><line stroke="#e1ed5e" stroke-width="0.3" x1="56.762969772571076" x2="54.21961505331055" y1="26.818313649435495" y2="22.513508569990535" /><path d="M 56.25429882871897 25.957352633546506 a86.0,86.0 0 0,1 42.265352541879196,-11.944610805530505" fill="none" id="id108" stroke="none" /><text fill="#e1ed5e" style="font-size:6.75px; font-family:Arial;" text-anchor="middle"><textPath startOffset="22.20632615414155" xlink:href="#id108">December</textPath></text></svg>