<?xml version="1.0" encoding="utf-8" ?>
<svg baseProfile="full" height="200mm" version="1.1" viewBox="0,0,200,200" width="200mm" xmlns="http://www.w3.org/2000/svg" xmlns:ev="http://www.w3.org/2001/xml-events" xmlns:xlink="http://www.w3.org/1999/xlink"><defs /><rect fill="#1a1a1a" height="200" width="200" x="0" y="0" /><text alignment-baseline="middle" fill="#e1ed5e" style="dominant-baseline: central; font-size:9.0px; font-family:Arial;" text-anchor="middle" x="100.0" y="100.0">2020</text><line stroke="#e1ed5e" stroke-width="0.3" x1="100.0" x2="100.0" y1="15.0" y2="10.0" /><path d="M 100.0 14.0 a86.0,86.0 0 0,1 42.35913384403234,11.155469271406648" fill="none" id="id37" stroke="none" /><text fill="#e1ed5e" style="font-size:6.75px; font-family:Arial;" text-anchor="middle"><textPath startOffset="22.145653131862478" xlink:href="#id37">January</textPath></text><path d="M 107.06938296918511 80.22567764915836 l 1.0098254172860284 -2.8246614176270715 a23.99974323861691,23.99974323861691 0 0,0 0.3867511175935016,0.14202036744150434 l -1.0581656865336546 2.806910201176845" fill="#ff2203" stroke="none" /><line stroke="#e1ed5e" stroke-width="0.3" x1="143.13028292997686" x2="145.6673583964461" y1="26.7553504044142" y2="22.446841604673864" /><path d="M 143.63769802327073 25.89364864446614 a86.0,86.0 0 0,1 29.32050498858742,28.57503671076993" fill="none" id="id38" stroke="none" /><text fill="#e1ed5e" style="font-size:6.75px; font-family:Arial;" text-anchor="middle"><textPath startOffset="20.669276256404974" xlink:href="#id38">February</textPath></text><path d="M 110.96478420261332 82.08984904055464 l 1.5650124205658573 -2.556330173744867 a23.997346799041424,23.997346799041424 0 0,0 0.3494880697628684,0.21810640355791114 l -1.6086646191184384 2.5290879733454106" fill="#ff2203" stroke="none" /><path d="M 114.13192950727249 84.46653392183569 l 2.0223028189112986 -2.222865053294311 a24.00513522766176,24.00513522766176 0 0,0 0.3024306722296033,0.2799253151879494 l -2.060163262454867 2.1878219919739865" fill="#ff2303" stroke="none" /><path d="M 114.65682725009322 84.96080404539774 l 2.371301704190305 -2.4331644487775126 a24.397552208147893,24.397552208147893 0 0,0 0.2974271663969969,0.294885069138945 l -2.4127207907172648 2.392099369409908" fill="#ff2803" stroke="none" /><path d="M 115.6541949942343 86.00192230759917 l 1.3603411489340895 -1.2164254436566513 a22.824888736733996,22.824888736733996 0 0,0 0.25867004693899437,0.2943190300109887 l -1.3810222598316741 1.1928941358343648" fill="#ff1202" stroke="none" /><line stroke="#e1ed5e" stroke-width="0.3" x1="172.87174338648825" x2="177.1583165268699" y1="56.24261187166439" y2="53.66864786411523" /><path d="M 173.72905801456457 55.72781907015455 a86.0,86.0 0 0,1 12.242430191666344,42.057860355516425" fill="none" id="id39" stroke="none" /><text fill="#e1ed5e" style="font-size:6.75px; font-family:Arial;" text-anchor="middle"><textPath startOffset="22.145653131862474" xlink:href="#id39">March</textPath></text><path d="M 119.31412917781788 91.75594674310238 l 1.6530408402788324 -0.7055848388306752 a22.797329681615885,22.797329681615885 0 0,0 0.150542878115307,0.3612481042662472 l -1.6649095629306228 0.6771042251231503" fill="#ff1101" stroke="none" /><path d="M 119.4528033332814 92.08871423366111 l 1.6704592614737237 -0.6793612392068936 a22.803320780554603,22.803320780554603 0 0,0 0.14435731808283042,0.36387474274841025 l -1.6818752545226785 0.650585479244918" fill="#ff1101" stroke="none" /><path d="M 119.58574465831526 92.42381321644754 l 1.6774051541784318 -0.6488563484030709 a22.798527901403627,22.798527901403627 0 0,0 0.13806062872661407,0.36622222028676027 l -1.6882964667194864 0.6199658479221529" fill="#ff1101" stroke="none" /><path d="M 119.71291397450082 92.76114493625339 l 1.6956075440237361 -0.6226505767772461 a22.806316330023964,22.806316330023964 0 0,0 0.13179860341598804,0.36866415084581877 l -1.7060463174836675 0.5934514695505105" fill="#ff1101" stroke="none" /><path d="M 120.16314734710363 94.1308016681162 l 1.8470805127111092 -0.5376582176103756 a22.92374186922287,22.92374186922287 0 0,0 0.10673895463169769,0.3787788944339555 l -1.8560379594173888 0.505871399273407" fill="#ff1302" stroke="none" /><path d="M 120.35273937422433 94.82641323984039 l 1.7454163687926016 -0.44367801554946307 a22.800924340979115,22.800924340979115 0 0,0 0.09317160549592003,0.3801719453116833 l -1.752775500804813 0.41365024562968483" fill="#ff1101" stroke="none" /><path d="M 120.51834098615036 95.52812308129327 l 2.930355328559531 -0.6386573050053033 a23.99914412872304,23.99914412872304 0 0,0 0.08427389649085684,0.4032811022027065 l -2.940886935874755 0.5882597515171923" fill="#ff2203" stroke="none" /><path d="M 120.77682067341334 96.94652285012252 l 3.5617914933966914 -0.5234606925029618 a24.60005135227662,24.60005135227662 0 0,0 0.05781654415515286,0.41833171222744164 l -3.570252554107057 0.46224067207543446" fill="#ff2b04" stroke="none" /><path d="M 120.82617615685814 97.30363454192243 l 1.7866116542186576 -0.23131264785003006 a22.80152345087299,22.80152345087299 0 0,0 0.046925441602289765,0.38860997232602495 l -1.790319182080611 0.20060899860059214" fill="#ff1101" stroke="none" /><path d="M 120.86939407059847 97.66154086499901 l 2.997757592875252 -0.3359049910056475 a24.016518315645328,24.016518315645328 0 0,0 0.04239213689910568,0.4101054694523602 l -3.0030821222560236 0.28439499927035594" fill="#ff2303" stroke="none" /><path d="M 120.99303781780057 99.45929381324524 l 2.9975509037456325 -0.07720627823540979 a23.99854501882917,23.99854501882917 0 0,0 0.007072220827691285,0.4119214078234369 l -2.99843455617199 0.025737954442906545" fill="#ff2203" stroke="none" /><line stroke="#e1ed5e" stroke-width="0.3" x1="184.99686870605535" x2="189.99668451229388" y1="99.2704041080226" y2="99.22748670261217" /><path d="M 185.99683186730306 99.26182062694052 a86.0,86.0 0 0,1 -10.086455211305974,41.156179273409016" fill="none" id="id40" stroke="none" /><text fill="#e1ed5e" style="font-size:6.75px; font-family:Arial;" text-anchor="middle"><textPath startOffset="21.40746469413373" xlink:href="#id40">April</textPath></text><path d="M 120.99922638620191 99.81974689727618 l 1.7990607337031925 -0.015442772665743915 a22.7991270112975,22.7991270112975 0 0,0 0.0,0.39139175077914135 l -1.7990607337031925 -0.015442772665743697" fill="#ff1101" stroke="none" /><path d="M 120.99922638620191 100.18025310272382 l 3.0865004662134052 0.026493894363606926 a24.086614173228348,24.086614173228348 0 0,0 -0.0070981742555956085,0.4134330648858687 l -3.0855908603591415 -0.07947387521854665" fill="#ff2403" stroke="none" /><path d="M 120.9064616781168 101.97986365728391 l 3.0985127358728968 0.2934323775987083 a24.11237589866484,24.11237589866484 0 0,0 -0.04256133743553537,0.41174233115596426 l -3.093019005955695 -0.34657923103760396" fill="#ff2403" stroke="none" /><path d="M 120.82617615685814 102.69636545807757 l 3.055123753239886 0.3955469355652994 a24.080623074289626,24.080623074289626 0 0,0 -0.05659575207063451,0.40949866884074465 l -3.0478834846140415 -0.4479339126061291" fill="#ff2403" stroke="none" /><path d="M 120.77682067341334 103.0534771498775 l 0.5951137725695254 0.0874612306994465 a21.60150633344745,21.60150633344745 0 0,0 -0.05706758756882991,0.366414849716981 l -0.5935246928624279 -0.09766426234787808" fill="#ff0000" stroke="none" /><path d="M 120.592083275326 104.11899336999214 l 3.5307092458264644 0.7062407324447313 a24.60065046217049,24.60065046217049 0 0,0 -0.08638610858524323,0.4133888017037125 l -3.518065426416857 -0.7667459854338529" fill="#ff2b04" stroke="none" /><path d="M 120.43855184770803 104.8234425847677 l 3.5014693554001703 0.8263372338676851 a24.59765491270113,24.59765491270113 0 0,0 -0.10051360047416526,0.4101297902848698 l -3.486768228409709 -0.8863228487606545" fill="#ff2b04" stroke="none" /><path d="M 120.26092885502905 105.52220625578681 l 1.7375428545651403 0.4735750315216 a22.800924340979115,22.800924340979115 0 0,0 -0.10616708400735037,0.37674952733365574 l -1.7291572784832103 -0.5033324827582643" fill="#ff1101" stroke="none" /><path d="M 119.94978838288452 106.5578916946017 l 2.847449254809176 0.93601312758451 a23.997346799041424,23.997346799041424 0 0,0 -0.13200206661300126,0.39024065471121483 l -2.83096176662381 -0.9847554567698854" fill="#ff2203" stroke="none" /><path d="M 119.83427380445688 106.89939002012753 l 3.398512166768459 1.182178947303604 a24.598254022595,24.598254022595 0 0,0 -0.14215428216181042,0.39763082736825645 l -3.377717714562705 -1.240344731052782" fill="#ff2b04" stroke="none" /><path d="M 119.58574465831526 107.57618678355244 l 3.3592804087011134 1.2994418276479898 a24.601848681958234,24.601848681958234 0 0,0 -0.1557429696220206,0.39257402228523913 l -3.3364787641129685 -1.356916867146793" fill="#ff2b04" stroke="none" /><path d="M 119.16976305983485 108.57439118712176 l 3.2851981827121963 1.469427361093245 a24.598853132488873,24.598853132488873 0 0,0 -0.17572429126772374,0.38398928960536033 l -3.2594894265894165 -1.525605632913294" fill="#ff2b04" stroke="none" /><path d="M 119.0197475246899 108.90220220490707 l 5.566689200496225 2.6054916244477253 a27.146268401232454,27.146268401232454 0 0,0 -0.2011677348675804,0.4203631952221869 l -5.521142207668733 -2.7006673217350157" fill="#ff4f07" stroke="none" /><path d="M 118.70294669586154 109.54985784667822 l 2.7345829572147227 1.3962975426288347 a24.070438206093804,24.070438206093804 0 0,0 -0.19106418215204451,0.366390762033276 l -2.7102107060877287 -1.4430345477666136" fill="#ff2303" stroke="none" /><path d="M 118.5362547648365 109.86951160357373 l 3.7022800299161345 1.9712555841783532 a25.194368366997605,25.194368366997605 0 0,0 -0.206539413232516,0.3800092573288973 l -3.667895267068279 -2.034519674981854" fill="#ff3304" stroke="none" /><line stroke="#e1ed5e" stroke-width="0.3" x1="174.33088141563837" x2="178.70328620479359" y1="141.23008692659167" y2="143.65538615756765" /><path d="M 175.20536237346943 141.71514677278685 a86.0,86.0 0 0,1 -30.301960400862466,31.631185727798858" fill="none" id="id41" stroke="none" /><text fill="#e1ed5e" style="font-size:6.75px; font-family:Arial;" text-anchor="middle"><textPath startOffset="22.145653131862474" xlink:href="#id41">May</textPath></text><path d="M 117.21940702142032 112.02048342749411 l 2.9504666943583935 2.059654897453201 a24.598254022595,24.598254022595 0 0,0 -0.24467637465927408,0.34416796262014104 l -2.9146752211691584 -2.110000086782846" fill="#ff2b04" stroke="none" /><path d="M 116.79662413953412 112.60449989151573 l 2.885212653889502 2.1651173641109263 a24.60724067100308,24.60724067100308 0 0,0 -0.25644028398170304,0.3356885635757573 l -2.8476203925534946 -2.2143268409275607" fill="#ff2b04" stroke="none" /><path d="M 116.35404254752997 113.17365903436017 l 2.3729504849006458 1.9114809382847147 a24.047072920232797,24.047072920232797 0 0,0 -0.2617159525676129,0.3192509077138506 l -2.3397877130944056 -1.951934127697058" fill="#ff2303" stroke="none" /><path d="M 115.6541949942343 113.99807769240083 l 4.030557737731501 3.604149582731868 a26.406966792194453,26.406966792194453 0 0,0 -0.30506623131326205,0.3353212279511726 l -3.9680938055763586 -3.6728083862407126" fill="#ff4406" stroke="none" /><path d="M 114.91283532996324 114.78537596483092 l 6.38343550413011 6.328876554157342 a29.989044847654913,29.989044847654913 0 0,0 -0.3655922756468812,0.36246757411828445 l -6.273851308353263 -6.437524138504289" fill="#ff750a" stroke="none" /><path d="M 114.65682725009322 115.03919595460226 l 2.5092896361922117 2.5747522230847935 a24.595258473125643,24.595258473125643 0 0,0 -0.3048963094194723,0.29208376739030634 l -2.4647208409074275 -2.61744812078068" fill="#ff2b04" stroke="none" /><path d="M 114.39649973595853 115.28858382429668 l 2.0572882339785545 2.1847688113631776 a24.000941458404657,24.000941458404657 0 0,0 -0.3023778366823907,0.27987641139423547 l -2.0194806259821965 -2.2197629688897926" fill="#ff2203" stroke="none" /><path d="M 113.86319453409587 115.77377054828091 l 2.3753950237298804 2.7027634917543972 a24.598254022595,24.598254022595 0 0,0 -0.3195670694937999,0.2760344234070416 l -2.328648474473225 -2.7431420476261565" fill="#ff2b04" stroke="none" /><path d="M 113.59037401385872 116.0094264158162 l 2.134400574754431 2.5143185101868135 a24.29809996576515,24.29809996576515 0 0,0 -0.3203017953154178,0.2672071495802317 l -2.0909244452771185 -2.5505878436789153" fill="#ff2703" stroke="none" /><path d="M 113.03279911837588 116.46651593811092 l 2.010022595969987 2.5395978877504177 a24.238788086271825,24.238788086271825 0 0,0 -0.3284818115927148,0.2554294434989715 l -1.9661308397420414 -2.5737283828701822" fill="#ff2603" stroke="none" /><path d="M 112.7482090630111 116.68781488649013 l 1.8202894659468962 2.3828173430013444 a23.99854501882917,23.99854501882917 0 0,0 -0.3295194631747527,0.24727754835345647 l -1.7791170138613772 -2.4137139186188157" fill="#ff2203" stroke="none" /><path d="M 112.45986205192187 116.90419585922612 l 2.3169399992704194 3.1433740902212652 a24.904998288257445,24.904998288257445 0 0,0 -0.3463205922273809,0.25070940129011715 l -2.262638396669071 -3.1826842628844596" fill="#ff2f04" stroke="none" /><path d="M 112.16784306229584 117.11559508785304 l 2.0831686128277234 2.930237536294822 a24.595258473125643,24.595258473125643 0 0,0 -0.34621329230981673,0.24168376631154645 l -2.032560229344148 -2.9655661184114903" fill="#ff2b04" stroke="none" /><path d="M 111.8722381534696 117.32195027204791 l 4.52948307732366 6.608651175056966 a29.011896610749744,29.011896610749744 0 0,0 -0.41321742693434366,0.27803112614926134 l -4.415369362292314 -6.685431975263349" fill="#ff6809" stroke="none" /><path d="M 110.96478420261333 117.91015095944535 l 3.28580660915926 5.367118158108353 a27.293050325231086,27.293050325231086 0 0,0 -0.40168513472182527,0.241200382049112 l -3.1931887178799983 -5.422732540693388" fill="#ff5107" stroke="none" /><line stroke="#e1ed5e" stroke-width="0.3" x1="143.1302829299769" x2="145.66735839644613" y1="173.24464959558577" y2="177.55315839532614" /><path d="M 143.63769802327073 174.10635135553383 a86.0,86.0 0 0,1 -40.68552437913181,11.842963189579606" fill="none" id="id42" stroke="none" /><text fill="#e1ed5e" style="font-size:6.75px; font-family:Arial;" text-anchor="middle"><textPath startOffset="21.407464694133747" xlink:href="#id42">June</textPath></text><path d="M 110.65571695917076 118.09573695890943 l 1.5488667667173073 2.630314384504267 a24.052464909277646,24.052464909277646 0 0,0 -0.35758860529523506,0.2064538775263476 l -1.5034856935616736 -2.656515159306786" fill="#ff2303" stroke="none" /><path d="M 110.02825361518725 118.45085714620011 l 2.006394573870485 3.69154003099114 a25.20155768572407,25.20155768572407 0 0,0 -0.3818770245332255,0.20332800625499706 l -1.9427287335507062 -3.7254385049687055" fill="#ff3304" stroke="none" /><path d="M 109.71004243097381 118.62028667847754 l 1.385091069122134 2.6560947561448054 a23.99554946935981,23.99554946935981 0 0,0 -0.36687227307792997,0.1873275967020302 l -1.339291574330622 -2.679480304519672" fill="#ff2203" stroke="none" /><path d="M 109.3889696526874 118.78422872680471 l 1.8766153539520667 3.754487802692963 a25.197363916466962,25.197363916466962 0 0,0 -0.3885670499981708,0.190067615497289 l -1.8118880546918266 -3.7861491682874755" fill="#ff3304" stroke="none" /><path d="M 108.73861861582097 119.09545874513695 l 2.5222128419565424 5.511490246620751 a27.061194796302637,27.061194796302637 0 0,0 -0.42407031000839285,0.1896812557101727 l -2.427229129092523 -5.553975253240774" fill="#ff4d07" stroke="none" /><path d="M 108.4095320186766 119.2426549942271 l 1.4402151291828023 3.2954940639719634 a24.596456692913385,24.596456692913385 0 0,0 -0.388348681640932,0.16576295955246984 l -1.383431372371439 -3.319731673183837" fill="#ff2b04" stroke="none" /><path d="M 108.07796709384702 119.3841803445677 l 2.3057189539523995 5.532886121973064 a26.994094488188978,26.994094488188978 0 0,0 -0.42926463945401994,0.174578191838037 l -2.2103998533079388 -5.571651570390392" fill="#ff4c07" stroke="none" /><path d="M 107.06938296918513 119.77432235084164 l 1.615075282929204 4.517653012254362 a25.79767203012667,25.79767203012667 0 0,0 -0.4182837343301769,0.14550079577760172 l -1.5372857765540056 -4.544712240600554" fill="#ff3c05" stroke="none" /><path d="M 106.72888874123015 119.89276391827305 l 3.0334902398984 8.967974878367873 a30.467134542964736,30.467134542964736 0 0,0 -0.4968714680948911,0.16333152068417534 l -2.8790960341557748 -9.018727320454067" fill="#ff7c0b" stroke="none" /><path d="M 106.38641147887787 120.00534299687104 l 1.497122649832806 4.6897153773048394 a25.922885997945908,25.922885997945908 0 0,0 -0.42508517220922304,0.131692472960011 l -1.4163968447519586 -4.714724438071495" fill="#ff3e05" stroke="none" /><path d="M 106.0420521117495 120.11202640906438 l 0.863248801085288 2.8734745023563413 a24.000342348510785,24.000342348510785 0 0,0 -0.39559420015955815,0.11515170621479853 l -0.813794588544123 -2.887869902873658" fill="#ff2203" stroke="none" /><path d="M 105.69591212413111 120.21278271476187 l 0.813632089624685 2.887293251535224 a23.99974323861691,23.99974323861691 0 0,0 -0.3975027176753694,0.1083411333184929 l -0.7639479710146205 -2.900834878997859" fill="#ff2203" stroke="none" /><path d="M 105.3480935250658 120.30758222061773 l 1.236170653317447 4.69394132008002 a25.853988360150634,25.853988360150634 0 0,0 -0.4301546039070867,0.10934361820668602 l -1.155410756184963 -4.714470170121976" fill="#ff3d05" stroke="none" /><path d="M 104.64783097203109 120.47920084513623 l 1.3270424617165086 5.847193942089565 a26.995891817870593,26.995891817870593 0 0,0 -0.452807985482761,0.09868739291608561 l -1.226472059614612 -5.86911279313937" fill="#ff4c07" stroke="none" /><path d="M 104.29559338865022 120.5559693870025 l 0.622182118971161 2.9773666717394645 a24.041680931187948,24.041680931187948 0 0,0 -0.4047056525199178,0.08095246494682276 l -0.5709799809202847 -2.9876085333491487" fill="#ff2303" stroke="none" /><path d="M 103.94208987418118 120.62667999033965 l 1.690447132797479 8.845133713762275 a30.005220814789453,30.005220814789453 0 0,0 -0.5067528397684127,0.09234724823107142 l -1.538359559478009 -8.872849135924708" fill="#ff760a" stroke="none" /><path d="M 103.58742460773223 120.69131181640829 l 0.5126500587735582 2.9568293075541816 a24.000941458404657,24.000941458404657 0 0,0 -0.4065559440314639,0.06689862587769418 l -0.46181661168902205 -2.9651939319275464" fill="#ff2203" stroke="none" /><path d="M 102.51750503828377 120.84855314841334 l 0.592962501314355 4.910580132183629 a25.946251283806916,25.946251283806916 0 0,0 -0.4426481106205804,0.049599644070640936 l -0.5085784890929753 -4.92003553676124" fill="#ff3e05" stroke="none" /><path d="M 101.80034050326958 120.92268563240118 l 0.41515897203948476 4.824776559588577 a25.842605272167066,25.842605272167066 0 0,0 -0.44231588526675236,0.03423804692081367 l -0.3322740919974966 -4.831192373504445" fill="#ff3c05" stroke="none" /><path d="M 101.44090949804482 120.95050786540614 l 0.514915907009853 7.486764279415646 a28.50445053064019,28.50445053064019 0 0,0 -0.48845178632436304,0.029384046532489338 l -0.38631976855302486 -7.494500303772827" fill="#ff6109" stroke="none" /><path d="M 101.08105385017728 120.97215588758144 l 0.19072341120324968 3.6999832251741305 a24.70489558370421,24.70489558370421 0 0,0 -0.42371747506174234,0.01819625152323508 l -0.1271801755406778 -3.7027120451231967" fill="#ff2c04" stroke="none" /><line stroke="#e1ed5e" stroke-width="0.3" x1="101.45913802915013" x2="101.54496967792366" y1="184.9874750549273" y2="189.98673829345242" /><path d="M 101.47630435890484 185.9873277026323 a86.0,86.0 0 0,1 -42.54439059252881,-10.42667462771756" fill="none" id="id43" stroke="none" /><text fill="#e1ed5e" style="font-size:6.75px; font-family:Arial;" text-anchor="middle"><textPath startOffset="22.145653131862474" xlink:href="#id43">July</textPath></text><path d="M 100.36049292484886 120.99690560180557 l 0.2171987355894945 12.650737458762169 a33.652601848681954,33.652601848681954 0 0,0 -0.5776916604383452,0.004958788114218971 l -1.549496835487424e-15 -12.652601848681954" fill="#ffa60f" stroke="none" /><path d="M 99.63950707515114 120.99690560180557 l -0.11039401618531189 6.429898000963739 a27.430845600821637,27.430845600821637 0 0,0 -0.47074816849129636,-0.012124802961620685 l 0.22075549874735215 -6.42705548065207" fill="#ff5207" stroke="none" /><path d="M 98.91894614982273 120.97215588758144 l -0.40112365558043855 7.781691757214544 a28.792023279698732,28.792023279698732 0 0,0 -0.493379628130175,-0.02968049325861475 l 0.5346476358430599 -7.773659286131237" fill="#ff6509" stroke="none" /><path d="M 98.55909050195518 120.95050786540614 l -0.21988545318503208 3.197086231086882 a24.204638822321122,24.204638822321122 0 0,0 -0.4142808410956774,-0.03206795719596136 l 0.27473528905594563 -3.192840506895867" fill="#ff2503" stroke="none" /><path d="M 97.84075906011543 120.88869738790638 l -0.4932398209989657 4.771647837069676 a25.797072920232797,25.797072920232797 0 0,0 -0.44010309862407804,-0.04931447016804581 l 0.575078821223843 -4.7624776063946594" fill="#ff3c05" stroke="none" /><path d="M 97.12497278360702 120.80226474461374 l -0.6653606293329858 4.814218064826733 a25.859979459089352,25.859979459089352 0 0,0 -0.4392193067884825,-0.06455011275040053 l 0.7479050417291532 -4.802086878777449" fill="#ff3d05" stroke="none" /><path d="M 96.41257539226777 120.69131181640829 l -1.229991696214935 7.094265246194078 a28.200102704553235,28.200102704553235 0 0,0 -0.47626652093323457,-0.08679162538658577 l 1.3515929506992268 -7.072105446876126" fill="#ff5d08" stroke="none" /><path d="M 96.05791012581884 120.62667999033965 l -0.6825443183386264 3.5713602893236165 a24.635997945908937,24.635997945908937 0 0,0 -0.4147100883967098,-0.08295363231274887 l 0.7437508922662943 -3.5591172603480064" fill="#ff2b04" stroke="none" /><path d="M 95.70440661134978 120.55596938700252 l -1.2262269612813539 5.867939908888141 a26.994693598082847,26.994693598082847 0 0,0 -0.45278788748074145,-0.09868301265008843 l 1.3267772653812318 -5.846025438104334" fill="#ff4c07" stroke="none" /><path d="M 95.35216902796893 120.47920084513623 l -1.0650284824647271 4.692712004682595 a25.812050667579598,25.812050667579598 0 0,0 -0.4312675535852639,-0.10177796836545519 l 1.145428189789879 -4.673737892670912" fill="#ff3c05" stroke="none" /><path d="M 94.30408787586889 120.21278271476187 l -1.6314891511547522 5.789579437869712 a27.015063334474494,27.015063334474494 0 0,0 -0.4452854137192909,-0.12961609427453358 l 1.73063457725565 -5.760719649292662" fill="#ff4d07" stroke="none" /><path d="M 93.95794788825049 120.11202640906438 l -1.9143852206176548 6.372365779386885 a27.653714481342007,27.653714481342007 0 0,0 -0.453467410359213,-0.14048536289001182 l 2.0234932638485015 -6.338563828690225" fill="#ff5607" stroke="none" /><path d="M 93.61358852112213 120.00534299687104 l -0.9135417994720315 2.861656675405436 a24.003937007874015,24.003937007874015 0 0,0 -0.39146679200631934,-0.1286829100509701 l 0.9625313291260944 -2.8455528439524445" fill="#ff2303" stroke="none" /><path d="M 92.93061703081489 119.77432235084164 l -3.026047645488228 8.464393830652405 a29.989044847654913,29.989044847654913 0 0,0 -0.4832675289513131,-0.1774625305836909 l 3.1709043260936602 -8.411200451059994" fill="#ff750a" stroke="none" /><path d="M 92.59220618246901 119.65005319985036 l -1.0615470827758235 2.815879756443239 a24.009328996918864,24.009328996918864 0 0,0 -0.3844096365563123,-0.14869790547951683 l 1.109728981825664 -2.7972419628256815" fill="#ff2303" stroke="none" /><path d="M 92.25597844496254 119.51999308798841 l -1.7747268387428938 4.473470971009097 a25.812649777473467,25.812649777473467 0 0,0 -0.41047710657337255,-0.16693746577317226 l 1.8512584065067073 -4.442346248656633" fill="#ff3c05" stroke="none" /><path d="M 91.59046798132341 119.24265499422711 l -1.2705945900636542 2.9073690759279556 a24.172885997945908,24.172885997945908 0 0,0 -0.37880822839155637,-0.16943610231339645 l 1.3203162213108457 -2.8851292227047045" fill="#ff2503" stroke="none" /><path d="M 91.26138138417905 119.09545874513695 l -2.515730926972762 5.497326092581795 a27.045617939061966,27.045617939061966 0 0,0 -0.42050949987730607,-0.19681967871196276 l 2.609729140721558 -5.453330182299306" fill="#ff4d07" stroke="none" /><path d="M 90.93487009805054 118.94263497670748 l -2.5921430162969155 5.416581946009903 a27.004878466278672,27.004878466278672 0 0,0 -0.41644062434418067,-0.20370197747254812 l 2.684743889903166 -5.371286218440134" fill="#ff4d07" stroke="none" /><path d="M 90.6110303473126 118.78422872680471 l -1.6111677639197386 3.223414806337165 a24.60364601163985,24.60364601163985 0 0,0 -0.37616957052060696,-0.1920748630221281 l 1.666264556153928 -3.1952819916422004" fill="#ff2b04" stroke="none" /><path d="M 90.28995756902619 118.62028667847754 l -3.325326638748421 6.3767522905524485 a28.191715166039028,28.191715166039028 0 0,0 -0.42718662228539156,-0.22745281498478256 l 3.4343020768203742 -6.318729007845093" fill="#ff5d08" stroke="none" /><line stroke="#e1ed5e" stroke-width="0.3" x1="58.13341422392154" x2="55.67067388415222" y1="173.97424548756322" y2="178.32567169271397" /><path d="M 57.64086615596768 174.84453072859336 a86.0,86.0 0 0,1 -31.369924170532247,-30.572349798747897" fill="none" id="id44" stroke="none" /><text fill="#e1ed5e" style="font-size:6.75px; font-family:Arial;" text-anchor="middle"><textPath startOffset="22.145653131862474" xlink:href="#id44">August</textPath></text><path d="M 89.34428304082925 118.09573695890944 l -4.874598352171145 8.27813369097663 a30.606727148236907,30.606727148236907 0 0,0 -0.4504541328811684,-0.27048476419666556 l 5.015985241609741 -8.193234926244045" fill="#ff7e0b" stroke="none" /><path d="M 89.03521579738668 117.91015095944536 l -1.5662636797468017 2.5583740115811615 a23.99974323861691,23.99974323861691 0 0,0 -0.34952297058121945,-0.2181281842498129 l 1.6099507791177337 -2.531110030489801" fill="#ff2203" stroke="none" /><path d="M 88.72937992617639 117.7192867562869 l -3.2163646182374057 5.05665940383253 a26.992896268401232,26.992896268401232 0 0,0 -0.3888447118184534,-0.252044444312194 l 3.3026949623128687 -5.000701117816441" fill="#ff4c07" stroke="none" /><path d="M 88.1277618465304 117.32195027204791 l -2.7103061081839472 3.954417610319739 a25.79407737076344,25.79407737076344 0 0,0 -0.36308837568768415,-0.25346388509431633 l 2.777789575045397 -3.9073089094202937" fill="#ff3c05" stroke="none" /><path d="M 87.83215693770417 117.11559508785305 l -1.7953921122387881 2.5254438489779734 a24.098596371105785,24.098596371105785 0 0,0 -0.3351070363664863,-0.2425916516116004 l 1.8384801589792283 -2.494251425993308" fill="#ff2403" stroke="none" /><path d="M 87.2517909369889 116.68781488649013 l -5.83692819959675 7.640726381184527 a30.615114686751113,30.615114686751113 0 0,0 -0.414893199223873,-0.3226234611755634 l 5.967231343455851 -7.53940186838817" fill="#ff7e0b" stroke="none" /><path d="M 86.96720088162412 116.46651593811092 l -1.8657590430220856 2.357325601319199 a24.006333447449503,24.006333447449503 0 0,0 -0.3209409343793409,-0.2585272985192867 l 1.9059507477566884 -2.324950009006502" fill="#ff2303" stroke="none" /><path d="M 86.68645165197938 116.24036423190432 l -3.8005068118878884 4.636000356739549 a26.994693598082847,26.994693598082847 0 0,0 -0.3558487633040465,-0.29686169454807004 l 3.8795299093538276 -4.570076478279609" fill="#ff4c07" stroke="none" /><path d="M 85.86807049272751 115.53346607816431 l -6.078197228450305 6.681003497501001 a30.032180760013695,30.032180760013695 0 0,0 -0.378362901505576,-0.350207053003429 l 6.1919899012698485 -6.575678698365195" fill="#ff760a" stroke="none" /><path d="M 85.60350026404147 115.28858382429668 l -2.164485724309637 2.2986088312804833 a24.157309140705237,24.157309140705237 0 0,0 -0.29946724937061486,-0.28688285067380753 l 2.2036254595455667 -2.261113850301093" fill="#ff2503" stroke="none" /><path d="M 85.34317274990678 115.03919595460226 l -3.394503127246851 3.4830592479590647 a25.863574118452583,25.863574118452583 0 0,0 -0.31529923564959256,-0.31260438658075923 l 3.453794283026406 -3.424274851149646" fill="#ff3d05" stroke="none" /><path d="M 85.08716467003676 114.78537596483092 l -3.1032243779742084 3.0767012520676933 a25.36990756590209,25.36990756590209 0 0,0 -0.3039715998649955,-0.3119016398978545 l 3.1555827789900133 -3.022976920102101" fill="#ff3605" stroke="none" /><path d="M 84.83555147118756 114.52719865689866 l -5.286271726964487 5.064128734127718 a28.3205237932215,28.3205237932215 0 0,0 -0.33329772576325417,-0.3539506346845831 l 5.3724252864639945 -4.972636639498645" fill="#ff5f08" stroke="none" /><path d="M 84.3458050057657 113.99807769240083 l -5.361869938970017 4.7946171623577625 a28.19291338582677,28.19291338582677 0 0,0 -0.31950483145716513,-0.3635378475053017 l 5.443385834385775 -4.70186703704116" fill="#ff5d08" stroke="none" /><path d="M 84.1078160697243 113.72728997021213 l -4.854433793833792 4.193144291654149 a27.414669633687094,27.414669633687094 0 0,0 -0.30457102215217546,-0.35878389826232004 l 4.9256993794930795 -4.109193610942275" fill="#ff5207" stroke="none" /><path d="M 83.64595745247003 113.17365903436017 l -5.609046545315683 4.518250853334418 a28.202499144128723,28.202499144128723 0 0,0 -0.30046884754020103,-0.37963257332421335 l 5.685781823497445 -4.421298336095524" fill="#ff5d08" stroke="none" /><path d="M 83.4222238831116 112.89097897827486 l -3.3167848883869238 2.5791519906037204 a25.20155768572407,25.20155768572407 0 0,0 -0.26263386033868474,-0.34379615384351225 l 3.360570726079904 -2.5218349235193376" fill="#ff3304" stroke="none" /><path d="M 83.20337586046588 112.60449989151573 l -3.8546172708664947 2.8925766611706174 a25.81923998630606,25.81923998630606 0 0,0 -0.2629849185214893,-0.35678954969041315 l 3.903704208971815 -2.8259808022113244" fill="#ff3c05" stroke="none" /><path d="M 82.98947788004972 112.3143062007846 l -1.489367008619407 1.078186857531895 a22.83866826429305,22.83866826429305 0 0,0 -0.22717395095684614,-0.3195486117941059 l 1.5076560581062137 -1.052461019028285" fill="#ff1202" stroke="none" /><path d="M 82.78059297857968 112.02048342749411 l -3.932973086086131 2.7455206641708836 a25.796473810338924,25.796473810338924 0 0,0 -0.25036124364389295,-0.36528453661285354 l 3.979524066545349 -2.677601392487979" fill="#ff3c05" stroke="none" /><path d="M 82.576782715395 111.72311816256416 l -4.005371587337299 2.6949927580150055 a25.827627524820265,25.827627524820265 0 0,0 -0.24434849475429282,-0.3699747644871356 l 4.051044521012319 -2.6258381151888086" fill="#ff3c05" stroke="none" /><path d="M 82.37810715431573 111.42229804090323 l -6.0378561302256095 3.9136653963039962 a28.19530982540226,28.19530982540226 0 0,0 -0.2597758871591455,-0.40841084224216423 l 6.1041497090106445 -3.80944087938316" fill="#ff5d08" stroke="none" /><path d="M 81.99639281039703 110.81064883170644 l -5.138824886796126 3.0857166940894403 a26.994094488188978,26.994094488188978 0 0,0 -0.2351395025300397,-0.39931828170139 l 5.191038099455936 -2.9970472440944915" fill="#ff4c07" stroke="none" /><line stroke="#e1ed5e" stroke-width="0.3" x1="26.387840678322732" x2="22.057713659400548" y1="142.50000000000003" y2="145.00000000000006" /><path d="M 25.521815274538298 143.00000000000003 a86.0,86.0 0 0,1 -11.493303480769221,-40.785679425670985" fill="none" id="id45" stroke="none" /><text fill="#e1ed5e" style="font-size:6.75px; font-family:Arial;" text-anchor="middle"><textPath startOffset="21.40746469413373" xlink:href="#id45">September</textPath></text><path d="M 81.81346652052679 110.50000000000001 l -6.2328776300613855 3.5985535775419417 a28.197107155083877,28.197107155083877 0 0,0 -0.23842216350761242,-0.421269117747485 l 6.293733158590376 -3.4910276896953354" fill="#ff5d08" stroke="none" /><path d="M 81.4637452351635 109.86951160357371 l -6.372300294313587 3.392890985480524 a28.21927422115714,28.21927422115714 0 0,0 -0.22399644343095804,-0.42954271531700633 l 6.429604806719494 -3.283002027059015" fill="#ff5d08" stroke="none" /><path d="M 81.29705330413844 109.54985784667822 l -4.271818762041182 2.181221097811988 a25.796473810338924,25.796473810338924 0 0,0 -0.19799418512293246,-0.3961210012923979 l 4.308632860375852 -2.1075682403558376" fill="#ff3c05" stroke="none" /><path d="M 81.1358732173502 109.22738970284198 l -1.7501466477569665 0.8560844263848596 a22.94830537487162,22.94830537487162 0 0,0 -0.1700586814761934,-0.35535723841430533 l 1.764584587193072 -0.8259146859054496" fill="#ff1302" stroke="none" /><path d="M 80.9802524753101 108.90220220490708 l -9.786064892382242 4.580372497018692 a31.80494693598083,31.80494693598083 0 0,0 -0.22720172070750994,-0.4964767631281756 l 9.86325107794481 -4.411706751675827" fill="#ff8e0d" stroke="none" /><path d="M 80.83023694016515 108.57439118712176 l -2.891980687561526 1.2935461770369703 a24.168093118794932,24.168093118794932 0 0,0 -0.16614541821965967,-0.38017323134891695 l 2.9137599877981537 -1.2437108759122042" fill="#ff2503" stroke="none" /><path d="M 80.68587082218212 108.24405325689762 l -6.654591409349151 2.8404493661860233 a28.23545018829168,28.23545018829168 0 0,0 -0.1864536766187371,-0.4474209478073106 l 6.702370930504373 -2.7257959089374313" fill="#ff5e08" stroke="none" /><path d="M 80.5471966667186 107.91128576633889 l -4.447528412442002 1.8087710867123108 a25.8012666894899,25.8012666894899 0 0,0 -0.16333593244062777,-0.41171324867855175 l 4.477923019848753 -1.7321568208201936" fill="#ff3c05" stroke="none" /><path d="M 80.41425534168474 107.57618678355246 l -4.530446698893648 1.7524741082118955 a25.857583019513864,25.857583019513864 0 0,0 -0.1565852928953824,-0.4153610928569184 l 4.559862675603466 -1.674444735160832" fill="#ff3d05" stroke="none" /><path d="M 80.28708602549918 107.23885506374661 l -2.8861883634924763 1.0598483449488645 a24.074631975350908,24.074631975350908 0 0,0 -0.13912824965634443,-0.38916647588694087 l 2.903956783192764 -1.010146912681002" fill="#ff2403" stroke="none" /><path d="M 80.16572619554312 106.89939002012753 l -11.997777800864416 4.173449920026362 a33.70292707976721,33.70292707976721 0 0,0 -0.1853894958760264,-0.548071103002854 l 12.067652718312809 -3.9668771425493468" fill="#ffa60f" stroke="none" /><path d="M 79.94057633289273 106.21446072829308 l -4.642304142062482 1.438197689943897 a25.859979459089352,25.859979459089352 0 0,0 -0.12772820162510923,-0.4251656418638027 l 4.666308663691221 -1.358294444489371" fill="#ff3d05" stroke="none" /><path d="M 79.83685265289637 105.86919833188381 l -4.61453748768873 1.3432246096762492 a25.806059568640876,25.806059568640876 0 0,0 -0.12015978182071649,-0.4264046755050315 l 4.636915761584021 -1.2638120102682222" fill="#ff3c05" stroke="none" /><path d="M 79.73907114497094 105.5222062557868 l -13.669710900735542 3.725740492499774 a35.16834988017802,35.16834988017802 0 0,0 -0.15375354579714112,-0.5838272570127842 l 13.731653927337415 -3.490532731114187" fill="#ffb911" stroke="none" /><path d="M 79.64726062577567 105.17358676015961 l -6.614117716871771 1.6812828593226652 a27.824460801095515,27.824460801095515 0 0,0 -0.11369932403297328,-0.46393204204399263 l 6.642004567421038 -1.5674949926705728" fill="#ff5808" stroke="none" /><path d="M 79.56144815229197 104.8234425847677 l -12.326571552566124 2.909037322891397 a33.66518315645327,33.66518315645327 0 0,0 -0.12791028378841746,-0.5635963114030079 l 12.374692697912208 -2.697006677549363" fill="#ffa60f" stroke="none" /><path d="M 79.48165901384964 104.47187691870673 l -14.477922161658594 3.1553957500391867 a35.81778500513523,35.81778500513523 0 0,0 -0.12577549807044477,-0.6018812895099229 l 14.529955370553406 -2.9063980092438544" fill="#ffc212" stroke="none" /><path d="M 79.407916724674 104.11899336999214 l -16.992639756327875 3.3990038578974855 a38.329253680246495,38.329253680246495 0 0,0 -0.12351822431428872,-0.6462995434458416 l 17.04848427292432 -3.1068017494183295" fill="#ffe115" stroke="none" /><path d="M 79.34024301695615 103.76489593502545 l -6.698566076466202 1.2207018801085328 a27.808883943854845,27.808883943854845 0 0,0 -0.08155310442950359,-0.47037663445523364 l 6.718533998387939 -1.1055322127327063" fill="#ff5808" stroke="none" /><path d="M 79.2786578344484 103.40968896794605 l -5.920467927307982 0.9742107444362564 a27.000085587127696,27.000085587127696 0 0,0 -0.07132973621490064,-0.45798807499986716 l 5.93631915566115 -0.8724344875049392" fill="#ff4d07" stroke="none" /><path d="M 79.22317932658666 103.0534771498775 l -10.161389843784233 1.4933743803591786 a31.27054091064704,31.27054091064704 0 0,0 -0.07349393639166614,-0.5317655127666475 l 10.185528296731112 -1.3187205593924454" fill="#ff860c" stroke="none" /><path d="M 79.17382384314188 102.69636545807758 l -7.211803212140361 0.9337123111418947 a28.27199589181787,28.27199589181787 0 0,0 -0.05818365141522829,-0.48184409979415693 l 7.226768949815251 -0.8097745344243384" fill="#ff5e08" stroke="none" /><path d="M 79.13060592940153 102.33845913500099 l -4.820822885702264 0.5401832596172242 a25.850992810681273,25.850992810681273 0 0,0 -0.04563021216502884,-0.44143091030508363 l 4.829385490348959 -0.45734782702920923" fill="#ff3d05" stroke="none" /><path d="M 79.0935383218832 101.97986365728391 l -13.105009014937306 1.2410579789410632 a34.163642588154744,34.163642588154744 0 0,0 -0.05027973465947817,-0.5843267315545547 l 13.124382372294525 -1.0159102000108464" fill="#ffac10" stroke="none" /><path d="M 79.06263194458094 101.62068470465958 l -3.0612807053526967 0.23696248748660062 a24.070438206093804,24.070438206093804 0 0,0 -0.02835272829713397,-0.41224244687181755 l 3.0648973948148965 -0.18437661646043974" fill="#ff2303" stroke="none" /><path d="M 79.03789590574601 101.26102812881392 l -8.572144245322285 0.5156789112866229 a29.587641218760698,29.587641218760698 0 0,0 -0.026147599654733025,-0.5072564479144349 l 8.57973343443359 -0.36845066999545717" fill="#ff700a" stroke="none" /><path d="M 79.01933749520258 100.90099992219065 l -7.4442685031429185 0.31968892024093076 a28.451129750085588,28.451129750085588 0 0,0 -0.016766268378599767,-0.48813161023948737 l 7.4486594585183665 -0.1918510454373235" fill="#ff6008" stroke="none" /><path d="M 79.00696218219943 100.54070618675478 l -5.103322927236068 0.13144349587291412 a26.105015405682984,26.105015405682984 0 0,0 -0.0076929844502831544,-0.4480777767454205 l 5.104827343285017 -0.04381880315844122" fill="#ff4006" stroke="none" /><line stroke="#e1ed5e" stroke-width="0.3" x1="15.003131293944662" x2="10.003315487706104" y1="100.72959589197737" y2="100.7725132973878" /><path d="M 14.003168132696942 100.73817937305945 a86.0,86.0 0 0,1 10.791469493833604,-42.45332614584628" fill="none" id="id46" stroke="none" /><text fill="#e1ed5e" style="font-size:6.75px; font-family:Arial;" text-anchor="middle"><textPath startOffset="22.145653131862435" xlink:href="#id46">October</textPath></text><path d="M 79.00077361379809 100.18025310272382 l -8.577140367775096 0.0736244343174983 a29.577456350564873,29.577456350564873 0 0,0 0.0,-0.5077550740826285 l 8.577140367775096 0.07362443431749514" fill="#ff700a" stroke="none" /><path d="M 79.00077361379809 99.81974689727619 l -12.359780884792071 -0.10609385376854391 a33.360236220472444,33.360236220472444 0 0,0 0.009831052558812038,-0.5726095252223913 l 12.356138400634594 0.3182502949599875" fill="#ffa20f" stroke="none" /><path d="M 79.00696218219943 99.45929381324524 l -6.619766261558535 -0.17050169697022644 a27.621961656966793,27.621961656966793 0 0,0 0.01627763910790281,-0.47390570216450967 l 6.615863935453781 0.28411366369887464" fill="#ff5507" stroke="none" /><path d="M 79.01933749520258 99.09900007780938 l -5.0428529499862575 -0.2165618037331963 a26.047500855871277,26.047500855871277 0 0,0 0.023019057833980696,-0.4465635723884712 l 5.038392302695707 0.3030971694983795" fill="#ff3f05" stroke="none" /><path d="M 79.03789590574601 98.7389718711861 l -1.8971266352334244 -0.11412642739462432 a22.900556316330025,22.900556316330025 0 0,0 0.026974716684875433,-0.3922064604615382 l 1.8948879573834851 0.14667631201048748" fill="#ff1302" stroke="none" /><path d="M 79.06263194458094 98.37931529534042 l -35.990506602851895 -2.7858928309327293 a57.09816843546731,57.09816843546731 0 0,0 0.08403321604449364,-0.9765933493056247 l 35.93737976410966 3.4033072276140346" fill="#4bff2c" stroke="none" /><path d="M 79.0935383218832 98.0201363427161 l -4.370722103652858 -0.4139119274385616 a25.390277302293736,25.390277302293736 0 0,0 0.04481699208681647,-0.433563743742159 l 4.362972719084377 0.4888801934636334" fill="#ff3605" stroke="none" /><path d="M 79.13060592940154 97.66154086499901 l -4.596363181131465 -0.5150320815419278 a25.625128380691542,25.625128380691542 0 0,0 0.05273640894960249,-0.4367331179570576 l 4.586844685922194 0.5938588764224217" fill="#ff3905" stroke="none" /><path d="M 79.17382384314186 97.30363454192245 l -2.860242269174801 -0.3703156257898369 a23.884115029099625,23.884115029099625 0 0,0 0.05613390685296368,-0.4061569869136178 l 2.8534638457666293 0.4193609209035217" fill="#ff2103" stroke="none" /><path d="M 79.22317932658666 96.9465228501225 l -6.252251068788198 -0.918865599021675 a27.31941116056145,27.31941116056145 0 0,0 0.07217334127852906,-0.4634046246698014 l 6.235556235371401 1.0260584056229265" fill="#ff5107" stroke="none" /><path d="M 79.2786578344484 96.59031103205396 l -3.7142586108113886 -0.6111798409678469 a24.764207463197536,24.764207463197536 0 0,0 0.07262420172767586,-0.4188770964346486 l 3.7032195915914787 0.6748499703230881" fill="#ff2d04" stroke="none" /><path d="M 79.34024301695615 96.23510406497455 l -2.9641081212977136 -0.5401592393370697 a24.012923656282094,24.012923656282094 0 0,0 0.07738302747457422,-0.4049006987019206 l 2.95439880154098 0.5909625030723047" fill="#ff2303" stroke="none" /><path d="M 79.407916724674 95.88100663000787 l -5.991043741919849 -1.1983765373496449 a27.109722697706264,27.109722697706264 0 0,0 0.09519681003073724,-0.4555511976302419 l 5.969589221064744 1.301044186265296" fill="#ff4e07" stroke="none" /><path d="M 79.48165901384962 95.52812308129327 l -15.331565225110129 -3.3414432825779814 a36.69146696336871,36.69146696336871 0 0,0 0.13940859700917652,-0.6142600010348379 l 15.27194576654329 3.6041376175518276" fill="#ffcd13" stroke="none" /><path d="M 79.56144815229197 95.17655741523228 l -5.8554130336267285 -1.3818615324728232 a27.01626155426224,27.01626155426224 0 0,0 0.11039677277399433,-0.4504565059089793 l 5.830828734336436 1.4821738629899202" fill="#ff4d07" stroke="none" /><path d="M 79.64726062577567 94.8264132398404 l -5.424958460954523 -1.3790032266395962 a26.59748373844574,26.59748373844574 0 0,0 0.11628232339593195,-0.4415429221833342 l 5.400486656753865 1.471926653195715" fill="#ff4706" stroke="none" /><path d="M 79.73907114497095 94.47779374421319 l -21.580559705651883 -5.881877512261801 a43.36776788770969,43.36776788770969 0 0,0 0.20193170187713197,-0.7165843721451726 l 21.47640951170017 6.251469808309987" fill="#e0ff1b" stroke="none" /><path d="M 79.83685265289637 94.1308016681162 l -5.84899241770369 -1.7025564486646827 a27.091749400890105,27.091749400890105 0 0,0 0.13381218787618013,-0.4454172533843285 l 5.818903909823881 1.8027113056397348" fill="#ff4e07" stroke="none" /><path d="M 79.94057633289273 93.78553927170692 l -4.937598636306102 -1.5296806790971318 a26.169120164327285,26.169120164327285 0 0,0 0.1366218536702444,-0.42796601073719076 l 4.910612066858601 1.6142157235257142" fill="#ff4106" stroke="none" /><path d="M 80.05021161711548 93.44210830539832 l -7.931651572060902 -2.6072914143549317 a29.349195480999658,29.349195480999658 0 0,0 0.16144094967513933,-0.4772714815377088 l 7.885725200813398 2.743064570366802" fill="#ff6d0a" stroke="none" /><path d="M 80.16572619554312 93.10060997987247 l -13.831706860554155 -4.81138564566921 a35.64464224580623,35.64464224580623 0 0,0 0.20599179627597722,-0.5761957159409077 l 13.747074894234235 5.04811631799104" fill="#ffbf11" stroke="none" /><path d="M 80.28708602549916 92.7611449362534 l -4.777507823045319 -1.7543670480008948 a26.089438548442313,26.089438548442313 0 0,0 0.1579893361843192,-0.4190854844912008 l 4.746687803046564 1.8361208126862405" fill="#ff4006" stroke="none" /><path d="M 80.41425534168474 92.42381321644754 l -6.718002054859195 -2.5986675139407507 a28.203098254022596,28.203098254022596 0 0,0 0.17854082152143566,-0.45003950173087387 l 6.672402558371627 2.7136080328852072" fill="#ff5d08" stroke="none" /><path d="M 80.5471966667186 92.08871423366112 l -11.989568732517723 -4.876053226520169 a33.943170147209855,33.943170147209855 0 0,0 0.22414478351994954,-0.5378658834045348 l 11.904098104461294 5.081151619365968" fill="#ffa90f" stroke="none" /><path d="M 80.68587082218212 91.75594674310238 l -3.9469105129724267 -1.684701400181376 a25.291424169804863,25.291424169804863 0 0,0 0.17386784407889144,-0.397843652984474 l 3.917408786876558 1.7522071229417169" fill="#ff3505" stroke="none" /><path d="M 80.83023694016515 91.42560881287825 l -5.555906165835397 -2.4850861597047187 a27.08635741184526,27.08635741184526 0 0,0 0.19349401915549702,-0.42281935196543685 l 5.512427681824853 2.580094493884827" fill="#ff4e07" stroke="none" /><path d="M 80.9802524753101 91.09779779509293 l -7.871718513656179 -3.6843617307596395 a29.691287230400548,29.691287230400548 0 0,0 0.220027626234311,-0.4597731145200372 l 7.807311629461964 3.8189473473447637" fill="#ff710a" stroke="none" /><path d="M 81.1358732173502 90.77261029715801 l -9.826007839713006 -4.806392821935667 a31.93854844231428,31.93854844231428 0 0,0 0.24513609570586353,-0.4904364015722187 l 9.742051830795397 4.974361079671655" fill="#ff8f0d" stroke="none" /><path d="M 81.29705330413844 90.45014215332179 l -5.390196494396708 -2.752272736709555 a27.052208147894557,27.052208147894557 0 0,0 0.21473261022211465,-0.4117780936568531 l 5.3421558151996535 2.8443970734708945" fill="#ff4d07" stroke="none" /><path d="M 81.46374523516351 90.13048839642627 l -2.6689626211950737 -1.4210722658688968 a24.02370763437179,24.02370763437179 0 0,0 0.19694252327325276,-0.3623520607241021 l 2.64417474830647 1.4666791600676186" fill="#ff2303" stroke="none" /><path d="M 81.63589988554816 89.8137432299009 l -39.535834957687996 -21.92986119599421 a66.21062992125985,66.21062992125985 0 0,0 0.5598475597587416,-0.9891969945366139 l 39.153554032907884 22.60531496062993" fill="#37ff78" stroke="none" /><line stroke="#e1ed5e" stroke-width="0.3" x1="26.387840678322718" x2="22.05771365940052" y1="57.49999999999999" y2="54.99999999999999" /><path d="M 25.521815274538284 56.99999999999999 a86.0,86.0 0 0,1 29.574782752854787,-30.34633250058573" fill="none" id="id47" stroke="none" /><text fill="#e1ed5e" style="font-size:6.75px; font-family:Arial;" text-anchor="middle"><textPath startOffset="21.40746469413373" xlink:href="#id47">November</textPath></text><path d="M 81.81346652052679 89.5 l -45.45232490021373 -26.241912016432735 a73.48382403286546,73.48382403286546 0 0,0 0.6401011093242015,-1.0870316231014443 l 44.99515008075975 27.01829480782775" fill="#40ffc7" stroke="none" /><path d="M 81.99639281039701 89.18935116829357 l -2.608704807599954 -1.56645228278663 a24.042879150975693,24.042879150975693 0 0,0 0.2155066706162451,-0.35201395049657547 l 2.5814301725283157 1.6110033494077487" fill="#ff2303" stroke="none" /><path d="M 82.18462484594161 88.88188828441811 l -6.441123169216646 -4.019737241001063 a28.59251968503937,28.59251968503937 0 0,0 0.2634355576616,-0.4141644521271363 l 6.371169919929157 4.129715367806871" fill="#ff6209" stroke="none" /><path d="M 82.37810715431573 88.57770195909679 l -8.914007247712764 -5.777951801987187 a31.62281752824375,31.62281752824375 0 0,0 0.2991752864443444,-0.4529895150527599 l 8.81350752234769 5.930121195379008" fill="#ff8b0c" stroke="none" /><path d="M 82.576782715395 88.27688183743585 l -4.9910568513841955 -3.3582057934014227 a27.015662444368367,27.015662444368367 0 0,0 0.26219377489977963,-0.382548553334672 l 4.932673339669102 3.4433890818061292" fill="#ff4d07" stroke="none" /><path d="M 82.78059297857968 87.97951657250589 l -2.468056056020076 -1.7228948059948215 a24.009928106812737,24.009928106812737 0 0,0 0.23882435556638223,-0.33593636489755974 l 2.4381166019237215 1.7650083976019015" fill="#ff2303" stroke="none" /><path d="M 82.98947788004972 87.6856937992154 l -42.09827607159213 -30.47590534935702 a72.97158507360493,72.97158507360493 0 0,0 0.7432606988100786,-1.008375885286216 l 41.56891335319823 31.1940875439121" fill="#3fffc1" stroke="none" /><path d="M 83.2033758604659 87.39550010848427 l -43.25279265327592 -32.45770196302617 a75.076857240671,75.076857240671 0 0,0 0.782401035884469,-1.0241880713834253 l 42.689239640037144 33.19541094765048" fill="#42ffd7" stroke="none" /><path d="M 83.42222388311158 87.10902102172516 l -3.8545268558895516 -2.9973033970369745 a25.882745635056487,25.882745635056487 0 0,0 0.2757542412251299,-0.3484064756076078 l 3.80250618402286 3.0630298165592653" fill="#ff3d05" stroke="none" /><path d="M 83.64595745247003 86.82634096563983 l -5.625376326474065 -4.531404969111051 a28.223467990414242,28.223467990414242 0 0,0 0.30716968482504237,-0.37469707039443395 l 5.546759822410393 4.627304321203978" fill="#ff5d08" stroke="none" /><path d="M 83.8745106332314 86.54754324733833 l -7.105391511746578 -5.927570311105201 a30.253252310852446,30.253252310852446 0 0,0 0.3361070588434679,-0.3959332701884268 l 7.0025898893959955 6.048670363743185" fill="#ff790b" stroke="none" /><path d="M 84.10781606972428 86.27271002978789 l -4.538421805947162 -3.9201806630669656 a26.997090037658335,26.997090037658335 0 0,0 0.3059527968703042,-0.34811811985813057 l 4.470457945118265 3.997511060736396" fill="#ff4d07" stroke="none" /><path d="M 84.34580500576568 86.00192230759919 l -4.518244059017133 -4.040241698448565 a27.061194796302637,27.061194796302637 0 0,0 0.3126241940737693,-0.3436287529851694 l 4.448222164101498 4.117208026991392" fill="#ff4d07" stroke="none" /><path d="M 84.58840730492382 85.73525988315684 l -11.293568696956715 -10.453158582712355 a36.38873673399521,36.38873673399521 0 0,0 0.42825066673874057,-0.4547873675079962 l 11.112462196481703 10.645487410164863" fill="#ffc912" stroke="none" /><path d="M 84.83555147118756 85.47280134310135 l -0.8959709261431751 -0.8583198795628522 a22.240756590208832,22.240756590208832 0 0,0 0.2664794243089912,-0.2734313648970001 l 0.8811047006833814 0.8735739365275825" fill="#ff0901" stroke="none" /><path d="M 85.08716467003674 85.21462403516908 l -6.468525286909771 -6.4132390782063595 a30.108866826429306,30.108866826429306 0 0,0 0.3670530087284007,-0.36391582237669146 l 6.3574803580513946 6.523334910811725" fill="#ff770a" stroke="none" /><path d="M 85.34317274990677 84.96080404539775 l -4.322367433647543 -4.435129766710127 a27.192998972954467,27.192998972954467 0 0,0 0.3370993249760321,-0.32293352783180845 l 4.24559562280621 4.508675424847504" fill="#ff4f07" stroke="none" /><path d="M 85.60350026404147 84.71141617570332 l -1.2395479916444945 -1.3163570119173615 a22.80811365970558,22.80811365970558 0 0,0 0.28734989746884054,-0.26596677521228007 l 1.2167683228617008 1.337441533262007" fill="#ff1101" stroke="none" /><path d="M 85.86807049272753 84.46653392183569 l -0.9063271006604056 -0.9962122487650739 a22.34679904142417,22.34679904142417 0 0,0 0.2859698305228655,-0.2557159858310266 l 0.8890922433141482 1.0116237644795014" fill="#ff0b01" stroke="none" /><path d="M 86.13680546590413 84.22622945171909 l -2.3049953710119473 -2.6226616100473916 a24.491612461485794,24.491612461485794 0 0,0 0.31818164062805976,-0.274837722949978 l 2.2596342506210387 2.66184346546208" fill="#ff2904" stroke="none" /><path d="M 86.40962598614128 83.9905735841838 l -35.64584661965449 -41.9907176877466 a76.08036631290653,76.08036631290653 0 0,0 1.0029046696083914,-0.8366587449279366 l 34.91976761588419 42.59643861658642" fill="#43ffe1" stroke="none" /><path d="M 86.68645165197937 83.75963576809568 l -29.595791603268502 -36.102053547585996 a67.68264293050325,67.68264293050325 0 0,0 0.9048499934790368,-0.7288831037764503 l 28.97169083943422 36.60478494515585" fill="#39ff89" stroke="none" /><path d="M 86.96720088162412 83.53348406188908 l -2.79566405828678 -3.5322302105059915 a25.50470729202328,25.50470729202328 0 0,0 0.3456374314427993,-0.26876975725923535 l 2.7346166822087365 3.5797010193860315" fill="#ff3805" stroke="none" /><path d="M 87.25179093698888 83.31218511350988 l -3.677312045991826 -4.813719511505808 a27.057600136939406,27.057600136939406 0 0,0 0.3715227679397379,-0.2787976113110786 l 3.594136289141336 4.876136150080888" fill="#ff4d07" stroke="none" /><path d="M 87.54013794807813 83.09580414077388 l -8.76690567689573 -11.893991283695469 a35.77584731256419,35.77584731256419 0 0,0 0.49748698977286626,-0.36014221549288383 l 8.561437676748897 12.042734270561432" fill="#ffc111" stroke="none" /><path d="M 88.12776184653039 82.6780497279521 l -3.233603151066255 -4.717923634806613 a26.71970215679562,26.71970215679562 0 0,0 0.3805696236209738,-0.2560642270548606 l 3.152137239348292 4.7727375359185835" fill="#ff4906" stroke="none" /><path d="M 88.4268655584334 82.4767994020092 l -33.91907016578282 -51.357795384936395 a82.54775761725436,82.54775761725436 0 0,0 1.1891372716278081,-0.7707844127202148 l 33.03244726189799 51.932493639360516" fill="#4bdfff" stroke="none" /><path d="M 88.72937992617638 82.28071324371311 l -1.5424273791547392 -2.424952030409341 a23.8739301609038,23.8739301609038 0 0,0 0.34769067761780503,-0.21698469792484398 l 1.5005725727472357 2.451072525175721" fill="#ff2103" stroke="none" /><path d="M 89.03521579738668 82.08984904055464 l -3.232628093969133 -5.280255050065853 a27.19120164327285,27.19120164327285 0 0,0 0.40018617798939543,-0.24030030159981117 l 3.1415091594223035 5.334969352201588" fill="#ff4f07" stroke="none" /><line stroke="#e1ed5e" stroke-width="0.3" x1="56.869717070023135" x2="54.33264160355391" y1="26.7553504044142" y2="22.446841604673864" /><path d="M 56.362301976729285 25.89364864446614 a86.0,86.0 0 0,1 42.16139366436587,-11.88097634709845" fill="none" id="id48" stroke="none" /><text fill="#e1ed5e" style="font-size:6.75px; font-family:Arial;" text-anchor="middle"><textPath startOffset="22.145653131862474" xlink:href="#id48">December</textPath></text><path d="M 89.34428304082924 81.90426304109057 l -3.995437863584995 -6.78512697851611 a28.874101335159192,28.874101335159192 0 0,0 0.42927199621899,-0.24784030257260053 l 3.8783733995056053 6.852714178364884" fill="#ff6609" stroke="none" /><path d="M 89.65649057296885 81.72400993836675 l -5.854003766217163 -10.343463735098723 a32.88514207463197,32.88514207463197 0 0,0 0.493677722016191,-0.2738347104836989 l 5.675581856044869 10.442431361015569" fill="#ff9c0e" stroke="none" /><path d="M 89.97174638481275 81.54914285379989 l -2.927625220934931 -5.386500661219495 a27.130691543991784,27.130691543991784 0 0,0 0.41110902308300656,-0.21889239898388593 l 2.834727382065363 5.435963527925956" fill="#ff4e07" stroke="none" /><path d="M 90.28995756902619 81.37971332152246 l -2.6291798674076374 -5.041799066114066 a26.686152002738787,26.686152002738787 0 0,0 0.40800937929966624,-0.20833249625233818 l 2.542243266394389 5.086189514039239" fill="#ff4806" stroke="none" /><path d="M 90.61103034731259 81.2157712731953 l -26.60663427396703 -53.23109162564869 a80.51018486819582,80.51018486819582 0 0,0 1.2415427714086933,-0.6073007839976626 l 25.688931253296282 53.679986159743564" fill="#49f2ff" stroke="none" /><path d="M 90.93487009805054 81.0573650232925 l -18.631205730524385 -38.932054272423386 a64.16047586443,64.16047586443 0 0,0 0.9975771187195321,-0.46691646218235344 l 17.96013989793333 39.246146966176276" fill="#35ff61" stroke="none" /><path d="M 91.26138138417902 80.90454125486306 l -1.4963251435626366 -3.2697404823779532 a24.595857583019516,24.595857583019516 0 0,0 0.3854365274211294,-0.1724008561607668 l 1.4399752132858883 3.2949450894485657" fill="#ff2b04" stroke="none" /><path d="M 91.5904679813234 80.7573450057729 l -4.55240414396863 -10.416791581520577 a32.368110236220474,32.368110236220474 0 0,0 0.5110538113022686,-0.2181384829068637 l 4.372915257495931 10.493404714086845" fill="#ff950d" stroke="none" /><path d="M 91.92203290615298 80.6158196554323 l -3.703899553015789 -8.888010569950133 a30.62889421431017,30.62889421431017 0 0,0 0.4870658372161332,-0.19808543577086363 l 3.550779254609215 8.950283262300287" fill="#ff7e0b" stroke="none" /><path d="M 92.25597844496254 80.48000691201159 l -2.2099579942667975 -5.570537796963026 a26.992896268401232,26.992896268401232 0 0,0 0.4321790686224476,-0.1671761480069777 l 2.1140066631508208 5.607653833108045" fill="#ff4c07" stroke="none" /><path d="M 92.592206182469 80.34994680014964 l -2.2644787959273267 -6.006799042462532 a27.41946251283807,27.41946251283807 0 0,0 0.44185921762654257,-0.16225682510036019 l 2.161030426646657 6.044786716571615" fill="#ff5207" stroke="none" /><path d="M 92.93061703081487 80.22567764915836 l -15.447283475288913 -43.20880113818506 a66.88702499144128,66.88702499144128 0 0,0 1.0845069492698713,-0.3772478133719276 l 14.703270753974037 43.46760738412558" fill="#38ff80" stroke="none" /><path d="M 93.27111125876988 80.10723608172694 l -12.473553684209461 -36.87584506212565 a59.92836357411845,59.92836357411845 0 0,0 0.9773381854339869,-0.3212704739551662 l 11.838692761127714 37.08453645748285" fill="#30ff2f" stroke="none" /><path d="M 93.61358852112211 79.99465700312896 l -9.916501699215079 -31.063300333524463 a53.60775419376926,53.60775419376926 0 0,0 0.8790634432066832,-0.2723361017816238 l 9.38179762313678 31.22895302311273" fill="#6fff27" stroke="none" /><path d="M 93.95794788825049 79.88797359093562 l -3.1522026408639507 -10.492657393089134 a31.95592262923656,31.95592262923656 0 0,0 0.5267248887246532,-0.15332193853696946 l 2.971617739757673 10.545223025928625" fill="#ff900d" stroke="none" /><path d="M 94.30408787586887 79.78721728523814 l -1.3932657352590523 -4.9442085757265835 a26.1367682300582,26.1367682300582 0 0,0 0.43289781475589845,-0.11798822442279357 l 1.3081865195684763 4.967397294293517" fill="#ff4106" stroke="none" /><path d="M 94.6519064749342 79.69241777938228 l -1.547883396433659 -5.877565377957514 a27.07796987333105,27.07796987333105 0 0,0 0.45051901637831177,-0.11452017222245857 l 1.446759086829969 5.903270782015236" fill="#ff4e07" stroke="none" /><path d="M 95.00130118170881 79.60360301121753 l -1.523910064254811 -6.218073097744194 a27.402088325915784,27.402088325915784 0 0,0 0.45783389114013984,-0.10804755169201856 l 1.416944019374765 6.243316793082444" fill="#ff5207" stroke="none" /><path d="M 95.35216902796891 79.52079915486377 l -13.943492916093277 -61.43760253540869 a84.0,84.0 0 0,0 1.4089503335235265,-0.3070741674651436 l 12.886780165950631 61.667908161007546" fill="#4dd2ff" stroke="none" /><path d="M 95.70440661134978 79.44403061299748 l -12.401608015269753 -59.34618378570392 a81.62812393016091,81.62812393016091 0 0,0 1.3740870804202314,-0.27485589963714346 l 11.381024449318545 59.550329082003934" fill="#4ae8ff" stroke="none" /><path d="M 96.05791012581881 79.37332000966035 l -0.6760214034492501 -3.5372296423009137 a24.60124957206436,24.60124957206436 0 0,0 0.4154861302120765,-0.07571541349584934 l 0.6152005396861351 3.5483132297281244" fill="#ff2b04" stroke="none" /><path d="M 96.41257539226777 79.30868818359171 l -1.0346135843764999 -5.96737621682276 a27.05640191715166,27.05640191715166 0 0,0 0.45831289754137217,-0.07541521288192174 l 0.9320231837820547 5.98425742820035" fill="#ff4d07" stroke="none" /><path d="M 96.76829788921471 79.25015418208739 l -1.474973478498893 -9.470387806543593 a30.58456008216364,30.58456008216364 0 0,0 0.5194640351114825,-0.07634332443489483 l 1.3121843377797255 9.494312204277373" fill="#ff7d0b" stroke="none" /><path d="M 97.12497278360702 79.19773525538626 l -1.1741416924188508 -8.495504388312952 a29.57625813077713,29.57625813077713 0 0,0 0.5035318203445501,-0.06519227520184626 l 1.0281320501835065 8.514408259715193" fill="#ff700a" stroke="none" /><path d="M 97.48249496171623 79.15144685158666 l -0.8161134813995937 -6.758590363614651 a27.8076857240671,27.8076857240671 0 0,0 0.47440454545243926,-0.0531580188311351 l 0.6999730343463552 6.771604142952757" fill="#ff5808" stroke="none" /><path d="M 97.84075906011542 79.11130261209362 l -0.9083078756874954 -8.787054746795603 a29.833875385142075,29.833875385142075 0 0,0 0.509875757221168,-0.048285764324670986 l 0.7573325550813118 8.801352266625457" fill="#ff730a" stroke="none" /><path d="M 98.1996594967304 79.07731436759882 l -0.891952333098817 -10.36583814596254 a31.404142416980484,31.404142416980484 0 0,0 0.537505832245597,-0.041606350840273816 l 0.7138775060780029 10.379622263797867" fill="#ff880c" stroke="none" /><path d="M 98.5590905019552 79.04949213459386 l -0.24713990363589516 -3.5933599591127954 a24.601848681958234,24.601848681958234 0 0,0 0.42157686648498477,-0.02536101742002632 l 0.1854186850184266 3.5970729543575155" fill="#ff2b04" stroke="none" /><path d="M 98.9189461498227 79.02784411241856 l -0.44504185376179234 -8.633693069091642 a29.64515576857241,29.64515576857241 0 0,0 0.5084486395626561,-0.021834972302668884 l 0.2967674535983162 8.64006060982014" fill="#ff710a" stroke="none" /><path d="M 99.27912038922189 79.0123766808444 l -0.061821411331707384 -1.7998629378461062 a22.800924340979115,22.800924340979115 0 0,0 0.3912928361604367,-0.010078315448247846 l 0.03091526110052677 1.8006589706443992" fill="#ff1101" stroke="none" /><path d="M 99.63950707515114 79.00309439819443 l -0.06633514108396465 -3.863689408069322 a24.86425881547415,24.86425881547415 0 0,0 0.42682806593281586,-0.003663805599265025 l 9.464704378894726e-16 3.8642588154741517" fill="#ff2f04" stroke="none" /></svg>