<?xml version="1.0" encoding="utf-8" ?>
<svg baseProfile="full" height="200mm" version="1.1" viewBox="0,0,200,200" width="200mm" xmlns="http://www.w3.org/2000/svg" xmlns:ev="http://www.w3.org/2001/xml-events" xmlns:xlink="http://www.w3.org/1999/xlink"><defs /><rect fill="#1a1a1a" height="200" width="200" x="0" y="0" /><text alignment-baseline="middle" fill="#e1ed5e" style="dominant-baseline: central; font-size:9.0px; font-family:Arial;" text-anchor="middle" x="100.0" y="100.0">2026</text><line stroke="#e1ed5e" stroke-width="0.3" x1="100.0" x2="100.0" y1="15.0" y2="10.0" /><path d="M 100.0 14.0 a86.0,86.0 0 0,1 42.46469731375804,11.215312516191453" fill="none" id="id109" stroke="none" /><text fill="#e1ed5e" style="font-size:6.75px; font-family:Arial;" text-anchor="middle"><textPath startOffset="22.20632615414155" xlink:href="#id109">January</textPath></text><path d="M 100.0 79.0 l 0.0 -56.84122718567653 a77.84122718567653,77.84122718567653 0 0,0 1.3399087671542913,0.011533017783191936 l -0.978428287881763 56.832805544501895" fill="#45fff0" stroke="none" /><path d="M 100.36148047927253 79.00311137660856 l 0.7352648825927155 -42.70846071566417 a63.71478937264005,63.71478937264005 0 0,0 1.0964203725448196,0.028317303467648783 l -1.470311890332403 42.68947662005416" fill="#33ff52" stroke="none" /><path d="M 100.72285384407766 79.0124445844662 l 1.162023660944721 -33.7385436600357 a54.758548951172806,54.758548951172806 0 0,0 0.9417405694654102,0.04055332992509082 l -1.7426050627994627 33.71354260358642" fill="#70ff27" stroke="none" /><path d="M 101.08401301168833 79.027996857942 l 1.6215155210697543 -31.370867541346527 a52.412746503318985,52.412746503318985 0 0,0 0.9005956220450675,0.05432638734172159 l -2.1612731919544337 31.338307884624502" fill="#8aff24" stroke="none" /><path d="M 101.44485096284872 79.0497635885617 l 1.0291406668807321 -14.922466625392783 a35.95791231082029,35.95791231082029 0 0,0 0.6171230650889659,0.04790062710216102 l -1.2858539213320392 14.902540736102157" fill="#ffa90f" stroke="none" /><path d="M 101.80526077348638 79.07773832637324 l 1.2815440393749962 -14.852590900924854 a35.90777688305984,35.90777688305984 0 0,0 0.6153479353458584,0.058434701078525775 l -1.5370171018110987 14.82833065533115" fill="#ffa90f" stroke="none" /><path d="M 102.16513564639614 79.11191278185805 l 3.500380939498347 -33.76982984076084 a54.95075955255707,54.95075955255707 0 0,0 0.9400067856528347,0.10562071501929714 l -4.081154428660907 33.70457317227095" fill="#6eff28" stroke="none" /><path d="M 102.52436894288641 79.15227682838746 l 4.842501378800606 -39.99222399240631 a61.28433689987319,61.28433689987319 0 0,0 1.0461681977032222,0.13582265729019383 l -5.530184305011675 39.902943011951976" fill="#30ff34" stroke="none" /><path d="M 102.88285421437855 79.19881850522331 l 4.1303757407746104 -29.80265009481095 a51.08750498851167,51.08750498851167 0 0,0 0.8700226903046457,0.12821872873088475 l -4.642767411507912 29.727136881919098" fill="#99ff23" stroke="none" /><path d="M 103.2404852339499 79.25152402106235 l 5.183094428471064 -33.186792249200515 a54.58910013153141,54.58910013153141 0 0,0 0.9271589371465592,0.15298916883350716 l -5.753582571756498 33.09265681742739" fill="#72ff27" stroke="none" /><path d="M 103.59715602781102 79.31037775812273 l 5.072542730893564 -29.17554648632597 a50.61322681729414,50.61322681729414 0 0,0 0.8570623996645378,0.15662267533370247 l -5.574000251661003 29.08390832964153" fill="#9eff22" stroke="none" /><path d="M 104.307194497241 79.44645832069477 l 9.902225634969508 -47.252523060335434 a69.27892923515785,69.27892923515785 0 0,0 1.1650646629642312,0.2546380096821696 l -10.714133022087267 47.0750715525574" fill="#3aff93" stroke="none" /><path d="M 104.66035177308747 79.52364482259891 l 6.511130121267844 -28.608186562068884 a50.339787896749016,50.339787896749016 0 0,0 0.8432545231146167,0.19957110116028476 l -7.002608331344984 28.49186954876773" fill="#a1ff22" stroke="none" /><path d="M 105.01212808612495 79.60689891045804 l 4.309308359997935 -17.53350263628026 a39.05529986563488,39.05529986563488 0 0,0 0.651463066317754,0.16607244103464822 l -4.610480315000714 17.45672719907674" fill="#ffd213" stroke="none" /><path d="M 105.36241919743992 79.69619591428918 l 9.913953460711054 -37.5373430106379 a59.82445870220769,59.82445870220769 0 0,0 0.9933769059766078,0.27152743343342645 l -10.558628255911373 37.36112903637818" fill="#3bff2e" stroke="none" /><path d="M 105.71112130821622 79.79150937346287 l 6.482691068659874 -22.93864805625475 a44.83708996795545,44.83708996795545 0 0,0 0.7409004203664443,0.21628914953220582 l -6.876581706749746 22.823660577803842" fill="#e2ff1b" stroke="none" /><path d="M 106.0581310904928 79.89281104454417 l 0.9008807861696082 -2.9900607833130333 a24.1228271932331,24.1228271932331 0 0,0 0.39655013327027216,0.12321005671421177 l -0.9522162921505987 2.974110591716301" fill="#ff0000" stroke="none" /><path d="M 106.74666289553966 80.11325718540242 l 7.651633678695459 -22.554272154360884 a44.8168572730729,44.8168572730729 0 0,0 0.7284190432679781,0.25413110131335565 l -8.03873472602671 22.419220199875323" fill="#e3ff1b" stroke="none" /><path d="M 107.08798089147638 80.2323363322302 l 7.594548586891513 -21.180429867515826 a43.50083948681498,43.50083948681498 0 0,0 0.7026787427456118,0.25880251110305996 l -7.958009655409701 21.04656408860644" fill="#f3ff19" stroke="none" /><path d="M 107.4271985657038 80.35727306442388 l 15.540812251771706 -41.10081731599437 a64.94080142063365,64.94080142063365 0 0,0 1.0421973027222418,0.4043563619496663 l -16.245992719493618 40.827218250154154" fill="#34ff61" stroke="none" /><path d="M 109.41281617654863 81.2277094730956 l 9.277138506563398 -18.50170406359688 a41.69730301577668,41.69730301577668 0 0,0 0.6388414257695192,0.32723939101474336 l -9.594240419921674 18.339272147269632" fill="#fff417" stroke="none" /><path d="M 109.73455568895987 81.39251694778311 l 19.718662911451617 -37.691980780729246 a63.53834837167894,63.53834837167894 0 0,0 0.964738910177126,0.5153301147923598 l -20.364546868157056 37.346971939435136" fill="#33ff50" stroke="none" /><path d="M 110.05341064243156 81.56283822128135 l 21.990668050296158 -40.329149866233564 a66.9350607949031,66.9350607949031 0 0,0 1.0068177762670822,0.5602930024341537 l -22.681609915635274 39.94464146623923" fill="#37ff78" stroke="none" /><path d="M 110.36928655335952 81.73862282372117 l 25.302476457191133 -44.56025626266269 a72.24287026563677,72.24287026563677 0 0,0 1.0760859940559313,0.6233384643020662 l -26.06575918371239 44.11811364097057" fill="#3effb4" stroke="none" /><line stroke="#e1ed5e" stroke-width="0.3" x1="143.23703022742887" x2="145.7803849466894" y1="26.81831364943548" y2="22.513508569990506" /><path d="M 143.74570117128098 25.957352633546492 a86.0,86.0 0 0,1 28.547481713284135,27.462654790039103" fill="none" id="id110" stroke="none" /><text fill="#e1ed5e" style="font-size:6.75px; font-family:Arial;" text-anchor="middle"><textPath startOffset="19.985693538727396" xlink:href="#id110">February</textPath></text><path d="M 110.68208982089419 81.91981866633111 l 26.537592075301298 -44.91672368658453 a73.17045006411271,73.17045006411271 0 0,0 1.078873665322733,0.6500093117571123 l -27.306827806841667 44.45326776536881" fill="#3fffbf" stroke="none" /><path d="M 110.99172775467656 82.1063720568725 l 14.645029593856316 -23.84090259668806 a48.97973424515849,48.97973424515849 0 0,0 0.7145929759339497,0.4474780559729537 l -15.05324172216253 23.585280199392162" fill="#b1ff20" stroke="none" /><path d="M 111.2981086023043 82.29822771554956 l 13.975117334966376 -21.896084859867226 a46.975804832893715,46.975804832893715 0 0,0 0.6778675168899508,0.4409038890969236 l -14.349951877640606 21.652282046610775" fill="#c9ff1d" stroke="none" /><path d="M 111.60114157652 82.49532879139004 l 28.349957046757964 -42.77653829224065 a72.3181477921851,72.3181477921851 0 0,0 1.0317227422739317,0.6966238010944418 l -29.082084483438436 42.28220257884754" fill="#3effb5" stroke="none" /><path d="M 111.90073688211348 82.69761687909136 l 22.451672730430705 -32.64230166041453 a60.618145666902016,60.618145666902016 0 0,0 0.8546259670548537,0.5987201054694827 l -23.010229837069208 32.25099671218111" fill="#33ff2f" stroke="none" /><path d="M 112.48926042617603 83.11751280151076 l 6.0622046030346874 -8.19464789050698 a31.193261435794014,31.193261435794014 0 0,0 0.428913057924087,0.3230484229282005 l -6.202363814717158 8.089082878072931" fill="#ff6809" stroke="none" /><path d="M 112.77801427241765 83.33499621200491 l 19.31335182453041 -25.18834886649291 a52.7404864064533,52.7404864064533 0 0,0 0.7156819833759903,0.558601139984476 l -19.74406636306583 24.852169337285208" fill="#86ff25" stroke="none" /><path d="M 113.06298171725822 83.55741782278167 l 16.028421359042188 -20.175228065958635 a46.767229551825025,46.767229551825025 0 0,0 0.6260052040748719,0.5061860059513638 l -16.373329961681552 19.89633596274314" fill="#cbff1d" stroke="none" /><path d="M 113.34407831869373 83.78471172551755 l 11.771740011537945 -14.30463410215003 a39.52556125183896,39.52556125183896 0 0,0 0.521629114209901,0.43684938190054867 l -12.016226662706963 14.099883562855663" fill="#ffd914" stroke="none" /><path d="M 113.6212207817346 84.01681056812373 l 28.392647677989025 -33.31603485337752 a64.77328660859133,64.77328660859133 0 0,0 0.8423802978493714,0.7305038933416785 l -28.961921774485162 32.822365966616175" fill="#34ff5f" stroke="none" /><path d="M 113.89432698308785 84.25364557470407 l 19.119583228512315 -21.668104856503902 a49.89749523582377,49.89749523582377 0 0,0 0.6391370459484775,0.5738235504467 l -19.489731262056782 21.335782297287903" fill="#a6ff21" stroke="none" /><path d="M 114.16331599549186 84.49514656593476 l 28.02468495585443 -30.67915966251703 a62.55230203578504,62.55230203578504 0 0,0 0.7887312585504492,0.7330397457847918 l -28.548624098199724 30.192215330657596" fill="#31ff43" stroke="none" /><path d="M 114.42810811169701 84.74124197986012 l 6.955472926676809 -7.3559109401012455 a31.123637162227578,31.123637162227578 0 0,0 0.3861061428803585,0.3714338035394088 l -7.081062313169586 7.235094049799535" fill="#ff6709" stroke="none" /><path d="M 116.38621287248628 86.86637796730983 l 11.639441518719606 -9.32906381529693 a35.91670307197862,35.91670307197862 0 0,0 0.382505908598393,0.4857436598367714 l -11.798301507911964 9.12732776150712" fill="#ffa90f" stroke="none" /><path d="M 116.60985879189232 87.15038557335679 l 12.047641778342568 -9.320220812327765 a36.231946310626654,36.231946310626654 0 0,0 0.37737135193534355,0.49657646417425566 l -12.206289070502025 9.111459572272476" fill="#ffad10" stroke="none" /><path d="M 117.04232023915458 87.72973835380427 l 48.34950918854631 -34.81105388722809 a80.57755039872671,80.57755039872671 0 0,0 0.800738947396708,1.13258845456588 l -48.94156075574689 33.973638932330424" fill="#49f3ff" stroke="none" /><path d="M 117.2510076193507 88.02491185347247 l 51.75302285805209 -35.92526443958259 a84.0,84.0 0 0,0 0.8143021373250665,1.1948879069183742 l -52.36374946104589 35.02909850939381" fill="#4dd2ff" stroke="none" /><line stroke="#e1ed5e" stroke-width="0.3" x1="172.23445277983987" x2="176.4835382374775" y1="55.19839476539836" y2="52.563006222186495" /><path d="M 173.08426987136738 54.67131705675599 a86.0,86.0 0 0,1 12.851231095245387,41.99856678651699" fill="none" id="id111" stroke="none" /><text fill="#e1ed5e" style="font-size:6.75px; font-family:Arial;" text-anchor="middle"><textPath startOffset="22.20632615414155" xlink:href="#id111">March</textPath></text><line stroke="#e1ed5e" stroke-width="0.3" x1="184.98032266829074" x2="189.97916517819016" y1="98.17113171792111" y2="98.06355123074" /><path d="M 185.9800911702706 98.14961562048488 a86.0,86.0 0 0,1 -9.607161424134198,41.387399972396054" fill="none" id="id112" stroke="none" /><text fill="#e1ed5e" style="font-size:6.75px; font-family:Arial;" text-anchor="middle"><textPath startOffset="21.466115282336823" xlink:href="#id112">April</textPath></text><line stroke="#e1ed5e" stroke-width="0.3" x1="174.80103733775053" x2="179.2010983576182" y1="140.37084112569926" y2="142.7455964860345" /><path d="M 175.68104954172406 140.8457921977663 a86.0,86.0 0 0,1 -30.038265399797805,32.042727171017184" fill="none" id="id113" stroke="none" /><text fill="#e1ed5e" style="font-size:6.75px; font-family:Arial;" text-anchor="middle"><textPath startOffset="22.206326154141568" xlink:href="#id113">May</textPath></text><line stroke="#e1ed5e" stroke-width="0.3" x1="143.8653032363475" x2="146.44561519142675" y1="172.8068346515853" y2="177.08958963109032" /><path d="M 144.38136562736335 173.6633856474863 a86.0,86.0 0 0,1 -40.68145358897372,12.25698825130547" fill="none" id="id114" stroke="none" /><text fill="#e1ed5e" style="font-size:6.75px; font-family:Arial;" text-anchor="middle"><textPath startOffset="21.466115282336833" xlink:href="#id114">June</textPath></text><line stroke="#e1ed5e" stroke-width="0.3" x1="102.19456741930631" x2="102.32365962044197" y1="184.97166512339345" y2="189.96999836594603" /><path d="M 102.22038585953345 185.97133177190398 a86.0,86.0 0 0,1 -42.740103519485714,-10.115201625700543" fill="none" id="id115" stroke="none" /><text fill="#e1ed5e" style="font-size:6.75px; font-family:Arial;" text-anchor="middle"><textPath startOffset="22.20632615414155" xlink:href="#id115">July</textPath></text><line stroke="#e1ed5e" stroke-width="0.3" x1="58.666819895761336" x2="56.23545636021788" y1="174.27360380694188" y2="178.64263932499728" /><path d="M 58.180547188652646 175.14741091055294 a86.0,86.0 0 0,1 -31.652253787137756,-30.449443065178592" fill="none" id="id116" stroke="none" /><text fill="#e1ed5e" style="font-size:6.75px; font-family:Arial;" text-anchor="middle"><textPath startOffset="22.20632615414155" xlink:href="#id116">August</textPath></text><line stroke="#e1ed5e" stroke-width="0.3" x1="26.63291911575756" x2="22.317208475507996" y1="142.92168965132927" y2="145.44649492493687" /><path d="M 25.769776987707644 143.4266507060508 a86.0,86.0 0 0,1 -11.730757126820373,-40.83630448921669" fill="none" id="id117" stroke="none" /><text fill="#e1ed5e" style="font-size:6.75px; font-family:Arial;" text-anchor="middle"><textPath startOffset="21.46611528233685" xlink:href="#id117">September</textPath></text><line stroke="#e1ed5e" stroke-width="0.3" x1="15.007084014347285" x2="10.007500721073583" y1="101.09737516637583" y2="101.16192664675087" /><path d="M 14.007167355692545 101.11028546245083 a86.0,86.0 0 0,1 10.666146001902534,-42.60595125391555" fill="none" id="id118" stroke="none" /><text fill="#e1ed5e" style="font-size:6.75px; font-family:Arial;" text-anchor="middle"><textPath startOffset="22.20632615414155" xlink:href="#id118">October</textPath></text><line stroke="#e1ed5e" stroke-width="0.3" x1="26.266209847984243" x2="21.928928074336255" y1="57.711370442889674" y2="55.22380399835377" /><path d="M 25.398753493254645 57.213857153982495 a86.0,86.0 0 0,1 29.58750427330803,-30.492523968695096" fill="none" id="id119" stroke="none" /><text fill="#e1ed5e" style="font-size:6.75px; font-family:Arial;" text-anchor="middle"><textPath startOffset="21.46611528233685" xlink:href="#id119">November</textPath></text><line stroke="#e1ed5e" stroke-width="0.3" x1="56.762969772571076" x2="54.21961505331055" y1="26.818313649435495" y2="22.513508569990535" /><path d="M 56.25429882871897 25.957352633546506 a86.0,86.0 0 0,1 42.265352541879196,-11.944610805530505" fill="none" id="id120" stroke="none" /><text fill="#e1ed5e" style="font-size:6.75px; font-family:Arial;" text-anchor="middle"><textPath startOffset="22.20632615414155" xlink:href="#id120">December</textPath></text></svg>