<?xml version="1.0" encoding="utf-8" ?>
<svg baseProfile="full" height="200mm" version="1.1" viewBox="0,0,200,200" width="200mm" xmlns="http://www.w3.org/2000/svg" xmlns:ev="http://www.w3.org/2001/xml-events" xmlns:xlink="http://www.w3.org/1999/xlink"><defs /><rect fill="#1a1a1a" height="200" width="200" x="0" y="0" /><text alignment-baseline="middle" fill="#e1ed5e" style="dominant-baseline: central; font-size:9.0px; font-family:Arial;" text-anchor="middle" x="100.0" y="100.0">2019</text><line stroke="#e1ed5e" stroke-width="0.3" x1="100.0" x2="100.0" y1="15.0" y2="10.0" /><path d="M 100.0 14.0 a86.0,86.0 0 0,1 42.46469731375804,11.215312516191453" fill="none" id="id25" stroke="none" /><text fill="#e1ed5e" style="font-size:6.75px; font-family:Arial;" text-anchor="middle"><textPath startOffset="22.20632615414155" xlink:href="#id25">January</textPath></text><line stroke="#e1ed5e" stroke-width="0.3" x1="143.23703022742887" x2="145.7803849466894" y1="26.81831364943548" y2="22.513508569990506" /><path d="M 143.74570117128098 25.957352633546492 a86.0,86.0 0 0,1 28.547481713284135,27.462654790039103" fill="none" id="id26" stroke="none" /><text fill="#e1ed5e" style="font-size:6.75px; font-family:Arial;" text-anchor="middle"><textPath startOffset="19.985693538727396" xlink:href="#id26">February</textPath></text><path d="M 117.65298651832404 88.62581576622439 l 25.941918666824613 -16.71491461163248 a51.86051708235473,51.86051708235473 0 0,0 0.477048606891721,0.7545763326319562 l -26.22579486996229 16.265890631286318" fill="#ff940d" stroke="none" /><line stroke="#e1ed5e" stroke-width="0.3" x1="172.23445277983987" x2="176.4835382374775" y1="55.19839476539836" y2="52.563006222186495" /><path d="M 173.08426987136738 54.67131705675599 a86.0,86.0 0 0,1 12.851231095245387,41.99856678651699" fill="none" id="id27" stroke="none" /><text fill="#e1ed5e" style="font-size:6.75px; font-family:Arial;" text-anchor="middle"><textPath startOffset="22.20632615414155" xlink:href="#id27">March</textPath></text><path d="M 118.89224826269711 90.83032412892265 l 29.733370386609625 -14.431599945584042 a54.050633753934214,54.050633753934214 0 0,0 0.39905275624798564,0.8405068757991728 l -29.977381336699366 13.91765065414433" fill="#ffc112" stroke="none" /><path d="M 119.85752413597 93.16781622104841 l 22.903551686070962 -7.880200635209221 a45.22127663620718,45.22127663620718 0 0,0 0.2469139980096639,0.7382414262420269 l -23.035802977852395 7.48478610604488" fill="#ff0000" stroke="none" /><line stroke="#e1ed5e" stroke-width="0.3" x1="184.98032266829074" x2="189.97916517819016" y1="98.17113171792111" y2="98.06355123074" /><path d="M 185.9800911702706 98.14961562048488 a86.0,86.0 0 0,1 -9.607161424134198,41.387399972396054" fill="none" id="id28" stroke="none" /><text fill="#e1ed5e" style="font-size:6.75px; font-family:Arial;" text-anchor="middle"><textPath startOffset="21.466115282336823" xlink:href="#id28">April</textPath></text><path d="M 120.99980553446 99.90962569577887 l 30.1509659539715 -0.12975703823607931 a51.1512451624559,51.1512451624559 0 0,0 -0.003789339559263263,0.8805090621098777 l -30.148732317122732 -0.3892615020774831" fill="#ff850c" stroke="none" /><path d="M 120.99824983174949 100.27111621757518 l 30.37215831160511 0.3921462382348959 a51.37468977911322,51.37468977911322 0 0,0 -0.019028053175196704,0.8841588617521434 l -30.360908195744905 -0.9148949157771542" fill="#ff8a0c" stroke="none" /><path d="M 119.26925614724726 108.34839909993367 l 33.67974353135873 14.591738177882869 a57.704821854764326,57.704821854764326 0 0,0 -0.4027217188956856,0.9080311606809516 l -33.423580727731775 -15.169317675056508" fill="#f4ff19" stroke="none" /><path d="M 118.64920377521936 109.65438752849418 l 27.857566223892334 14.421406037909172 a52.369108180322726,52.369108180322726 0 0,0 -0.42131568921736945,0.7969705070362398 l -27.605198026450072 -14.898791560031546" fill="#ff9f0e" stroke="none" /><line stroke="#e1ed5e" stroke-width="0.3" x1="174.80103733775053" x2="179.2010983576182" y1="140.37084112569926" y2="142.7455964860345" /><path d="M 175.68104954172406 140.8457921977663 a86.0,86.0 0 0,1 -30.038265399797805,32.042727171017184" fill="none" id="id29" stroke="none" /><text fill="#e1ed5e" style="font-size:6.75px; font-family:Arial;" text-anchor="middle"><textPath startOffset="22.206326154141568" xlink:href="#id29">May</textPath></text><path d="M 117.14729908036423 112.12312394758627 l 48.97073742040751 34.622264227731115 a80.97361339583709,80.97361339583709 0 0,0 -0.8144411158841134,1.131187476930034 l -48.367516512147795 -35.460085310112284" fill="#47ffff" stroke="none" /><path d="M 116.27256486870786 113.27417163493432 l 24.72287328460583 20.16742080528879 a52.905255450854355,52.905255450854355 0 0,0 -0.5817159576312471,0.7007143449131178 l -24.372061327081035 -20.589996407315677" fill="#ffaa0f" stroke="none" /><path d="M 115.80600337817218 113.82643327865902 l 22.588335425742 19.759334802578557 a51.01106811071914,51.01106811071914 0 0,0 -0.5838123233522478,0.6559193342381974 l -22.24486425274141 -20.14522830655762" fill="#ff820b" stroke="none" /><path d="M 114.81725581225074 114.88116024355365 l 22.505485153801775 22.602547676590966 a52.896269742409686,52.896269742409686 0 0,0 -0.6507501812902085,0.6368960171499123 l -22.11308502013577 -22.98659379666345" fill="#ffaa0f" stroke="none" /><path d="M 113.20401910651253 116.32954008644616 l 18.871726947434 23.33885002760976 a51.01406334686736,51.01406334686736 0 0,0 -0.6875784950653913,0.5462539407383156 l -18.46719095965126 -23.6602378823532" fill="#ff820c" stroke="none" /><path d="M 112.34349029814194 116.9893568818739 l 18.14569481941426 24.975406283829216 a51.87129993248832,51.87129993248832 0 0,0 -0.7268717161469196,0.518603669829785 l -17.713095775418456 -25.284054215503218" fill="#ff940d" stroke="none" /><path d="M 111.45004920935366 117.60387380957326 l 34.35014762806101 52.81162142871979 a84.0,84.0 0 0,0 -1.2188727918122781,0.7779422847047646 l -33.4359930342018 -53.39507814224836" fill="#4dd2ff" stroke="none" /><line stroke="#e1ed5e" stroke-width="0.3" x1="143.8653032363475" x2="146.44561519142675" y1="172.8068346515853" y2="177.08958963109032" /><path d="M 144.38136562736335 173.6633856474863 a86.0,86.0 0 0,1 -40.68145358897372,12.25698825130547" fill="none" id="id30" stroke="none" /><text fill="#e1ed5e" style="font-size:6.75px; font-family:Arial;" text-anchor="middle"><textPath startOffset="21.466115282336833" xlink:href="#id30">June</textPath></text><path d="M 110.21172684928248 118.3499491758327 l 14.632597576040718 26.294027033207033 a51.091340439491475,51.091340439491475 0 0,0 -0.7721536174546382,0.42103971796086076 l -14.17782114671743 -26.542007402927666" fill="#ff830c" stroke="none" /><path d="M 106.91757812671514 119.82793768551818 l 9.878007146741078 28.313451120456108 a50.98710622153337,50.98710622153337 0 0,0 -0.831163318551214,0.281975724917953 l -9.389174095252638 -28.479289832272187" fill="#ff810b" stroke="none" /><path d="M 104.48393922423573 120.51570834832081 l 6.403002280925088 29.29614358711168 a50.98770526876301,50.98770526876301 0 0,0 -0.8590421660100306,0.18002063819793343 l -5.89776865348568 -29.402020206036156" fill="#ff810b" stroke="none" /><path d="M 102.70371172650421 120.8252237178851 l 3.8591656220798636 29.725057836730606 a50.97452622971083,50.97452622971083 0 0,0 -0.8711123612757778,0.10547957551370549 l -3.3469258377527056 -29.787082940969665" fill="#ff810b" stroke="none" /><line stroke="#e1ed5e" stroke-width="0.3" x1="102.19456741930631" x2="102.32365962044197" y1="184.97166512339345" y2="189.96999836594603" /><path d="M 102.22038585953345 185.97133177190398 a86.0,86.0 0 0,1 -42.740103519485714,-10.115201625700543" fill="none" id="id31" stroke="none" /><text fill="#e1ed5e" style="font-size:6.75px; font-family:Arial;" text-anchor="middle"><textPath startOffset="22.20632615414155" xlink:href="#id31">July</textPath></text><path d="M 100.54218724476979 120.99299961872073 l 1.5557407906540293 60.23687598717889 a81.25696273545883,81.25696273545883 0 0,0 -1.3985496099754364,0.02407729984989854 l -0.518631490785925 -60.25473076430795" fill="#48fbff" stroke="none" /><path d="M 98.01472825383883 120.90594882070398 l -3.6024167574921395 37.93533077202357 a59.1059933249023,59.1059933249023 0 0,0 -1.012028025946774,-0.104900842822319 l 4.2548773800445066 -37.86770056074549" fill="#daff1c" stroke="none" /><path d="M 97.2962882734958 120.8252237178851 l -3.8658756048749945 29.776741191683854 a51.02664333868989,51.02664333868989 0 0,0 -0.8700562889186567,-0.12058187367316014 l 4.3778604849804825 -29.705784752518092" fill="#ff820c" stroke="none" /><path d="M 95.51606077576429 120.51570834832081 l -6.403258099150801 29.297314051706955 a50.988903363222306,50.988903363222306 0 0,0 -0.8558362400043029,-0.19478554186139846 l 6.906614488547967 -29.18275177626787" fill="#ff810b" stroke="none" /><path d="M 92.06813273071674 119.44442032107085 l -11.356462106343132 27.839576112322316 a51.06677950307606,51.06677950307606 0 0,0 -0.8110584969440889,-0.3390225175014221 l 11.833992062784683 -27.639968551800923" fill="#ff830c" stroke="none" /><path d="M 90.7491055286396 118.85261126421891 l -13.312009611601782 27.128851499715392 a51.218937499405705,51.218937499405705 0 0,0 -0.7881523574082798,-0.395195953779058 l 13.777015876692822 -26.895687705027033" fill="#ff860c" stroke="none" /><line stroke="#e1ed5e" stroke-width="0.3" x1="58.666819895761336" x2="56.23545636021788" y1="174.27360380694188" y2="178.64263932499728" /><path d="M 58.180547188652646 175.14741091055294 a86.0,86.0 0 0,1 -31.652253787137756,-30.449443065178592" fill="none" id="id32" stroke="none" /><text fill="#e1ed5e" style="font-size:6.75px; font-family:Arial;" text-anchor="middle"><textPath startOffset="22.20632615414155" xlink:href="#id32">August</textPath></text><path d="M 87.65650970185807 116.9893568818739 l -21.147794288314905 29.107441716280192 a56.97877661243546,56.97877661243546 0 0,0 -0.7885185167017594,-0.5833271478406135 l 21.645697775435227 -28.739104619699813" fill="#fffc17" stroke="none" /><path d="M 83.06392112726016 112.41649034213515 l -24.246805360951637 17.77626491079175 a51.06498236138712,51.06498236138712 0 0,0 -0.5136169607956252,-0.7133690363362555 l 24.549202114122867 -17.356262269004354" fill="#ff830c" stroke="none" /><line stroke="#e1ed5e" stroke-width="0.3" x1="26.63291911575756" x2="22.317208475507996" y1="142.92168965132927" y2="145.44649492493687" /><path d="M 25.769776987707644 143.4266507060508 a86.0,86.0 0 0,1 -11.730757126820373,-40.83630448921669" fill="none" id="id33" stroke="none" /><text fill="#e1ed5e" style="font-size:6.75px; font-family:Arial;" text-anchor="middle"><textPath startOffset="21.46611528233685" xlink:href="#id33">September</textPath></text><path d="M 81.69416730710424 110.29060199501025 l -26.2631875813658 14.763819546161209 a51.128481367729414,51.128481367729414 0 0,0 -0.4246672999738381,-0.7708945024081312 l 26.51343129079115 -14.309554525355255" fill="#ff840c" stroke="none" /><path d="M 79.23777060512086 103.15116336523772 l -59.09793573200411 8.969520878417631 a80.77472971559519,80.77472971559519 0 0,0 -0.19680550951314987,-1.37645727515643 l 59.243575292533855 -7.9509181312808" fill="#47fffc" stroke="none" /><line stroke="#e1ed5e" stroke-width="0.3" x1="15.007084014347285" x2="10.007500721073583" y1="101.09737516637583" y2="101.16192664675087" /><path d="M 14.007167355692545 101.11028546245083 a86.0,86.0 0 0,1 10.666146001902534,-42.60595125391555" fill="none" id="id34" stroke="none" /><text fill="#e1ed5e" style="font-size:6.75px; font-family:Arial;" text-anchor="middle"><textPath startOffset="22.20632615414155" xlink:href="#id34">October</textPath></text><path d="M 79.46518482838121 95.60439243477599 l -29.32225630794038 -6.276615132857783 a50.986507174303725,50.986507174303725 0 0,0 0.19109163341802776,-0.8566263233091418 l 29.209870287520314 6.780419625716884" fill="#ff810b" stroke="none" /><path d="M 80.14247586403 93.16781622104843 l -33.32522566327606 -11.465883896074809 a56.24254756720264,56.24254756720264 0 0,0 0.3228507541254295,-0.9127425574627092 l 33.12292182834082 12.03782407996413" fill="#ffed16" stroke="none" /><line stroke="#e1ed5e" stroke-width="0.3" x1="26.266209847984243" x2="21.928928074336255" y1="57.711370442889674" y2="55.22380399835377" /><path d="M 25.398753493254645 57.213857153982495 a86.0,86.0 0 0,1 29.58750427330803,-30.492523968695096" fill="none" id="id35" stroke="none" /><text fill="#e1ed5e" style="font-size:6.75px; font-family:Arial;" text-anchor="middle"><textPath startOffset="21.46611528233685" xlink:href="#id35">November</textPath></text><path d="M 84.5562425177563 85.77008943001954 l -22.171536208379397 -20.428900013941824 a51.14824992630768,51.14824992630768 0 0,0 0.6021675621812133,-0.6423503704158263 l 21.81660132422773 20.807519801235703" fill="#ff850c" stroke="none" /><path d="M 85.57189188830299 84.74124197986013 l -20.64964409501258 -21.838478060222045 a51.05539760571281,51.05539760571281 0 0,0 0.6437650845577014,-0.5983094860429212 l 20.27067112666002 22.190692132339613" fill="#ff830c" stroke="none" /><path d="M 87.51073957382395 83.11751280151077 l -17.86726538647546 -24.15226113204999 a51.04281761389029,51.04281761389029 0 0,0 0.7108433846515193,-0.5164579497006034 l 17.448876685470157 24.456238316567262" fill="#ff820c" stroke="none" /><line stroke="#e1ed5e" stroke-width="0.3" x1="56.762969772571076" x2="54.21961505331055" y1="26.818313649435495" y2="22.513508569990535" /><path d="M 56.25429882871897 25.957352633546506 a86.0,86.0 0 0,1 42.265352541879196,-11.944610805530505" fill="none" id="id36" stroke="none" /><text fill="#e1ed5e" style="font-size:6.75px; font-family:Arial;" text-anchor="middle"><textPath startOffset="22.20632615414155" xlink:href="#id36">December</textPath></text><path d="M 90.26544431104013 81.39251694778311 l -13.90386347465139 -26.57706342553747 a50.994294788289096,50.994294788289096 0 0,0 0.7812799781399514,-0.4002019498822668 l 13.444323008922675 26.812457900732245" fill="#ff810b" stroke="none" /><path d="M 92.57280143429618 80.3572730644239 l -10.612503242160678 -28.066908598790704 a51.00627573288199,51.00627573288199 0 0,0 0.823915725005298,-0.3034551148302836 l 10.12780519138281 28.24542698142731" fill="#ff820b" stroke="none" /><path d="M 94.63758080256005 79.69619591428918 l -7.65761232203573 -28.994126461647202 a50.98830431599266,50.98830431599266 0 0,0 0.8505118944245956,-0.21681441932611267 l 7.157391538926135 29.121643877142176" fill="#ff810b" stroke="none" /><path d="M 95.33964822691252 79.52364482259891 l -6.677649915720262 -29.339830571211213 a51.090142345032184,51.090142345032184 0 0,0 0.8591835949133529,-0.18778425568558052 l 6.171623596653388 29.450428324992664" fill="#ff830c" stroke="none" /></svg>