<?xml version="1.0" encoding="utf-8" ?>
<svg baseProfile="full" height="200mm" version="1.1" viewBox="0,0,200,200" width="200mm" xmlns="http://www.w3.org/2000/svg" xmlns:ev="http://www.w3.org/2001/xml-events" xmlns:xlink="http://www.w3.org/1999/xlink"><defs /><rect fill="#1a1a1a" height="200" width="200" x="0" y="0" /><text alignment-baseline="middle" fill="#e1ed5e" style="dominant-baseline: central; font-size:9.0px; font-family:Arial;" text-anchor="middle" x="100.0" y="100.0">2024</text><line stroke="#e1ed5e" stroke-width="0.3" x1="100.0" x2="100.0" y1="15.0" y2="10.0" /><path d="M 100.0 14.0 a86.0,86.0 0 0,1 42.35913384403234,11.155469271406648" fill="none" id="id85" stroke="none" /><text fill="#e1ed5e" style="font-size:6.75px; font-family:Arial;" text-anchor="middle"><textPath startOffset="22.145653131862478" xlink:href="#id85">January</textPath></text><path d="M 100.0 79.0 l 0.0 -20.17112514997001 a41.17112514997001,41.17112514997001 0 0,0 0.7067571106967111,0.006066659777472426 l -0.34626418584785634 20.168152888386974" fill="#ff0a01" stroke="none" /><path d="M 100.36049292484886 79.00309439819443 l 1.013842424847446 -59.05123851890516 a80.05994113677264,80.05994113677264 0 0,0 1.3739303267606198,0.03538757155096548 l -2.027386065678807 59.025133230004144" fill="#46fff7" stroke="none" /><path d="M 100.72087961077811 79.0123766808444 l 0.6764327556519658 -19.693601627930676 a40.705215206958606,40.705215206958606 0 0,0 0.6981414250831233,0.029981196710736135 l -1.0143999413359253 19.67908786279411" fill="#ff0000" stroke="none" /><path d="M 101.08105385017728 79.02784411241856 l 1.5452398586938958 -29.977240444514788 a51.017040341931605,51.017040341931605 0 0,0 0.8742271478347667,0.0525913343162253 l -2.059611358661125 29.94629713237387" fill="#ffca12" stroke="none" /><path d="M 101.44090949804482 79.04949213459386 l 1.3619274312278709 -19.802125948068706 a40.848905218956205,40.848905218956205 0 0,0 0.6991601459609829,0.05411941709517946 l -1.7016565719640873 19.77582876397847" fill="#ff0300" stroke="none" /><path d="M 101.80034050326958 79.07731436759882 l 1.7883256333842334 -20.783054632004983 a41.85985302939412,41.85985302939412 0 0,0 0.7154056918518447,0.06774966282286304 l -2.144830888621091 20.749293213676935" fill="#ff1802" stroke="none" /><path d="M 102.15924093988457 79.11130261209362 l 2.6321618217296 -25.463777920517426 a46.59945823335333,46.59945823335333 0 0,0 0.7949958518982697,0.08908094340786404 l -3.0688935752286666 25.414841216602593" fill="#ff770a" stroke="none" /><path d="M 102.51750503828377 79.15144685158666 l 2.36943455130088 -19.622317104938027 a40.76485640371925,40.76485640371925 0 0,0 0.6940162024650864,0.08985429209753275 l -2.705928575656758 19.578751216640097" fill="#ff0100" stroke="none" /><path d="M 102.87502721639298 79.19773525538626 l 5.455405104051325 -39.472593725902584 a60.84779919016197,60.84779919016197 0 0,0 1.0334705881026665,0.15188458693682963 l -6.132200797761673 39.37312806566687" fill="#8eff24" stroke="none" /><path d="M 103.23170211078529 79.25015418208739 l 3.0390201116222695 -19.512689162546117 a40.74792853929215,40.74792853929215 0 0,0 0.6902359469243834,0.11357806240082498 l -3.3735335615997233 19.45764510164962" fill="#ff0100" stroke="none" /><path d="M 103.58742460773223 79.30868818359171 l 10.093027872689646 -58.21390265189082 a80.08238039892021,80.08238039892021 0 0,0 1.352497084859472,0.24647002290977138 l -11.090859691100173 58.03206445504968" fill="#46fff7" stroke="none" /><path d="M 104.29559338865022 79.4440306129975 l 4.367060453970159 -20.89796516592731 a42.34938324835032,42.34938324835032 0 0,0 0.710335448241383,0.15481430480534147 l -4.725158318830676 20.819919402988248" fill="#ff2203" stroke="none" /><path d="M 104.64783097203109 79.52079915486377 l 6.667577705734076 -29.378577622114015 a51.12569361127774,51.12569361127774 0 0,0 0.8542077145687401,0.2015906947512013 l -7.170917574042702 29.259790783716586" fill="#ffcc13" stroke="none" /><path d="M 104.9986988182912 79.60360301121754 l 4.758949813218501 -19.418139233537264 a40.99279206658669,40.99279206658669 0 0,0 0.6820316459036873,0.17336977732471312 l -5.091586752347582 19.333584224377287" fill="#ff0601" stroke="none" /><path d="M 105.3480935250658 79.69241777938227 l 16.04428057519741 -60.92274666185318 a84.0,84.0 0 0,0 1.3912743962612288,0.3791980234234318 l -17.08773637239333 60.63834814428561" fill="#4dd2ff" stroke="none" /><line stroke="#e1ed5e" stroke-width="0.3" x1="143.13028292997686" x2="145.6673583964461" y1="26.7553504044142" y2="22.446841604673864" /><path d="M 143.63769802327073 25.89364864446614 a86.0,86.0 0 0,1 29.32050498858742,28.57503671076993" fill="none" id="id86" stroke="none" /><text fill="#e1ed5e" style="font-size:6.75px; font-family:Arial;" text-anchor="middle"><textPath startOffset="20.669276256404974" xlink:href="#id86">February</textPath></text><line stroke="#e1ed5e" stroke-width="0.3" x1="172.87174338648825" x2="177.1583165268699" y1="56.24261187166439" y2="53.66864786411523" /><path d="M 173.72905801456457 55.72781907015455 a86.0,86.0 0 0,1 12.242430191666344,42.057860355516425" fill="none" id="id87" stroke="none" /><text fill="#e1ed5e" style="font-size:6.75px; font-family:Arial;" text-anchor="middle"><textPath startOffset="22.145653131862474" xlink:href="#id87">March</textPath></text><line stroke="#e1ed5e" stroke-width="0.3" x1="184.99686870605535" x2="189.99668451229388" y1="99.2704041080226" y2="99.22748670261217" /><path d="M 185.99683186730306 99.26182062694052 a86.0,86.0 0 0,1 -10.086455211305974,41.156179273409016" fill="none" id="id88" stroke="none" /><text fill="#e1ed5e" style="font-size:6.75px; font-family:Arial;" text-anchor="middle"><textPath startOffset="21.40746469413373" xlink:href="#id88">April</textPath></text><line stroke="#e1ed5e" stroke-width="0.3" x1="174.33088141563837" x2="178.70328620479359" y1="141.23008692659167" y2="143.65538615756765" /><path d="M 175.20536237346943 141.71514677278685 a86.0,86.0 0 0,1 -30.301960400862466,31.631185727798858" fill="none" id="id89" stroke="none" /><text fill="#e1ed5e" style="font-size:6.75px; font-family:Arial;" text-anchor="middle"><textPath startOffset="22.145653131862474" xlink:href="#id89">May</textPath></text><line stroke="#e1ed5e" stroke-width="0.3" x1="143.1302829299769" x2="145.66735839644613" y1="173.24464959558577" y2="177.55315839532614" /><path d="M 143.63769802327073 174.10635135553383 a86.0,86.0 0 0,1 -40.68552437913181,11.842963189579606" fill="none" id="id90" stroke="none" /><text fill="#e1ed5e" style="font-size:6.75px; font-family:Arial;" text-anchor="middle"><textPath startOffset="21.407464694133747" xlink:href="#id90">June</textPath></text><line stroke="#e1ed5e" stroke-width="0.3" x1="101.45913802915013" x2="101.54496967792366" y1="184.9874750549273" y2="189.98673829345242" /><path d="M 101.47630435890484 185.9873277026323 a86.0,86.0 0 0,1 -42.54439059252881,-10.42667462771756" fill="none" id="id91" stroke="none" /><text fill="#e1ed5e" style="font-size:6.75px; font-family:Arial;" text-anchor="middle"><textPath startOffset="22.145653131862474" xlink:href="#id91">July</textPath></text><line stroke="#e1ed5e" stroke-width="0.3" x1="58.13341422392154" x2="55.67067388415222" y1="173.97424548756322" y2="178.32567169271397" /><path d="M 57.64086615596768 174.84453072859336 a86.0,86.0 0 0,1 -31.369924170532247,-30.572349798747897" fill="none" id="id92" stroke="none" /><text fill="#e1ed5e" style="font-size:6.75px; font-family:Arial;" text-anchor="middle"><textPath startOffset="22.145653131862474" xlink:href="#id92">August</textPath></text><line stroke="#e1ed5e" stroke-width="0.3" x1="26.387840678322732" x2="22.057713659400548" y1="142.50000000000003" y2="145.00000000000006" /><path d="M 25.521815274538298 143.00000000000003 a86.0,86.0 0 0,1 -11.493303480769221,-40.785679425670985" fill="none" id="id93" stroke="none" /><text fill="#e1ed5e" style="font-size:6.75px; font-family:Arial;" text-anchor="middle"><textPath startOffset="21.40746469413373" xlink:href="#id93">September</textPath></text><line stroke="#e1ed5e" stroke-width="0.3" x1="15.003131293944662" x2="10.003315487706104" y1="100.72959589197737" y2="100.7725132973878" /><path d="M 14.003168132696942 100.73817937305945 a86.0,86.0 0 0,1 10.791469493833604,-42.45332614584628" fill="none" id="id94" stroke="none" /><text fill="#e1ed5e" style="font-size:6.75px; font-family:Arial;" text-anchor="middle"><textPath startOffset="22.145653131862435" xlink:href="#id94">October</textPath></text><line stroke="#e1ed5e" stroke-width="0.3" x1="26.387840678322718" x2="22.05771365940052" y1="57.49999999999999" y2="54.99999999999999" /><path d="M 25.521815274538284 56.99999999999999 a86.0,86.0 0 0,1 29.574782752854787,-30.34633250058573" fill="none" id="id95" stroke="none" /><text fill="#e1ed5e" style="font-size:6.75px; font-family:Arial;" text-anchor="middle"><textPath startOffset="21.40746469413373" xlink:href="#id95">November</textPath></text><line stroke="#e1ed5e" stroke-width="0.3" x1="56.869717070023135" x2="54.33264160355391" y1="26.7553504044142" y2="22.446841604673864" /><path d="M 56.362301976729285 25.89364864446614 a86.0,86.0 0 0,1 42.16139366436587,-11.88097634709845" fill="none" id="id96" stroke="none" /><text fill="#e1ed5e" style="font-size:6.75px; font-family:Arial;" text-anchor="middle"><textPath startOffset="22.145653131862474" xlink:href="#id96">December</textPath></text></svg>